<?xml version="1.0" encoding="utf-8"?>
<!-- Generator: Adobe Illustrator 23.0.2, SVG Export Plug-In . SVG Version: 6.00 Build 0)  -->
<svg version="1.1" id="Layer_1" xmlns="http://www.w3.org/2000/svg" xmlns:xlink="http://www.w3.org/1999/xlink" x="0px" y="0px"
	 viewBox="0 0 334.7 271.1" style="enable-background:new 0 0 334.7 271.1;" xml:space="preserve">
<style type="text/css">
	.st0{fill:none;stroke:#000000;stroke-width:10;stroke-linecap:round;stroke-linejoin:round;}
	.st1{fill:#FFFFFF;stroke:#000000;stroke-width:10;stroke-linecap:round;stroke-linejoin:round;}
</style>
<title>3D</title>
<g>
	<g id="Layer_3">
		<path class="st0" d="M115.7,91.7"/>
		<line class="st0" x1="39.1" y1="198.7" x2="118.8" y2="176.3"/>
		<polygon class="st0" points="39.1,198.7 29.9,106.8 115.7,91.7 169.3,113.5 169.3,206.9 82,234 		"/>
		<polyline class="st1" points="29.9,106.8 76.9,132.9 169.3,113.5 76.9,132.9 82,234 169.3,206.9 118.8,176.3 		"/>
		<polyline class="st0" points="7.8,235.6 188.3,182 190.5,12.6 188.3,182 327.6,257.2 		"/>
		<polyline class="st0" points="172.4,20.2 189.4,5 208.1,20.2 		"/>
		<polyline class="st0" points="325.4,236.8 329.7,258.4 306.8,266.1 		"/>
		<polyline class="st0" points="24.8,245.3 5,235.6 12.8,212.7 		"/>
		<polygon class="st1" points="169.3,206.9 82,234 76.9,132.9 169.3,113.5 		"/>
	</g>
</g>
<polygon class="st1" points="82,234 39.1,198.7 29.9,106.8 76.9,132.9 "/>
</svg>
