<?xml version="1.0" encoding="utf-8"?>
<!-- Generator: Adobe Illustrator 23.0.2, SVG Export Plug-In . SVG Version: 6.00 Build 0)  -->
<svg version="1.1" id="Layer_1" xmlns="http://www.w3.org/2000/svg" xmlns:xlink="http://www.w3.org/1999/xlink" x="0px" y="0px"
	 viewBox="0 0 305.6 254.3" style="enable-background:new 0 0 305.6 254.3;" xml:space="preserve">
<style type="text/css">
	.st0{fill:none;stroke:#ff756b;stroke-width:10;stroke-linecap:round;stroke-linejoin:round;}
	.st1{fill:none;stroke:#ff756b;stroke-width:10;stroke-linejoin:round;}
	.st2{fill:none;stroke:#ff756b;stroke-width:7;stroke-linecap:round;stroke-linejoin:round;}
</style>
<title>3D</title>
<g>
	<g id="Layer_3">
		<path class="st0" d="M149.5,91"/>
		<path class="st0" d="M152.6,175.6"/>
		<path class="st0" d="M72.9,198"/>
		<polygon class="st0" points="71.9,198 63.7,106.1 149.5,91 204.1,113.8 203.1,206.2 115.8,233.3 		"/>
		<path class="st0" d="M152.6,175.6"/>
		<polyline class="st0" points="63.7,106.1 110.7,132.2 204.1,113.8 110.7,132.2 115.8,233.3 203.1,206.2 		"/>
		<line class="st0" x1="203.1" y1="190.5" x2="298.2" y2="240.1"/>
		<line class="st0" x1="187.1" y1="106.3" x2="188.3" y2="11.9"/>
		<path class="st0" d="M167.1,186.9"/>
		<line class="st1" x1="8.6" y1="236.9" x2="88" y2="210.4"/>
		<polyline class="st2" points="176.9,17.1 188.2,4.3 201.9,21.5 		"/>
		<polyline class="st2" points="298,228.7 301.3,241.2 271.4,242.9 		"/>
		<polyline class="st2" points="26,246.3 4.9,237.2 13.3,227 		"/>
	</g>
</g>
</svg>
