<?xml version="1.0" encoding="utf-8"?>
<!-- Generator: Adobe Illustrator 23.0.2, SVG Export Plug-In . SVG Version: 6.00 Build 0)  -->
<svg version="1.1" id="Layer_1" xmlns="http://www.w3.org/2000/svg" xmlns:xlink="http://www.w3.org/1999/xlink" x="0px" y="0px"
	 viewBox="0 0 334.7 271.1" style="enable-background:new 0 0 334.7 271.1;" xml:space="preserve">
<style type="text/css">
	.st0{fill:none;stroke:#000000;stroke-width:10;stroke-linecap:round;stroke-linejoin:round;}
	.st1{fill:none;stroke:#000000;stroke-width:10;stroke-linejoin:round;}
	.st2{fill:none;stroke:#000000;stroke-width:7;stroke-linecap:round;stroke-linejoin:round;}
</style>
<title>3D</title>
<g>
	<g id="Layer_3">
		<path class="st0" d="M152.7,93.7"/>
		<path class="st0" d="M155.8,178.3"/>
		<path class="st0" d="M76.1,200.7"/>
		<polygon class="st0" points="75.1,200.7 66.9,108.8 152.7,93.7 207.3,116.5 206.3,208.9 119,236 		"/>
		<path class="st0" d="M155.8,178.3"/>
		<polyline class="st0" points="66.9,108.8 113.9,134.9 207.3,116.5 113.9,134.9 119,236 206.3,208.9 		"/>
		<line class="st0" x1="206.3" y1="193.2" x2="301.4" y2="242.8"/>
		<line class="st0" x1="190.3" y1="109" x2="191.5" y2="14.6"/>
		<path class="st0" d="M170.3,189.6"/>
		<line class="st1" x1="11.8" y1="239.6" x2="91.2" y2="213.1"/>
		<polyline class="st2" points="180.1,19.8 191.4,7 205.1,24.2 		"/>
		<polyline class="st2" points="301.2,231.4 304.5,243.9 274.6,245.6 		"/>
		<polyline class="st2" points="29.2,249 8.1,239.9 16.5,229.7 		"/>
	</g>
</g>
</svg>
