<svg xmlns="http://www.w3.org/2000/svg" viewBox="0 0 334.73 271.07"><defs><style>.cls-1,.cls-2{fill:none;stroke:#231f20;stroke-linecap:round;stroke-linejoin:round;}.cls-1{stroke-width:12px;}.cls-2{stroke-width:10px;}</style></defs><title>3D</title><g id="Layer_2" data-name="Layer 2"><g id="Layer_3" data-name="Layer 3"><polygon class="cls-1" points="39.11 198.72 29.92 106.81 115.7 91.66 169.32 113.45 169.32 206.89 82 233.96 39.11 198.72"/><polyline class="cls-1" points="39.11 198.72 118.77 176.25 115.7 91.66"/><line class="cls-1" x1="118.77" y1="176.26" x2="169.32" y2="206.89"/><polyline class="cls-2" points="7.78 235.59 188.32 181.96 190.46 12.62 188.32 181.96 327.6 257.18"/><polyline class="cls-1" points="29.92 106.81 76.89 132.85 169.32 113.45"/><line class="cls-1" x1="76.9" y1="132.85" x2="82" y2="233.96"/><polyline class="cls-2" points="172.43 20.23 189.36 5 208.15 20.23"/><polyline class="cls-2" points="325.42 236.77 329.73 258.39 306.79 266.06"/><polyline class="cls-2" points="24.79 245.28 5 235.56 12.83 212.68"/></g></g></svg>