<?xml version="1.0" encoding="utf-8"?>
<!-- Generator: Adobe Illustrator 23.0.2, SVG Export Plug-In . SVG Version: 6.00 Build 0)  -->
<svg version="1.1" id="Layer_1" xmlns="http://www.w3.org/2000/svg" xmlns:xlink="http://www.w3.org/1999/xlink" x="0px" y="0px"
	 viewBox="0 0 442.5 187.1" style="enable-background:new 0 0 442.5 187.1;" xml:space="preserve">
<style type="text/css">
	.st0{fill:#C00A25;}
	.st1{fill:#83775E;}
</style>
<title>Layer 3</title>
<g>
	<g id="Layer_3">
		<path class="st0" d="M0,0h5v80.6H0V0z"/>
		<path class="st0" d="M442.3,80.8h-25.4v-1.5c0-10.6,0-21.3,0-31.9c0-2-0.3-4.1-0.8-6.1c-1.1-4-5.1-4.6-8.2-2.8
			c-2.6,1.7-4.4,4.3-5.2,7.3c-0.9,3.3-1.7,6.6-2.2,10c-0.4,2.7-0.5,5.3-0.5,8c-0.1,5.6,0,11.2,0,17h-25.9v-1.5c0-11.5,0-23,0-34.6
			c0.1-1.9-0.4-3.7-1.5-5.2c-1.8-2.2-4.2-2.6-7.1-1.3s-4.3,3.6-5.3,6.2c-1.4,3.6-2.2,7.5-2.5,11.3c-0.8,7.7-0.3,15.5-0.5,23.2
			c0,0.5,0,1,0,1.6h-22.2V18.1h13.5c0.4,1.9,0.8,3.9,1.2,5.9c0.7,3.4,1.3,6.7,2,10c0.1,0.4,0.4,0.7,0.8,0.8c0.4,0,0.8-0.2,1.1-0.6
			c1.6-4.5,4.3-8.6,7.8-11.8c2.9-2.6,6.5-4.4,10.4-5c3.6-0.7,7.3-0.4,10.8,0.8c4.3,1.5,8.1,4.3,10.7,8.1c1.7,2.5,3,5.3,4.6,8
			c0.3-0.5,0.6-1.2,1-1.8c2.4-5.2,5.6-9.7,10.5-12.8c2.2-1.5,4.8-2.3,7.5-2.5c4.6-0.5,9.2,0.4,13.3,2.5c4.4,2.3,7.7,6.2,9.4,10.8
			c1.4,3.6,2.2,7.5,2.4,11.4c0.1,1.9,0.2,3.7,0.2,5.6c0,10.7,0,21.3,0,32L442.3,80.8z"/>
		<path class="st0" d="M298.2,68.6c-0.3,0.2-0.6,0.5-0.9,0.8c-1.4,2.1-2.5,4.5-4.2,6.4c-2.6,2.8-6,4.6-9.7,5.3
			c-1.9,0.5-3.9,0.7-5.9,0.7c-5-0.1-9.9-0.7-14-3.9c-3-2.3-4.9-5.7-5.4-9.4c-0.4-2.7-0.3-5.5,0.5-8.1c1.1-3.7,3.7-6.7,7.1-8.4
			c3.6-1.9,7.5-3,11.5-3.2c2.2-0.3,4.3-0.4,6.5-0.4c4.2,0.2,8.4,0.6,12.5,0.9c0.2,0,0.3,0,0.5,0c0-2.9,0.1-5.8,0-8.7
			c0-2.5-0.7-5-1.8-7.2c-1.4-2.7-4.1-4.3-7.1-4.3c-2.6-0.3-5.3,0.3-7.6,1.7c-2.6,1.7-3.3,5-2.8,7.7c0.1,0.5,0.3,1,0.4,1.5l-11.4,2.5
			c-1.6,0.4-3.2,0.7-4.8,1.1c-0.7,0.2-1.1,0.2-1.4-0.7c-1.4-4.8-1.6-9.5,0.4-14.2c1.3-2.9,3.5-5.4,6.3-7c3.8-2.4,8.1-3.8,12.5-4.1
			c4.1-0.4,8.2-0.6,12.4-0.5c5.3,0.1,10.5,1.7,14.9,4.7c3.3,2.3,5.9,5.6,7.3,9.4c1.2,3.1,1.8,6.4,1.9,9.7c0.1,8.1,0.1,16.2,0.3,24.3
			c0.1,5,3.3,6.3,7.4,5.8c0.4,0,0.8-0.1,1.3-0.2c0,2.4,0,4.7,0,6.9c0,0.2-0.2,0.4-0.4,0.6c-1.8,1.6-4.1,2.7-6.5,3
			c-4,0.7-8,0.4-11.8-0.9c-4.4-1.6-6.8-4.8-7.5-9.4C298.5,70.3,298.4,69.7,298.2,68.6z M296.9,54.4c-1.5,0.2-2.9,0.4-4.2,0.5
			c-3.1,0.2-6.2,0.9-9.2,1.9c-4.2,1.5-7,4-6.6,9.1c0.1,2,1.2,3.7,2.9,4.7c1.5,0.8,3.3,1.1,5,0.9c3.7,0,7.1-1.8,9.2-4.9
			C296.7,63.1,297,58.9,296.9,54.4z"/>
		<path class="st0" d="M242.1,80.8h-11.9v-1.4c0-12.8,0-25.6,0-38.4c0.1-3.7-1.2-7.3-3.6-10.1c-1.5-1.7-3.6-2.9-5.9-3.3
			c-5.1-1.2-10.4,0.6-13.8,4.6c-2.7,2.9-4.6,6.5-5.6,10.4c-0.9,3.4-1.8,6.8-2.3,10.3c-1,6-0.4,12-0.5,18c-0.1,3.3,0,6.5,0,9.9h-11.9
			V18.4h6.5c0.9,5.6,1.9,11.2,2.8,16.9h1.1c1-2.6,1.8-5.4,3-7.9c2.6-5.7,8.1-9.5,14.3-10c2.5-0.4,5-0.5,7.5-0.5
			c4.9,0.2,9.4,1.5,13.2,4.9c3.2,2.9,5.3,6.8,6.1,11c0.6,2.8,0.9,5.6,1,8.4c0.1,12.7,0,25.4,0,38L242.1,80.8z"/>
		<path class="st1" d="M355.8,169.1h-7.2c0-0.5-0.1-1-0.1-1.5c0-9,0-18,0-27c0-1.7-0.3-3.4-0.7-5.1c-1.5-5.3-5.7-7.2-10.4-7
			c-5.6,0.3-8.9,3.7-11.2,8.4c-1.9,4-3,8.3-3.2,12.7c-0.3,6-0.2,12-0.3,18c0,0.5,0,0.9,0,1.5h-7.5v-1.4c0-9.2,0-18.5,0-27.7
			c0-1.6-0.3-3.3-0.8-4.8c-1.6-5-5.7-6.8-10.2-6.6c-4.1,0.2-7.1,2.4-9.4,5.7c-2.7,3.9-4,8.3-4.8,12.9c-1.1,6.7-0.6,13.5-0.7,20.2
			c0,0.6,0,1.1,0,1.7h-7.3V123h3.3c0.3,2.6,0.7,5.1,1,7.7c0.4,3.4,0.8,6.7,1.3,10.1c0,0.3,0.6,0.6,0.9,0.8c0.3-0.4,0.7-0.7,0.8-1.1
			c0.5-3.5,1.6-6.8,3.5-9.8c2.4-4,5.6-7.1,10.3-8.3c7-1.8,14.9,0.7,17.9,9.9c0.6,2.1,1,4.3,1.2,6.6c0.1,1,0.4,1.4,1.5,1.2
			c0.2-0.9,0.3-1.9,0.5-2.8c1.3-5.7,4.1-10.5,9.3-13.6c8.5-5,19.2-0.3,21.5,9.5c0.5,2.3,0.8,4.6,0.8,6.9c0.1,9.2,0,18.5,0,27.7
			C355.9,168.3,355.8,168.6,355.8,169.1z"/>
		<path class="st0" d="M164.4,63.3c1.8,0.5,3.6,1.1,5.5,1.7c0.3,0.2,0.5,0.6,0.4,1c-1.7,5.5-4.5,10.2-9.8,12.8
			c-2.8,1.5-6,2.3-9.1,2.5c-2.7,0.2-5.5,0.3-8.2,0.2c-6.1-0.3-11.9-2.4-16.7-6.1c-5.6-4.4-8.7-10.3-10.3-17.1
			c-0.9-3.9-1.2-7.9-0.9-11.8c0.2-5.4,1.6-10.7,4-15.5c2.9-5.6,7.8-9.9,13.7-12c3.3-1.2,6.8-1.9,10.4-2c5.5-0.4,11,0.6,16,3
			c5,2.5,7.9,6.7,9.5,11.9c0,0.3,0,0.6,0,0.9l-6.7,2.2c-0.5-1.1-1-2.3-1.6-3.4c-2.7-5.3-6.9-8.7-12.9-9.5
			c-6.6-1.2-13.3,1.3-17.6,6.4c-2.8,3.4-4.7,7.5-5.5,11.8c-0.8,3.6-1.1,7.2-0.9,10.8c0.2,5.5,1.8,10.9,4.8,15.6
			c3.2,5.2,8.5,8.7,14.5,9.8c4.2,0.8,8.5,0.3,12.4-1.6c3-1.5,5.4-3.9,7-6.8C163.1,66.7,163.7,65,164.4,63.3z"/>
		<path class="st0" d="M76.9,49.7H31.2c0,3.5,0.5,7,1.5,10.4c1.7,5.2,4.8,9.9,8.9,13.5c2.8,2.4,6.3,4.1,10,4.7
			c3.8,0.8,7.7,0.6,11.3-0.5c5.1-1.5,8.2-5.1,9.6-10.2c0.1-0.4,0.2-0.9,0.4-1.7l4.6,1.4c-0.7,4-3,7.6-6.4,9.9
			c-3.1,2.2-6.8,3.5-10.6,3.9c-1.8,0.3-3.7,0.4-5.5,0.4c-5.3-0.2-10.4-0.9-15.2-3.3c-7.3-3.8-11.6-9.8-13.6-17.7
			C25.4,57.3,25,54,25,50.8c-0.2-5.4,0.6-10.9,2.4-16c1.1-3,2.8-5.8,4.8-8.3c3.9-4.7,9.4-7.8,15.4-8.8c6.6-1.2,13.1-0.9,19.2,2.3
			c4.9,2.5,7.9,6.7,9.5,11.9c1.4,4.6,1.2,9.3,1.1,13.9C77.4,47.1,77.2,48.4,76.9,49.7z M31.2,46.7c0.1,0,0.2,0.1,0.3,0.1
			c13,0,26,0,39.1,0c0.7,0,0.9-0.3,1-0.9c0.6-4.3,0.9-8.6-0.2-12.8c-1-4-3.3-7.6-6.6-10c-4.1-3-8.7-3.8-13.8-3.1
			c-4.1,0.5-8,2.4-10.9,5.5c-3.4,3.6-6,7.9-7.5,12.7C31.7,40.8,31.2,43.7,31.2,46.7L31.2,46.7z"/>
		<path class="st1" d="M174.3,156.2l6,1.7c-0.3,3-1.7,5.8-3.9,7.9c-2.6,2.3-5.8,3.7-9.2,4c-4.6,0.7-9.3,0.3-13.7-1.2
			c-5.5-1.8-9.8-6.1-11.6-11.6c-2.8-8.1-2.8-16.1,1.1-23.8c3.6-7.2,9.9-10.7,17.9-11.1c2.8-0.2,5.6,0.2,8.3,1.1
			c6.4,2.2,9.6,7,10.6,13.6c0.4,3.2,0.3,6.5-0.2,9.7c-0.1,1-0.5,1.2-1.4,1.2c-9.4,0-18.8,0-28.2,0c-1.7,0-1.7,0-1.6,1.8
			c0.1,4.3,1.7,8.5,4.6,11.7c2.5,2.8,6.1,4.4,9.9,4.4c1.5,0.1,3-0.1,4.5-0.3c4.1-0.9,6.1-3.8,6.9-7.7
			C174.1,157,174.2,156.7,174.3,156.2z M148.2,143.1c0.2,0.1,0.4,0.2,0.5,0.2c7.6,0,15.2,0,22.8,0c0.4-0.1,0.7-0.3,0.9-0.7
			c0.8-3.4,0.9-6.8-0.5-10.1c-2.8-6.4-12-8.1-17.6-3.3c-3.1,2.7-4.7,6.2-5.5,10.1C148.5,140.5,148.3,141.8,148.2,143.1L148.2,143.1z
			"/>
		<path class="st1" d="M409.1,169.1c-2.4,0-4.6,0-6.8,0c-0.2,0-0.5-0.3-0.6-0.6c-0.1-0.4-0.1-0.8,0-1.2v-42.6c0-2.2,0.1-1.7,1.7-1.8
			c1.3-0.1,1.9,0.1,2,1.6c0.6,5.3,1.3,10.6,2,15.9c0.1,0.4,0.3,1,0.6,1.1c0.8,0.3,1.1-0.3,1.2-1c0.5-4.5,2.3-8.7,5.1-12.2
			c5.1-6.3,11.8-7.8,18.8-5.3c5.4,2,7.9,6.4,8.9,11.8c0.3,2,0.5,4,0.5,6c0,8.9,0,17.8,0,26.8v1.6c-2.3,0-4.6,0-6.8,0
			c-0.2,0-0.5-0.3-0.6-0.6c-0.1-0.4-0.1-0.8,0-1.2c0-8.7,0-17.4,0-26c0-1.6-0.2-3.3-0.5-4.9c-1.9-8.8-11.4-9.6-16.4-5.9
			c-3.3,2.4-5.2,5.9-6.6,9.6c-1.6,4.5-2.4,9.3-2.4,14.1c0,4.5,0,8.9,0,13.4L409.1,169.1z"/>
		<path class="st1" d="M236.6,169.1c-2.3,0-4.4,0-6.6,0c-0.6,0-0.9-0.3-0.9-0.9c0-1.2,0-2.5,0-3.7c0-7.6,0-15.2,0-22.8
			c0-1.8-0.2-3.6-0.5-5.3c-1.8-8.4-10.3-9.3-15.2-6.6c-3.5,1.9-5.6,5-7.1,8.5c-2,4.9-3.1,10.1-3.1,15.4c-0.1,4.7,0,9.4,0,14
			c0,0.4,0,0.9,0,1.4c-2.3,0-4.5,0-6.7,0c-0.2,0-0.5-0.4-0.7-0.7c-0.1-0.3-0.1-0.6,0-0.8c0-14.4,0-28.7,0-43.1
			c0-0.5,0.2-1.4,0.4-1.4c1-0.1,2-0.1,3,0.1c0.1,0,0.2,0.4,0.2,0.6l2.2,16.6c0.1,0.6-0.1,1.3,0.9,1.3s0.8-0.7,0.9-1.2
			c0.7-5,2.8-9.7,6.2-13.4c6.6-7.1,16.9-5.9,21.8-1.3c2.5,2.4,4.1,5.7,4.6,9.1c0.3,2.1,0.5,4.1,0.5,6.2c0.1,8.8,0,17.7,0,26.5
			L236.6,169.1z"/>
		<path class="st1" d="M255.9,123h7.3v1.3c0,17.2,0,34.5,0,51.7c0,1.6-0.2,3.3-0.6,4.9c-0.7,3.5-3.7,6.1-7.3,6.2
			c-2.3,0.1-4.7,0-7-0.2c-1-0.1-1.6-0.6-1.4-1.7c0.1-0.7,0.2-1.5,0.3-2.4h3c3.6,0,5.5-1.7,5.7-5.3c0-0.6,0-1.1,0-1.7L255.9,123
			L255.9,123z"/>
		<path class="st1" d="M381.7,123v46.2c-2.2,0-4.4,0-6.6,0c-0.2,0-0.4-0.3-0.5-0.5c-0.1-0.4-0.1-0.7,0-1.1v-43c0-1.6,0-1.6,1.6-1.6
			L381.7,123z"/>
		<path class="st1" d="M263.1,112.4H256v-10.3h7.1L263.1,112.4z"/>
		<path class="st1" d="M381.7,102.1v10.4c-2.2,0-4.4,0-6.5,0c-0.2,0-0.6-0.5-0.6-0.8c-0.1-2.9-0.1-5.9,0-8.8
			c0.1-0.4,0.4-0.6,0.7-0.8C377.5,102,379.5,102.1,381.7,102.1z"/>
	</g>
</g>
</svg>
