<?xml version="1.0" encoding="utf-8"?>
<!-- Generator: Adobe Illustrator 23.0.2, SVG Export Plug-In . SVG Version: 6.00 Build 0)  -->
<svg version="1.1" id="Layer_1" xmlns="http://www.w3.org/2000/svg" xmlns:xlink="http://www.w3.org/1999/xlink" x="0px" y="0px"
	 viewBox="0 0 270.9 164.9" style="enable-background:new 0 0 270.9 164.9;" xml:space="preserve">
<style type="text/css">
	.st0{fill:#FF847C;}
	.st1{fill:none;stroke:#FF847C;stroke-width:10;stroke-linecap:round;stroke-miterlimit:10;}
</style>
<title>Code</title>
<g>
	<g id="Layer_2-2">
		<g>
			<g>
				<g>
					<g>
						<g>
							<g>
								<path class="st0" d="M217.9,117.8H53V17.7h164.9V117.8z M235.6,11.8c0-6.5-5.3-11.8-11.8-11.8H47.1
									c-6.5,0-11.8,5.3-11.8,11.8v123.7h200.2V11.8H235.6z"/>
								<path class="st0" d="M153.1,147.2v3c0.1,1.5-1.1,2.9-2.6,2.9c-0.1,0-0.3,0-0.4,0h-29.4c-1.5,0.1-2.9-1.1-2.9-2.6
									c0-0.1,0-0.2,0-0.3v-3H0v5.9c0,6.5,5.3,11.8,11.8,11.8h247.3c6.5,0,11.8-5.3,11.8-11.8v-5.9L153.1,147.2z"/>
							</g>
						</g>
					</g>
				</g>
			</g>
		</g>
		<polyline class="st1" points="111.1,92.9 88.3,70.3 88.3,70.3 111.1,47.6 		"/>
		<polyline class="st1" points="159.3,92.9 182,70.3 182,70.3 159.3,47.6 		"/>
		<line class="st1" x1="118.7" y1="106.4" x2="151.6" y2="34.2"/>
	</g>
</g>
</svg>
