<?xml version="1.0" encoding="utf-8"?>
<!-- Generator: Adobe Illustrator 23.0.2, SVG Export Plug-In . SVG Version: 6.00 Build 0)  -->
<svg version="1.1" id="Layer_1" xmlns="http://www.w3.org/2000/svg" xmlns:xlink="http://www.w3.org/1999/xlink" x="0px" y="0px"
	 viewBox="0 0 270.9 164.9" style="enable-background:new 0 0 270.9 164.9;" xml:space="preserve">
<style type="text/css">
	.st0{clip-path:url(#SVGID_3_);}
	.st1{clip-path:url(#SVGID_4_);}
	.st2{clip-path:url(#SVGID_6_);}
	.st3{stroke:#000000;stroke-miterlimit:10;}
	.st4{fill:none;stroke:#000000;stroke-width:10;stroke-linecap:round;stroke-miterlimit:10;}
</style>
<title>Code</title>
<g>
	<g id="Layer_2-2">
		<g>
			<defs>
				<polygon id="SVGID_1_" points="-5.9,227.2 280.2,227.2 280.2,-58.9 -5.9,-58.9 -5.9,227.2 				"/>
			</defs>
			<defs>
				<polygon id="SVGID_2_" points="-5.9,-58.9 280.2,-58.9 280.2,227.2 -5.9,227.2 -5.9,-58.9 				"/>
			</defs>
			<clipPath id="SVGID_3_">
				<use xlink:href="#SVGID_1_"  style="overflow:visible;"/>
			</clipPath>
			<clipPath id="SVGID_4_" class="st0">
				<use xlink:href="#SVGID_2_"  style="overflow:visible;"/>
			</clipPath>
			<g class="st1">
				<g>
					<defs>
						<polygon id="SVGID_5_" points="-5.9,227.2 280.2,227.2 280.2,-58.9 -5.9,-58.9 -5.9,227.2 						"/>
					</defs>
					<clipPath id="SVGID_6_">
						<use xlink:href="#SVGID_5_"  style="overflow:visible;"/>
					</clipPath>
					<g class="st2">
						<path class="st3" d="M217.9,117.8H53V17.7h164.9V117.8z M235.6,11.8c0-6.5-5.3-11.8-11.8-11.8H47.1c-6.5,0-11.8,5.3-11.8,11.8
							v123.7h200.2V11.8L235.6,11.8z"/>
						<path class="st3" d="M153.1,147.2v3c0.1,1.5-1.1,2.9-2.6,2.9c-0.1,0-0.3,0-0.4,0h-29.4c-1.5,0.1-2.9-1.1-2.9-2.6
							c0-0.1,0-0.2,0-0.3v-3H0v5.9c0,6.5,5.3,11.8,11.8,11.8h247.3c6.5,0,11.8-5.3,11.8-11.8v-5.9L153.1,147.2z"/>
					</g>
					<use xlink:href="#SVGID_5_"  style="overflow:visible;fill:none;stroke:#000000;stroke-miterlimit:10;"/>
				</g>
			</g>
			<use xlink:href="#SVGID_1_"  style="overflow:visible;fill:none;stroke:#000000;stroke-miterlimit:10;"/>
			<use xlink:href="#SVGID_2_"  style="overflow:visible;fill:none;stroke:#000000;stroke-miterlimit:10;"/>
		</g>
		<polyline class="st4" points="111.1,92.9 88.3,70.3 88.3,70.3 111.1,47.6 		"/>
		<polyline class="st4" points="159.3,92.9 182,70.3 182,70.3 159.3,47.6 		"/>
		<line class="st4" x1="118.7" y1="106.4" x2="151.6" y2="34.2"/>
	</g>
</g>
</svg>
