<svg xmlns="http://www.w3.org/2000/svg" xmlns:xlink="http://www.w3.org/1999/xlink" viewBox="0 0 270.92 164.92"><defs><style>.cls-1,.cls-2,.cls-3,.cls-6{fill:none;}.cls-1,.cls-2{clip-rule:evenodd;}.cls-2{clip-path:url(#clip-path);}.cls-4{clip-path:url(#clip-path-2);}.cls-5{clip-path:url(#clip-path-3);}.cls-6{stroke:#231f20;stroke-linecap:round;stroke-miterlimit:10;stroke-width:10px;}</style><clipPath id="clip-path"><polygon class="cls-1" points="0 286.08 286.08 286.08 286.08 0 0 0 0 286.08 0 286.08"/></clipPath><clipPath id="clip-path-2" transform="translate(-5.89 -58.9)"><polygon class="cls-2" points="0 0 286.08 0 286.08 286.08 0 286.08 0 0 0 0"/></clipPath><clipPath id="clip-path-3" transform="translate(-5.89 -58.9)"><polygon class="cls-3" points="0 286.08 286.08 286.08 286.08 0 0 0 0 286.08 0 286.08"/></clipPath></defs><title>Code</title><g id="Layer_2" data-name="Layer 2"><g id="Layer_2-2" data-name="Layer 2"><g class="cls-4"><g class="cls-5"><path d="M223.81,176.7H58.9V76.57H223.81V176.7Zm17.66-106A11.81,11.81,0,0,0,229.69,58.9H53A11.81,11.81,0,0,0,41.23,70.68V194.36H241.47V70.68Z" transform="translate(-5.89 -58.9)"/><path d="M159,206.14v3a2.78,2.78,0,0,1-3,2.94H126.63a2.78,2.78,0,0,1-2.95-2.94v-3H5.89V212a11.81,11.81,0,0,0,11.78,11.78H265A11.81,11.81,0,0,0,276.81,212v-5.89Z" transform="translate(-5.89 -58.9)"/></g></g><polyline class="cls-6" points="111.06 92.9 88.27 70.26 88.27 70.26 111.06 47.62"/><polyline class="cls-6" points="159.25 92.9 182.04 70.26 182.04 70.26 159.25 47.62"/><line class="cls-6" x1="118.7" y1="106.37" x2="151.61" y2="34.15"/></g></g></svg>