<?xml version="1.0" encoding="iso-8859-1"?>
<!-- Generator: Adobe Illustrator 17.1.0, SVG Export Plug-In . SVG Version: 6.00 Build 0)  -->
<!DOCTYPE svg PUBLIC "-//W3C//DTD SVG 1.1//EN" "http://www.w3.org/Graphics/SVG/1.1/DTD/svg11.dtd">
<svg version="1.1" id="Capa_1" xmlns="http://www.w3.org/2000/svg" xmlns:xlink="http://www.w3.org/1999/xlink" x="0px" y="0px"
	 viewBox="0 0 287.665 287.665" style="enable-background:new 0 0 287.665 287.665;" xml:space="preserve">
<g>
	<path style="fill:#000002;" d="M41.622,104.361H29.3c-4.142,0-7.5,3.358-7.5,7.5s3.358,7.5,7.5,7.5h12.322
		c4.143,0,7.5-3.358,7.5-7.5S45.765,104.361,41.622,104.361z"/>
	<path style="fill:#000002;" d="M41.622,136.904H29.3c-4.142,0-7.5,3.358-7.5,7.5c0,4.142,3.358,7.5,7.5,7.5h12.322
		c4.143,0,7.5-3.358,7.5-7.5C49.122,140.262,45.765,136.904,41.622,136.904z"/>
	<path style="fill:#000002;" d="M41.622,169.447H29.3c-4.142,0-7.5,3.358-7.5,7.5c0,4.142,3.358,7.5,7.5,7.5h12.322
		c4.143,0,7.5-3.358,7.5-7.5C49.122,172.805,45.765,169.447,41.622,169.447z"/>
	<path style="fill:#000002;" d="M286.7,88.277c-2.031-3.61-6.606-4.891-10.214-2.858L252.91,98.687V58.439
		c0-8.892-7.233-16.126-16.125-16.126H16.125C7.233,42.313,0,49.547,0,58.439v170.788c0,8.892,7.233,16.125,16.125,16.125h220.66
		c8.892,0,16.125-7.234,16.125-16.125V115.899l30.932-17.407C287.452,96.461,288.732,91.887,286.7,88.277z M237.91,229.227
		c0,0.6-0.525,1.125-1.125,1.125H16.125c-0.6,0-1.125-0.526-1.125-1.125V58.439c0-0.6,0.525-1.126,1.125-1.126h220.66
		c0.6,0,1.125,0.526,1.125,1.126v48.689l-14.988,8.435V90.349c0-5.921-4.817-10.739-10.738-10.739H65.369
		c-5.921,0-10.738,4.817-10.738,10.739v106.969c0,5.921,4.817,10.739,10.738,10.739h146.814c5.921,0,10.738-4.817,10.738-10.739
		v-64.544l14.988-8.435V229.227z M161.65,158.65c1.377,2.447,3.922,3.823,6.543,3.823c1.245,0,2.509-0.311,3.671-0.965
		l41.059-23.106v58.916c0,0.394-0.345,0.739-0.738,0.739H65.369c-0.394,0-0.738-0.345-0.738-0.739V90.349
		c0-0.394,0.345-0.739,0.738-0.739h146.814c0.394,0,0.738,0.345,0.738,0.739v30.841l-48.414,27.245
		C160.898,150.466,159.618,155.04,161.65,158.65z"/>
	<path style="fill:#000002;" d="M154.195,151.568c-2.762,0-5,2.239-5,5v5.688c0,5.344-4.348,9.691-9.691,9.691
		c-5.345,0-9.692-4.348-9.692-9.691v-4.949c0-10.858-8.834-19.691-19.691-19.691c-10.857,0-19.691,8.833-19.691,19.691v5.687
		c0,2.761,2.238,5,5,5c2.762,0,5-2.239,5-5v-5.687c0-5.344,4.348-9.691,9.691-9.691c5.344,0,9.691,4.348,9.691,9.691v5.687h0.014
		c0.389,10.518,9.066,18.954,19.679,18.954c10.857,0,19.691-8.834,19.691-19.691v-5.688
		C159.195,153.807,156.957,151.568,154.195,151.568z"/>
</g>
<g>
</g>
<g>
</g>
<g>
</g>
<g>
</g>
<g>
</g>
<g>
</g>
<g>
</g>
<g>
</g>
<g>
</g>
<g>
</g>
<g>
</g>
<g>
</g>
<g>
</g>
<g>
</g>
<g>
</g>
</svg>
