<?xml version="1.0" encoding="utf-8"?>
<!-- Generator: Adobe Illustrator 23.0.2, SVG Export Plug-In . SVG Version: 6.00 Build 0)  -->
<svg version="1.1" id="Capa_1" xmlns="http://www.w3.org/2000/svg" xmlns:xlink="http://www.w3.org/1999/xlink" x="0px" y="0px"
	 viewBox="0 0 287.7 203" style="enable-background:new 0 0 287.7 203;" xml:space="preserve">
<style type="text/css">
	.st0{fill:#ff756b;}
</style>
<g>
	<path class="st0" d="M41.6,62.1H29.3c-4.1,0-7.5,3.4-7.5,7.5s3.4,7.5,7.5,7.5h12.3c4.1,0,7.5-3.4,7.5-7.5S45.8,62.1,41.6,62.1z"/>
	<path class="st0" d="M41.6,94.6H29.3c-4.1,0-7.5,3.4-7.5,7.5s3.4,7.5,7.5,7.5h12.3c4.1,0,7.5-3.4,7.5-7.5
		C49.1,98,45.8,94.6,41.6,94.6z"/>
	<path class="st0" d="M41.6,127.1H29.3c-4.1,0-7.5,3.4-7.5,7.5s3.4,7.5,7.5,7.5h12.3c4.1,0,7.5-3.4,7.5-7.5
		C49.1,130.5,45.8,127.1,41.6,127.1z"/>
	<path class="st0" d="M286.7,46c-2-3.6-6.6-4.9-10.2-2.9l-23.6,13.3V16.1c0-8.9-7.2-16.1-16.1-16.1H16.1C7.2,0,0,7.2,0,16.1v170.8
		c0,8.9,7.2,16.1,16.1,16.1h220.7c8.9,0,16.1-7.2,16.1-16.1V73.6l30.9-17.4C287.5,54.2,288.7,49.6,286.7,46z M237.9,186.9
		c0,0.6-0.5,1.1-1.1,1.1H16.1c-0.6,0-1.1-0.5-1.1-1.1V16.1c0-0.6,0.5-1.1,1.1-1.1h220.7c0.6,0,1.1,0.5,1.1,1.1v48.7l-15,8.4V48
		c0-5.9-4.8-10.7-10.7-10.7H65.4c-5.9,0-10.7,4.8-10.7,10.7v107c0,5.9,4.8,10.7,10.7,10.7h146.8c5.9,0,10.7-4.8,10.7-10.7V90.5
		l15-8.4L237.9,186.9L237.9,186.9z M161.6,116.4c1.4,2.4,3.9,3.8,6.5,3.8c1.2,0,2.5-0.3,3.7-1l41.1-23.1V155c0,0.4-0.3,0.7-0.7,0.7
		H65.4c-0.4,0-0.7-0.3-0.7-0.7V48c0-0.4,0.3-0.7,0.7-0.7h146.8c0.4,0,0.7,0.3,0.7,0.7v30.8L164.5,106
		C160.9,108.2,159.6,112.7,161.6,116.4z"/>
	<path class="st0" d="M154.2,109.3c-2.8,0-5,2.2-5,5v5.7c0,5.3-4.3,9.7-9.7,9.7c-5.3,0-9.7-4.3-9.7-9.7v-4.9
		c0-10.9-8.8-19.7-19.7-19.7s-19.7,8.8-19.7,19.7v5.7c0,2.8,2.2,5,5,5s5-2.2,5-5v-5.7c0-5.3,4.3-9.7,9.7-9.7c5.3,0,9.7,4.3,9.7,9.7
		v5.7l0,0c0.4,10.5,9.1,19,19.7,19c10.9,0,19.7-8.8,19.7-19.7v-5.7C159.2,111.5,157,109.3,154.2,109.3z"/>
</g>
</svg>
