<?xml version="1.0" encoding="utf-8"?>
<!-- Generator: Adobe Illustrator 23.0.2, SVG Export Plug-In . SVG Version: 6.00 Build 0)  -->
<svg version="1.1" id="Capa_1" xmlns="http://www.w3.org/2000/svg" xmlns:xlink="http://www.w3.org/1999/xlink" x="0px" y="0px"
	 viewBox="0 0 287.7 287.7" style="enable-background:new 0 0 287.7 287.7;" xml:space="preserve">
<style type="text/css">
	.st0{fill:#FF847C;}
</style>
<g>
	<path class="st0" d="M41.6,104.4H29.3c-4.1,0-7.5,3.4-7.5,7.5s3.4,7.5,7.5,7.5h12.3c4.1,0,7.5-3.4,7.5-7.5S45.8,104.4,41.6,104.4z"
		/>
	<path class="st0" d="M41.6,136.9H29.3c-4.1,0-7.5,3.4-7.5,7.5s3.4,7.5,7.5,7.5h12.3c4.1,0,7.5-3.4,7.5-7.5
		C49.1,140.3,45.8,136.9,41.6,136.9z"/>
	<path class="st0" d="M41.6,169.4H29.3c-4.1,0-7.5,3.4-7.5,7.5s3.4,7.5,7.5,7.5h12.3c4.1,0,7.5-3.4,7.5-7.5
		C49.1,172.8,45.8,169.4,41.6,169.4z"/>
	<path class="st0" d="M286.7,88.3c-2-3.6-6.6-4.9-10.2-2.9l-23.6,13.3V58.4c0-8.9-7.2-16.1-16.1-16.1H16.1C7.2,42.3,0,49.5,0,58.4
		v170.8c0,8.9,7.2,16.1,16.1,16.1h220.7c8.9,0,16.1-7.2,16.1-16.1V115.9l30.9-17.4C287.5,96.5,288.7,91.9,286.7,88.3z M237.9,229.2
		c0,0.6-0.5,1.1-1.1,1.1H16.1c-0.6,0-1.1-0.5-1.1-1.1V58.4c0-0.6,0.5-1.1,1.1-1.1h220.7c0.6,0,1.1,0.5,1.1,1.1v48.7l-15,8.4V90.3
		c0-5.9-4.8-10.7-10.7-10.7H65.4c-5.9,0-10.7,4.8-10.7,10.7v107c0,5.9,4.8,10.7,10.7,10.7h146.8c5.9,0,10.7-4.8,10.7-10.7v-64.5
		l15-8.4L237.9,229.2L237.9,229.2z M161.6,158.7c1.4,2.4,3.9,3.8,6.5,3.8c1.2,0,2.5-0.3,3.7-1l41.1-23.1v58.9c0,0.4-0.3,0.7-0.7,0.7
		H65.4c-0.4,0-0.7-0.3-0.7-0.7v-107c0-0.4,0.3-0.7,0.7-0.7h146.8c0.4,0,0.7,0.3,0.7,0.7v30.8l-48.4,27.2
		C160.9,150.5,159.6,155,161.6,158.7z"/>
	<path class="st0" d="M154.2,151.6c-2.8,0-5,2.2-5,5v5.7c0,5.3-4.3,9.7-9.7,9.7c-5.3,0-9.7-4.3-9.7-9.7v-4.9
		c0-10.9-8.8-19.7-19.7-19.7s-19.7,8.8-19.7,19.7v5.7c0,2.8,2.2,5,5,5s5-2.2,5-5v-5.7c0-5.3,4.3-9.7,9.7-9.7c5.3,0,9.7,4.3,9.7,9.7
		v5.7l0,0c0.4,10.5,9.1,19,19.7,19c10.9,0,19.7-8.8,19.7-19.7v-5.7C159.2,153.8,157,151.6,154.2,151.6z"/>
</g>
</svg>
