<?xml version="1.0" encoding="utf-8"?>
<!-- Generator: Adobe Illustrator 23.0.2, SVG Export Plug-In . SVG Version: 6.00 Build 0)  -->
<svg version="1.1" id="Layer_1" xmlns="http://www.w3.org/2000/svg" xmlns:xlink="http://www.w3.org/1999/xlink" x="0px" y="0px"
	 viewBox="0 0 309.9 275.9" style="enable-background:new 0 0 309.9 275.9;" xml:space="preserve">
<style type="text/css">
	.st0{fill:#005CAB;}
	.st1{fill:#807062;}
	.st2{clip-path:url(#SVGID_2_);fill:#373CF5;}
	.st3{clip-path:url(#SVGID_2_);fill:#FFFFFF;}
</style>
<title>Layer 1</title>
<g>
	<path class="st0" d="M154.8,73.1c16.9,0,30.5-13.7,30.5-30.5c0-16.9-13.7-30.5-30.5-30.5c-16.8,0-30.5,13.7-30.5,30.5
		C124.3,59.5,138,73.1,154.8,73.1L154.8,73.1z M154.8,35.8c3.7,0,6.8,3,6.8,6.7c0,3.7-3,6.8-6.8,6.8c-3.7,0-6.7-3-6.7-6.8
		C148.1,38.9,151.1,35.8,154.8,35.8L154.8,35.8z"/>
	<path class="st0" d="M189.3,112.8c-0.2-2.1-0.6-13.7-17-19c-15.8-5.1-41.2-12.7-41.2-12.7s-4.3-1.1-4.9-4.6c-0.7-3.5,4.2-6.2,5-6.6
		c0.1,0,0.5-0.3,0.5-0.3l-0.3-0.5c0,0-0.7,0.3-0.8,0.4c-1.3,0.7-11.1,6-10.2,18.8c0.2,2.1,0.6,13.7,17,19
		c15.8,5.1,41.2,12.7,41.2,12.7s4.1,1.3,5,4.5c1.2,4.2-4.8,7.5-6,8.1c-0.1,0.1-1.2,0.6-1.2,0.6l0.3,0.5c0,0,1.1-0.5,1.2-0.6
		C179.7,132.4,190.3,126.9,189.3,112.8L189.3,112.8z"/>
</g>
<g>
	<path class="st1" d="M37.6,151.5h15.9v0.5c0,6.9-6.1,12.3-12.9,12.3c-7,0-13.1-5.3-13.1-12.6c0-7.2,6.1-12.6,12.9-12.6
		c6.1,0,10.5,4.1,11.8,7.6h-5.4c-1.1-1.6-3.3-3.4-6.5-3.4c-5.5,0-8.3,4.7-8.3,8.5c0,3.7,2.8,8.4,8.6,8.4c3,0,5.8-1.6,7.2-4.5H37.6
		V151.5z"/>
	<path class="st1" d="M71.3,151.8c0-4.7,3.6-8.5,8.2-8.5s8.2,3.8,8.2,8.5c0,4.5-3.6,8.4-8.2,8.4S71.3,156.3,71.3,151.8z M66.8,151.8
		c0,7,5.7,12.6,12.7,12.6c7,0,12.7-5.6,12.7-12.6c0-7.2-5.8-12.7-12.7-12.7C72.6,139.1,66.8,144.6,66.8,151.8z"/>
	<path class="st1" d="M112.1,153.2h2.4c3.9,0,4.4,2.3,4.4,3.2c0,3.2-3.6,3.2-4.5,3.2h-2.3V153.2z M108,163.9h6.5
		c1.6,0,4.4-0.2,6.3-1.4c1.5-1.1,3-2.9,3-5.8c0-4.1-2.6-5.5-4.2-6c0.8-0.4,2.7-1.6,2.7-4.6c0-1.7-0.9-3.4-2.1-4.5
		c-2.1-1.9-4.8-1.9-7.5-1.9H108V163.9z M112.1,143.8h1.9c2.6,0,3.5,1.2,3.5,2.6c0,2.6-2.8,2.6-3.9,2.6h-1.5V143.8z"/>
</g>
<g>
	<path class="st1" d="M142.5,139.6h13.1v4.2H147v5.9h8.2v4.2H147v5.8h8.6v4.2h-13.1V139.6z"/>
	<path class="st1" d="M174.4,139.6h4.5v20.1h7.4v4.2h-11.9V139.6z"/>
	<path class="st1" d="M204,139.6h4.5v24.3H204V139.6z"/>
</g>
<path class="st1" d="M228.7,139.6h5.1l10.1,17.7h0.1v-17.7h4.5v24.3h-5l-10.1-17.7h-0.1v17.7h-4.5V139.6z"/>
<path class="st1" d="M266.4,156.9c0.3,5.3,4.8,7.4,7.9,7.4c3.8,0,7.9-2.5,7.9-7.8c0-5.3-4.4-6.8-6.4-7.5c-2.5-0.8-4-1.3-4-3.4
	c0-1.4,1.1-2.5,2.5-2.5c1.2,0,2.5,0.6,2.7,2.7h4.6c-0.2-5-4.4-6.9-7.2-6.9c-4.1,0-7.1,3.1-7.1,6.9c0,5.1,3.9,6.3,5.8,7
	c3,1.2,4.6,1.6,4.6,4.1c0,1.8-1.6,3.1-3.4,3.1c-1.4,0-3-0.8-3.2-3.2H266.4z"/>
<path class="st1" d="M82.2,179.6c0-4.1,3.3-7,7-7c3.8,0,7,3.2,7,7c0,3.9-3.2,6.9-7,6.9C85.4,186.5,82.2,183.3,82.2,179.6z
	 M80.6,179.6c0,4.6,4,8.3,8.6,8.3c4.6,0,8.6-3.6,8.6-8.4c0-4.8-4-8.4-8.6-8.4C84.9,171.1,80.6,174.5,80.6,179.6z"/>
<path class="st1" d="M27.7,171.4h1.6v14.8h6.7v1.5h-8.4V171.4z"/>
<path class="st1" d="M38.6,171.4h1.8l-2.2,4.8h-1.5L38.6,171.4z"/>
<path class="st1" d="M46.5,171.4h8.9v1.5h-7.3v5.9h7v1.5h-7v6h7.3v1.5h-8.9V171.4z M52.9,166.9l0.7,1.3l-4.4,2.4l-0.7-1.3
	L52.9,166.9z"/>
<path class="st1" d="M77,183.4c-1.7,3.2-4.9,4.5-7.5,4.5c-4.6,0-8.5-3.6-8.5-8.4c0-4.8,3.8-8.4,8.5-8.4c4.2,0,6.8,2.9,7.5,4.4h-1.8
	c-1.8-2.6-4.7-3-5.6-3c-3.8,0-6.8,3.4-6.8,7c0,3.8,3.3,6.9,6.9,6.9c0.8,0,3.5-0.1,5.7-3.1H77z"/>
<path class="st1" d="M103.2,171.4h1.6v14.8h6.7v1.5h-8.4V171.4z"/>
<path class="st1" d="M117.2,171.4h8.9v1.5h-7.3v5.9h7v1.5h-7v6h7.3v1.5h-8.9V171.4z"/>
<g>
	<path class="st1" d="M139.7,172.9h2.3c2.4,0,3.9,0.3,5.4,1.2c1.7,1.2,2.8,3.2,2.8,5.4c0,2.8-1.6,4.5-2.5,5.4
		c-1.9,1.3-4.1,1.3-5.6,1.3h-2.3V172.9z M138.1,187.7h4.7c2,0,4-0.5,5.3-1.3c3.1-2,3.7-5.2,3.7-6.7c0-2-0.8-5-3.7-6.8
		c-1.3-0.9-3.3-1.4-5.3-1.4h-4.7V187.7z"/>
	<path class="st1" d="M158.2,171.4h8.9v1.5h-7.3v5.9h7v1.5h-7v6h7.3v1.5h-8.9V171.4z"/>
</g>
<path class="st1" d="M178.8,171.4h1.6v14.8h6.7v1.5h-8.4V171.4z"/>
<path class="st1" d="M190.2,171.4h1.8l-2.2,4.8h-1.5L190.2,171.4z"/>
<g>
	<path class="st1" d="M198.4,171.5h1.6v16.3h-1.6V171.5z"/>
	<path class="st1" d="M208.4,171.5h2.5l5.9,13.8l5.9-13.8h2.5v16.3h-1.6v-14.5h0l-6.1,14.5h-1.4l-6-14.5H210v14.5h-1.6V171.5z"/>
	<path class="st1" d="M238.8,173.3l3.1,7.5h-6.3L238.8,173.3z M231,187.7h1.7l2.4-5.5h7.6l2.4,5.5h1.8l-7-16.3h-1.8L231,187.7z"/>
	<path class="st1" d="M267.8,180.2c-0.4,4.8-4.6,7.8-8.6,7.8c-4.9,0-8.7-3.9-8.7-8.4c0-4.2,3.5-8.4,8.7-8.4c4.3,0,7.1,3,7.7,4.6H265
		c-0.9-1.6-3.1-3.2-5.8-3.2c-4.1,0-7.1,3.4-7.1,7c0,3.6,3,6.9,7.2,6.9c3.5,0,6-2.5,6.6-4.8h-9.1v-1.5H267.8z"/>
	<path class="st1" d="M273.1,171.5h8.9v1.5h-7.3v5.9h7v1.5h-7v6h7.3v1.5h-8.9V171.5z"/>
</g>
<g>
	<defs>
		<rect id="SVGID_1_" x="17.7" y="193.7" width="274.3" height="90.4"/>
	</defs>
	<clipPath id="SVGID_2_">
		<use xlink:href="#SVGID_1_"  style="overflow:visible;"/>
	</clipPath>
	<path class="st2" d="M246.7,259.4H63c-11.2,0-20.4-9.2-20.4-20.4v-0.3c0-11.2,9.2-20.4,20.4-20.4h183.7c11.2,0,20.4,9.2,20.4,20.4
		v0.3C267.1,250.2,257.9,259.4,246.7,259.4"/>
	<path class="st3" d="M59,238.8c0,6.8,5.5,12.3,12.3,12.3c3.2,0,5.8-1.2,7.6-2.6l-2.6-2.9c-1.4,1-3.1,1.6-5,1.6
		c-4.6,0-8.4-3.8-8.4-8.4c0-4.6,3.8-8.4,8.4-8.4c1.2,0,2.3,0.3,3.4,0.7l1.5-3.6c-1.5-0.7-3.2-1-4.9-1C64.5,226.5,59,232,59,238.8"/>
	<path class="st3" d="M64.7,238.8c0,3.6,2.9,6.6,6.6,6.6c1.4,0,2.8-0.5,3.7-1.2c0,0-2.4-2.7-2.7-3c-0.2,0.1-0.7,0.2-1,0.2
		c-1.5,0-2.7-1.2-2.7-2.7c0-1.5,1.2-2.7,2.7-2.7c0.4,0,0.8,0.1,1.1,0.2l1.5-3.5c-0.8-0.3-1.7-0.6-2.6-0.6
		C67.7,232.3,64.7,235.2,64.7,238.8"/>
	<path class="st3" d="M76.2,236.3c0.3,0.7,0.6,1.6,0.6,2.6c0,1.2-0.5,2.6-1.2,3.5l2.6,2.9c1.5-1.6,2.5-3.9,2.5-6.4
		c0-1.5-0.4-3-1-4.2L76.2,236.3z"/>
	<path class="st3" d="M75.1,234.8l6.7-3.1c-1-1.5-2.3-2.8-3.7-3.6L75.1,234.8L75.1,234.8z"/>
	<path class="st3" d="M97.2,228.2l-1.1,1.3c-0.5-0.4-1.1-0.7-1.7-0.7c-1.2,0-2.1,1-2.1,3.3c0,2.3,0.8,3.3,2.1,3.3
		c0.8,0,1.3-0.3,1.9-0.8l1,1.3c-0.6,0.6-1.7,1.2-3,1.2c-2.6,0-4.4-1.8-4.4-5c0-3.2,1.9-5,4.3-5C95.5,227.2,96.4,227.5,97.2,228.2"/>
	<path class="st3" d="M105,228.2l-1.1,1.3c-0.5-0.4-1.1-0.7-1.7-0.7c-1.2,0-2.1,1-2.1,3.3c0,2.3,0.8,3.3,2.1,3.3
		c0.8,0,1.3-0.3,1.9-0.8l1,1.3c-0.6,0.6-1.7,1.2-3,1.2c-2.6,0-4.4-1.8-4.4-5c0-3.2,1.9-5,4.3-5C103.3,227.2,104.2,227.5,105,228.2"
		/>
	<rect x="105.9" y="227.4" class="st3" width="2.3" height="9.5"/>
	<path class="st3" d="M120,230.5c0,2.2-1.6,3.2-3.8,3.2h-1v3.2H113v-9.5h3.1C118.5,227.4,120,228.4,120,230.5 M117.7,230.5
		c0-1-0.6-1.5-1.7-1.5h-0.8v3.1h0.8C117.1,232.1,117.7,231.7,117.7,230.5"/>
	<path class="st3" d="M125.6,234.9h-2.8l-0.5,2.1H120l2.9-9.5h2.7l2.9,9.5h-2.4L125.6,234.9z M125.2,233.2l-1-4.2l-1,4.2H125.2z"/>
	<path class="st3" d="M132.2,233.3h-0.9v3.6h-2.3v-9.5h3.1c2.6,0,3.9,0.9,3.9,2.9c0,1.3-0.6,2-1.8,2.6l2.4,4.1h-2.5L132.2,233.3z
		 M131.3,231.7h0.9c1,0,1.5-0.4,1.5-1.4c0-0.9-0.5-1.3-1.7-1.3h-0.8V231.7z"/>
	<rect x="137.4" y="227.4" class="st3" width="2.3" height="9.5"/>
	<path class="st3" d="M147.7,228.4l-1,1.2c-0.7-0.5-1.3-0.8-2.1-0.8c-0.8,0-1.3,0.3-1.3,0.9c0,0.6,0.4,0.9,1.8,1.3
		c1.8,0.6,2.8,1.3,2.8,3.1c0,1.8-1.4,3-3.8,3c-1.7,0-2.8-0.6-3.6-1.4l1.1-1.3c0.7,0.6,1.5,0.9,2.4,0.9c0.9,0,1.5-0.4,1.5-1.2
		c0-0.7-0.4-1-1.7-1.4c-2.1-0.7-2.9-1.5-2.9-3c0-1.7,1.5-2.8,3.4-2.8C145.8,227.2,146.9,227.6,147.7,228.4"/>
	<rect x="152.2" y="227.4" class="st3" width="2.3" height="9.5"/>
	<polygon class="st3" points="158.3,235.1 162,235.1 161.8,236.9 156.1,236.9 156.1,227.4 158.3,227.4 	"/>
	<polygon class="st3" points="168.6,229 165.3,229 165.3,231.3 168.2,231.3 168.2,232.9 165.3,232.9 165.3,235.3 168.8,235.3 
		168.8,236.9 163,236.9 163,227.4 168.8,227.4 	"/>
	<rect x="169.8" y="231.8" class="st3" width="4.4" height="1.7"/>
	<path class="st3" d="M183.2,232.1c0,3.8-2.3,4.8-4.7,4.8h-2.9v-9.5h2.7C180.8,227.4,183.2,228.2,183.2,232.1 M177.8,229v6.3h0.7
		c1.4,0,2.3-0.6,2.3-3.2c0-2.6-1-3.1-2.3-3.1H177.8z"/>
	<polygon class="st3" points="190,229 186.6,229 186.6,231.3 189.6,231.3 189.6,232.9 186.6,232.9 186.6,235.3 190.2,235.3 
		190.2,236.9 184.4,236.9 184.4,227.4 190.2,227.4 	"/>
	<rect x="191.2" y="231.8" class="st3" width="4.4" height="1.7"/>
	<polygon class="st3" points="197,227.4 202.6,227.4 202.4,229 199.2,229 199.2,231.5 202,231.5 202,233.1 199.2,233.1 199.2,236.9 
		197,236.9 	"/>
	<path class="st3" d="M206.7,233.3h-0.9v3.6h-2.3v-9.5h3.1c2.6,0,3.9,0.9,3.9,2.9c0,1.3-0.6,2-1.8,2.6l2.4,4.1h-2.5L206.7,233.3z
		 M205.8,231.7h0.9c1,0,1.5-0.4,1.5-1.4c0-0.9-0.5-1.3-1.7-1.3h-0.8V231.7z"/>
	<path class="st3" d="M216.4,234.9h-2.8l-0.5,2.1h-2.3l2.9-9.5h2.7l2.9,9.5h-2.4L216.4,234.9z M216,233.2l-1-4.2l-1,4.2H216z"/>
	<path class="st3" d="M227.2,236.9h-2.9l-2.8-7.4c0.1,0.9,0.3,2.1,0.3,3.9v3.5h-2v-9.5h2.8l2.8,7.4c-0.1-0.8-0.3-2-0.3-3.6v-3.9h2
		V236.9z"/>
	<path class="st3" d="M235.6,228.2l-1.1,1.3c-0.5-0.4-1.1-0.7-1.7-0.7c-1.2,0-2.1,1-2.1,3.3c0,2.3,0.8,3.3,2.1,3.3
		c0.8,0,1.3-0.3,1.9-0.8l1,1.3c-0.6,0.6-1.7,1.2-3,1.2c-2.6,0-4.4-1.8-4.4-5c0-3.2,1.9-5,4.3-5C234,227.2,234.8,227.5,235.6,228.2"
		/>
	<polygon class="st3" points="242.2,229 238.9,229 238.9,231.3 241.8,231.3 241.8,232.9 238.9,232.9 238.9,235.3 242.5,235.3 
		242.5,236.9 236.6,236.9 236.6,227.4 242.5,227.4 	"/>
	<polygon class="st3" points="96,242 92.6,242 92.6,244.3 95.6,244.3 95.6,245.9 92.6,245.9 92.6,248.3 96.2,248.3 96.2,250 
		90.4,250 90.4,240.4 96.2,240.4 	"/>
	<path class="st3" d="M105.1,245.1c0,3.8-2.3,4.8-4.7,4.8h-2.9v-9.5h2.7C102.7,240.4,105.1,241.2,105.1,245.1 M99.7,242.1v6.3h0.7
		c1.4,0,2.3-0.6,2.3-3.2c0-2.6-1-3.1-2.3-3.1H99.7z"/>
	<path class="st3" d="M113.6,246.8c0,1.9-1.2,3.4-3.7,3.4c-2.5,0-3.7-1.4-3.7-3.4v-6.4h2.3v6.3c0,1.2,0.4,1.8,1.5,1.8
		c1,0,1.5-0.6,1.5-1.8v-6.3h2.3V246.8z"/>
	<path class="st3" d="M121.9,241.2l-1.1,1.3c-0.5-0.4-1.1-0.7-1.7-0.7c-1.2,0-2.1,1-2.1,3.3c0,2.3,0.8,3.3,2.1,3.3
		c0.8,0,1.3-0.3,1.9-0.8l1,1.3c-0.6,0.6-1.7,1.2-3,1.2c-2.6,0-4.4-1.8-4.4-5c0-3.2,1.9-5,4.3-5C120.3,240.2,121.1,240.6,121.9,241.2
		"/>
	<path class="st3" d="M127.4,247.9h-2.8l-0.5,2.1h-2.3l2.9-9.5h2.7l2.9,9.5h-2.4L127.4,247.9z M127.1,246.3l-1-4.2l-1,4.2H127.1z"/>
	<polygon class="st3" points="137.2,242.2 134.8,242.2 134.8,250 132.6,250 132.6,242.2 130.1,242.2 130.1,240.4 137.4,240.4 	"/>
	<rect x="138.2" y="240.4" class="st3" width="2.3" height="9.5"/>
	<path class="st3" d="M150.2,245.2c0,3.1-1.6,5-4.3,5c-2.7,0-4.3-1.8-4.3-5c0-3.1,1.6-5,4.3-5C148.6,240.2,150.2,242,150.2,245.2
		 M144,245.2c0,2.4,0.7,3.4,1.9,3.4c1.3,0,1.9-0.9,1.9-3.4c0-2.4-0.7-3.3-1.9-3.3C144.7,241.8,144,242.8,144,245.2"/>
	<path class="st3" d="M158.8,250h-2.9l-2.8-7.4c0.1,0.9,0.3,2.1,0.3,3.9v3.5h-2v-9.5h2.8l2.8,7.4c-0.1-0.8-0.3-2-0.3-3.6v-3.9h2V250
		z"/>
</g>
</svg>
