<svg xmlns="http://www.w3.org/2000/svg" xmlns:xlink="http://www.w3.org/1999/xlink" viewBox="0 0 309.85 275.9"><defs><style>.cls-1{fill:none;}.cls-2{clip-path:url(#clip-path);}.cls-3{fill:#1d1d1b;}</style><clipPath id="clip-path" transform="translate(-41.36 -49.4)"><rect class="cls-1" width="398.55" height="268.8"/></clipPath></defs><title>Layer 1</title><g id="Layer_2" data-name="Layer 2"><g id="Layer_1-2" data-name="Layer 1"><path d="M196.39,268.8H322.84a27.16,27.16,0,0,1,16.9,5.46c7.95,6,11.75,14.08,11.46,24.07A28.07,28.07,0,0,1,327.34,325a32.45,32.45,0,0,1-4.29.31q-126.7,0-253.4,0a28.26,28.26,0,0,1-5.09-56.07,30.55,30.55,0,0,1,5.49-.41Q133.22,268.79,196.39,268.8ZM88,281.48c-6.31-3.25-15.91-1.74-21.19,5.85a17.25,17.25,0,0,0,3.54,23.23c6.91,5.49,16.37,4.36,21.3-.18L88,306.26c-5.62,3.66-11.36,2.26-14.63-.76a11.42,11.42,0,0,1,1.94-18.31c3.37-2,6.9-1.9,10.54-.61Zm178.79,7.75c.61.46,1,.63,1.23.95.67,1.13,1.29,2.3,1.86,3.48a1.47,1.47,0,0,0,1.57,1,23.8,23.8,0,0,1,4,0c1.3.13,1.77-.43,1.94-1.59.06-.44.29-1.18.53-1.21a8,8,0,0,1,3,0c.35.08.44,1.07.72,1.61s.49,1,.81,1.08a22,22,0,0,0,3.06.05c-.1-.5-.15-.85-.25-1.19q-1.45-4.86-2.95-9.72c-.82-2.69-.83-2.65-3.67-2.68a1.31,1.31,0,0,0-1.51,1.12c-.95,3.29-2,6.56-2.95,9.84-.12.39-.25.77-.45,1.39L271.1,289l.44-.37a3.84,3.84,0,0,0,1.75-4.65,3.72,3.72,0,0,0-3.56-2.71c-1.83-.16-3.67-.2-5.5-.19-.3,0-.85.49-.85.76q-.09,6,0,12a1,1,0,0,0,.64.73c.89.08,1.8,0,2.81,0ZM162.68,312.6c-.1-.44-.14-.67-.21-.89-1-3.28-2-6.56-2.94-9.84-.87-2.91-.87-2.89-3.91-2.85a1.12,1.12,0,0,0-1.27.93c-.44,1.62-.95,3.21-1.43,4.81l-1.81,5.89-1.37-1.53-.75.42c-2.21,1.26-3.92.62-4.35-1.86a11.63,11.63,0,0,1,.1-4.24,2.37,2.37,0,0,1,3.71-1.62c.9.49,1.43.38,1.93-.45a9.41,9.41,0,0,1,.7-.93,6.09,6.09,0,0,0-7.72-.59c-2.41,1.88-2.82,4.47-2.5,7.31s1.49,4.84,4.3,5.54a6.24,6.24,0,0,0,5.37-.89c.2.3.34.72.51.73a9.06,9.06,0,0,0,2.85-.05c.35-.1.43-1.08.7-1.63s.5-1,.82-1.06a20.45,20.45,0,0,1,2.93-.05,22.39,22.39,0,0,0,.6,2.22,1.06,1.06,0,0,0,.71.6C160.59,312.64,161.55,312.6,162.68,312.6ZM84.87,288.77a9,9,0,0,0-11.65,3.32,9.35,9.35,0,0,0,2,12.2c3.49,2.79,8.68,2.51,11,.11-.92-1-1.89-2-2.77-3.12a1.88,1.88,0,0,0-2.1-.84,3.06,3.06,0,0,1-3.34-1.6,3.47,3.47,0,0,1,3.48-5.23l1.15.14Zm113.94,18.47c-.93-2.42-1.85-4.88-2.82-7.32-.13-.33-.44-.8-.7-.82-1.22-.09-2.44,0-3.66,0v13.45h3v-8a4.29,4.29,0,0,1,.22.37c.59,1.61,1.19,3.22,1.78,4.82,1.12,3,1.12,3,4.32,2.93h.24c.62.06.85-.21.85-.83,0-4,0-7.92-.05-11.87,0-.29-.47-.69-.81-.83s-.79,0-1.19,0c-.89-.1-1.19.29-1.17,1.16C198.84,302.54,198.81,304.89,198.81,307.24Zm97.48-26.13h-2.93V289a52.24,52.24,0,0,1-2.2-5.14c-1.14-3-1.14-3-4.28-2.85-.69,0-1,.22-1,1,0,3.92,0,7.83,0,11.75,0,.68.27.93.92.88a4.4,4.4,0,0,1,1,0c1.07.16,1.38-.3,1.35-1.34-.07-2.28,0-4.57,0-6.78.86,2.32,1.74,4.75,2.69,7.15.14.38.55.89.88.92,1.17.11,2.36,0,3.62,0Zm-128,7.83.34-.22c2.26-1.33,2.23-2.79,1.88-4.7s-1.86-2.6-3.62-2.75-3.42-.13-5.13-.24c-.9-.07-1.16.27-1.15,1.16,0,3.55,0,7.11,0,10.66v1.76c1,0,1.76,0,2.54,0s1-.28,1-1c0-1.31,0-2.62,0-3.94l.29-.23c.33.28.77.49,1,.84.7,1.16,1.29,2.38,2,3.56.16.28.45.68.7.69,1.09.08,2.18,0,3.57,0l-1.7-2.91C169.36,290.79,168.83,289.9,168.26,288.94ZM120,312.6c.68,0,1.36,0,2,0,2.77-.12,4.93-1.67,5.47-4.16a13,13,0,0,0,.26-4c-.29-3.1-2-4.78-5.14-5.15-1.46-.17-2.94-.12-4.4-.24-1-.08-1.31.31-1.3,1.3,0,3.07,0,6.14,0,9.21S117,312.61,120,312.6Zm104.71-24.83c0,2,0,3.92,0,5.87,0,.71.26,1,1,1,1.39-.05,2.79,0,4.19,0a5.47,5.47,0,0,0,5.45-4.33,13.86,13.86,0,0,0,.22-3.8,5.26,5.26,0,0,0-5.11-5.19c-1.54-.17-3.1-.13-4.64-.23-.86-.06-1.12.31-1.1,1.12C224.75,284,224.73,285.9,224.73,287.77ZM184,312.87a5.43,5.43,0,0,0,5.93-4.74,13.94,13.94,0,0,0,.07-4,5.53,5.53,0,0,0-5.21-5.31c-3.48-.2-5.73,1.3-6.53,4.49a11,11,0,0,0-.32,3.08C178.12,310.55,180.31,312.86,184,312.87Zm-44.39-8.49c0-1.47,0-2.95,0-4.43,0-.66-.22-1-.9-.92a4.79,4.79,0,0,1-1.07,0c-1.2-.18-1.6.27-1.56,1.51.1,2.59.06,5.19,0,7.79,0,1.61-1.6,2.58-2.78,1.64a3.09,3.09,0,0,1-.87-2.08c-.11-2.19,0-4.39-.05-6.59,0-2.56.54-2.22-2.41-2.27-.79,0-1,.29-1,1.05,0,2.72,0,5.44,0,8.15a4.38,4.38,0,0,0,3.64,4.54,11.66,11.66,0,0,0,2.51.08,4.48,4.48,0,0,0,4.48-4.51C139.64,307,139.62,305.7,139.62,304.38Zm8.44-9.87c.42.05.61.09.81.09a6.24,6.24,0,0,0,2.58-.17c.46-.25.46-1.35.72-2,.09-.24.32-.59.49-.59a9.13,9.13,0,0,1,3,.1c.37.11.41,1.19.7,1.78.18.36.54.84.86.88a24,24,0,0,0,3,0c-.14-.59-.21-1-.34-1.43-.92-3.09-1.86-6.18-2.78-9.27s-.88-3-4-2.88a1.06,1.06,0,0,0-1.17.9c-.39,1.38-.83,2.75-1.24,4.12Zm-6.26-4.11c1.1-.13,2-.19,3-.36a4.26,4.26,0,0,0,3.71-4.55,4,4,0,0,0-3.78-4.19,45.49,45.49,0,0,0-5.48-.22c-.3,0-.85.5-.85.78q-.09,6,0,12a1,1,0,0,0,.65.74c.89.09,1.79,0,2.78,0Zm34.46,2.6c.33.21.58.35.79.51a7.73,7.73,0,0,0,6.39,1.22,4.1,4.1,0,0,0,3.59-3.92c.16-1.93-.86-3.4-3-4.25-.73-.3-1.5-.53-2.24-.81s-1.51-.7-1.07-1.52a2.18,2.18,0,0,1,1.77-.77,12.43,12.43,0,0,1,2.71,1l1.49-1.76a6.45,6.45,0,0,0-6-1.79,4.05,4.05,0,0,0-3.76,3.6c-.2,1.73.85,3.24,2.88,4.08a22,22,0,0,1,2.66,1,1.88,1.88,0,0,1,.83,1.37c0,.39-.57.92-1,1.12-1.22.54-2.31-.07-3.39-.61a1.39,1.39,0,0,0-1.13-.1A11.84,11.84,0,0,0,176.26,293Zm-60.71,19.6V310h-4.84v-3h2c2.1,0,2.1,0,1.92-2.13a1.48,1.48,0,0,0-.19-.39c-1,0-2,0-3.08,0-.26,0-.71-.3-.73-.5a22.12,22.12,0,0,1,0-2.48h4.7l.32-2.48c-2.72,0-5.27,0-7.81,0-.23,0-.65.49-.65.75q-.08,6,0,12c0,.27.4.75.63.76C110.35,312.62,112.89,312.6,115.55,312.6ZM215.8,281.05c-2.66,0-5.24,0-7.83.05-.19,0-.53.62-.53,1,0,3.84,0,7.68,0,11.51,0,.77.22,1.07,1,1.05,2.12,0,4.24-.07,6.36,0,1.09,0,1.11-.53,1.13-1.33s-.14-1.35-1.18-1.28c-1.25.09-2.51,0-3.73,0v-3h2.13c2,0,2,0,1.83-1.92,0-.15-.06-.3-.12-.63H211v-2.9c1.15,0,2.22-.06,3.28,0s1.52-.26,1.46-1.32A10.39,10.39,0,0,1,215.8,281.05Zm29.42,0c-2.57,0-5.12,0-7.67,0-.21,0-.59.59-.59.91,0,3.88,0,7.76,0,11.64,0,.71.22,1,1,1,2.16,0,4.33-.07,6.48,0,1.16,0,1-.66,1.07-1.4s-.17-1.26-1.12-1.2c-1.26.07-2.53,0-3.81,0v-3H243c1.57,0,1.58,0,1.53-1.63a7.48,7.48,0,0,0-.15-.92h-3.81v-2.9H243c2.58,0,2,.1,2.3-2.08A2.15,2.15,0,0,0,245.22,281.05Zm64,13.46h8.14V292h-4.82v-3h3.89v-2.5h-4a12.93,12.93,0,0,0,0-1.66c-.13-1,.28-1.33,1.27-1.26s2.29,0,3.44,0c.13-.92.23-1.65.34-2.46h-8.26Zm-1.15-12.05a6,6,0,0,0-9.68,1.82,9.38,9.38,0,0,0-.53,5.4c.74,4.36,4.2,6,8.07,4.9,2.49-.72,2.63-1.54.84-3.36a.57.57,0,0,0-.17-.06l-.67.39c-2.17,1.27-3.82.58-4.37-1.89a10.82,10.82,0,0,1-.17-2.61c.11-3.16,2.12-4.63,4.79-2.85a1.23,1.23,0,0,0,.35.06ZM92.61,291.08l-5,2.35a8,8,0,0,1-.44,7.93.94.94,0,0,0,0,.85c1.11,1.29,2.26,2.53,3.39,3.77C94.36,302.94,95.47,294.82,92.61,291.08Zm23,0-.9.53c-2,1.13-3.77.46-4.19-1.76a11.37,11.37,0,0,1,0-4c.4-2.24,2.08-2.94,4.11-1.9l.76.38a12.91,12.91,0,0,1,.92-1c.8-.71.64-1.2-.24-1.73-2.88-1.72-6.94-.79-8.45,2.11a8.71,8.71,0,0,0,0,8.39c1.76,3.37,7.39,3.87,9.47.85Zm12.09-8.65a6.09,6.09,0,0,0-9,.65,9.22,9.22,0,0,0-.11,9.43c2,3,7.29,3.27,9.2.43-.22-.31-.45-.64-.7-.95s-.5-.59-.77-.91c-.42.26-.75.48-1.1.66-1.77.93-3.56.27-3.91-1.68a13,13,0,0,1,0-4.58,2.35,2.35,0,0,1,3.76-1.65,1.16,1.16,0,0,0,1.84-.43C127.14,283.09,127.4,282.79,127.67,282.44Zm134.51,1.15.32-2.55c-2.61,0-5.08,0-7.54,0a1,1,0,0,0-.67.73q-.06,6.06,0,12.1a.92.92,0,0,0,.62.66c.89.07,1.8,0,2.81,0,0-1.2,0-2.23,0-3.26,0-2.29-.3-2,1.94-2,.59,0,1.18,0,1.8,0v-2.59h-3.74c0-.82,0-1.49,0-2.16s.22-1.07,1-1C259.84,283.63,261,283.59,262.18,283.59Zm-93.29,18.22h1.4c1.82,0,1.77,0,2.08-1.78.15-.81-.16-1-.85-1-2.84,0-5.68,0-8.51,0-1.31,0-.87.95-.95,1.62s.12,1.23,1,1.16c.74-.06,1.49,0,2.33,0v7.94c0,3.08,0,3.08,3.14,2.81.07,0,.13-.07.33-.18Zm32.41-10v-8.35c0-2.65,0-2.71-2.64-2.38a1.25,1.25,0,0,0-.8.86q-.08,5.94,0,11.87c0,.27.4.75.63.75,2.5.06,5,0,7.61,0,.1-1,.19-1.82.29-2.79Zm-72.62,2.79c.89,0,1.57-.05,2.24,0,1,.11,1.28-.34,1.26-1.3-.05-3.32,0-6.63,0-9.94,0-2.58.39-2.29-2.38-2.35-1,0-1.12.38-1.11,1.21,0,3.12,0,6.23,0,9.34Zm43.44,0c.89,0,1.57-.05,2.23,0,1,.11,1.29-.34,1.27-1.3-.05-3.31,0-6.63,0-9.94,0-2.58.39-2.29-2.38-2.35-.95,0-1.12.38-1.11,1.21,0,3,0,6.07,0,9.1Zm20.41,0a19.2,19.2,0,0,1,2.17,0c1.1.13,1.34-.36,1.32-1.37-.05-3.27,0-6.54,0-9.82,0-2.62.53-2.38-2.57-2.38,0,0-.09,0-.11,0-.27.26-.76.52-.76.78C192.51,286,192.53,290.2,192.53,294.6Zm-16,4.44a19.88,19.88,0,0,1-2.07,0c-1.08-.12-1.37.34-1.35,1.37,0,3.12,0,6.24,0,9.35.05,3.33-.72,2.85,3,2.84a1.45,1.45,0,0,0,.36-.13ZM90.29,281.93l-4.18,9.45.32.27,9.34-4.36A16.43,16.43,0,0,0,90.29,281.93Zm159.29,7.87c.79,0,1.6,0,2.39,0s.95-.45.87-1.06.42-1.61-.77-1.65c-1.64-.06-3.28,0-4.92,0-1.12,0-.77.89-.81,1.5s-.13,1.26.84,1.22C248,289.78,248.78,289.8,249.58,289.8Zm-26.42,0a13.82,13.82,0,0,0,0-2c0-.27-.35-.7-.55-.71-1.72-.05-3.44-.12-5.15,0-1.15.09-.52,1.13-.64,1.74s0,1,.71.95C219.33,289.79,221.16,289.8,223.16,289.8Z" transform="translate(-41.36 -49.4)"/><path d="M266.87,287v-3.26a2.35,2.35,0,0,1,2.62.58,2.3,2.3,0,0,1,.09,2C269,287.38,267.92,287,266.87,287Z" transform="translate(-41.36 -49.4)"/><path d="M279.5,284.72l1,4.41h-2.22c.35-1.52.69-3,1-4.4Z" transform="translate(-41.36 -49.4)"/><path d="M157.75,307.12h-2.26l1-4.3.2,0Z" transform="translate(-41.36 -49.4)"/><path d="M164.16,287v-3.31c1-.18,2.09-.22,2.65.74a2.34,2.34,0,0,1,0,2C166.23,287.39,165.15,287,164.16,287Z" transform="translate(-41.36 -49.4)"/><path d="M120.54,301.91c2.26-.42,3.34.31,3.6,2.5a13.39,13.39,0,0,1,0,2.83c-.24,2.15-1.34,3-3.59,2.7Z" transform="translate(-41.36 -49.4)"/><path d="M228.25,291.92V284c2-.6,3.35.15,3.61,2.08a14.1,14.1,0,0,1,0,3.31C231.64,291.42,230.47,292.22,228.25,291.92Z" transform="translate(-41.36 -49.4)"/><path d="M186.65,305.8a24.38,24.38,0,0,1-.44,2.81,2.09,2.09,0,0,1-2.06,1.69,2.05,2.05,0,0,1-2.14-1.57,9.72,9.72,0,0,1,0-5.75,2.17,2.17,0,0,1,4.17,0C186.39,303.91,186.5,304.9,186.65,305.8Z" transform="translate(-41.36 -49.4)"/><path d="M153,289.12l1.09-4.78,1.13,4.78Z" transform="translate(-41.36 -49.4)"/><path d="M141.91,283.64c1,0,2.16-.12,2.65.89a2.9,2.9,0,0,1,0,2.24c-.48,1.08-1.6.78-2.64.71Z" transform="translate(-41.36 -49.4)"/><g id="Layer_1-2-2" data-name="Layer 1-2"><g class="cls-2"><path class="cls-3" d="M196.35,49.4a34.25,34.25,0,1,0,34.53,34.25A34.25,34.25,0,0,0,196.35,49.4h0m0,41.81A7.56,7.56,0,1,1,204,83.65a7.56,7.56,0,0,1-7.63,7.56h0" transform="translate(-41.36 -49.4)"/><path class="cls-3" d="M220.83,185.86l1.38-.68c1.37-.7,8.18-4.44,6.85-9.16-1.05-3.64-5.68-5.12-5.68-5.12s-28.79-8.54-46.67-14.3c-18.5-5.92-19.06-19.06-19.24-21.45A21.7,21.7,0,0,1,169.05,114l.85-.41.33.51s-.52.28-.61.31c-.94.49-6.44,3.51-5.68,7.4s5.55,5.15,5.55,5.15,28.8,8.54,46.68,14.32c18.48,5.92,19.05,19,19.24,21.43a22.88,22.88,0,0,1-12.77,23l-1.41.66Z" transform="translate(-41.36 -49.4)"/><path class="cls-3" d="M74.86,200.3a9.14,9.14,0,0,0-7.25-3.62,9.71,9.71,0,0,0-6.4,2.37A9.6,9.6,0,0,0,58,205.94a9.43,9.43,0,0,0,2.65,6.37,9.92,9.92,0,0,0,7.13,3.07,9.37,9.37,0,0,0,8.08-4.91H64.35v-4.75h18v.59a14.86,14.86,0,1,1-1.35-6Z" transform="translate(-41.36 -49.4)"/><path class="cls-3" d="M120.58,206.09a9.3,9.3,0,0,1-18.59,0,9.18,9.18,0,0,1,9.05-9.32h.23v-.12a9.37,9.37,0,0,1,9.35,9.38v0m-9.31-14.34a14.37,14.37,0,1,0,.12,0h-.12" transform="translate(-41.36 -49.4)"/><path class="cls-3" d="M149.48,214.72v-7h2.25a7.54,7.54,0,0,1,3.63.55,3.06,3.06,0,0,1,1.82,2.82,3,3,0,0,1-1.34,2.67,7.27,7.27,0,0,1-4.23,1Zm-5.12,4.93h6.91c2.65,0,5.48-.23,7.68-1.81a8,8,0,0,0,3.36-6.53,6.67,6.67,0,0,0-4.7-6.64,5.64,5.64,0,0,0,3-5.23,7.11,7.11,0,0,0-3.88-6.14,16.11,16.11,0,0,0-7.4-1h-5Zm5.12-16.89v-5.59h.93a8.28,8.28,0,0,1,3.36.25,2.58,2.58,0,0,1,1.63,2.38,2.77,2.77,0,0,1-1.57,2.52,9.1,9.1,0,0,1-3.48.41Z" transform="translate(-41.36 -49.4)"/><polygon class="cls-3" points="141.28 142.87 156.14 142.87 156.14 147.79 146.41 147.79 146.41 154.1 155.71 154.1 155.71 159.03 146.41 159.03 146.41 165.32 156.14 165.32 156.14 170.25 141.28 170.25 141.28 142.87"/><polygon class="cls-3" points="177.91 142.87 183.03 142.87 183.03 165.32 191.49 165.32 191.49 170.25 177.91 170.25 177.91 142.87"/><rect class="cls-3" x="210.52" y="142.86" width="5.12" height="27.38"/><polygon class="cls-3" points="238.67 142.87 244.43 142.87 255.94 162.86 255.94 142.87 261.06 142.87 261.06 170.25 255.38 170.25 243.77 150.31 243.77 170.25 238.67 170.25 238.67 142.87"/><path class="cls-3" d="M328.19,212a3.52,3.52,0,0,0,3.6,3.45l.25,0a3.46,3.46,0,0,0,3.59-3.35V212c0-3-2.53-3.91-4.82-4.63A10.79,10.79,0,0,1,326,204.8,7.7,7.7,0,0,1,332,191.75a8,8,0,0,1,8.08,7.77h-5.3a3,3,0,0,0-3.07-2.84h0a2.66,2.66,0,0,0-2.75,2.57,2.55,2.55,0,0,0,0,.39c0,2,1.83,2.78,3.47,3.34a16,16,0,0,1,5.39,2.52,7.41,7.41,0,0,1,3,6.23,9,9,0,0,1-17.92.29Z" transform="translate(-41.36 -49.4)"/><polygon class="cls-3" points="21.46 197.45 11.87 197.45 11.87 178.75 13.84 178.75 13.84 196.09 21.46 196.09 21.46 197.45"/><polygon class="cls-3" points="24.76 178.84 26.66 178.84 24.72 183.98 23.7 183.98 24.76 178.84"/><path class="cls-3" d="M83.26,236.43v1.35H76.8v7.71h8.49v1.36H74.83V228.16H85v1.36H76.8v6.91Zm-3-9H78.74L81.55,225h2.62Z" transform="translate(-41.36 -49.4)"/><path class="cls-3" d="M109,242.36a9.74,9.74,0,0,1-8.45,4.8,9.7,9.7,0,1,1,.12-19.37,8.37,8.37,0,0,1,7.93,4.44l-2,.4a6.28,6.28,0,0,0-5.92-3.59c-4,0-7.95,2.4-7.95,8.43s3.82,8.4,7.86,8.4a7.4,7.4,0,0,0,6.42-4Z" transform="translate(-41.36 -49.4)"/><path class="cls-3" d="M122.72,229.07c4,0,7.85,2.49,7.85,8.41s-3.82,8.39-7.85,8.39-7.86-2.5-7.86-8.39,3.82-8.41,7.83-8.41Zm-9.88,8.44c0,6.68,4.51,9.71,9.88,9.71s9.87-3,9.87-9.71-4.53-9.72-9.87-9.72-9.88,3-9.88,9.69Z" transform="translate(-41.36 -49.4)"/><polygon class="cls-3" points="106.68 197.45 97.11 197.45 97.11 178.75 99.07 178.75 99.07 196.09 106.68 196.09 106.68 197.45"/><polygon class="cls-3" points="121.26 187.03 121.26 188.38 114.79 188.38 114.79 196.09 123.29 196.09 123.29 197.45 112.82 197.45 112.82 178.75 123.03 178.75 123.03 180.1 114.79 180.1 114.79 187.03 121.26 187.03"/><path class="cls-3" d="M180,245.5v-16h3.91c5.37,0,7.58,2.88,7.58,8s-2.46,8-7.55,8Zm4.07,1.35c6.68,0,9.45-3.4,9.45-9.38s-3-9.31-9.52-9.31H178v18.69Z" transform="translate(-41.36 -49.4)"/><polygon class="cls-3" points="167.57 187.03 167.57 188.38 161.1 188.38 161.1 196.09 169.58 196.09 169.58 197.45 159.1 197.45 159.1 178.75 169.33 178.75 169.33 180.1 161.1 180.1 161.1 187.03 167.57 187.03"/><polygon class="cls-3" points="191.78 197.45 182.21 197.45 182.21 178.75 184.17 178.75 184.17 196.09 191.78 196.09 191.78 197.45"/><polygon class="cls-3" points="195.19 179.35 197.08 179.35 195.16 184.48 194.12 184.48 195.19 179.35"/><rect class="cls-3" x="204.47" y="178.75" width="2.01" height="18.69"/><path class="cls-3" d="M267.32,244.85c1.17-3.08,3.42-8.46,6.88-16.69h3.05v18.69h-1.87c0-8.48,0-14.19.11-17.21h-.12c-1.17,3-3.51,8.58-7.15,17.21H266.4c-3.55-8.5-5.92-14.21-7.15-17.21h-.07c.07,3,.09,8.71.09,17.21h-1.85V228.16h3.05c3.43,8.28,5.71,13.63,6.86,16.69Z" transform="translate(-41.36 -49.4)"/><path class="cls-3" d="M295.5,239.61h-8l2-5.1c.65-1.6,1.31-3.26,1.93-5h.16c.65,1.81,1.32,3.45,2,5.1Zm.57,1.32,2.43,5.92h2.24l-8-18.69h-2.47l-8,18.69h2.19l2.39-5.92Z" transform="translate(-41.36 -49.4)"/><path class="cls-3" d="M323.26,244.85a14.93,14.93,0,0,1-8.39,2.37c-6.16,0-10.57-3.63-10.57-9.72,0-6.93,5.45-9.71,10.66-9.71a10.13,10.13,0,0,1,8.18,3.65l-2,.61a7,7,0,0,0-6.12-3c-3.76,0-8.7,2.23-8.7,8.42,0,5.33,3.79,8.42,8.7,8.42a12.22,12.22,0,0,0,6.28-1.6v-4.9h-5.69v-1.31h7.64Z" transform="translate(-41.36 -49.4)"/><polygon class="cls-3" points="297.19 187.03 297.19 188.38 290.7 188.38 290.7 196.09 299.2 196.09 299.2 197.45 288.74 197.45 288.74 178.75 298.93 178.75 298.93 180.1 290.7 180.1 290.7 187.03 297.19 187.03"/></g></g></g></g></svg>