<?xml version="1.0" encoding="utf-8"?>
<!-- Generator: Adobe Illustrator 27.0.0, SVG Export Plug-In . SVG Version: 6.00 Build 0)  -->
<svg version="1.1" id="Layer_1" xmlns="http://www.w3.org/2000/svg" xmlns:xlink="http://www.w3.org/1999/xlink" x="0px" y="0px"
	 viewBox="0 0 254.5 247.9" style="enable-background:new 0 0 254.5 247.9;" xml:space="preserve">
<style type="text/css">
	.st0{fill:#005CAB;}
	.st1{fill:#807062;}
	.st2{clip-path:url(#SVGID_00000091726437249189111820000003640945310934869639_);fill:#373CF5;}
	.st3{clip-path:url(#SVGID_00000072958344455864058400000013321640983700351901_);fill:#FFFFFF;}
	.st4{clip-path:url(#SVGID_00000180336002287165751160000016824011157116807102_);fill:#FFFFFF;}
	.st5{clip-path:url(#SVGID_00000002376117519143598980000011776543435862683297_);fill:#FFFFFF;}
	.st6{clip-path:url(#SVGID_00000174603605433786249540000005951972162646069668_);fill:#FFFFFF;}
	.st7{clip-path:url(#SVGID_00000075124976151436349290000016128192234440946867_);fill:#FFFFFF;}
	.st8{clip-path:url(#SVGID_00000138542226429770496830000017965104483059897774_);fill:#FFFFFF;}
	.st9{clip-path:url(#SVGID_00000056401584861498642540000009747181896076381118_);fill:#FFFFFF;}
	.st10{clip-path:url(#SVGID_00000096051819002715392740000012997839540887150267_);fill:#FFFFFF;}
	.st11{clip-path:url(#SVGID_00000155138886642845878530000009079209851769358731_);fill:#FFFFFF;}
	.st12{clip-path:url(#SVGID_00000167359541260971720220000011410426244589524153_);fill:#FFFFFF;}
	.st13{clip-path:url(#SVGID_00000160900531187722396050000016545804632795047339_);fill:#FFFFFF;}
	.st14{clip-path:url(#SVGID_00000079455745522326997080000010053197258824782993_);fill:#FFFFFF;}
	.st15{clip-path:url(#SVGID_00000075861970467462346330000010059793795796975023_);fill:#FFFFFF;}
	.st16{clip-path:url(#SVGID_00000055672706811963094790000017584751079539217805_);fill:#FFFFFF;}
	.st17{clip-path:url(#SVGID_00000114051599381807754150000015749659006542514335_);fill:#FFFFFF;}
	.st18{clip-path:url(#SVGID_00000176765372674956162850000010487442280354923412_);fill:#FFFFFF;}
	.st19{clip-path:url(#SVGID_00000125563533896085167080000015468638348385127577_);fill:#FFFFFF;}
	.st20{clip-path:url(#SVGID_00000150064018963411046880000006272219389703617957_);fill:#FFFFFF;}
	.st21{clip-path:url(#SVGID_00000002371283466376887330000018170616610769995407_);fill:#FFFFFF;}
	.st22{clip-path:url(#SVGID_00000013897198904982512630000001491408625159567026_);fill:#FFFFFF;}
	.st23{clip-path:url(#SVGID_00000155831636826827303850000012524587818320880259_);fill:#FFFFFF;}
	.st24{clip-path:url(#SVGID_00000070834503030855764980000012218926570972392579_);fill:#FFFFFF;}
	.st25{clip-path:url(#SVGID_00000018937712381403394910000007780782406718521487_);fill:#FFFFFF;}
	.st26{clip-path:url(#SVGID_00000101084425569785377360000009442748604263695493_);fill:#FFFFFF;}
	.st27{clip-path:url(#SVGID_00000061459017716607719300000013832210460025988489_);fill:#FFFFFF;}
	.st28{clip-path:url(#SVGID_00000083770671847582731630000015271234590029319565_);fill:#FFFFFF;}
	.st29{clip-path:url(#SVGID_00000117655152024411521510000013502547352179609769_);fill:#FFFFFF;}
	.st30{clip-path:url(#SVGID_00000007423184805939550000000007902389713398310828_);fill:#FFFFFF;}
	.st31{clip-path:url(#SVGID_00000137834467035906694460000017997291918131202745_);fill:#FFFFFF;}
	.st32{clip-path:url(#SVGID_00000134963297693215383910000008545306157545391744_);fill:#FFFFFF;}
	.st33{clip-path:url(#SVGID_00000139995643597775987250000002682830009446188439_);fill:#FFFFFF;}
	.st34{clip-path:url(#SVGID_00000161628307163295524550000011175928182250813619_);fill:#FFFFFF;}
	.st35{clip-path:url(#SVGID_00000033339136145878203480000009562182938772490922_);fill:#FFFFFF;}
	.st36{clip-path:url(#SVGID_00000125589811594504438960000008210370585589861032_);fill:#FFFFFF;}
</style>
<g>
	<path class="st0" d="M127.3,61c16.9,0,30.5-13.7,30.5-30.5c0-16.9-13.7-30.5-30.5-30.5S96.8,13.7,96.8,30.5
		C96.8,47.4,110.5,61,127.3,61L127.3,61z M127.3,23.7c3.7,0,6.8,3,6.8,6.7s-3,6.8-6.8,6.8c-3.7,0-6.7-3-6.7-6.8
		C120.6,26.8,123.6,23.7,127.3,23.7L127.3,23.7z"/>
	<path class="st0" d="M161.8,100.7c-0.2-2.1-0.6-13.7-17-19C129,76.6,103.6,69,103.6,69s-4.3-1.1-4.9-4.6c-0.7-3.5,4.2-6.2,5-6.6
		c0.1,0,0.5-0.3,0.5-0.3l-0.3-0.5c0,0-0.7,0.3-0.8,0.4c-1.3,0.7-11.1,6-10.2,18.8c0.2,2.1,0.6,13.7,17,19
		c15.8,5.1,41.2,12.7,41.2,12.7s4.1,1.3,5,4.5c1.2,4.2-4.8,7.5-6,8.1c-0.1,0.1-1.2,0.6-1.2,0.6l0.3,0.5c0,0,1.1-0.5,1.2-0.6
		C152.2,120.3,162.8,114.8,161.8,100.7L161.8,100.7z"/>
</g>
<g>
	<path class="st1" d="M10.1,139.4H26v0.5c0,6.9-6.1,12.3-12.9,12.3c-7,0-13.1-5.3-13.1-12.6c0-7.2,6.1-12.6,12.9-12.6
		c6.1,0,10.5,4.1,11.8,7.6h-5.4c-1.1-1.6-3.3-3.4-6.5-3.4c-5.5,0-8.3,4.7-8.3,8.5c0,3.7,2.8,8.4,8.6,8.4c3,0,5.8-1.6,7.2-4.5H10.1
		V139.4z"/>
	<path class="st1" d="M43.8,139.7c0-4.7,3.6-8.5,8.2-8.5s8.2,3.8,8.2,8.5c0,4.5-3.6,8.4-8.2,8.4S43.8,144.2,43.8,139.7z M39.3,139.7
		c0,7,5.7,12.6,12.7,12.6s12.7-5.6,12.7-12.6c0-7.2-5.8-12.7-12.7-12.7C45.1,127,39.3,132.5,39.3,139.7z"/>
	<path class="st1" d="M84.6,141.1H87c3.9,0,4.4,2.3,4.4,3.2c0,3.2-3.6,3.2-4.5,3.2h-2.3V141.1z M80.5,151.8H87
		c1.6,0,4.4-0.2,6.3-1.4c1.5-1.1,3-2.9,3-5.8c0-4.1-2.6-5.5-4.2-6c0.8-0.4,2.7-1.6,2.7-4.6c0-1.7-0.9-3.4-2.1-4.5
		c-2.1-1.9-4.8-1.9-7.5-1.9h-4.7V151.8z M84.6,131.7h1.9c2.6,0,3.5,1.2,3.5,2.6c0,2.6-2.8,2.6-3.9,2.6h-1.5V131.7z"/>
</g>
<g>
	<path class="st1" d="M115,127.5h13.1v4.2h-8.6v5.9h8.2v4.2h-8.2v5.8h8.6v4.2H115V127.5z"/>
	<path class="st1" d="M146.9,127.5h4.5v20.1h7.4v4.2h-11.9V127.5z"/>
	<path class="st1" d="M176.5,127.5h4.5v24.3h-4.5V127.5z"/>
</g>
<path class="st1" d="M201.2,127.5h5.1l10.1,17.7h0.1v-17.7h4.5v24.3h-5l-10.1-17.7h-0.1v17.7h-4.5v-24.3H201.2z"/>
<path class="st1" d="M238.9,144.8c0.3,5.3,4.8,7.4,7.9,7.4c3.8,0,7.9-2.5,7.9-7.8c0-5.3-4.4-6.8-6.4-7.5c-2.5-0.8-4-1.3-4-3.4
	c0-1.4,1.1-2.5,2.5-2.5c1.2,0,2.5,0.6,2.7,2.7h4.6c-0.2-5-4.4-6.9-7.2-6.9c-4.1,0-7.1,3.1-7.1,6.9c0,5.1,3.9,6.3,5.8,7
	c3,1.2,4.6,1.6,4.6,4.1c0,1.8-1.6,3.1-3.4,3.1c-1.4,0-3-0.8-3.2-3.2L238.9,144.8L238.9,144.8z"/>
<path class="st1" d="M54.7,167.5c0-4.1,3.3-7,7-7c3.8,0,7,3.2,7,7c0,3.9-3.2,6.9-7,6.9C57.9,174.4,54.7,171.2,54.7,167.5z
	 M53.1,167.5c0,4.6,4,8.3,8.6,8.3s8.6-3.6,8.6-8.4c0-4.8-4-8.4-8.6-8.4C57.4,159,53.1,162.4,53.1,167.5z"/>
<path class="st1" d="M0.2,159.3h1.6v14.8h6.7v1.5H0.1v-16.3H0.2z"/>
<path class="st1" d="M11.1,159.3h1.8l-2.2,4.8H9.2L11.1,159.3z"/>
<path class="st1" d="M19,159.3h8.9v1.5h-7.3v5.9h7v1.5h-7v6h7.3v1.5H19V159.3z M25.4,154.8l0.7,1.3l-4.4,2.4l-0.7-1.3L25.4,154.8z"
	/>
<path class="st1" d="M49.5,171.3c-1.7,3.2-4.9,4.5-7.5,4.5c-4.6,0-8.5-3.6-8.5-8.4s3.8-8.4,8.5-8.4c4.2,0,6.8,2.9,7.5,4.4h-1.8
	c-1.8-2.6-4.7-3-5.6-3c-3.8,0-6.8,3.4-6.8,7c0,3.8,3.3,6.9,6.9,6.9c0.8,0,3.5-0.1,5.7-3.1h1.6V171.3z"/>
<path class="st1" d="M75.7,159.3h1.6v14.8H84v1.5h-8.4v-16.3H75.7z"/>
<path class="st1" d="M89.7,159.3h8.9v1.5h-7.3v5.9h7v1.5h-7v6h7.3v1.5h-8.9V159.3z"/>
<g>
	<path class="st1" d="M112.2,160.8h2.3c2.4,0,3.9,0.3,5.4,1.2c1.7,1.2,2.8,3.2,2.8,5.4c0,2.8-1.6,4.5-2.5,5.4
		c-1.9,1.3-4.1,1.3-5.6,1.3h-2.3L112.2,160.8L112.2,160.8z M110.6,175.6h4.7c2,0,4-0.5,5.3-1.3c3.1-2,3.7-5.2,3.7-6.7
		c0-2-0.8-5-3.7-6.8c-1.3-0.9-3.3-1.4-5.3-1.4h-4.7V175.6z"/>
	<path class="st1" d="M130.7,159.3h8.9v1.5h-7.3v5.9h7v1.5h-7v6h7.3v1.5h-8.9V159.3z"/>
</g>
<path class="st1" d="M151.3,159.3h1.6v14.8h6.7v1.5h-8.4L151.3,159.3L151.3,159.3z"/>
<path class="st1" d="M162.7,159.3h1.8l-2.2,4.8h-1.5L162.7,159.3z"/>
<g>
	<path class="st1" d="M170.9,159.4h1.6v16.3h-1.6V159.4z"/>
	<path class="st1" d="M180.9,159.4h2.5l5.9,13.8l5.9-13.8h2.5v16.3h-1.6v-14.5l0,0l-6.1,14.5h-1.4l-6-14.5h-0.1v14.5h-1.6V159.4z"/>
	<path class="st1" d="M211.3,161.2l3.1,7.5h-6.3L211.3,161.2z M203.5,175.6h1.7l2.4-5.5h7.6l2.4,5.5h1.8l-7-16.3h-1.8L203.5,175.6z"
		/>
	<path class="st1" d="M240.3,168.1c-0.4,4.8-4.6,7.8-8.6,7.8c-4.9,0-8.7-3.9-8.7-8.4c0-4.2,3.5-8.4,8.7-8.4c4.3,0,7.1,3,7.7,4.6
		h-1.9c-0.9-1.6-3.1-3.2-5.8-3.2c-4.1,0-7.1,3.4-7.1,7s3,6.9,7.2,6.9c3.5,0,6-2.5,6.6-4.8h-9.1v-1.5H240.3L240.3,168.1z"/>
	<path class="st1" d="M245.6,159.4h8.9v1.5h-7.3v5.9h7v1.5h-7v6h7.3v1.5h-8.9V159.4z"/>
</g>
<g>
	<g>
		<defs>
			<rect id="SVGID_1_" x="-9.8" y="181.6" width="274.3" height="90.4"/>
		</defs>
		<clipPath id="SVGID_00000068672414248810127910000002119526286736660891_">
			<use xlink:href="#SVGID_1_"  style="overflow:visible;"/>
		</clipPath>
		<path style="clip-path:url(#SVGID_00000068672414248810127910000002119526286736660891_);fill:#373CF5;" d="M219.2,247.3H35.5
			c-11.2,0-20.4-9.2-20.4-20.4v-0.3c0-11.2,9.2-20.4,20.4-20.4h183.7c11.2,0,20.4,9.2,20.4,20.4v0.3
			C239.6,238.1,230.4,247.3,219.2,247.3"/>
	</g>
	<g>
		<defs>
			<rect id="SVGID_00000094606690959909457870000005565034349891815351_" x="-9.8" y="181.6" width="274.3" height="90.4"/>
		</defs>
		<clipPath id="SVGID_00000137122466881927998740000008187580576804021661_">
			<use xlink:href="#SVGID_00000094606690959909457870000005565034349891815351_"  style="overflow:visible;"/>
		</clipPath>
		<path style="clip-path:url(#SVGID_00000137122466881927998740000008187580576804021661_);fill:#FFFFFF;" d="M31.5,226.7
			c0,6.8,5.5,12.3,12.3,12.3c3.2,0,5.8-1.2,7.6-2.6l-2.6-2.9c-1.4,1-3.1,1.6-5,1.6c-4.6,0-8.4-3.8-8.4-8.4s3.8-8.4,8.4-8.4
			c1.2,0,2.3,0.3,3.4,0.7l1.5-3.6c-1.5-0.7-3.2-1-4.9-1C37,214.4,31.5,219.9,31.5,226.7"/>
	</g>
	<g>
		<defs>
			<rect id="SVGID_00000165221327458839010960000005700734556267426706_" x="-9.8" y="181.6" width="274.3" height="90.4"/>
		</defs>
		<clipPath id="SVGID_00000078754809077970899220000017580467666877998493_">
			<use xlink:href="#SVGID_00000165221327458839010960000005700734556267426706_"  style="overflow:visible;"/>
		</clipPath>
		<path style="clip-path:url(#SVGID_00000078754809077970899220000017580467666877998493_);fill:#FFFFFF;" d="M37.2,226.7
			c0,3.6,2.9,6.6,6.6,6.6c1.4,0,2.8-0.5,3.7-1.2c0,0-2.4-2.7-2.7-3c-0.2,0.1-0.7,0.2-1,0.2c-1.5,0-2.7-1.2-2.7-2.7s1.2-2.7,2.7-2.7
			c0.4,0,0.8,0.1,1.1,0.2l1.5-3.5c-0.8-0.3-1.7-0.6-2.6-0.6C40.2,220.2,37.2,223.1,37.2,226.7"/>
	</g>
	<g>
		<defs>
			<rect id="SVGID_00000096039937557514696360000000357745079699515325_" x="-9.8" y="181.6" width="274.3" height="90.4"/>
		</defs>
		<clipPath id="SVGID_00000046308541383247176780000013032436053026438328_">
			<use xlink:href="#SVGID_00000096039937557514696360000000357745079699515325_"  style="overflow:visible;"/>
		</clipPath>
		<path style="clip-path:url(#SVGID_00000046308541383247176780000013032436053026438328_);fill:#FFFFFF;" d="M48.7,224.2
			c0.3,0.7,0.6,1.6,0.6,2.6c0,1.2-0.5,2.6-1.2,3.5l2.6,2.9c1.5-1.6,2.5-3.9,2.5-6.4c0-1.5-0.4-3-1-4.2L48.7,224.2z"/>
	</g>
	<g>
		<defs>
			<rect id="SVGID_00000061447944745399750760000007126742367796747698_" x="-9.8" y="181.6" width="274.3" height="90.4"/>
		</defs>
		<clipPath id="SVGID_00000098930770639110221560000007277514377995398313_">
			<use xlink:href="#SVGID_00000061447944745399750760000007126742367796747698_"  style="overflow:visible;"/>
		</clipPath>
		<path style="clip-path:url(#SVGID_00000098930770639110221560000007277514377995398313_);fill:#FFFFFF;" d="M47.6,222.7l6.7-3.1
			c-1-1.5-2.3-2.8-3.7-3.6L47.6,222.7L47.6,222.7z"/>
	</g>
	<g>
		<defs>
			<rect id="SVGID_00000108270114169721825780000009613448418955919033_" x="-9.8" y="181.6" width="274.3" height="90.4"/>
		</defs>
		<clipPath id="SVGID_00000123399292882174309990000005829991065207462063_">
			<use xlink:href="#SVGID_00000108270114169721825780000009613448418955919033_"  style="overflow:visible;"/>
		</clipPath>
		<path style="clip-path:url(#SVGID_00000123399292882174309990000005829991065207462063_);fill:#FFFFFF;" d="M69.7,216.1l-1.1,1.3
			c-0.5-0.4-1.1-0.7-1.7-0.7c-1.2,0-2.1,1-2.1,3.3c0,2.3,0.8,3.3,2.1,3.3c0.8,0,1.3-0.3,1.9-0.8l1,1.3c-0.6,0.6-1.7,1.2-3,1.2
			c-2.6,0-4.4-1.8-4.4-5c0-3.2,1.9-5,4.3-5C68,215.1,68.9,215.4,69.7,216.1"/>
	</g>
	<g>
		<defs>
			<rect id="SVGID_00000000915192304816387960000007350627934073357709_" x="-9.8" y="181.6" width="274.3" height="90.4"/>
		</defs>
		<clipPath id="SVGID_00000092425408730240465200000003167458522944679574_">
			<use xlink:href="#SVGID_00000000915192304816387960000007350627934073357709_"  style="overflow:visible;"/>
		</clipPath>
		<path style="clip-path:url(#SVGID_00000092425408730240465200000003167458522944679574_);fill:#FFFFFF;" d="M77.5,216.1l-1.1,1.3
			c-0.5-0.4-1.1-0.7-1.7-0.7c-1.2,0-2.1,1-2.1,3.3c0,2.3,0.8,3.3,2.1,3.3c0.8,0,1.3-0.3,1.9-0.8l1,1.3c-0.6,0.6-1.7,1.2-3,1.2
			c-2.6,0-4.4-1.8-4.4-5c0-3.2,1.9-5,4.3-5C75.8,215.1,76.7,215.4,77.5,216.1"/>
	</g>
	<g>
		<defs>
			<rect id="SVGID_00000111150335936818485410000011775106159193456045_" x="-9.8" y="181.6" width="274.3" height="90.4"/>
		</defs>
		<clipPath id="SVGID_00000033346555329480331510000001463686404022959517_">
			<use xlink:href="#SVGID_00000111150335936818485410000011775106159193456045_"  style="overflow:visible;"/>
		</clipPath>
		
			<rect x="78.4" y="215.3" style="clip-path:url(#SVGID_00000033346555329480331510000001463686404022959517_);fill:#FFFFFF;" width="2.3" height="9.5"/>
	</g>
	<g>
		<defs>
			<rect id="SVGID_00000114756164331001568120000016781692654203115667_" x="-9.8" y="181.6" width="274.3" height="90.4"/>
		</defs>
		<clipPath id="SVGID_00000181072756306710926930000012723241006546378631_">
			<use xlink:href="#SVGID_00000114756164331001568120000016781692654203115667_"  style="overflow:visible;"/>
		</clipPath>
		<path style="clip-path:url(#SVGID_00000181072756306710926930000012723241006546378631_);fill:#FFFFFF;" d="M92.5,218.4
			c0,2.2-1.6,3.2-3.8,3.2h-1v3.2h-2.2v-9.5h3.1C91,215.3,92.5,216.3,92.5,218.4 M90.2,218.4c0-1-0.6-1.5-1.7-1.5h-0.8v3.1h0.8
			C89.6,220,90.2,219.6,90.2,218.4"/>
	</g>
	<g>
		<defs>
			<rect id="SVGID_00000003790767903757346640000009954067969936130707_" x="-9.8" y="181.6" width="274.3" height="90.4"/>
		</defs>
		<clipPath id="SVGID_00000147941786034102337020000006167627342430187183_">
			<use xlink:href="#SVGID_00000003790767903757346640000009954067969936130707_"  style="overflow:visible;"/>
		</clipPath>
		<path style="clip-path:url(#SVGID_00000147941786034102337020000006167627342430187183_);fill:#FFFFFF;" d="M98.1,222.8h-2.8
			l-0.5,2.1h-2.3l2.9-9.5h2.7l2.9,9.5h-2.4L98.1,222.8z M97.7,221.1l-1-4.2l-1,4.2H97.7z"/>
	</g>
	<g>
		<defs>
			<rect id="SVGID_00000090288470537205835630000014405037331395177123_" x="-9.8" y="181.6" width="274.3" height="90.4"/>
		</defs>
		<clipPath id="SVGID_00000138553433508115126220000016789830145252062627_">
			<use xlink:href="#SVGID_00000090288470537205835630000014405037331395177123_"  style="overflow:visible;"/>
		</clipPath>
		<path style="clip-path:url(#SVGID_00000138553433508115126220000016789830145252062627_);fill:#FFFFFF;" d="M104.7,221.2h-0.9v3.6
			h-2.3v-9.5h3.1c2.6,0,3.9,0.9,3.9,2.9c0,1.3-0.6,2-1.8,2.6l2.4,4.1h-2.5L104.7,221.2z M103.8,219.6h0.9c1,0,1.5-0.4,1.5-1.4
			c0-0.9-0.5-1.3-1.7-1.3h-0.8v2.7H103.8z"/>
	</g>
	<g>
		<defs>
			<rect id="SVGID_00000171705886928733964120000011027662990211567519_" x="-9.8" y="181.6" width="274.3" height="90.4"/>
		</defs>
		<clipPath id="SVGID_00000170976819249327290340000014389800394817734293_">
			<use xlink:href="#SVGID_00000171705886928733964120000011027662990211567519_"  style="overflow:visible;"/>
		</clipPath>
		
			<rect x="109.9" y="215.3" style="clip-path:url(#SVGID_00000170976819249327290340000014389800394817734293_);fill:#FFFFFF;" width="2.3" height="9.5"/>
	</g>
	<g>
		<defs>
			<rect id="SVGID_00000114789709792214991530000007923117744566277250_" x="-9.8" y="181.6" width="274.3" height="90.4"/>
		</defs>
		<clipPath id="SVGID_00000044139729866291797640000017288536386554462337_">
			<use xlink:href="#SVGID_00000114789709792214991530000007923117744566277250_"  style="overflow:visible;"/>
		</clipPath>
		<path style="clip-path:url(#SVGID_00000044139729866291797640000017288536386554462337_);fill:#FFFFFF;" d="M120.2,216.3l-1,1.2
			c-0.7-0.5-1.3-0.8-2.1-0.8s-1.3,0.3-1.3,0.9c0,0.6,0.4,0.9,1.8,1.3c1.8,0.6,2.8,1.3,2.8,3.1c0,1.8-1.4,3-3.8,3
			c-1.7,0-2.8-0.6-3.6-1.4l1.1-1.3c0.7,0.6,1.5,0.9,2.4,0.9s1.5-0.4,1.5-1.2c0-0.7-0.4-1-1.7-1.4c-2.1-0.7-2.9-1.5-2.9-3
			c0-1.7,1.5-2.8,3.4-2.8C118.3,215.1,119.4,215.5,120.2,216.3"/>
	</g>
	<g>
		<defs>
			<rect id="SVGID_00000079461772141568258610000005204802605478128799_" x="-9.8" y="181.6" width="274.3" height="90.4"/>
		</defs>
		<clipPath id="SVGID_00000162317140100067786300000002245134259162731401_">
			<use xlink:href="#SVGID_00000079461772141568258610000005204802605478128799_"  style="overflow:visible;"/>
		</clipPath>
		
			<rect x="124.7" y="215.3" style="clip-path:url(#SVGID_00000162317140100067786300000002245134259162731401_);fill:#FFFFFF;" width="2.3" height="9.5"/>
	</g>
	<g>
		<defs>
			<rect id="SVGID_00000022518417269619123700000011573755174102266784_" x="-9.8" y="181.6" width="274.3" height="90.4"/>
		</defs>
		<clipPath id="SVGID_00000178169638262248372840000003677391678441424537_">
			<use xlink:href="#SVGID_00000022518417269619123700000011573755174102266784_"  style="overflow:visible;"/>
		</clipPath>
		<polygon style="clip-path:url(#SVGID_00000178169638262248372840000003677391678441424537_);fill:#FFFFFF;" points="130.8,223 
			134.5,223 134.3,224.8 128.6,224.8 128.6,215.3 130.8,215.3 		"/>
	</g>
	<g>
		<defs>
			<rect id="SVGID_00000060007276177550765100000005657078504357392013_" x="-9.8" y="181.6" width="274.3" height="90.4"/>
		</defs>
		<clipPath id="SVGID_00000101103095067502943420000001986545724135303581_">
			<use xlink:href="#SVGID_00000060007276177550765100000005657078504357392013_"  style="overflow:visible;"/>
		</clipPath>
		<polygon style="clip-path:url(#SVGID_00000101103095067502943420000001986545724135303581_);fill:#FFFFFF;" points="141.1,216.9 
			137.8,216.9 137.8,219.2 140.7,219.2 140.7,220.8 137.8,220.8 137.8,223.2 141.3,223.2 141.3,224.8 135.5,224.8 135.5,215.3 
			141.3,215.3 		"/>
	</g>
	<g>
		<defs>
			<rect id="SVGID_00000165939893742757123850000001921137181119137177_" x="-9.8" y="181.6" width="274.3" height="90.4"/>
		</defs>
		<clipPath id="SVGID_00000104686601376414566670000006541389886996198846_">
			<use xlink:href="#SVGID_00000165939893742757123850000001921137181119137177_"  style="overflow:visible;"/>
		</clipPath>
		
			<rect x="142.3" y="219.7" style="clip-path:url(#SVGID_00000104686601376414566670000006541389886996198846_);fill:#FFFFFF;" width="4.4" height="1.7"/>
	</g>
	<g>
		<defs>
			<rect id="SVGID_00000138571925023875920670000010898250347400294078_" x="-9.8" y="181.6" width="274.3" height="90.4"/>
		</defs>
		<clipPath id="SVGID_00000057832458820837348020000012758071687597314728_">
			<use xlink:href="#SVGID_00000138571925023875920670000010898250347400294078_"  style="overflow:visible;"/>
		</clipPath>
		<path style="clip-path:url(#SVGID_00000057832458820837348020000012758071687597314728_);fill:#FFFFFF;" d="M155.7,220
			c0,3.8-2.3,4.8-4.7,4.8h-2.9v-9.5h2.7C153.3,215.3,155.7,216.1,155.7,220 M150.3,216.9v6.3h0.7c1.4,0,2.3-0.6,2.3-3.2
			s-1-3.1-2.3-3.1H150.3z"/>
	</g>
	<g>
		<defs>
			<rect id="SVGID_00000016790312943388544830000016441645381795884430_" x="-9.8" y="181.6" width="274.3" height="90.4"/>
		</defs>
		<clipPath id="SVGID_00000137820820868481200240000018069189831733570220_">
			<use xlink:href="#SVGID_00000016790312943388544830000016441645381795884430_"  style="overflow:visible;"/>
		</clipPath>
		<polygon style="clip-path:url(#SVGID_00000137820820868481200240000018069189831733570220_);fill:#FFFFFF;" points="162.5,216.9 
			159.1,216.9 159.1,219.2 162.1,219.2 162.1,220.8 159.1,220.8 159.1,223.2 162.7,223.2 162.7,224.8 156.9,224.8 156.9,215.3 
			162.7,215.3 		"/>
	</g>
	<g>
		<defs>
			<rect id="SVGID_00000175301035777600931640000005433270256058302142_" x="-9.8" y="181.6" width="274.3" height="90.4"/>
		</defs>
		<clipPath id="SVGID_00000021829669667886411950000000928100306723437977_">
			<use xlink:href="#SVGID_00000175301035777600931640000005433270256058302142_"  style="overflow:visible;"/>
		</clipPath>
		
			<rect x="163.7" y="219.7" style="clip-path:url(#SVGID_00000021829669667886411950000000928100306723437977_);fill:#FFFFFF;" width="4.4" height="1.7"/>
	</g>
	<g>
		<defs>
			<rect id="SVGID_00000132788493038419696950000003278725988567491771_" x="-9.8" y="181.6" width="274.3" height="90.4"/>
		</defs>
		<clipPath id="SVGID_00000007397154186431302720000011366777099469768116_">
			<use xlink:href="#SVGID_00000132788493038419696950000003278725988567491771_"  style="overflow:visible;"/>
		</clipPath>
		<polygon style="clip-path:url(#SVGID_00000007397154186431302720000011366777099469768116_);fill:#FFFFFF;" points="169.5,215.3 
			175.1,215.3 174.9,216.9 171.7,216.9 171.7,219.4 174.5,219.4 174.5,221 171.7,221 171.7,224.8 169.5,224.8 		"/>
	</g>
	<g>
		<defs>
			<rect id="SVGID_00000153674604592714290540000000731350216028269206_" x="-9.8" y="181.6" width="274.3" height="90.4"/>
		</defs>
		<clipPath id="SVGID_00000013175642700361727680000012355982863169434767_">
			<use xlink:href="#SVGID_00000153674604592714290540000000731350216028269206_"  style="overflow:visible;"/>
		</clipPath>
		<path style="clip-path:url(#SVGID_00000013175642700361727680000012355982863169434767_);fill:#FFFFFF;" d="M179.2,221.2h-0.9v3.6
			H176v-9.5h3.1c2.6,0,3.9,0.9,3.9,2.9c0,1.3-0.6,2-1.8,2.6l2.4,4.1h-2.5L179.2,221.2z M178.3,219.6h0.9c1,0,1.5-0.4,1.5-1.4
			c0-0.9-0.5-1.3-1.7-1.3h-0.8v2.7H178.3z"/>
	</g>
	<g>
		<defs>
			<rect id="SVGID_00000157992663758729141240000017107139863068875699_" x="-9.8" y="181.6" width="274.3" height="90.4"/>
		</defs>
		<clipPath id="SVGID_00000058554733665729572400000001828807630218277277_">
			<use xlink:href="#SVGID_00000157992663758729141240000017107139863068875699_"  style="overflow:visible;"/>
		</clipPath>
		<path style="clip-path:url(#SVGID_00000058554733665729572400000001828807630218277277_);fill:#FFFFFF;" d="M188.9,222.8h-2.8
			l-0.5,2.1h-2.3l2.9-9.5h2.7l2.9,9.5h-2.4L188.9,222.8z M188.5,221.1l-1-4.2l-1,4.2H188.5z"/>
	</g>
	<g>
		<defs>
			<rect id="SVGID_00000080175182932769363210000001448057979242368696_" x="-9.8" y="181.6" width="274.3" height="90.4"/>
		</defs>
		<clipPath id="SVGID_00000005960900597961644560000009096518634515022745_">
			<use xlink:href="#SVGID_00000080175182932769363210000001448057979242368696_"  style="overflow:visible;"/>
		</clipPath>
		<path style="clip-path:url(#SVGID_00000005960900597961644560000009096518634515022745_);fill:#FFFFFF;" d="M199.7,224.8h-2.9
			l-2.8-7.4c0.1,0.9,0.3,2.1,0.3,3.9v3.5h-2v-9.5h2.8l2.8,7.4c-0.1-0.8-0.3-2-0.3-3.6v-3.9h2L199.7,224.8L199.7,224.8z"/>
	</g>
	<g>
		<defs>
			<rect id="SVGID_00000181807067772525462080000005183134453926312635_" x="-9.8" y="181.6" width="274.3" height="90.4"/>
		</defs>
		<clipPath id="SVGID_00000169551021772826488030000003470376627825289378_">
			<use xlink:href="#SVGID_00000181807067772525462080000005183134453926312635_"  style="overflow:visible;"/>
		</clipPath>
		<path style="clip-path:url(#SVGID_00000169551021772826488030000003470376627825289378_);fill:#FFFFFF;" d="M208.1,216.1l-1.1,1.3
			c-0.5-0.4-1.1-0.7-1.7-0.7c-1.2,0-2.1,1-2.1,3.3c0,2.3,0.8,3.3,2.1,3.3c0.8,0,1.3-0.3,1.9-0.8l1,1.3c-0.6,0.6-1.7,1.2-3,1.2
			c-2.6,0-4.4-1.8-4.4-5c0-3.2,1.9-5,4.3-5C206.5,215.1,207.3,215.4,208.1,216.1"/>
	</g>
	<g>
		<defs>
			<rect id="SVGID_00000016760843500223203040000011155120487680086416_" x="-9.8" y="181.6" width="274.3" height="90.4"/>
		</defs>
		<clipPath id="SVGID_00000023238789911748015650000016526004203654977202_">
			<use xlink:href="#SVGID_00000016760843500223203040000011155120487680086416_"  style="overflow:visible;"/>
		</clipPath>
		<polygon style="clip-path:url(#SVGID_00000023238789911748015650000016526004203654977202_);fill:#FFFFFF;" points="214.7,216.9 
			211.4,216.9 211.4,219.2 214.3,219.2 214.3,220.8 211.4,220.8 211.4,223.2 215,223.2 215,224.8 209.1,224.8 209.1,215.3 
			215,215.3 		"/>
	</g>
	<g>
		<defs>
			<rect id="SVGID_00000109723016212473738080000013351161758043164350_" x="-9.8" y="181.6" width="274.3" height="90.4"/>
		</defs>
		<clipPath id="SVGID_00000084527533846139878190000016581824901452287621_">
			<use xlink:href="#SVGID_00000109723016212473738080000013351161758043164350_"  style="overflow:visible;"/>
		</clipPath>
		<polygon style="clip-path:url(#SVGID_00000084527533846139878190000016581824901452287621_);fill:#FFFFFF;" points="68.5,229.9 
			65.1,229.9 65.1,232.2 68.1,232.2 68.1,233.8 65.1,233.8 65.1,236.2 68.7,236.2 68.7,237.9 62.9,237.9 62.9,228.3 68.7,228.3 		
			"/>
	</g>
	<g>
		<defs>
			<rect id="SVGID_00000183228507667098723370000010442473193465987992_" x="-9.8" y="181.6" width="274.3" height="90.4"/>
		</defs>
		<clipPath id="SVGID_00000065041766105222320780000012702952426865055125_">
			<use xlink:href="#SVGID_00000183228507667098723370000010442473193465987992_"  style="overflow:visible;"/>
		</clipPath>
		<path style="clip-path:url(#SVGID_00000065041766105222320780000012702952426865055125_);fill:#FFFFFF;" d="M77.6,233
			c0,3.8-2.3,4.8-4.7,4.8H70v-9.5h2.7C75.2,228.3,77.6,229.1,77.6,233 M72.2,230v6.3h0.7c1.4,0,2.3-0.6,2.3-3.2s-1-3.1-2.3-3.1H72.2
			z"/>
	</g>
	<g>
		<defs>
			<rect id="SVGID_00000049920076814971720120000008361275664589850288_" x="-9.8" y="181.6" width="274.3" height="90.4"/>
		</defs>
		<clipPath id="SVGID_00000139290768075261057120000002453767780698507142_">
			<use xlink:href="#SVGID_00000049920076814971720120000008361275664589850288_"  style="overflow:visible;"/>
		</clipPath>
		<path style="clip-path:url(#SVGID_00000139290768075261057120000002453767780698507142_);fill:#FFFFFF;" d="M86.1,234.7
			c0,1.9-1.2,3.4-3.7,3.4s-3.7-1.4-3.7-3.4v-6.4H81v6.3c0,1.2,0.4,1.8,1.5,1.8c1,0,1.5-0.6,1.5-1.8v-6.3h2.3v6.4H86.1z"/>
	</g>
	<g>
		<defs>
			<rect id="SVGID_00000060726715921347848990000009498903343947711634_" x="-9.8" y="181.6" width="274.3" height="90.4"/>
		</defs>
		<clipPath id="SVGID_00000066474711601844545520000004634902273482426534_">
			<use xlink:href="#SVGID_00000060726715921347848990000009498903343947711634_"  style="overflow:visible;"/>
		</clipPath>
		<path style="clip-path:url(#SVGID_00000066474711601844545520000004634902273482426534_);fill:#FFFFFF;" d="M94.4,229.1l-1.1,1.3
			c-0.5-0.4-1.1-0.7-1.7-0.7c-1.2,0-2.1,1-2.1,3.3c0,2.3,0.8,3.3,2.1,3.3c0.8,0,1.3-0.3,1.9-0.8l1,1.3c-0.6,0.6-1.7,1.2-3,1.2
			c-2.6,0-4.4-1.8-4.4-5c0-3.2,1.9-5,4.3-5C92.8,228.1,93.6,228.5,94.4,229.1"/>
	</g>
	<g>
		<defs>
			<rect id="SVGID_00000039822225381322360770000009579204631879472552_" x="-9.8" y="181.6" width="274.3" height="90.4"/>
		</defs>
		<clipPath id="SVGID_00000173119716338038221010000014359067204166120576_">
			<use xlink:href="#SVGID_00000039822225381322360770000009579204631879472552_"  style="overflow:visible;"/>
		</clipPath>
		<path style="clip-path:url(#SVGID_00000173119716338038221010000014359067204166120576_);fill:#FFFFFF;" d="M99.9,235.8h-2.8
			l-0.5,2.1h-2.3l2.9-9.5h2.7l2.9,9.5h-2.4L99.9,235.8z M99.6,234.2l-1-4.2l-1,4.2H99.6z"/>
	</g>
	<g>
		<defs>
			<rect id="SVGID_00000080892172711752048560000016137464845498120333_" x="-9.8" y="181.6" width="274.3" height="90.4"/>
		</defs>
		<clipPath id="SVGID_00000011736905304596860670000005006511945818098614_">
			<use xlink:href="#SVGID_00000080892172711752048560000016137464845498120333_"  style="overflow:visible;"/>
		</clipPath>
		<polygon style="clip-path:url(#SVGID_00000011736905304596860670000005006511945818098614_);fill:#FFFFFF;" points="109.7,230.1 
			107.3,230.1 107.3,237.9 105.1,237.9 105.1,230.1 102.6,230.1 102.6,228.3 109.9,228.3 		"/>
	</g>
	<g>
		<defs>
			<rect id="SVGID_00000005244838592654221510000013853294803577053343_" x="-9.8" y="181.6" width="274.3" height="90.4"/>
		</defs>
		<clipPath id="SVGID_00000131365071370569523910000008482323229928261508_">
			<use xlink:href="#SVGID_00000005244838592654221510000013853294803577053343_"  style="overflow:visible;"/>
		</clipPath>
		
			<rect x="110.7" y="228.3" style="clip-path:url(#SVGID_00000131365071370569523910000008482323229928261508_);fill:#FFFFFF;" width="2.3" height="9.5"/>
	</g>
	<g>
		<defs>
			<rect id="SVGID_00000026879106306068941900000004599487986215553951_" x="-9.8" y="181.6" width="274.3" height="90.4"/>
		</defs>
		<clipPath id="SVGID_00000110444862989624546690000014973658916110733998_">
			<use xlink:href="#SVGID_00000026879106306068941900000004599487986215553951_"  style="overflow:visible;"/>
		</clipPath>
		<path style="clip-path:url(#SVGID_00000110444862989624546690000014973658916110733998_);fill:#FFFFFF;" d="M122.7,233.1
			c0,3.1-1.6,5-4.3,5s-4.3-1.8-4.3-5c0-3.1,1.6-5,4.3-5C121.1,228.1,122.7,229.9,122.7,233.1 M116.5,233.1c0,2.4,0.7,3.4,1.9,3.4
			c1.3,0,1.9-0.9,1.9-3.4c0-2.4-0.7-3.3-1.9-3.3C117.2,229.7,116.5,230.7,116.5,233.1"/>
	</g>
	<g>
		<defs>
			<rect id="SVGID_00000134239200671156707070000002689307253460051608_" x="-9.8" y="181.6" width="274.3" height="90.4"/>
		</defs>
		<clipPath id="SVGID_00000022547151198612345190000007356247983976705699_">
			<use xlink:href="#SVGID_00000134239200671156707070000002689307253460051608_"  style="overflow:visible;"/>
		</clipPath>
		<path style="clip-path:url(#SVGID_00000022547151198612345190000007356247983976705699_);fill:#FFFFFF;" d="M131.3,237.9h-2.9
			l-2.8-7.4c0.1,0.9,0.3,2.1,0.3,3.9v3.5h-2v-9.5h2.8l2.8,7.4c-0.1-0.8-0.3-2-0.3-3.6v-3.9h2L131.3,237.9L131.3,237.9z"/>
	</g>
</g>
</svg>
