<?xml version="1.0" encoding="utf-8"?>
<!-- Generator: Adobe Illustrator 23.0.2, SVG Export Plug-In . SVG Version: 6.00 Build 0)  -->
<svg version="1.1" id="Layer_1" xmlns="http://www.w3.org/2000/svg" xmlns:xlink="http://www.w3.org/1999/xlink" x="0px" y="0px"
	 viewBox="0 0 309.9 275.9" style="enable-background:new 0 0 309.9 275.9;" xml:space="preserve">
<style type="text/css">
	.st0{clip-path:url(#SVGID_2_);}
</style>
<title>Layer 1</title>
<g>
	<g id="Layer_1-2">
		<path d="M155,219.4h126.4c6.1-0.1,12,1.8,16.9,5.5c8,6,11.8,14.1,11.5,24.1c-0.5,13.5-10.5,24.7-23.9,26.7
			c-1.4,0.2-2.9,0.3-4.3,0.3c-84.5,0-168.9,0-253.4,0C12.7,275.9,0,263.3,0,247.7c0-13.7,9.8-25.4,23.2-27.9
			c1.8-0.3,3.7-0.4,5.5-0.4C70.8,219.4,112.9,219.4,155,219.4z M46.6,232.1c-6.3-3.3-15.9-1.7-21.2,5.9c-5.1,7.5-3.5,17.6,3.5,23.2
			c6.9,5.5,16.4,4.4,21.3-0.2l-3.6-4.1c-5.6,3.7-11.4,2.3-14.6-0.8c-4.7-4.2-5-11.5-0.8-16.1c0.8-0.9,1.7-1.6,2.7-2.2
			c3.4-2,6.9-1.9,10.5-0.6L46.6,232.1z M225.4,239.8c0.6,0.5,1,0.6,1.2,1c0.7,1.1,1.3,2.3,1.9,3.5c0.2,0.7,0.9,1.1,1.6,1
			c1.3-0.1,2.7-0.1,4,0c1.3,0.1,1.8-0.4,1.9-1.6c0.1-0.4,0.3-1.2,0.5-1.2c1-0.2,2-0.2,3,0c0.4,0.1,0.4,1.1,0.7,1.6s0.5,1,0.8,1.1
			c1,0.1,2,0.1,3.1,0c-0.1-0.5-0.1-0.9-0.3-1.2c-1-3.2-2-6.5-3-9.7c-0.8-2.7-0.8-2.6-3.7-2.7c-0.7-0.1-1.4,0.4-1.5,1.1c0,0,0,0,0,0
			c-1,3.3-2,6.6-3,9.8c-0.1,0.4-0.3,0.8-0.5,1.4l-2.6-4.4l0.4-0.4c1.6-0.9,2.4-2.9,1.8-4.6c-0.5-1.6-1.9-2.7-3.6-2.7
			c-1.8-0.2-3.7-0.2-5.5-0.2c-0.3,0-0.9,0.5-0.9,0.8c-0.1,4-0.1,8,0,12c0.1,0.3,0.3,0.6,0.6,0.7c0.9,0.1,1.8,0,2.8,0L225.4,239.8z
			 M121.3,263.2c-0.1-0.4-0.1-0.7-0.2-0.9c-1-3.3-2-6.6-2.9-9.8c-0.9-2.9-0.9-2.9-3.9-2.9c-0.6-0.1-1.2,0.3-1.3,0.9
			c-0.4,1.6-0.9,3.2-1.4,4.8l-1.8,5.9l-1.4-1.5l-0.8,0.4c-2.2,1.3-3.9,0.6-4.4-1.9c-0.2-1.4-0.2-2.8,0.1-4.2c0.2-1.3,1.4-2.2,2.7-2
			c0.4,0.1,0.7,0.2,1,0.4c0.9,0.5,1.4,0.4,1.9-0.5c0.2-0.3,0.4-0.6,0.7-0.9c-2.1-2-5.3-2.3-7.7-0.6c-2.4,1.9-2.8,4.5-2.5,7.3
			c0.3,2.8,1.5,4.8,4.3,5.5c1.8,0.5,3.8,0.2,5.4-0.9c0.2,0.3,0.3,0.7,0.5,0.7c0.9,0.1,1.9,0.1,2.9,0c0.4-0.1,0.4-1.1,0.7-1.6
			s0.5-1,0.8-1.1c1-0.1,2-0.1,2.9,0c0.2,0.7,0.4,1.5,0.6,2.2c0.1,0.3,0.4,0.5,0.7,0.6C119.2,263.2,120.2,263.2,121.3,263.2z
			 M43.5,239.4c-4.2-2.1-9.2-0.6-11.7,3.3c-2.5,4-1.6,9.2,2,12.2c3.5,2.8,8.7,2.5,11,0.1c-0.9-1-1.9-2-2.8-3.1
			c-0.4-0.7-1.3-1.1-2.1-0.8c-1.3,0.3-2.7-0.4-3.3-1.6c-1-1.6-0.5-3.8,1.2-4.8c0.7-0.4,1.5-0.6,2.3-0.5l1.2,0.1L43.5,239.4z
			 M157.4,257.8c-0.9-2.4-1.9-4.9-2.8-7.3c-0.1-0.3-0.4-0.8-0.7-0.8c-1.2-0.1-2.4,0-3.7,0v13.4h3v-8c0.1,0.1,0.2,0.2,0.2,0.4
			c0.6,1.6,1.2,3.2,1.8,4.8c1.1,3,1.1,3,4.3,2.9h0.2c0.6,0.1,0.9-0.2,0.9-0.8c0-4,0-7.9-0.1-11.9c0-0.3-0.5-0.7-0.8-0.8
			s-0.8,0-1.2,0c-0.9-0.1-1.2,0.3-1.2,1.2C157.5,253.1,157.4,255.5,157.4,257.8z M254.9,231.7H252v7.9c-0.8-1.7-1.6-3.4-2.2-5.1
			c-1.1-3-1.1-3-4.3-2.9c-0.7,0-1,0.2-1,1c0,3.9,0,7.8,0,11.8c0,0.7,0.3,0.9,0.9,0.9c0.3,0,0.7,0,1,0c1.1,0.2,1.4-0.3,1.4-1.3
			c-0.1-2.3,0-4.6,0-6.8c0.9,2.3,1.7,4.8,2.7,7.1c0.1,0.4,0.5,0.9,0.9,0.9c1.2,0.1,2.4,0,3.6,0L254.9,231.7z M126.9,239.5l0.3-0.2
			c2.3-1.3,2.2-2.8,1.9-4.7s-1.9-2.6-3.6-2.8s-3.4-0.1-5.1-0.2c-0.9-0.1-1.2,0.3-1.1,1.2c0,3.5,0,7.1,0,10.7v1.8c1,0,1.8,0,2.5,0
			s1-0.3,1-1c0-1.3,0-2.6,0-3.9l0.3-0.2c0.3,0.3,0.8,0.5,1,0.8c0.7,1.2,1.3,2.4,2,3.6c0.2,0.3,0.4,0.7,0.7,0.7c1.1,0.1,2.2,0,3.6,0
			l-1.7-2.9C128,241.4,127.5,240.5,126.9,239.5L126.9,239.5z M78.6,263.2c0.7,0,1.4,0,2,0c2.8-0.1,4.9-1.7,5.5-4.2
			c0.3-1.3,0.4-2.7,0.3-4c-0.3-3.1-2-4.8-5.1-5.1c-1.5-0.2-2.9-0.1-4.4-0.2c-1-0.1-1.3,0.3-1.3,1.3c0,3.1,0,6.1,0,9.2
			S75.6,263.2,78.6,263.2z M183.3,238.4c0,2,0,3.9,0,5.9c0,0.7,0.3,1,1,1c1.4,0,2.8,0,4.2,0c2.6,0,4.9-1.8,5.4-4.3
			c0.2-1.3,0.3-2.5,0.2-3.8c0-2.8-2.3-5.1-5.1-5.2c-1.5-0.2-3.1-0.1-4.6-0.2c-0.9-0.1-1.1,0.3-1.1,1.1
			C183.4,234.6,183.4,236.5,183.3,238.4L183.3,238.4z M142.6,263.5c2.9,0.3,5.6-1.8,5.9-4.7c0.2-1.3,0.2-2.7,0.1-4
			c-0.1-2.8-2.4-5.1-5.2-5.3c-3.5-0.2-5.7,1.3-6.5,4.5c-0.3,1-0.4,2-0.3,3.1C136.8,261.1,138.9,263.5,142.6,263.5z M98.3,255
			c0-1.5,0-3,0-4.4c0-0.7-0.2-1-0.9-0.9c-0.4,0-0.7,0-1.1,0c-1.2-0.2-1.6,0.3-1.6,1.5c0.1,2.6,0.1,5.2,0,7.8c0,1.6-1.6,2.6-2.8,1.6
			c-0.5-0.6-0.9-1.3-0.9-2.1c-0.1-2.2,0-4.4-0.1-6.6c0-2.6,0.5-2.2-2.4-2.3c-0.8,0-1,0.3-1,1c0,2.7,0,5.4,0,8.1
			c-0.1,2.2,1.5,4.2,3.6,4.5c0.8,0.1,1.7,0.1,2.5,0.1c2.5,0,4.5-2,4.5-4.5c0,0,0,0,0,0C98.3,257.6,98.3,256.3,98.3,255L98.3,255z
			 M106.7,245.1c0.4,0,0.6,0.1,0.8,0.1c0.9,0.1,1.7,0.1,2.6-0.2c0.5-0.3,0.5-1.4,0.7-2c0.1-0.2,0.3-0.6,0.5-0.6c1-0.1,2-0.1,3,0.1
			c0.4,0.1,0.4,1.2,0.7,1.8c0.2,0.4,0.5,0.8,0.9,0.9c1,0.1,2,0.1,3,0c-0.1-0.6-0.2-1-0.3-1.4c-0.9-3.1-1.9-6.2-2.8-9.3s-0.9-3-4-2.9
			c-0.6-0.1-1.1,0.3-1.2,0.9c-0.4,1.4-0.8,2.8-1.2,4.1L106.7,245.1z M100.4,241c1.1-0.1,2-0.2,3-0.4c2.3-0.3,3.9-2.3,3.7-4.5
			c0.1-2.2-1.6-4.1-3.8-4.2c-1.8-0.2-3.7-0.3-5.5-0.2c-0.3,0-0.9,0.5-0.9,0.8c-0.1,4-0.1,8,0,12c0.1,0.3,0.3,0.6,0.6,0.7
			c0.9,0.1,1.8,0,2.8,0L100.4,241z M134.9,243.6c0.3,0.2,0.6,0.4,0.8,0.5c1.8,1.3,4.2,1.8,6.4,1.2c2-0.2,3.5-1.9,3.6-3.9
			c0.2-1.9-0.9-3.4-3-4.3c-0.7-0.3-1.5-0.5-2.2-0.8s-1.5-0.7-1.1-1.5c0.4-0.5,1.1-0.8,1.8-0.8c0.9,0.2,1.8,0.6,2.7,1l1.5-1.8
			c-1.6-1.6-3.8-2.3-6-1.8c-2,0.1-3.5,1.6-3.8,3.6c-0.2,1.7,0.9,3.2,2.9,4.1c0.9,0.3,1.8,0.6,2.7,1c0.5,0.3,0.8,0.8,0.8,1.4
			c0,0.4-0.6,0.9-1,1.1c-1.2,0.5-2.3-0.1-3.4-0.6c-0.3-0.2-0.8-0.2-1.1-0.1C135.9,242.5,135.4,243,134.9,243.6L134.9,243.6z
			 M74.2,263.2v-2.6h-4.8v-3h2c2.1,0,2.1,0,1.9-2.1c0-0.1-0.1-0.3-0.2-0.4c-1,0-2,0-3.1,0c-0.3,0-0.7-0.3-0.7-0.5c0-0.8,0-1.7,0-2.5
			H74l0.3-2.5c-2.7,0-5.3,0-7.8,0c-0.2,0-0.7,0.5-0.7,0.8c-0.1,4-0.1,8,0,12c0,0.3,0.4,0.8,0.6,0.8C69,263.2,71.5,263.2,74.2,263.2
			L74.2,263.2z M174.4,231.7c-2.7,0-5.2,0-7.8,0c-0.2,0-0.5,0.6-0.5,1c0,3.8,0,7.7,0,11.5c0,0.8,0.2,1.1,1,1c2.1,0,4.2-0.1,6.4,0
			c1.1,0,1.1-0.5,1.1-1.3s-0.1-1.4-1.2-1.3c-1.3,0.1-2.5,0-3.7,0v-3h2.1c2,0,2,0,1.8-1.9c0-0.1-0.1-0.3-0.1-0.6h-3.9v-2.9
			c1.1,0,2.2-0.1,3.3,0s1.5-0.3,1.5-1.3C174.4,232.5,174.4,232.1,174.4,231.7z M203.9,231.7c-2.6,0-5.1,0-7.7,0
			c-0.2,0-0.6,0.6-0.6,0.9c0,3.9,0,7.8,0,11.6c0,0.7,0.2,1,1,1c2.2,0,4.3-0.1,6.5,0c1.2,0,1-0.7,1.1-1.4s-0.2-1.3-1.1-1.2
			c-1.3,0.1-2.5,0-3.8,0v-3h2.4c1.6,0,1.6,0,1.5-1.6c0-0.3-0.1-0.6-0.1-0.9h-3.8v-2.9h2.4c2.6,0,2,0.1,2.3-2.1
			C203.9,231.9,203.9,231.8,203.9,231.7z M267.9,245.1h8.1v-2.5h-4.8v-3h3.9v-2.5h-4c0-0.6,0-1.1,0-1.7c-0.1-1,0.3-1.3,1.3-1.3
			s2.3,0,3.4,0c0.1-0.9,0.2-1.6,0.3-2.5h-8.3V245.1z M266.7,233.1c-2.4-2.3-6.2-2.3-8.5,0.1c-0.5,0.5-0.9,1.1-1.2,1.7
			c-0.7,1.7-0.9,3.6-0.5,5.4c0.7,4.4,4.2,6,8.1,4.9c2.5-0.7,2.6-1.5,0.8-3.4c-0.1,0-0.1,0-0.2-0.1l-0.7,0.4
			c-2.2,1.3-3.8,0.6-4.4-1.9c-0.2-0.9-0.2-1.7-0.2-2.6c0.1-3.2,2.1-4.6,4.8-2.9c0.1,0,0.2,0.1,0.3,0.1L266.7,233.1z M51.3,241.7
			l-5,2.4c1.3,2.5,1.1,5.6-0.4,7.9c-0.1,0.3-0.1,0.6,0,0.9c1.1,1.3,2.3,2.5,3.4,3.8C53,253.5,54.1,245.4,51.3,241.7z M74.3,241.7
			l-0.9,0.5c-2,1.1-3.8,0.5-4.2-1.8c-0.2-1.3-0.2-2.7,0-4c0.4-2.2,2.1-2.9,4.1-1.9l0.8,0.4c0.3-0.3,0.6-0.7,0.9-1
			c0.8-0.7,0.6-1.2-0.2-1.7c-2.9-1.7-6.9-0.8-8.4,2.1c-1.4,2.6-1.4,5.8,0,8.4c1.8,3.4,7.4,3.9,9.5,0.9L74.3,241.7z M86.3,233
			c-2.4-2.3-6.3-2.2-8.6,0.2c-0.1,0.1-0.3,0.3-0.4,0.5c-1.8,2.9-1.8,6.5-0.1,9.4c2,3,7.3,3.3,9.2,0.4c-0.2-0.3-0.4-0.6-0.7-1
			s-0.5-0.6-0.8-0.9c-0.4,0.3-0.8,0.5-1.1,0.7c-1.8,0.9-3.6,0.3-3.9-1.7c-0.3-1.5-0.3-3.1,0-4.6c0.1-1.3,1.3-2.2,2.6-2.1
			c0.4,0,0.9,0.2,1.2,0.5c0.5,0.4,1.2,0.4,1.6-0.1c0.1-0.1,0.2-0.2,0.2-0.3C85.8,233.7,86,233.4,86.3,233L86.3,233z M220.8,234.2
			l0.3-2.5c-2.6,0-5.1,0-7.5,0c-0.3,0.1-0.6,0.4-0.7,0.7c0,4,0,8.1,0,12.1c0.1,0.3,0.3,0.6,0.6,0.7c0.9,0.1,1.8,0,2.8,0
			c0-1.2,0-2.2,0-3.3c0-2.3-0.3-2,1.9-2c0.6,0,1.2,0,1.8,0v-2.6h-3.7c0-0.8,0-1.5,0-2.2s0.2-1.1,1-1
			C218.5,234.2,219.6,234.2,220.8,234.2L220.8,234.2z M127.6,252.4h1.4c1.8,0,1.8,0,2.1-1.8c0.1-0.8-0.2-1-0.9-1c-2.8,0-5.7,0-8.5,0
			c-1.3,0-0.9,1-0.9,1.6s0.1,1.2,1,1.2c0.7-0.1,1.5,0,2.3,0v7.9c0,3.1,0,3.1,3.1,2.8c0.1,0,0.1-0.1,0.3-0.2L127.6,252.4z M160,242.4
			v-8.4c0-2.6,0-2.7-2.6-2.4c-0.4,0.1-0.7,0.5-0.8,0.9c-0.1,4-0.1,7.9,0,11.9c0,0.3,0.4,0.8,0.6,0.8c2.5,0.1,5,0,7.6,0
			c0.1-1,0.2-1.8,0.3-2.8L160,242.4z M87.3,245.2c0.9,0,1.6,0,2.2,0c1,0.1,1.3-0.3,1.3-1.3c-0.1-3.3,0-6.6,0-9.9
			c0-2.6,0.4-2.3-2.4-2.4c-1,0-1.1,0.4-1.1,1.2c0,3.1,0,6.2,0,9.3L87.3,245.2z M130.8,245.2c0.9,0,1.6,0,2.2,0
			c1,0.1,1.3-0.3,1.3-1.3c-0.1-3.3,0-6.6,0-9.9c0-2.6,0.4-2.3-2.4-2.4c-0.9,0-1.1,0.4-1.1,1.2c0,3,0,6.1,0,9.1L130.8,245.2z
			 M151.2,245.2c0.7,0,1.4,0,2.2,0c1.1,0.1,1.3-0.4,1.3-1.4c-0.1-3.3,0-6.5,0-9.8c0-2.6,0.5-2.4-2.6-2.4c0,0-0.1,0-0.1,0
			c-0.3,0.3-0.8,0.5-0.8,0.8C151.1,236.6,151.2,240.8,151.2,245.2L151.2,245.2z M135.2,249.6c-0.7,0-1.4,0-2.1,0
			c-1.1-0.1-1.4,0.3-1.4,1.4c0,3.1,0,6.2,0,9.3c0.1,3.3-0.7,2.9,3,2.8c0.1,0,0.2-0.1,0.4-0.1L135.2,249.6z M48.9,232.5l-4.2,9.5
			l0.3,0.3l9.3-4.4C53,235.7,51.2,233.9,48.9,232.5z M208.2,240.4c0.8,0,1.6,0,2.4,0s0.9-0.5,0.9-1.1s0.4-1.6-0.8-1.6
			c-1.6-0.1-3.3,0-4.9,0c-1.1,0-0.8,0.9-0.8,1.5s-0.1,1.3,0.8,1.2C206.6,240.4,207.4,240.4,208.2,240.4L208.2,240.4z M181.8,240.4
			c0-0.7,0-1.3,0-2c0-0.3-0.4-0.7-0.6-0.7c-1.7,0-3.4-0.1-5.1,0c-1.1,0.1-0.5,1.1-0.6,1.7s0,1,0.7,1
			C178,240.4,179.8,240.4,181.8,240.4L181.8,240.4z"/>
		<path d="M225.5,237.6v-3.3c0.9-0.4,2-0.1,2.6,0.6c0.3,0.6,0.4,1.4,0.1,2C227.6,238,226.6,237.6,225.5,237.6z"/>
		<path d="M238.1,235.3l1,4.4h-2.2c0.4-1.5,0.7-3,1-4.4L238.1,235.3z"/>
		<path d="M116.4,257.7h-2.3l1-4.3h0.2L116.4,257.7z"/>
		<path d="M122.8,237.6v-3.3c1-0.2,2.1-0.2,2.6,0.7c0.3,0.6,0.3,1.4,0,2C124.9,238,123.8,237.6,122.8,237.6z"/>
		<path d="M79.2,252.5c2.3-0.4,3.3,0.3,3.6,2.5c0.1,0.9,0.1,1.9,0,2.8c-0.2,2.1-1.3,3-3.6,2.7L79.2,252.5z"/>
		<path d="M186.9,242.5v-7.9c2-0.6,3.4,0.1,3.6,2.1c0.1,1.1,0.1,2.2,0,3.3C190.3,242,189.1,242.8,186.9,242.5z"/>
		<path d="M145.3,256.4c-0.1,0.9-0.2,1.9-0.4,2.8c-0.2,1-1.1,1.7-2.1,1.7c-1,0.1-1.9-0.6-2.1-1.6c-0.6-1.9-0.6-3.9,0-5.7
			c0.3-1.2,1.5-1.8,2.7-1.5c0.7,0.2,1.3,0.8,1.5,1.5C145,254.5,145.1,255.5,145.3,256.4z"/>
		<path d="M111.6,239.7l1.1-4.8l1.1,4.8H111.6z"/>
		<path d="M100.6,234.2c1,0,2.2-0.1,2.6,0.9c0.3,0.7,0.3,1.5,0,2.2c-0.5,1.1-1.6,0.8-2.6,0.7L100.6,234.2z"/>
		<g id="Layer_1-2-2">
			<g>
				<defs>
					<rect id="SVGID_1_" x="-41.4" y="-49.4" width="398.5" height="268.8"/>
				</defs>
				<clipPath id="SVGID_2_">
					<use xlink:href="#SVGID_1_"  style="overflow:visible;"/>
				</clipPath>
				<g class="st0">
					<path d="M155,0c-18.9,0.2-34.1,15.6-34,34.5s15.6,34.1,34.5,34c18.8-0.2,34-15.4,34-34.2c0-18.9-15.3-34.3-34.2-34.3
						C155.2,0,155.1,0,155,0L155,0 M155,41.8c-4.2,0-7.5-3.5-7.5-7.6c0-4.2,3.5-7.5,7.6-7.5c4.1,0,7.5,3.4,7.5,7.6
						C162.6,38.4,159.3,41.8,155,41.8C155.1,41.8,155,41.8,155,41.8L155,41.8"/>
					<path d="M179.5,136.5l1.4-0.7c1.4-0.7,8.2-4.4,6.9-9.2c-1.1-3.6-5.7-5.1-5.7-5.1s-28.8-8.5-46.7-14.3
						c-18.5-5.9-19.1-19.1-19.2-21.4c-0.8-8.7,3.8-17.1,11.6-21.2l0.9-0.4l0.3,0.5c0,0-0.5,0.3-0.6,0.3c-0.9,0.5-6.4,3.5-5.7,7.4
						s5.6,5.2,5.6,5.2s28.8,8.5,46.7,14.3c18.5,5.9,19.1,19,19.2,21.4c1,9.6-4.1,18.8-12.8,23l-1.4,0.7L179.5,136.5z"/>
					<path d="M33.5,150.9c-1.7-2.3-4.4-3.6-7.3-3.6c-2.3,0-4.6,0.8-6.4,2.4c-2,1.8-3.1,4.2-3.2,6.9c0,2.4,1,4.7,2.7,6.4
						c1.9,1.9,4.4,3.1,7.1,3.1c3.4-0.1,6.5-1.9,8.1-4.9H23v-4.8h18v0.6c0.1,8.2-6.5,14.9-14.7,15.1c-8.2,0.1-14.9-6.5-15.1-14.7
						c-0.1-8.2,6.5-14.9,14.7-15.1c5.9-0.1,11.3,3.3,13.7,8.7L33.5,150.9z"/>
					<path d="M79.2,156.7c-0.2,5.1-4.5,9.2-9.6,9c-4.9-0.2-8.8-4.1-9-9c-0.1-5.1,4-9.2,9-9.3c0,0,0,0,0,0h0.2v-0.1
						C75.1,147.3,79.3,151.5,79.2,156.7L79.2,156.7 M70,142.3c-7.9,0-14.3,6.5-14.3,14.4c0,7.9,6.5,14.3,14.4,14.3
						s14.3-6.5,14.3-14.4c0-7.9-6.4-14.3-14.3-14.3H70"/>
					<path d="M108.1,165.3v-7h2.3c1.2-0.1,2.5,0.1,3.6,0.6c1.1,0.5,1.8,1.6,1.8,2.8c0.1,1.1-0.5,2.1-1.3,2.7c-1.3,0.8-2.8,1.1-4.2,1
						L108.1,165.3z M103,170.3h6.9c2.6,0,5.5-0.2,7.7-1.8c2.1-1.5,3.4-3.9,3.4-6.5c0.1-3-1.8-5.7-4.7-6.6c1.9-1,3.1-3.1,3-5.2
						c-0.1-2.6-1.6-5-3.9-6.1c-2.4-0.9-4.9-1.3-7.4-1h-5L103,170.3z M108.1,153.4v-5.6h0.9c1.1-0.1,2.3-0.1,3.4,0.3
						c1,0.4,1.6,1.3,1.6,2.4c0,1.1-0.6,2.1-1.6,2.5c-1.1,0.4-2.3,0.5-3.5,0.4L108.1,153.4z"/>
					<polygon points="141.3,142.9 156.1,142.9 156.1,147.8 146.4,147.8 146.4,154.1 155.7,154.1 155.7,159 146.4,159 146.4,165.3 
						156.1,165.3 156.1,170.3 141.3,170.3 					"/>
					<polygon points="177.9,142.9 183,142.9 183,165.3 191.5,165.3 191.5,170.3 177.9,170.3 					"/>
					<rect x="210.5" y="142.9" width="5.1" height="27.4"/>
					<polygon points="238.7,142.9 244.4,142.9 255.9,162.9 255.9,142.9 261.1,142.9 261.1,170.3 255.4,170.3 243.8,150.3 
						243.8,170.3 238.7,170.3 					"/>
					<path d="M286.8,162.6c0,1.9,1.6,3.5,3.6,3.5c0,0,0,0,0,0h0.3c1.9,0.1,3.5-1.4,3.6-3.3c0,0,0,0,0,0v-0.1c0-3-2.5-3.9-4.8-4.6
						c-1.8-0.4-3.5-1.3-4.8-2.6c-3-3.1-2.9-7.9,0.2-10.9c1.6-1.5,3.7-2.3,5.8-2.2c4.4,0,8,3.4,8.1,7.8h-5.3
						c-0.1-1.6-1.4-2.9-3.1-2.8l0,0c-1.5-0.1-2.7,1.1-2.7,2.6c0,0,0,0,0,0c0,0.1,0,0.3,0,0.4c0,2,1.8,2.8,3.5,3.3
						c1.9,0.5,3.8,1.4,5.4,2.5c2,1.5,3.1,3.8,3,6.2c-0.4,5-4.7,8.7-9.7,8.3c-4.3-0.3-7.8-3.7-8.3-8L286.8,162.6z"/>
					<polygon points="21.5,197.5 11.9,197.5 11.9,178.8 13.8,178.8 13.8,196.1 21.5,196.1 					"/>
					<polygon points="24.8,178.8 26.7,178.8 24.7,184 23.7,184 					"/>
					<path d="M41.9,187v1.4h-6.5v7.7h8.5v1.4H33.5v-18.7h10.2v1.4h-8.2v6.9L41.9,187z M38.9,178h-1.5l2.8-2.4h2.6L38.9,178z"/>
					<path d="M67.6,193c-1.8,3-5,4.8-8.4,4.8c-5.4,0.3-9.9-3.9-10.2-9.2c-0.3-5.4,3.9-9.9,9.2-10.2c0.4,0,0.7,0,1.1,0
						c3.3-0.2,6.4,1.5,7.9,4.4l-2,0.4c-1.1-2.3-3.4-3.7-5.9-3.6c-4,0-7.9,2.4-7.9,8.4s3.8,8.4,7.9,8.4c2.7-0.1,5.2-1.6,6.4-4
						L67.6,193z"/>
					<path d="M81.4,179.7c4,0,7.9,2.5,7.9,8.4s-3.8,8.4-7.8,8.4s-7.9-2.5-7.9-8.4S77.3,179.7,81.4,179.7L81.4,179.7z M71.5,188.1
						c0,6.7,4.5,9.7,9.9,9.7s9.9-3,9.9-9.7s-4.5-9.7-9.9-9.7S71.5,181.4,71.5,188.1L71.5,188.1z"/>
					<polygon points="106.7,197.5 97.1,197.5 97.1,178.8 99.1,178.8 99.1,196.1 106.7,196.1 					"/>
					<polygon points="121.3,187 121.3,188.4 114.8,188.4 114.8,196.1 123.3,196.1 123.3,197.5 112.8,197.5 112.8,178.8 123,178.8 
						123,180.1 114.8,180.1 114.8,187 					"/>
					<path d="M138.6,196.1v-16h3.9c5.4,0,7.6,2.9,7.6,8s-2.5,8-7.6,8H138.6z M142.7,197.5c6.7,0,9.4-3.4,9.4-9.4s-3-9.3-9.5-9.3h-6
						v18.7H142.7z"/>
					<polygon points="167.6,187 167.6,188.4 161.1,188.4 161.1,196.1 169.6,196.1 169.6,197.5 159.1,197.5 159.1,178.8 169.3,178.8 
						169.3,180.1 161.1,180.1 161.1,187 					"/>
					<polygon points="191.8,197.5 182.2,197.5 182.2,178.8 184.2,178.8 184.2,196.1 191.8,196.1 					"/>
					<polygon points="195.2,179.4 197.1,179.4 195.2,184.5 194.1,184.5 					"/>
					<rect x="204.5" y="178.8" width="2" height="18.7"/>
					<path d="M226,195.5c1.2-3.1,3.4-8.5,6.9-16.7h3v18.7H234c0-8.5,0-14.2,0.1-17.2H234c-1.2,3-3.5,8.6-7.1,17.2H225
						c-3.5-8.5-5.9-14.2-7.1-17.2h-0.1c0.1,3,0.1,8.7,0.1,17.2h-1.9v-18.7h3C222.5,187,224.8,192.4,226,195.5L226,195.5z"/>
					<path d="M254.1,190.2h-8l2-5.1c0.6-1.6,1.3-3.3,1.9-5h0.2c0.6,1.8,1.3,3.4,2,5.1L254.1,190.2z M254.7,191.5l2.4,5.9h2.2
						l-8-18.7h-2.5l-8,18.7h2.2l2.4-5.9H254.7z"/>
					<path d="M281.9,195.5c-2.5,1.6-5.4,2.4-8.4,2.4c-6.2,0-10.6-3.6-10.6-9.7c0-6.9,5.5-9.7,10.7-9.7c3.1-0.1,6.2,1.2,8.2,3.6
						l-2,0.6c-1.4-2-3.7-3.1-6.1-3c-3.8,0-8.7,2.2-8.7,8.4c0,5.3,3.8,8.4,8.7,8.4c2.2,0,4.4-0.5,6.3-1.6V190h-5.7v-1.3h7.6
						L281.9,195.5z"/>
					<polygon points="297.2,187 297.2,188.4 290.7,188.4 290.7,196.1 299.2,196.1 299.2,197.5 288.7,197.5 288.7,178.8 298.9,178.8 
						298.9,180.1 290.7,180.1 290.7,187 					"/>
				</g>
			</g>
		</g>
	</g>
</g>
</svg>
