<svg xmlns="http://www.w3.org/2000/svg" width="600" height="600" viewBox="0 0 600 600"><path d="M546.96 600H53.04C23.868 600 0 576.132 0 546.96V53.04C0 23.868 23.868 0 53.04 0h493.92C576.132 0 600 23.868 600 53.04v493.92c0 29.172-23.868 53.04-53.04 53.04z" fill="#f5841e"/><path d="M352.26 361.02H247.74v3.72h-8.22v29.04h120.96v-29.04h-8.22v-3.72zm-50.04-153.36l2.28 63h-9l2.28-63 1.56-43.56-76.68 94.38s29.1 46.14 29.64 99.54h95.4c.54-53.4 29.64-99.54 29.64-99.54l-76.68-94.38 1.56 43.56zm-145.14-42.3c0-5.46.66-10.8 1.86-15.96H102.9v60.9H90.54v29.4h12.36v175.32h54.18V239.7h12.24v-29.4h-12.24v-44.94zM497.1 143.4V53.88H102.9v89.52h57.72c9.18-27.72 35.28-47.7 66.06-47.7h146.64c30.78 0 56.88 19.98 66.06 47.7h57.72zm0 6h-56.04c1.2 5.16 1.86 10.5 1.86 15.96v44.94h-12.24v29.4h12.24v175.32h54.18V239.7h12.36v-29.4H497.1v-60.9zM61.86 539.947c-2.109-3.176-3.16-9.404-3.16-18.685v-57.844h-7.12v58.793c0 8.648.697 14.748 2.098 18.31 2.159 5.467 6.674 9.258 13.538 11.38l3.814-6.235c-4.555-1.436-7.611-3.346-9.17-5.719zm46.11-18.052c0 2.923-1.42 4.388-4.26 4.388-2.882 0-4.32-1.465-4.32-4.388v-58.477h-7.12v60.639c0 2.672 1.199 4.98 3.595 6.931 2.227 1.864 4.705 2.795 7.439 2.795h.568c1.386 0 2.751-.258 4.099-.762v6.674c0 2.924-1.43 4.383-4.292 4.383-2.86 0-4.29-1.459-4.29-4.383v-1.652h-7.118v3.111c0 2.672 1.207 4.98 3.62 6.932 2.248 1.863 4.747 2.795 7.504 2.795 3.005 0 5.657-.85 7.945-2.543 2.499-1.904 3.75-4.3 3.75-7.184v-77.736h-7.12v58.477zm41.837 22.119c-2.883 0-4.322-1.436-4.322-4.319v-64.388c0-2.672 1.266-4.114 3.797-4.325s4.114.786 4.746 2.989l6.838-2.989c-.636-2.203-2.012-4.013-4.13-5.437-2.119-1.418-4.345-2.127-6.674-2.127-2.968 0-5.593.867-7.884 2.607-2.54 1.864-3.812 4.237-3.812 7.12v68.01c0 2.671 1.207 4.98 3.621 6.93 2.247 1.864 4.746 2.796 7.503 2.796h.572c2.373 0 4.617-.72 6.738-2.162 2.118-1.442 3.495-3.264 4.13-5.467l-6.802-2.924c-.466 2.461-1.904 3.686-4.321 3.686zm43.617-80.848h-.636c-2.757 0-5.256.932-7.503 2.795-2.414 1.951-3.62 4.26-3.62 6.926v49.453c0 8.431.802 14.537 2.413 18.305 2.288 5.384 6.885 9.134 13.793 11.255l3.879-6.234c-4.11-1.312-7.078-2.86-8.9-4.635-2.119-2.12-3.39-5.191-3.815-9.217 1.23.463 2.482.698 3.753.698h.636c2.754 0 5.253-.914 7.5-2.737 2.373-1.986 3.56-4.318 3.56-6.99v-49.898c0-2.666-1.187-4.998-3.56-6.99-2.247-1.823-4.746-2.731-7.5-2.731zm3.94 58.096c0 2.924-1.42 4.383-4.26 4.383-2.882 0-4.32-1.46-4.32-4.383v-46.149c0-2.924 1.438-4.388 4.32-4.388 2.84 0 4.26 1.464 4.26 4.388v46.149zm41.71-58.096h-.636c-2.756 0-5.255.932-7.502 2.795-2.415 1.951-3.622 4.26-3.622 6.926v49.453c0 8.431.803 14.537 2.415 18.305 2.288 5.384 6.884 9.134 13.792 11.255l3.88-6.234c-4.111-1.312-7.079-2.86-8.901-4.635-2.118-2.12-3.39-5.191-3.814-9.217 1.23.463 2.481.698 3.752.698h.636c2.754 0 5.253-.914 7.5-2.737 2.373-1.986 3.56-4.318 3.56-6.99v-49.898c0-2.666-1.187-4.998-3.56-6.99-2.247-1.823-4.746-2.731-7.5-2.731zm3.94 58.096c0 2.924-1.42 4.383-4.26 4.383-2.882 0-4.32-1.46-4.32-4.383v-46.149c0-2.924 1.438-4.388 4.32-4.388 2.84 0 4.26 1.464 4.26 4.388v46.149zm153.033-57.844h-.636c-2.757 0-5.256.932-7.503 2.795-2.414 1.951-3.62 4.26-3.62 6.932v77.736h7.118v-18.943c1.266.51 2.616.761 4.05.761h.635c2.742 0 5.232-.908 7.468-2.73 2.364-1.992 3.547-4.324 3.547-6.99v-49.834c0-2.672-1.186-5.004-3.56-6.997-2.246-1.822-4.745-2.73-7.5-2.73zm4.066 57.398c0 2.924-1.462 4.383-4.385 4.383-2.883 0-4.322-1.459-4.322-4.383v-46.212c0-2.924 1.439-4.383 4.322-4.383 2.923 0 4.385 1.459 4.385 4.383v46.212zm53.227 25.676c-.604-2.156-.841-3.978-.712-5.46V492.21c0-6.738-.72-12.715-2.162-17.924-1.313-4.787-5.871-8.432-13.667-10.933l-3.876 6.292c4.151 1.36 7.014 2.731 8.58 4.131 2.034 1.823 3.285 4.641 3.75 8.455-1.27-.468-2.522-.697-3.75-.697h-.57c-2.757 0-5.256.932-7.503 2.795-2.414 1.951-3.621 4.26-3.621 6.926v49.898c0 2.672 1.207 4.98 3.62 6.932 2.248 1.863 4.747 2.795 7.504 2.795h.57c1.95 0 3.897-.55 5.849-1.652.17.591.635 1.142 1.397 1.652h7.374c-1.122-.34-2.05-1.799-2.783-4.389zm-7.831-6.861c0 2.924-1.421 4.383-4.26 4.383-2.883 0-4.321-1.46-4.321-4.383v-46.149c0-2.923 1.438-4.382 4.321-4.382 2.839 0 4.26 1.459 4.26 4.382v46.149zm46.667-76.213h-.636c-2.033 0-3.96.527-5.783 1.588-.214-.463-.66-.996-1.336-1.588h-7.436c1.04.34 1.913 1.74 2.62 4.195.541 1.905.811 3.668.811 5.274v77.994h7.12v-76.277c0-2.924 1.44-4.383 4.323-4.383 2.245 0 3.665 1.101 4.257 3.304l6.422-3.75c-2.077-4.236-5.531-6.357-10.362-6.357zm46.667 76.91c-.466 2.461-1.905 3.686-4.322 3.686-2.882 0-4.32-1.436-4.32-4.319v-64.388c0-2.672 1.265-4.114 3.796-4.325s4.113.786 4.746 2.989l6.838-2.989c-.636-2.203-2.013-4.013-4.13-5.437-2.119-1.418-4.346-2.127-6.675-2.127-2.967 0-5.592.867-7.883 2.607-2.54 1.864-3.812 4.237-3.812 7.12v68.01c0 2.671 1.207 4.98 3.621 6.93 2.247 1.864 4.746 2.796 7.503 2.796h.571c2.373 0 4.618-.72 6.739-2.162 2.118-1.442 3.495-3.264 4.13-5.467l-6.802-2.924zm-226.319 7.676a13.305 13.305 0 0 1-.539-3.68V489.07h-4.942v13.389a8.163 8.163 0 0 0-2.918-.54h-.404c-1.949 0-3.715.657-5.303 1.976-1.705 1.376-2.56 3.011-2.56 4.898v35.215c0 1.887.855 3.521 2.56 4.898 1.588 1.319 3.354 1.975 5.303 1.975h.404c1.436 0 2.813-.375 4.13-1.125.121.363.434.738.944 1.125h5.212c-.78-.211-1.409-1.166-1.887-2.877zm-5.481-5.027c0 2.033-1.031 3.052-3.1 3.052-2.036 0-3.052-1.02-3.052-3.052v-32.66c0-2.063 1.016-3.1 3.052-3.1 2.069 0 3.1 1.037 3.1 3.1v32.66zm38.191 5.748c-.36-1.26-.539-2.455-.539-3.592v-55.928h-5.03v54.041c0 2.063-1.005 3.1-3.012 3.1-2.036 0-3.052-1.037-3.052-3.1v-54.04h-5.034v55.564c0 1.921.856 3.55 2.56 4.898 1.589 1.289 3.355 1.934 5.304 1.934 1.526 0 3.023-.375 4.49-1.125.18.386.51.761.988 1.125h5.212c-.78-.24-1.41-1.202-1.887-2.877zM180.406 455.61h25.335v-5.225h-25.335v5.225z" fill="#fff"/></svg>