<?xml version="1.0" encoding="utf-8"?>
<!-- Generator: Adobe Illustrator 23.0.2, SVG Export Plug-In . SVG Version: 6.00 Build 0)  -->
<svg version="1.1" id="Layer_1" xmlns="http://www.w3.org/2000/svg" xmlns:xlink="http://www.w3.org/1999/xlink" x="0px" y="0px"
	 viewBox="0 0 321.3 558.5" style="enable-background:new 0 0 321.3 558.5;" xml:space="preserve">
<style type="text/css">
	.st0{fill-rule:evenodd;clip-rule:evenodd;}
	.st1{fill:none;}
</style>
<g id="Calque_1">
	<g>
		<path d="M198.3,104.3c-13.2,15.6-30.2,35.7-45.4,54.5C93.8,85.8,38.9,27.2,2.5,0c19,43.6,65.7,110.7,127,188.7
			c-31.8,41.2-95,123.1-127.1,192.7c43.8-34.6,102.7-102.9,150.5-163.3c58.9,73.2,115,135.8,151.2,162.9
			c-18.9-43.3-66.9-115-127.8-192.8c23.9-30.7,32.6-41.6,56.1-74.7c25.5-36,66.8-87.5,88.9-76.7C288.2,18,241.1,53.9,198.3,104.3"/>
		<path d="M80.1,167.8c-0.7-0.5-1.5-0.7-2.6-0.7c-1.3,0-2.8,0.4-4.4,1.3c-1.6,0.9-3.3,2.2-5,3.8s-3.5,3.5-5.3,5.7s-3.5,4.6-5.2,7.2
			c-1.6,2.6-3.2,5.3-4.7,8.1c-1.5,2.9-2.7,5.7-3.8,8.7c-1.1,2.9-1.9,5.8-2.6,8.7c-0.4,2.1-0.7,4.1-0.9,6c-1.7,1.6-3.2,2.9-4.5,4.1
			c-1.8,1.5-3.3,2.8-4.6,3.8c-1.4,1-2.2,1.6-3.3,2.2l0.6,2.4c1.1-0.5,2.6-1.6,4-2.7c1.3-1,2.8-2.3,4.6-3.9c0.9-0.8,1.9-1.7,3.1-2.7
			c0.1,1.7,0.3,3.2,0.7,4.5c0.5,1.5,1.2,2.8,2,3.7c0.8,1,1.8,1.7,2.9,2.1c1.1,0.5,2.2,0.7,3.4,0.7c1.4,0,2.8-0.4,4.2-1.1
			s2.7-1.6,3.9-2.8c1-0.9,2-2,2.9-3.1l-1.5-1.6c-0.2,0.2-0.4,0.5-0.6,0.7c-0.9,1-1.9,2-2.9,2.8s-2,1.5-3,2s-2,0.8-3,0.8
			c-1.5,0-2.6-0.6-3.5-1.8c-0.8-1.2-1.3-3.1-1.4-5.6c0-0.8,0-1.8,0-2.7c0-1,0.2-1.9,0.4-2.9c0.8-0.7,1.5-1.6,2.3-2.4
			c0.3-0.3,0.6-0.6,0.9-0.9c0.6-0.6,1.3-1.2,2-2c0.8-0.8,1.7-1.8,2.8-3s2.4-2.7,4-4.5c1.5-1.8,3.3-4,5.4-6.6c1-1.3,2.1-2.7,3.2-4.2
			s2.1-3.1,3.1-4.7s1.9-3.2,2.7-4.8c0.8-1.6,1.6-3.2,2.2-4.6c0.6-1.5,1.1-2.8,1.5-4.1s0.5-2.3,0.5-3.2
			C81.2,169.2,80.8,168.3,80.1,167.8 M77.8,175.4c-0.7,1.8-1.6,3.7-2.8,5.9c-1.2,2.2-2.6,4.5-4.3,6.9s-3.5,4.9-5.6,7.5
			c-2,2.6-4.2,5.2-6.5,7.8s-4.7,5.2-7.2,7.8l0,0l0,0c0.6-3.2,1.6-6.4,2.8-9.7c1.3-3.3,2.7-6.5,4.4-9.6c1.6-3.1,3.4-6,5.2-8.8
			c1.8-2.7,3.6-5.1,5.4-7.2c1.7-2.1,3.3-3.7,4.8-4.9s2.7-1.8,3.6-1.8c0.3,0,0.7,0.1,0.9,0.5s0.3,0.8,0.3,1
			C78.8,172.1,78.5,173.7,77.8,175.4 M96.7,175.3c0.1,1-0.2,2.1-0.7,3.1c-0.5,0.9-1.3,1.8-2.1,2.7c-0.8,0.8-1.8,1.6-2.9,2.3
			s-2.1,1.2-3.2,1.7l-0.9-1.5c1.2-0.6,2.4-1.4,3.5-2.2c1.1-0.9,1.9-1.7,2.3-2.5c-1-0.2-1.7-0.6-2.1-1.3c-0.4-0.6-0.7-1.3-0.7-2
			c0-1,0.3-1.8,1-2.4s1.5-1,2.4-1c1,0,1.8,0.3,2.4,1C96.4,173.7,96.6,174.4,96.7,175.3"/>
		<path d="M105.9,355.7h12.4v2.2h-9.9v7.8h9.9v2.2h-9.9v8h9.9v2.2h-12.4V355.7z M115.3,348.8l0.8,1.6l-7.3,3.9l-0.7-1.5L115.3,348.8
			z M143.5,372c-1.5,3.4-5.4,6.4-10.3,6.4c-6.6,0-11.7-5.1-11.7-11.6c0-6.4,4.9-11.6,11.6-11.6c5.5,0,9,3.7,10.3,6.5h-2.7
			c-0.8-1.3-3.3-4.3-7.6-4.3c-5.2,0-9.2,4.1-9.2,9.3c0,5.3,4,9.4,9.2,9.4c4.7,0,7.1-3.4,7.6-4.2L143.5,372L143.5,372z M145.8,366.9
			c0-6.9,5.4-11.6,11.7-11.6c6.6,0,11.7,5,11.7,11.6s-5.1,11.6-11.7,11.6C150.9,378.4,145.8,373.3,145.8,366.9L145.8,366.9z
			 M148.3,366.8c0,5.3,4,9.4,9.2,9.4c5.3,0,9.2-4.3,9.2-9.4s-3.9-9.4-9.2-9.4C152.2,357.5,148.3,361.6,148.3,366.8L148.3,366.8z
			 M173.4,355.7h2.5v20.2h9.6v2.2h-12.1V355.7z M188.6,355.7H201v2.2h-9.9v7.8h9.9v2.2h-9.9v8h9.9v2.2h-12.4V355.7z"/>
		<path d="M29.8,386.5c3.8,0,5.3,0.5,6.6,1.5c1.6,1.3,2.5,3.5,2.5,5.7s-0.9,4.5-2.4,5.7s-3,1.8-6.3,1.8h-2.8v7.7H23v-22.4
			L29.8,386.5L29.8,386.5z M27.5,397.3h2.7c1,0,2-0.1,2.9-0.6c0.8-0.4,1.5-1.4,1.5-2.8s-0.7-2.4-1.5-2.8c-0.9-0.5-1.9-0.6-3.1-0.6
			h-2.5L27.5,397.3L27.5,397.3z M41.3,397.9c0-7.2,5.5-11.8,11.7-11.8c6.8,0,11.8,5.3,11.8,11.6s-5,11.6-11.8,11.6
			C46.1,409.3,41.3,403.9,41.3,397.9L41.3,397.9z M45.8,397.7c0,4.1,2.9,7.6,7.3,7.6c4.5,0,7.2-3.9,7.2-7.6c0-3.8-2.7-7.7-7.2-7.7
			C48.6,390.1,45.8,393.8,45.8,397.7L45.8,397.7z M69,386.5h4.5v18.4h7.3v4H69V386.5z M88.3,400.9l-6.9-14.4h4.9l4.2,10.2l4.3-10.2
			h4.8l-6.8,14.4v8h-4.5V400.9z M107,390.5h-4.8v-4h14.1v4h-4.8v18.4H107V390.5z M121.1,386.5h12.5v4h-8v5.1h7.9v4h-7.9v5.4h8v4
			h-12.5V386.5z M159.8,401.4c-1.4,4.6-5.7,7.9-10.9,7.9c-6.8,0-11.7-5.4-11.7-11.6c0-6,4.6-11.6,11.7-11.6c6.4,0,10.1,4.8,11,8
			h-4.7c-0.7-1.5-2.7-4.1-6.3-4.1c-4.3,0-7.2,3.7-7.2,7.6c0,4.1,2.9,7.7,7.2,7.7c4,0,5.8-3.1,6.2-4L159.8,401.4L159.8,401.4z
			 M163.5,408.9v-22.4h4.5v9h8.6v-9h4.5v22.4h-4.5v-9.4H168v9.4H163.5z M201.8,402.1l-0.1-15.5h4.3V409h-4l-10.3-15.5l0.1,15.5h-4.3
			v-22.4h4L201.8,402.1z M212.4,386.5h4.5v22.4h-4.5V386.5z M254.3,386.5v13.8c0,1.1,0,2.3,0.6,3.4c0.5,1,1.5,1.7,3,1.7
			s2.5-0.7,3-1.6c0.6-1.1,0.6-2.3,0.6-3.5v-13.8h4.5v13.8c0,3.3-0.6,5.3-2.4,6.9c-1.4,1.3-3.3,2.1-5.7,2.1c-1.6,0-4.2-0.4-5.8-2.1
			c-2.1-2-2.4-3.9-2.4-6.9v-13.8H254.3z M271.3,386.5h12.5v4h-8v5.1h7.9v4h-7.9v5.4h8v4h-12.5V386.5z M244.7,405.5
			c-0.3,0-1.4-0.1-2.2-0.7c1.5-2,2.4-4.5,2.4-7.2c0-6.3-5-11.6-11.8-11.6c-6.2,0-11.7,4.6-11.7,11.8l0,0c0,4.2,2.4,8.1,6.2,10.1l0,0
			c0.2,0.1,0.5,0.2,0.8,0.4c1.5,0.7,3.1,1,4.8,1c2,0,3.9-0.5,5.6-1.4c0.2-0.1,0.5-0.3,0.7-0.4c1,0.7,2.7,1.8,5.3,1.8h0.6v-3.9h-0.7
			L244.7,405.5L244.7,405.5z M226,397.7L226,397.7c0-4,2.8-7.6,7.3-7.6c4.6,0,7.2,3.9,7.2,7.7c0,1.4-0.4,2.9-1.2,4.2l-2.4-2.4
			l-2.7,2.8l2.3,2.3c-0.9,0.5-2,0.8-3.2,0.8C228.9,405.4,226,401.8,226,397.7"/>
		<path class="st0" d="M170.3,34.8c0.1-0.1,2.2-2.4,2.4-2.7c0.3-0.3,1.6-1.7,1.8-1.5c0.1,0.3-0.4,0.8-0.4,1
			c-0.1,0.2-1.2,2.2-1.6,2.5s-1,0.7-1.2,0.8c0,0.1,0.2,0.1,0.2,0.2c0,0.3-0.5,0.4-0.7,0.5h-0.6C170.3,35.2,170.3,34.8,170.3,34.8
			 M168.1,43.6c0.1-0.2,0.2-0.4,0.4-0.6c0.1-0.2,0.2-0.5,0.4-0.6c0.1-0.1,4.1-2.3,4.9-2.8c0.1-0.1,0.3-0.2,0.4-0.4
			c-0.1,0-2.6,1.1-2.8,1.2c-0.3,0.2-2.2,1-2.3,0.5c-0.1-0.3,0.5-1.1,0.7-1.2c0.2-0.1,3.3-0.8,5.6-1.9c0.2-0.1,0.4-0.3,0.6-0.1
			C176,38.7,172.7,41.9,168.1,43.6 M163.4,44.5c-0.4,0.1-1.1-0.2-1.2-0.5c0-0.2,4.1-1.8,4.6-2.4c-0.3,0.1-3.8,1.2-3.9,1
			c0-0.4,0-0.6,0.2-0.7c1.7-0.2,5.2-1.8,5.4-1.6C168.7,40.6,165.1,44.2,163.4,44.5 M167.7,28.7c-0.1,0.6-0.3,1.1-0.7,1.3
			c-0.2-0.1-0.4,0-0.5,0s-0.6,0-0.8,0c-0.1,0-0.5-0.1-0.6,0c-0.2,0-0.4,0-0.5-0.2c0-0.1,0-0.2,0-0.3c0-0.4,0.1-1,0.2-1.2
			C164.9,27.9,167.4,28.6,167.7,28.7 M167.9,37.4c0,0.1,0.2,0.3,0.1,0.4c-0.3-0.2-0.3-0.7-0.5-1.1c0-0.1,0.1-0.1,0.1-0.1
			C167.8,36.8,167.8,37.2,167.9,37.4 M166.9,32.2c-0.3,0-2.4-0.3-2.4-0.3s-0.3-1.9,0.6-1.7c0.1,0,2,0,2.2,0.3
			C167.2,30.8,167.1,32,166.9,32.2 M167,32.7c-0.1,0.2,0,1.2-0.1,1.3s-1.7,0-1.9,0c-0.7,0.2-0.5-0.9-0.6-1.5
			C164.5,32.4,166.8,32.4,167,32.7 M165.3,36.1c-0.9,0.2-0.6-1-0.8-1.6c0,0,2-0.2,2.2,0c0.2,0.1,0.5,1.9,0,1.8
			C166.4,36.2,165.3,36.1,165.3,36.1 M166.7,36.6c0.6,0,0.4,0.9,0.6,1.2c-0.2-0.1-1.8,0-1.8,0c-0.1,0-0.3,0-0.4,0
			c0-0.2-0.1-0.4-0.2-0.6c-0.1-0.2-0.1-0.5,0.3-0.6C165.6,36.4,166.1,36.6,166.7,36.6 M163.2,38.1c0.3,0.1,0.6,0,0.6,0.3
			c-0.1,0.2-0.4,0.1-0.7,0.1c-0.2,0-0.4,0-0.6,0s-0.9,0-0.9-0.2c0-0.1,0.3-0.4,0.4-0.4C162.4,37.9,162.8,38,163.2,38.1 M163.2,38.9
			c0.3,0,0.5,0,0.5,0.2c0,0.3-0.9,0.2-1.1,0.2s-2.2,0.1-2.2-0.2c0-0.1,0.5-0.6,0.6-0.6C161.7,38.6,162.6,38.9,163.2,38.9
			 M173.9,33.7c0-0.1,0-0.2,0.1-0.3c0.1-0.3,0.3-0.6,0.4-0.9c0-0.1,0.3-1,0.5-1.3c0.4-0.2,3.2-2.7,3.3-3.1c-0.1,0.1-2.4,2.1-2.9,2
			c-0.1-0.3,1.1-2.2,1.4-2.5c0.2-0.2,0.4-0.4,0.7-0.4c0.1,0.1,0,0.3-0.1,0.5c0.8-0.3,0.8-1.8,1.5-1.8c0.2,0,0.2,0.4,0.2,0.4
			c0.3-0.3,0.3-0.9,0.6-1.2c0.1-0.2,0.5-0.3,0.7-0.2c0.1,0.1-0.3,0.8-0.4,1.3c-0.3,0.8-0.5,1.7-0.9,2.5
			C178.9,29.1,174.3,33.6,173.9,33.7 M170.2,36.4L170.2,36.4c0,0,0.9-0.3,1.1-0.4c0.2-0.1,0.3-0.5,0.6-0.5c0.1,0.3-1.6,2.9-2.3,3.4
			c-1.3,1-5,2.3-5.1,2.4c-0.5,0.1-0.8,0.1-0.8-0.4c0-0.2,0-0.3,0.1-0.4c0.1,0,3.3-1.1,3.9-1.6c0,0-3.2,0.6-3.4,0.6
			c-0.1-0.4,0.1-0.9,0.5-1c0.1,0,1.9,0,2.5,0c0,0,2,0.1,2.4-0.4C170.2,37.6,170.2,36.7,170.2,36.4 M168.4,37.9
			c0-0.3,0.3-0.6,0.4-0.8c0.2-0.3,0.4-0.5,0.6-0.8c0.1,0,0.1,0,0.2,0c-0.1,0.5-0.6,0.8-0.8,1.2C168.7,37.7,168.6,37.9,168.4,37.9
			 M169.3,30.9c-0.1,0.4-0.9,1.4-1.1,1.6c0,0.2-0.1,0.5,0.1,0.5s0.2-0.2,0.3-0.3s0.6-1,0.8-1c0.3,0.1-1,1.7-1.1,2
			c-0.1,0.1,0,0.6,0.1,0.6s1-1.4,1.2-1.3l0,0c0,0.3-1.2,1.9-1.3,2c0,0.2,0.1,0.6,0.2,0.6s0.8-1.2,1-1.3c0.2,0.2,0,0.4-0.1,0.5
			c-0.2,0.3-1,1.4-0.9,1.8c-0.2,0-0.2-0.1-0.3-0.1c0-0.2-0.2-1.1-0.2-1.3c0-0.1-0.2-2.2-0.2-2.4s0-0.6,0-1c0.1-0.1,0.9-0.9,1.1-1
			C169.1,30.8,169.2,30.9,169.3,30.9 M169,30.1c-0.1,0.3-1.1,1.5-1.2,1.5c0-0.3,0.2-0.8,0.2-0.9c0-0.1,0.6-0.7,0.8-0.9
			C169,29.8,169.1,30,169,30.1 M168.5,29.1c0.3,0.1-0.1,0.6-0.3,0.8c-0.1,0.1-0.3,0.3-0.4,0.2C167.9,29.7,168.2,29.4,168.5,29.1
			 M169.6,17.5c0.2,0,2.5,1.8,3.6,2.6c-0.1,0.1-0.1,0.2-0.1,0.3c-0.2,0-0.4-0.2-0.6-0.3c-1-0.7-3.1-2.2-3.1-2.4
			C169.3,17.6,169.5,17.5,169.6,17.5 M172.6,20.8c0.8,0.5,0.6,1.2,0.4,1.2s-0.3-0.3-0.5-0.4c-0.3-0.2-0.5-0.3-0.7-0.5
			c0.4,0.5,0.6,0.9,1.2,1.2c-0.1,0.4-1.4,1.7-1.6,1.8s-0.3,0.2-0.5,0.2s-3.4-2.3-3.6-2.4c-0.1-0.1-0.5-0.3-0.5-0.4
			c-0.1-0.1,0.5-1.5,0.7-1.8c0.1-0.3,1-1.6,1.2-1.7c0.3,0,0.8,0.4,0.9,0.5C169.7,18.6,172.6,20.8,172.6,20.8 M165.7,21.9
			c0-0.2,0.3-0.2,0.5-0.2c0.3,0.1,0.9,0.5,1.2,0.8c0.7,0.5,2.5,1.8,2.9,2c0.2,0.2,0.6,0.4,0.3,0.7c-0.4-0.4-1.2-0.8-1.4-0.9
			c0.1,0.2,0.3,0.4,0.6,0.6c0.2,0.2,0.5,0.3,0.6,0.5c-0.3,0.1-0.5-0.2-0.7-0.3c-1.2-0.9-1.9-1.4-3.1-2.2
			C166.3,22.7,165.5,22.4,165.7,21.9 M169.8,25.7c-0.1,0.2-0.2,0.3-0.3,0.5c-0.1-0.2-0.5-0.6-0.7-0.7c-0.1-0.1-0.4-0.3-0.5-0.1
			c0,0.2,0.2,0.4,0.3,0.5c0.2,0.2,0.4,0.3,0.7,0.4c-0.4,0.7-0.8,1.3-1.3,2.1c-0.2-0.1-4.5-1.5-4.6-1.6s0-0.4,0.1-0.5s0.8-1.3,1-1.6
			s1.1-1.8,1.2-1.8c0.2,0,0.3,0.1,0.5,0.2C167,23.7,169.4,25.3,169.8,25.7 M154.8,29.6c0.3,0,1.4-0.2,1.6,0c0,0.2-0.3,0.2-0.5,0.2
			S154.9,29.8,154.8,29.6L154.8,29.6z M149.9,29.7c0.3,0,1.4-0.2,1.6,0c0,0.2-0.3,0.2-0.5,0.2S150,29.9,149.9,29.7L149.9,29.7z
			 M155.2,30.6c0.1,0,0.9-0.2,1,0.1c-0.1,0.2-0.7,0.1-0.9,0.1c-0.1,0-0.5,0.1-0.6-0.1C154.8,30.5,155.1,30.6,155.2,30.6 M155.6,31.5
			L155.6,31.5c-0.2,0.1-0.6,0.2-0.8,0.1C154.8,31.5,155.4,31.5,155.6,31.5 M160,24.6c-0.4-0.1-1.8-0.8-2.6-1.5
			c-0.5-0.4-0.9-0.9-1.3-1.4c-0.3-0.5-1.1-1.4-1.1-1.6c0-0.2,0.1-0.3,0.2-0.2c0.3,0.1,0.4,0.5,0.6,0.8c0.9,1.3,2,2.5,3.4,3.2
			c0.4,0.2,0.9,0.4,1.4,0.6c0.1,0,0.4,0.1,0.4,0.3C160.8,24.8,160.4,24.6,160,24.6 M158.6,22.9c0.6-0.1,1.4,0.1,1.9,0.2
			c0.1,0.1,0.1,0.3,0.2,0.4c-0.3,0.1-0.7,0.1-1,0.1s-0.5-0.2-0.7-0.3S158.6,23.1,158.6,22.9 M157.4,18.4c-0.7,0-1.3-0.1-1.4,0
			c-0.2-0.1-0.2-0.4-0.3-0.6c0-0.2-0.3-1.4-1.8-1.3c-0.8,0.1-1.5,0.5-1.9,1.1c-0.2,0-1.7-0.1-3.2-0.6c-1.3-0.4-2.4-1.2-2.9-1.5
			c-0.9-0.8-0.7-0.5-0.7-0.9c0-0.3,2.1-4.9,6.9-4.9c1.1,0,2.4,0.3,2.8,0.5c-0.1,0.2-1.4,0.1-1.6,0.1v0.2c0.3,0.1,2.4,0.1,2.9,0.3
			c0.2,0.1,0.4,0.2,0.4,0.4c-0.1,0.1-1.2,0-1.6,0c-0.1,0-0.3-0.1-0.2,0.1c0.9,0.3,2.7,0,2.8,0.7c0.1,0.3-0.5,0.1-0.7,0.1
			c-0.1,0,0,0.1-0.1,0.2c0.6,0.2,1.6,0.1,1.5,0.6c0,0.3-0.9-0.1-1,0.2c0,0.3,0.8,0.2,1.3,0.3c0.1,0,0.4,0.3,0.4,0.5
			c-0.1,0.2-1.2,0-1.5,0l0.1,0.2c0,0,1.9,0.1,2,0.7c-0.3,0.2-2,0-2.5,0c0,0.1,0,0.1,0,0.2c0.6,0.1,1.4,0.1,2,0.2
			c0.1,0,0.5,0.1,0.6,0.1s0.3,0.3,0.2,0.5c-0.1,0.1-1.2,0-1.7,0c0,0.1-0.1,0.2-0.1,0.2c0.1,0,1.9,0.2,2,0.4c0.1,0.1,0.1,0.3,0,0.4
			s-1.6-0.1-2-0.1c-0.1,0-0.4-0.1-0.3,0.1c0.3,0.1,2.2,0.3,2.4,0.4s0.3,0.5,0,0.6c-0.6,0-1.1-0.2-1.7-0.2c0,0.1-0.1,0.2-0.1,0.2
			c0.3,0.2,1.5,0.1,1.8,0.3c0.1,0.1,0.2,0.3,0,0.4c-0.4,0-1.1,0-2-0.1v0.2c0.7,0.1,2.1,0.1,2.1,0.4c0,0.2-0.2,0.3-0.4,0.3
			c-0.6,0-2.2-0.1-2.2-0.1s0,0.1,0,0.2c0.3,0,2.3,0.1,2.4,0.3c0,0.1,0,0.3-0.1,0.5c-0.5,0-1,0-1.5-0.1v0.2c0.6,0,1.1,0,1.6,0.1V21
			c-0.4,0-0.9,0-1.3-0.1c0,0.1-0.1,0.2-0.1,0.2s1,0.1,1.4,0.1c0,0.2,0,0.4,0,0.6c-0.7,0-1.3-0.1-2-0.1v0.2c0.6,0.1,1.3,0.2,2,0.2
			c0.1,0.1,0.1,0.3,0.1,0.4c-0.3,0.1-2,0.1-2.4-0.1c-0.1-0.1-1.2-1.1-1.3-1.4c0-0.1,0.2-0.1,0.3-0.1v-0.1c-0.2-0.1-0.4,0-0.6-0.1
			s-0.4-0.4-0.4-0.5c0.1-0.2,0.5-0.1,0.8-0.2c0-0.2-1-0.1-1.2-0.4c-0.1-0.1-0.2-0.2-0.1-0.3c0.1-0.3,0.9,0,1.2,0c0-0.1,0-0.1,0-0.2
			c-0.3-0.1-0.9,0.1-1.1-0.2c0-0.2,0-0.5,0.2-0.6c0.2,0,0.7,0,1.4,0.1L157.4,18.4z M144.4,15c0.1-0.2,0.3-0.5,0.4-0.5
			s0.1,0.1,0.2,0.3c1.1,1.5,2.7,1.9,2.9,2.1c0,0.1-0.2,0-0.3,0.1s0,0.1,0,0.1c0,0.1,1,0.2,1.3,0.2s1.4,0.4,2.1,0.5v0.1
			c-0.1,0.1-0.9,0-1.1,0.1v0.2c0.6,0,1.5,0.1,1.8,0c0.1,0,0.2,0.1,0.1,0.1c-0.1,0.3-1.7,0.9-3.9,0.8c-1.5-0.1-2.4-0.3-3.8-0.5
			C142.9,18.2,144.3,15.2,144.4,15 M143.9,18.9c1.3,0.1,2.8,0.6,4.4,0.5c1,0,2.1-0.1,3.2-0.1c0.2,0,0.4,0,0.5,0.1
			c0,0.3-1.2,0.4-1.3,0.4c0,0.1,0.1,0.1,0,0.2c0.5-0.1,1-0.1,1.5-0.2c-0.2,0.1-0.4,0.4-0.7,0.6c-0.3,0.2-1.1,0.6-1.9,1
			c-1,0.5-4,1-4.9,1c-1,0.1-1.7,0.1-2.6,0C142.2,22.5,143.4,19.7,143.9,18.9 M144,23.4c-0.6,0-1.2,0-1.9-0.2c0-0.4,0.4-0.3,0.6-0.2
			c2.5,0.2,4.8-0.2,7-0.9c1-0.3,2.1-1.1,3-1.6c0,0,0.1-0.1,0.2,0c0.1,0.3-1.1,1-1.6,1.3C149.8,22.6,146.3,23.4,144,23.4 M150.7,30.7
			c0.2,0,0.7-0.2,0.8,0C151.5,30.9,151,30.9,150.7,30.7L150.7,30.7z M137.7,42c-0.3-0.3-1.1-1.2-1-1.4s0.4,0,0.7,0.1
			s0.9,0.6,1.8,0.9c0.8,0.4,2.7,0.4,2.9,0.5s0.2,0.3,0.2,0.7c-0.1,0.1-0.4,0.2-0.8,0.2c-0.4-0.1-3-1.1-3-1.2c0.5,0.6,1.3,1,1.9,1.3
			s1.8,0.7,2.2,0.7s0.7,0.2,0.5,0.5c-0.1,0.1-0.5,0.4-0.8,0.3C140,44.3,137.6,42.1,137.7,42 M129.3,38.2c0.2-0.2,0.5,0,0.7,0.1
			s0.9,0.4,1,0.4s4.7,1.7,5,2.1c0.1,0.2,0.5,0.7,0.1,0.8c-0.5,0.1-4.8-1.9-4.9-1.9c0.2,0.4,0.7,0.5,1.2,0.8c0.6,0.3,4,2.3,4.1,2.3
			c0.1,0.1,0.2,0.4,0.4,0.6c0.1,0.2,0.3,0.4,0.4,0.6C135.8,43.9,129.3,39.6,129.3,38.2 M134.8,35.3c0.1,0.6-0.8,0.1-1.1-0.2
			s-0.6-0.4-1-0.9s-1.5-2.2-1.6-2.5c-0.1-0.1-0.4-0.7-0.4-0.9c0.1-0.6,1.5,1,1.8,1.5c0.4,0.5,1.3,1.3,1.7,1.9S134.8,35.2,134.8,35.3
			 M135.1,38.2c-0.2,0-1-0.8-1.2-1.3c-0.2-0.3-0.6-0.8-0.5-1l0,0c0.4-0.1,1.3,0.9,1.3,0.9c0.2,0.1,0.2,0.4,0.1,0.7
			C134.9,37.7,135.3,37.9,135.1,38.2 M140.4,28.3c0.5,0.1,0.4,1.4,0.3,1.7c0,0.3-2.3,0.5-2.5,0.4c-0.3-0.2-0.5-1-0.4-1.4
			C138,28.6,140,28.2,140.4,28.3 M140.8,31.9c0,0.4-2.4,0.5-2.5,0.1s-0.1-1,0-1.2s2.4-0.3,2.5,0C141,31,140.8,31.5,140.8,31.9
			 M142.2,27.6c0.4-0.1,0.7,1.4,0.7,1.4c1,3.6,0,7.7-0.2,7.7c-0.3,0.1-0.8,0-1-0.1s1.6-3.8,0.4-8.1C142,28.3,141.8,27.7,142.2,27.6
			 M163.1,28.6c-1.2,4.2,0.6,8,0.4,8.1s-0.7,0.1-1,0.1c-0.2,0-1.2-4.1-0.2-7.7c0,0,0.3-1.5,0.7-1.4
			C163.4,27.7,163.1,28.3,163.1,28.6 M142.5,37c0.1,0,0,0.1,0,0.2c0.1,0.2,0.4,0.3,0.5,0.5c-0.5,0-1.1,0-1.6,0.1c0,0,0-0.6,0.2-0.7
			C141.9,37,142.3,37,142.5,37 M163.5,37c0.2,0.1,0.2,0.6,0.2,0.7c-0.5-0.1-1.1,0-1.6-0.1c0.1-0.2,0.4-0.3,0.5-0.5
			c0-0.1-0.1-0.2,0-0.2C162.8,37,163.2,37,163.5,37 M140.3,34.2c-0.4,0.1-2,0.2-2.1-0.1s-0.1-1.4,0.4-1.5s1.8-0.2,2.1,0.1
			C140.9,33.1,140.7,34,140.3,34.2 M138.4,34.6c0.5,0,2.1-0.1,2.1,0.3c0.1,0.3-0.2,1.3-0.7,1.4c-0.5,0.1-1.2,0.1-1.8,0
			C137.5,36.2,137.9,34.6,138.4,34.6 M137.2,38.1c0-0.3,0.5-1.3,0.8-1.5s1.3-0.1,1.7,0c0.5,0.2-0.2,1.5-0.5,1.6
			C138.8,38.3,137.2,38.4,137.2,38.1 M140.6,38.8c0.3,0.1,0.5,0.9,0.3,0.9c-0.2,0.1-3.4-0.6-3.4-0.6c0.4,0.4,1,0.6,1.6,0.8
			s2.2,0.8,2.3,0.8c0.1,0.1,0.1,0.2,0.1,0.4c0,0.4-0.2,0.5-0.7,0.4c-0.4-0.1-2.1-0.5-2.8-0.8s-2.3-1.4-2.2-1.7
			C136,38.5,140.4,38.7,140.6,38.8 M141.6,30.2c-0.5,0-0.5-0.5-0.4-0.7s0.8-0.1,0.8,0s0,0.3,0,0.4C142,30.2,141.6,30.2,141.6,30.2
			 M141.3,29.3c-0.3-0.1-0.3-0.9,0.4-0.7c0.2,0,0.3,0.4,0.2,0.5C141.7,29.2,141.4,29.3,141.3,29.3 M141,28.2c0-0.3,0.7-0.4,0.7-0.1
			C141.7,28.3,141.1,28.4,141,28.2 M163.2,30c0-0.1,0-0.3,0-0.4c0-0.1,0.7-0.2,0.8,0s0,0.7-0.4,0.7C163.6,30.2,163.2,30.2,163.2,30
			 M163.3,29.1c-0.1-0.1,0-0.5,0.2-0.5c0.7-0.2,0.7,0.6,0.4,0.7C163.8,29.3,163.5,29.2,163.3,29.1 M163.5,28.1
			c0-0.3,0.7-0.2,0.7,0.1C164.1,28.4,163.5,28.3,163.5,28.1 M131.9,20.3c1.3-1,2.4-1.8,3.7-2.8c0,0,0.2,0.4,0.1,0.5
			c-0.2,0.2-0.7,0.5-0.7,0.5s-1.7,1.4-2.8,2.1C132,20.5,132,20.3,131.9,20.3 M134.4,24.2c0-0.1,0.3-0.3,0.4-0.4
			c0.5-0.4,0.9-0.8,1.3-1.2c-0.3,0.1-0.6,0.3-0.9,0.5c-0.4,0.3-0.8,0.5-1.1,0.9c-0.2,0-0.4-0.2-0.4-0.3s0.2-0.3,0.4-0.4
			c0.2-0.2,0.9-0.9,1.2-1.2c-0.5,0.2-1.7,1.4-1.9,1.4c-0.1,0-0.3-0.1-0.3-0.3c0-0.4,0.8-0.7,0.8-1c-0.2,0-0.8,0.6-0.9,0.6
			s-0.2-0.1-0.2-0.3c0-0.4,0.9-0.8,0.9-1.2c-0.2,0.1-1,0.8-1.2,0.8c-0.3,0-0.4-0.9,0.5-1.4c0.6-0.4,3.4-2.5,3.8-2.6
			c0.2,0,0.6,0.5,0.7,0.7c0.1,0.2,0.4,0.6,0.7,1.1c0.2,0.6,0.6,1.2,0.6,1.8c-0.3,0.3-3.8,2.8-3.9,2.8
			C134.8,24.5,134.4,24.4,134.4,24.2 M135.1,25.6c0.1-0.1,0.2-0.2,0.3-0.3c0.3-0.2,0.6-0.5,0.9-0.8c-0.4,0.1-1,0.3-1.1,0.6
			c-0.1,0.1-0.1,0.3-0.2,0.3s-0.2-0.1-0.1-0.3c0.1-0.3,0.7-0.6,0.9-0.7c0.9-0.7,1-0.8,1.9-1.5c0.6-0.4,1-0.8,1.7-1.1
			c0.3-0.1,0.5,0.3,0.3,0.5c-0.1,0.3-0.6,0.5-0.8,0.7c-0.6,0.4-0.9,0.6-1.5,1c-0.6,0.5-0.9,0.8-1.5,1.3
			C135.6,25.4,135.4,25.7,135.1,25.6 M135.7,25.9c1.2-1,2.5-2,3.8-2.8c0.2-0.1,1.5,1.9,2,2.7c0.1,0.2,0.4,0.6,0.3,1
			c-0.1,0.3-4.3,1.7-4.4,1.6C137.2,28.1,136.3,26.7,135.7,25.9 M136.8,29.1c0.3-0.3,0.8-0.5,0.9-0.1s0.2,2.9,0.2,3.4
			s-0.1,1.6-0.1,1.8s-0.2,1.2-0.3,1.6c-0.1,0.4-0.4,1.6-0.6,1.9c-0.1,0.3-0.4,0.8-0.7,0.8s-0.4-0.4-0.5-0.7s-0.3-1.4-0.4-2.1
			c0-0.8,0.2-2.7,0.4-3.4C135.8,31.1,136.5,29.4,136.8,29.1 M118.3,20c0.4,0,11.7,4.7,17,10c0.2,0.2,0.2,0.4,0,0.5
			c-0.1,0.1-0.3-0.3-0.4-0.4c-0.4-0.4-0.9-0.9-1.4-1.2c0.1,0.2,1.6,1.8,1.7,1.9c0.1,0.1,0.2,0.7-0.1,0.7c-0.1,0-0.2-0.2-0.3-0.3
			c-0.4-0.4-0.9-0.9-1.3-1.3c0.2,0.3,1,1.4,1.2,1.5c0.2,0.3,0.6,0.6,0.2,1c-0.2,0-0.2-0.2-0.3-0.3c-0.2-0.2-0.8-1-1-1
			c0,0.2,1.7,1.7,1.2,2.5c-0.2,0-0.3-0.2-0.4-0.4c-0.7-0.9-4.8-5.3-6.5-6.7c-1.7-1.5-9.1-6-9.4-6.2C118.3,20.1,118.2,20,118.3,20
			 M139.2,47.3c0-0.2,0.1-0.2,0.2-0.3c-0.3-0.1-0.7,0.3-1.2,0.3c-0.4,0-0.9,0-1-0.3c0-0.3,0.5-0.2,0.6-0.4c-0.5-0.1-1,0.2-1.6,0.2
			c-0.3,0-0.6-0.2-0.8-0.4c0-0.1,0-0.2,0-0.3c-0.5-0.1-1.5-0.1-1.2-0.8c-0.1-0.2-0.3-0.1-0.5-0.1s-0.4-0.2-0.5-0.3s-1.5-2-1.6-2.2
			s-0.6-0.8-0.2-0.9c0.2-0.1,3.5,1.8,6.7,3.1c0.3,0.1,0.3,0.3,0.3,0.4c0,0.1-0.3,0.3-0.4,0.3c-0.2,0-0.5,0-0.6-0.1
			c-0.2-0.1-2.8-1-3.1-1.1c0,0.2,0.6,0.4,0.7,0.5c0.5,0.3,1.2,0.6,1.8,0.8s1.1,0.4,1.8,0.5c0.4,0.1,1.9,0.3,1.9,0.7
			C140.6,47.5,139.5,47.7,139.2,47.3 M140.7,45.5c0.2,0.4,2.5,1.2,2.5,1.4s-0.4,0.3-0.8,0.4c-0.4,0.1-1.2-0.4-1.8-0.8
			c-1.8-1.3-3.2-3.3-3.5-3.8c-0.1-0.2-0.4-0.5-0.1-0.6c0.4,0.3,2.9,3.4,6.4,3.4c0.3,0,0.9,0.7,0.6,0.9
			C143.4,46.6,141.1,45.7,140.7,45.5 M150,48.6c-0.2,0-4.2,0-5.9-0.1c0-0.2-0.3-1.5,0-1.6c0.1,0,4.7,0,6.4-0.1h0.5v1.9
			C151,48.6,150.2,48.6,150,48.6 M142.1,54.8c0.3-0.6,1.1-1.7,1.1-1.7c0.1,0,0.6-0.1,0,0.8c-0.2,0.2-0.3,0.4-0.4,0.6
			c-0.3,0.5-0.7,1.2-0.8,1.2C141.6,55.5,141.9,55,142.1,54.8 M145.7,54.7c-0.1-0.1-0.1-0.4,0-0.5c0.2-0.2,1.5,0.1,1.6,0.1
			s0.1,0.1,0.1,0.2c0,0.4-0.2,0.4-0.4,0.5C146.9,54.9,145.8,54.7,145.7,54.7 M147.6,54c-0.1,0.2-0.5,0.1-0.8,0
			c-0.5,0-0.8-0.1-0.8-0.2c0,0,0-0.1-0.1-0.1c0.1-0.4,0.9-0.1,1.2,0C147.4,53.7,147.7,53.7,147.6,54 M147.6,54.5
			c0.1-0.2,0.1-0.5,0.1-0.6c0.1-0.2,0.4-0.1,0.5,0.1c0,0.1-0.1,0.5-0.1,0.7c-0.1,0.5-0.2,0.9-0.3,1.5c-0.1,0.2-0.1,0.6-0.3,0.6
			s-0.3-0.1-0.3-0.2c0.1-0.4,0.3-1.4,0.3-1.4C147.6,54.9,147.6,54.7,147.6,54.5 M145,54.3c-0.2,0.4-0.4,0.9-0.6,1.4
			c-0.1,0.2-0.2,0.6-0.4,0.5c-0.3,0-0.1-0.5,0.1-0.9s0.4-0.8,0.5-1.3c0.1-0.2,0.2-0.6,0.4-0.6C145.5,53.4,145.1,54.1,145,54.3
			 M143.7,55.8c0,0.1-0.1,0.2-0.2,0.2c-0.2,0-0.9-0.2-0.9-0.4C142.7,55.2,143.7,55.7,143.7,55.8 M142.9,55.1
			c-0.1-0.6,0.9-0.3,0.9-0.3c0.1,0,0.2,0,0.2,0.2s-0.2,0.4-0.3,0.4s-0.4-0.1-0.4-0.1C143.1,55.4,142.9,55.1,142.9,55.1 M144.4,54
			c-0.2-0.1-0.7,0-0.6-0.3c0-0.2,0.1-0.2,0.2-0.3C144.4,53.1,145.1,53.8,144.4,54 M144.4,54.4c0,0.2-0.1,0.5-0.3,0.4
			s-0.6-0.1-0.7-0.4c0-0.1,0.1-0.3,0.2-0.3C143.8,54,144.3,54.2,144.4,54.4 M126.8,86.1c-0.1-0.1-1-1.5-1.2-1.8s-1.1-2-1.4-2.5
			c-0.2-0.4-1.8-3.9-2.4-6.4c-0.5-2.3-0.6-4.4-0.5-5.4c0.4-5.6,0.6-5.4,1-7.5c0-0.1,1.4,1.9,1.9,2.7c1.6,2.5,5.9,6.1,6.2,6.3
			c0.3,0.2,0.6,0.3,0.4,0.6c-0.1,0.3-0.9,2.4-0.9,2.7c-0.1,0-0.2-0.1-0.2-0.2c-0.2-0.2-0.4-0.5-0.7-0.8c-1-0.9-2.4-2.8-2.6-3.1
			s-2.1-2.9-2.4-3.4s-0.6-1.1-0.8-1.1c0,0-0.4,0-0.3,2.6c0,2.6,0.3,8.7,5.6,16.1c0,0,0.2,0.3-0.2,0.7c-0.2,0.2-0.5,0.4-0.7,0.6
			c0,0-0.1,0-0.2,0C127.2,86.5,127,86.2,126.8,86.1 M152.5,100.7l-0.2-10.8c0-0.2-0.3-0.2-0.6-0.2c0,0-3.8-0.1-4.6-0.2
			c-0.9-0.1-3.6-0.6-5.3-1.2c-4.9-1.7-8.3-4.4-8.9-4.9c-4-3.6-6.4-7.5-7.6-10.1c-1.2-2.5-1.5-3.3-1.6-3.8c-0.1-0.2-0.1-0.5-0.4-0.6
			c-0.2,0.1-0.1,0.4-0.1,0.6c0.1,0.5,0.5,1.6,0.5,1.8c0.5,1.3,1.1,2.6,1.8,3.7c0.2,0.4,0.9,1.5,0.9,1.8c-0.1-0.1-1.2-1.8-1.6-2.6
			c-0.3-0.6-1-2.3-1.2-2.4c-0.2,0.6,0.1,1.1,0.3,2s1.1,3.5,1.4,4.1s1,1.7,1.6,2.4c0.2,0.3,0.5,0.6,0.6,1c-0.2-0.1-1.8-2.2-2.2-2.7
			c0.1,0.4,0,0.3,0.3,1.1c1,2.2,3,3.9,3.3,4.1c0.2,0.2,1.3,1.3,1.4,1.4c0.1,0.1,1.5,1.2,1.5,1.4c-0.5-0.3-1-0.6-1.4-1
			s-1.8-1.7-2.4-2.4c-0.3-0.2-0.2,0.1-0.2,0.1c1.8,2.3,5,5.4,9.8,7.3C145.8,94.1,149.8,94.9,152.5,100.7L152.5,100.7z M152.8,80.4
			c0.7,0,1.6,0,2.3-0.1c0.1-0.1,0-0.1,0-0.2c-0.8,0-1.5,0-2.3,0v-0.6c0.4,0,2.2,0,2.2-0.3c0-0.2-1.6,0.1-2.2-0.1v-0.5
			c0.4-0.1,1.9-0.1,1.9-0.3s-1.5,0-1.9-0.1v-0.6c0.5-0.1,2.3-0.1,2.3-0.3s-1.6-0.1-2.3-0.1v-0.7c0.6,0,2.3,0.1,2.3-0.1
			s-1.8-0.1-2.3-0.2v-0.7c0.3,0,1.9,0.1,1.9-0.1s-1.6-0.2-1.9-0.2c0-0.1,0-0.4,0-0.6c0.6-0.1,2.3,0,2.3-0.2s-1.8-0.1-2.3-0.2v-0.6
			c0.3-0.1,2-0.1,2-0.3s-1.6-0.1-2-0.2v-0.6c0.7-0.1,2.3,0.1,2.3-0.2c0-0.2-1.7-0.1-2.3-0.2v-0.7c0.3,0,2.1,0,2.1-0.2
			s-1.7-0.2-2.1-0.2v-0.6c0.3,0.1,1.8-0.1,1.8-0.2s-1.5-0.1-1.8-0.2v-0.6c0.8,0,1.7,0,2.3-0.2c0-0.1,0.1-0.2,0.1-0.2s-2.1,0.1-2.4,0
			v-0.6c1.3,0.1,4.2-0.3,4.3-0.3c0.2,0,0.9-0.3,1.3-0.1c0.2,0.7-1.8,0.9-2.3,0.9c0.1,0.3,1.7,0.1,2,0.1c0.4,0,0.4,0.2,0.5,0.5
			c-0.2,0.2-1.9,0.3-1.9,0.5c0.2,0.2,1.6,0,1.8,0c0.1,0.1,0.2,0.2,0.2,0.5c-0.4,0.5-1.5,0.1-1.9,0.6c0.2,0.1,1.8-0.1,1.9,0.1
			c0.1,0.1,0.1,0.4,0,0.5c-0.1,0.2-2,0.3-2,0.5c0,0.1,1.7-0.1,1.9,0c0.1,0.1,0.2,0.2,0.2,0.4c-0.1,0.3-0.8,0.3-1.2,0.4
			c-0.2,0-0.5,0.1-0.5,0.2c0,0.2,1.6,0,1.7,0c0.1,0.1,0.2,0.2,0.2,0.4c-0.1,0.4-1.1,0.3-1.4,0.6c0,0.2,0.2,0.1,0.3,0.1
			c0.4,0,0.7-0.1,1-0.2c0.2,0.1,0.2,0.3,0.2,0.5c-0.1,0.2-2.1,0.5-2.1,0.6c0,0.2,0.5,0.1,0.6,0c0.5-0.1,1-0.2,1.5-0.2
			c0.1,0.1,0.2,0.4,0.2,0.5s-1.2,0.4-1.3,0.6c0.1,0.1,0.2,0.1,0.4,0.1c0.6,0,1.3-0.5,1.3,0.4c-0.3,0.2-1.7,0.4-2,0.6
			c0.1,0.2,0.4,0.1,0.7,0.1c0.5-0.1,1-0.2,1.5-0.2c0.1,0.1,0.4,0.3,0.3,0.5S158,78,158,78.2c0.1,0.1,0.4,0,0.6,0
			c0.4,0,1.7-0.3,1.8-0.3s0.4,0.4,0.3,0.5s-0.2,0.1-0.4,0.1c-0.5,0.1-1.1,0.3-1.7,0.4c-0.1,0-0.3,0-0.3,0.1c0.1,0.1,0.3,0.1,0.4,0
			c0.4,0,2.4-0.5,2.5,0.1c-0.5,0.3-1.3,0.4-1.9,0.6c-0.1,0-0.3,0-0.3,0.1c0.1,0.2,2.4-0.4,2.6-0.4c0.1,0,0.6,0.3,0.5,0.5
			c0,0.1-0.6,0.2-0.7,0.2c-0.8,0.1-1.6,0.3-2.4,0.4c0,0.1,0.1,0.1,0.1,0.2c0.9-0.1,1.9-0.3,2.9-0.4c0.5,0,1-0.2,1.2,0.3
			c-0.3,0.2-3.2,0.7-3.4,0.9c0.1,0.2,0.3,0.1,0.4,0.1c0.9-0.1,1.8-0.3,2.6-0.5c0.3-0.1,0.7-0.3,1-0.2c0.1,0,1.2,0.3,0.7,0.5
			c-0.4,0.2-3.9,0.9-4,0.9s-0.4,0-0.4,0.2c0.5,0.2,5.2-1.1,5.6-1.1c0.2,0,0.9,0.1,1.4,0c-0.1,0.2-4.5,1.4-5.3,1.5
			c0,0.1,0.1,0.2,0.1,0.3c2-0.3,5.3-1.5,5.9-1.7c1.7-0.8,3.6-2,4.5-2.8c4.6-3.9,6.2-6.5,7.6-8.3c1.3-1.8,1.9-2.8,1.9-2.8
			c0.1,0.4-0.1,0.7-0.2,1.2c-0.2,0.5-1,2.7-1.2,3.2s-0.8,1.5-1,1.9c-0.2,0.5-0.8,1.3-1.1,1.8c-1.1,1.6-4.4,5.9-5.3,6.6
			c-0.9,0.7-1.2,1.1-3.3,2.6s-8.3,3.8-13.8,4c-1.8,0-2,0.1-2.7,0.1c-0.2,0-0.2-0.5-0.1-0.6c0.7,0,3-0.1,3.1-0.3c0-0.2-2.4-0.1-3-0.1
			c-0.1-0.1-0.1-0.6,0-0.6c0.6,0,2.1,0,2.2-0.4c0-0.2-1.5,0-2.2-0.1c-0.2-0.1-0.1-0.5,0.1-0.6c0.3,0,0.4,0,0.6,0
			c0.3,0,2.1-0.2,2.1-0.4s-2.6,0-2.8-0.1s-0.1-0.6,0.1-0.7c0.6-0.1,2.6-0.2,2.6-0.3c0-0.2-2.4,0-2.6,0c-0.2-0.1-0.2-0.6,0-0.7
			c0.1,0,2.6,0,2.6-0.3s-2.8,0.2-2.8-0.3c0-0.4,2.3-0.3,2.3-0.6c0-0.2-1.4,0-2.1,0c-0.2-0.1-0.2-0.6,0-0.7c0.8,0,2.3,0,2.3-0.2
			s-1.7-0.2-2.3-0.2c-0.2-0.1-0.1-0.4,0-0.5c0.1-0.2,2.1,0.1,2.2-0.2s-1.7-0.2-2.3-0.3v-0.4L152.8,80.4L152.8,80.4z M152.8,67.9
			c0.7-0.1,1.7-0.1,2.5-0.2c0.7-0.1,1.5-0.2,2.2-0.3c0.3,0,0.7-0.3,0.9,0c-0.2,0.4-0.7,0.4-1.2,0.5c-1.3,0.2-3.1,0.3-4.5,0.3
			 M159,67.1c-0.3-0.3,0.1,6.2,1.3,9.1c1.3,3.1,3.7,5.3,7.1,4.8c2.2-0.4,5.4-3.2,5.5-3.3c0.1-0.2-0.4,0.1-0.4,0.1
			c-2.7,0.6-3.3-0.9-3.3-1.4c0-0.3,0.4-0.4,0.4-0.7s-0.2-0.6-0.5-0.7c-0.4-0.1-0.8,0.1-1.1,0.3c-0.9,0.4-1.3,0.4-2,0.6
			c-0.8,0.2-1.6,0.3-1.9,0.2s-0.6-0.6-0.6-0.8c0-0.3,0.1-0.5,0.1-0.7c0-0.6-0.2-0.8-0.5-1.1c-0.2-0.2-0.3-0.4-0.5-0.6
			c-0.3-0.1-0.7-0.1-0.9-0.2c-0.1-0.3-0.1-0.8,0-1C161.8,71.1,159.5,67.6,159,67.1 M169.4,74.4c0.2-0.3,2-1.6,2.3-1.7
			c0.2-0.1,0.5,0.7,0.6,0.9c-0.3,0.4-1.8,1.5-2.2,1.7C169.9,75,169.6,74.7,169.4,74.4 M182,68.6c0,0,0.2-0.2,0.1,0.2
			c-0.2,1.5-2,5.1-2.5,6.1s-3.9,5.7-4.1,5.9s-2.6,2.8-3.6,3.6s-2.3,1.7-3.4,2.3c-0.7,0.4-5,2.3-8.1,2.8c-3.9,0.6-7.7,0.4-7.7,0.3
			s0.4-0.1,0.5-0.1c1.3-0.1,4.7-0.2,5.4-0.3c0.7-0.1,2.6-0.4,3.4-0.6c0.7-0.2,3.1-1,4-1.3c0.8-0.3,2.5-1.3,3.4-1.8
			c0.9-0.6,2.3-1.7,3-2.3c0.7-0.5,4.2-4.6,4.9-5.6s2.8-4.5,3-4.9C180.5,72.5,181.5,70.1,182,68.6 M153.4,100.1
			c-0.2,0-0.5-0.1-0.6-0.2c0-0.2,0.6-0.2,0.8-0.2C153.6,99.8,153.5,99.9,153.4,100.1 M153.9,99.3c-0.2,0-1-0.1-1-0.3
			c0-0.1,1.1-0.3,1.4-0.3C154.1,98.9,154,99.1,153.9,99.3 M154.3,98.4c-0.1,0-1.5,0-1.5-0.4c0-0.3,1.7-0.3,2-0.3
			C154.6,97.9,154.4,98.1,154.3,98.4 M155.1,97.4c-0.6,0-2.9,0-2.2-0.6c0.8,0,2-0.1,2.8-0.2C155.6,96.8,155.2,97.3,155.1,97.4
			 M156.2,96.3c-0.6,0.3-1.6,0.1-2.4,0.1c-0.3,0-0.9,0-0.9-0.2c0-0.3,1.5-0.3,1.8-0.4c0.8-0.1,1.7,0,2.3-0.3
			C156.6,95.8,156.3,96.1,156.2,96.3 M157.5,95.2c-0.8,0.2-1.7,0.4-2.7,0.3c-0.1,0-1.9,0-1.9-0.2c0-0.3,3.9-0.5,4.6-0.6
			c0.3-0.1,0.8-0.2,1.2-0.2C158.5,94.5,157.8,95,157.5,95.2 M159.2,94.1c-0.2,0.1-1.4,0.2-1.8,0.2c-0.1,0-2.4,0.2-3,0.2
			c-0.4,0-1.6,0-1.6-0.2c-0.1-0.4,1.4-0.4,2.1-0.4c2.7,0,5.4-0.6,6.1-0.8C160.5,93.4,159.3,94,159.2,94.1 M167,90.8
			c-4.6,1.7-5.7,2-6.4,2.1c-0.3,0-0.6,0.1-1,0.2c-0.3,0-1.8,0.3-2.3,0.4c-0.6,0.1-4.1,0.3-4.3,0.1c-0.2-0.2-0.5-0.5,0.4-0.5
			c0.6,0,1.3,0,2,0c0.8-0.1,3.9-0.4,4-0.6c-0.9-0.1-4.2,0.4-5,0.3c-0.1,0-1.6,0.1-1.5-0.3c0-0.3,0.4-0.3,0.6-0.3s2.3,0,3.1-0.2
			c0,0,0.2,0,0.2-0.1s0-0.1-0.2-0.1c-0.3,0-2,0.1-2.6,0c-0.1,0-1,0.1-1-0.2c-0.1-0.4,0.5-0.4,0.9-0.4c1.7,0,3.5-0.1,5-0.4
			c0.3,0,2.5-0.4,3.1-0.6c0.1,0,0.3,0,0.3-0.2c-0.7,0.1-4.1,0.8-8.7,0.8c-0.3,0-0.7,0-0.7-0.2s0.7-0.3,0.8-0.3
			c0.6,0,2.5-0.1,2.6-0.1c0.8,0,2.3-0.2,4.3-0.6c2-0.3,2-0.4,3.2-0.8s3.8-1.3,5.1-2c1.9-1.1,5-3.3,7.4-6.6c0.7-1.1,3.2-4.2,4.5-7.1
			c0.4-0.7,0.6-1.5,1-2.2h0.1c0.1,0.3-0.1,0.6-0.1,0.8c-0.4,1.8-1.9,4.4-2.1,4.8c-0.2,0.4-1.6,2.4-1.7,2.7c-0.2,0.3-0.7,0.8-0.9,1.4
			c0.3,0,0.6-0.5,0.8-0.7c0.2-0.3,1.3-1.7,1.8-2.5s1.5-2.9,1.7-3.3s0.1-0.4,0.3-0.4c0.1,0.2,0,0.5-0.1,0.7c-0.2,0.6-0.5,1.2-0.8,1.8
			s-1.6,2.3-1.6,3c0.1,0,1.5-2.3,1.7-2.4c0.1,0.2-0.4,1.4-0.8,2.2s-3.4,4.5-3.6,4.8c-0.2,0.2-0.7,0.7-0.9,1.1c0.1,0,0.2-0.1,0.3-0.2
			c1.3-0.9,3.3-4,3.7-4.3c-0.1,0.5-1.5,2.6-2.2,3.5C176.6,84.6,172.2,88.9,167,90.8 M177.9,86.4c-0.3-0.2-0.5-0.5-0.7-0.6l-0.1-0.1
			c0-0.1,0-0.2,0.4-0.7c5.1-6.3,5.1-13.6,5.1-17.8c0-0.3-0.2-0.9-0.3-0.9s-0.4,0.4-0.5,0.5s-4.7,6.4-5.5,7.1
			c-0.7,0.8-0.6,0.7-1.1,0.9c-0.2-0.8-0.5-1.7-0.8-2.5c-0.1-0.2-0.2-0.4-0.2-0.5c0-0.2,0.3-0.4,0.6-0.6c1.9-1.4,6.8-6.3,8-8.8l0,0
			c0.1,0.4,0.2,0.8,0.3,1.3c0.8,2.7,0.7,5.7,0.6,6.5c-0.1,0.9,0.1,6.4-2.8,11.8c-0.2,0.4-1,1.8-1.4,2.4c-0.3,0.6-0.7,1.1-1.1,1.7
			C178.3,86.3,178,86.5,177.9,86.4C178,86.4,177.9,86.4,177.9,86.4 M173.4,73.8c0.3-0.2,0.7-0.6,0.9-0.1c-0.4,0.3-0.8,0.7-1.2,1.1
			c0.5-0.1,1-0.4,1.4-0.6c0,0.1,0,0.2,0.1,0.3c-0.4,0.5-0.9,0.9-1.3,1.4c0.3,0,0.5-0.1,0.8-0.2c0.1-0.1,0.3-0.2,0.4-0.3
			c0,0.2-0.1,0.4-0.2,0.5c-1.1,1.7-3,1.9-3.9,1.4c-0.3-0.1-0.7-0.5-0.7-0.7C169.7,76.4,172.8,74.2,173.4,73.8 M173.1,70.4
			c-0.2,0.3-0.4,0.6-0.7,1c-0.3,0.3-4.4,3.3-5,3.6c-0.3,0.2-0.7,0.3-1.1,0.3c0-0.2,6.3-4.9,6.9-5.3l0,0
			C173.4,70.1,173.2,70.2,173.1,70.4 M174.2,67.9c0.4,0.2-0.2,0.5-0.4,0.7c-3,2.2-6,4.4-9,6.6c-0.2,0.1-0.4,0.5-0.7,0.2
			C164.1,75.3,173.8,68.1,174.2,67.9 M173.6,67.6L173.6,67.6c0.1,0.1-0.1,0.2-0.2,0.3c-2.3,1.7-8.5,6.3-9.2,6.8
			c-0.1,0.1-0.2,0.2-0.3,0.1c0-0.3,0.3-0.4,0.4-0.6C165.4,73.5,173.2,67.9,173.6,67.6 M176,50.2c0,0,0.9-0.8,2.2-0.9
			c1.3-0.1,2.4,0.5,3.5,1.9c0.5,0.7,1.1,1.6,1.3,2.8c0,0.1,0,0.2,0,0.3c0,0.4-1.1-0.1-1.7-0.1c-1,0-2.3,0.9-3.2,1.7
			c-0.6,0.5-2,1.8-2.8,2.5s-10,8.7-22.8,8.7c-15.1,0-24.3-10.2-25.2-11s-2.2-1.8-3.3-1.8c-0.6,0-1.7,0.4-1.7,0.1c0-0.1,0-0.2,0-0.3
			c0.2-1.2,0.8-2.1,1.3-2.8c1-1.3,2.2-2,3.5-1.9s2.2,0.9,2.2,0.9c1.4,1,10.9,10.3,22.9,10.3c12.8,0,22.3-9.3,23.5-10.2
			C175.8,50.4,175.9,50.3,176,50.2 M164.3,55.9c0,0.2-0.9,0.5-1.1,0.5c-0.9,0.3-1.5,0.6-2.4,0.8c-0.5,0.2-1,0.3-1.5,0.4
			c-0.7,0.1-1.4,0.3-2.1,0.4v0.2c1.9-0.2,3.9-0.7,5.5-1.2c0.5-0.1,0.8-0.2,1.2-0.4c0.2-0.1,0.5-0.2,0.6,0c-0.1,0.3-0.4,0.4-0.7,0.5
			s-0.6,0.2-0.8,0.3c-0.5,0.2-1.1,0.4-1.7,0.6c-0.6,0.2-1.2,0.3-1.8,0.5c-0.5,0.1-0.9,0.2-1.4,0.3c-0.1,0-0.4,0-0.3,0.2
			c1.4-0.1,2.8-0.5,4-0.8c0,0.2-0.2,0.2-0.2,0.2c-1.1,0.4-2.4,0.8-3.7,1.1c-1.2,0.2-2.5,0.5-3.8,0.6c-1.8,0.1-3.8,0.1-5.5-0.2
			c-0.4-0.1-2.7-0.5-3.5-0.8c-0.3-0.1-3.9-1.5-4.7-1.9c0-0.1,0.2-0.3,0.3-0.4c0.9,0.2,3.3,0.9,3.6,0.8c-0.1-0.3-2.5-0.9-3.2-1.2
			c0-0.1,0.2-0.3,0.2-0.4c3,0.7,6.7,1.5,10.3,1.6c1.5,0.1,3.1-0.1,4.5-0.2c0.9-0.1,1.7-0.3,2.5-0.4c0.4-0.1,0.8-0.1,1.2-0.2
			c0.5-0.1,0.9-0.2,1.4-0.3s1-0.3,1.5-0.5c0.1,0,0.2,0,0.3,0s0.2-0.1,0.3-0.1s0.3-0.1,0.4-0.1C163.9,55.7,164.3,55.8,164.3,55.9
			 M148.3,56.7c0.1-0.4,0.3-0.4,0.5-0.4c0.1,0,1.4,0.2,1.6,0.3c0,0.2,0,0.4-0.2,0.5c-0.6,0-1.6-0.2-1.7-0.2
			C148.3,56.9,148.3,56.9,148.3,56.7 M148.9,56.1c-0.3,0-0.4-0.2-0.4-0.3c-0.1-0.1,0-0.2,0-0.3c0.1-0.2,1.8,0,1.8,0.2
			c0.1,0.2,0,0.3,0,0.4C150.3,56.3,149.2,56.2,148.9,56.1 M150.5,54.4c-0.4,0.2-1.2,0-1.7-0.1c-0.2,0-0.2-0.5,0.1-0.4
			c0.3,0,1.3,0,1.5,0.1C150.6,54,150.5,54.3,150.5,54.4 M150.6,55.8c0-0.4,0-0.6,0.1-1c0-0.3,0-0.7,0.2-0.8c0.5-0.2,0.3,0.5,0.3,0.9
			s-0.1,0.7-0.1,1s0,1.1-0.3,1.2C150.2,57.3,150.5,56.3,150.6,55.8 M148.8,54.6c0.2,0,1.5,0,1.6,0.3c0,0.2,0,0.4-0.2,0.5
			c-0.3,0-1.7-0.2-1.7-0.4C148.6,54.9,148.6,54.5,148.8,54.6 M153.4,56.6c0.1,0,0.2,0.1,0.3,0.2c0.1,0.4-0.2,0.4-0.6,0.4
			c-0.3,0-0.7,0-0.9,0c-0.3,0-0.5,0-0.5-0.2c0-0.1,0-0.4,0.1-0.4S153.2,56.6,153.4,56.6 M152,55.5c-0.2-0.1-0.1-0.3-0.1-0.5
			s1.6-0.1,1.8,0c0.1,0.1,0.1,0.2,0,0.4C153.5,55.5,152.1,55.6,152,55.5 M153.2,55.6c0.1,0,0.5,0.1,0.5,0.4c0,0.1-0.1,0.2-0.1,0.3
			c-0.1,0.1-0.8,0.1-1,0c-0.1,0-0.7,0-0.8-0.1s0-0.4,0.1-0.5s0.4,0,0.5,0C152.6,55.7,153.1,55.7,153.2,55.6 M154,53.9
			c0.2,0,0.2,0.4,0.2,0.7s0.3,2,0.2,2.3c-0.1,0.5-0.5,0.1-0.5-0.9C153.8,55.2,153.5,54,154,53.9 M152.1,54c0.3,0,1.2-0.1,1.5,0
			c0.1,0.1,0.1,0.4-0.1,0.5s-1.4,0-1.5-0.2C151.9,54.2,152,54,152.1,54 M160.8,53.4c-0.3,0.1-0.7,0.3-0.7-0.1c0-0.2,0.7-0.5,1-0.5
			h0.2c0,0,0.2,0,0.2,0.1C161.5,53.1,161.1,53.3,160.8,53.4 M161.7,53.5c0,0.1,0.1,0.2,0.1,0.4s-1.1,0.6-1.2,0.6s-0.3-0.3-0.3-0.5
			c0-0.1,0.2-0.2,0.5-0.3C161.2,53.5,161.5,53.3,161.7,53.5 M159.7,55.6c-0.1-0.4-0.3-0.7-0.4-1c-0.1-0.2-0.2-0.4-0.3-0.7
			c-0.1-0.2-0.2-0.8,0.3-0.5c0.1,0.1,0.2,0.5,0.3,0.6c0.2,0.5,0.3,0.9,0.5,1.4c0.1,0.3,0.5,0.9,0,0.9c-0.2,0-0.2,0-0.3-0.2
			C159.7,56,159.7,55.6,159.7,55.6 M158.5,56.7c-0.2-0.1-0.2-0.4-0.1-0.5s1-0.3,1.1-0.3s0.3,0.4,0.2,0.5
			C159.4,56.5,159.1,56.7,158.5,56.7 M158.3,56c-0.1,0-0.2-0.2-0.2-0.5c0-0.2,0.7-0.3,1.2-0.4c0.2,0.1,0.3,0.5,0.2,0.6
			C159.3,55.9,158.4,56.1,158.3,56 M159,54.4c0,0.2,0.1,0.3,0,0.4s-0.2,0.1-0.3,0.2c-0.2,0.1-0.5,0.1-0.6,0.1s-0.4-0.4-0.3-0.6
			c0.1-0.1,0.7-0.2,0.9-0.3C158.8,54.2,158.9,54.4,159,54.4 M157.8,54.2c-0.1,0.1-0.3-0.2-0.3-0.3s1.1-0.6,1.1-0.2
			C158.8,54.1,157.9,54.1,157.8,54.2 M156.8,55.1c-0.1-0.3-0.2-0.6-0.2-1c0-0.1-0.1-0.4,0.1-0.4c0.3,0,0.3,0.6,0.4,0.8
			c0.2,0.6,0.4,1.5,0.5,2.2c-0.1,0.2-0.4,0.1-0.5,0C157.1,56.5,156.8,55.1,156.8,55.1 M156.9,57c-0.3,0.2-1.4,0.2-1.6,0.2
			s-0.2-0.3-0.2-0.3c0-0.2,0.1-0.2,0.3-0.2s1.3-0.2,1.4-0.1C156.9,56.6,156.9,57,156.9,57 M155.3,56.4c-0.3,0-0.3-0.3-0.3-0.5
			c0-0.1,0.7-0.2,0.8-0.3c0.1,0,0.8-0.1,0.8,0.1c0,0.3,0.1,0.4,0,0.5C156.4,56.3,155.2,56.4,155.3,56.4 M156.6,55.1
			c0,0.2-0.5,0.2-0.7,0.2c-0.3,0-0.7,0.1-0.8,0s-0.3-0.5,0-0.6c0.1,0,0.3-0.1,0.5-0.1c0.4,0,0.8-0.2,1,0
			C156.6,54.8,156.6,54.9,156.6,55.1 M156.3,54.3c-0.1,0-0.8,0.2-0.9,0.1c-0.1,0-0.5,0.1-0.5-0.1c-0.2-0.6,1.2-0.6,1.3-0.6
			C156.3,53.9,156.4,54.3,156.3,54.3 M161.2,55.8c0-0.2,0.3-0.3,0.6-0.4s0.6-0.3,0.7-0.3s0.3,0.1,0.3,0.2c0,0.2-0.4,0.3-0.6,0.4
			c-0.3,0.1-0.6,0.3-0.8,0.3C161.2,56,161.2,55.9,161.2,55.8 M162,53.5c-0.2-0.2-0.3-0.5-0.4-0.7s0.3-0.5,0.7,0.2
			c0.3,0.5,0.5,0.8,0.8,1.3c0.1,0.2,0.6,0.8,0.2,0.9c-0.2,0-0.3-0.2-0.4-0.3C162.7,54.8,162,53.5,162,53.5 M162.3,54.8
			c-0.2,0.2-1.1,0.5-1.3,0.4c-0.2,0-0.3-0.2-0.2-0.4c0-0.2,0.3-0.2,0.6-0.4c0.3-0.1,0.6-0.3,0.8-0.1
			C162.3,54.5,162.3,54.8,162.3,54.8 M162.9,47c-1.1,0-0.8-0.1-0.8-0.3c0-0.3,0.4-0.3,0.6-0.4c0.1,0,0.6-0.2,0.7-0.3
			c0.3-0.1,0.5-0.3,0.8-0.4c0.1-0.1,0.3-0.2,0.3-0.3c-0.4,0.1-1.2,0.3-1.3,0.3c-0.5,0-1.9,0.5-2,0.5c-0.3-0.4,0.2-0.9,0.5-0.9
			c2.4,0.1,4.1-1.4,6.5-3.4l0,0C168.4,42.2,164.8,47,162.9,47 M172,44.8c-0.3,0.2-0.7,0.2-1,0.4c0.3,0.7-0.7,0.7-1.2,0.8
			c-0.1,0.1,0,0.2,0,0.3c-0.5,0.7-1.6,0.2-2.4,0.1c0,0.2,0.6,0.1,0.6,0.4c0,0.3-0.6,0.3-0.9,0.3c-0.4,0-0.9-0.4-1.2-0.3
			c0,0.1,0.2,0.1,0.2,0.3c-0.3,0.3-1.4,0.2-1.4-0.2c0-0.3,1.5-0.7,1.9-0.8c0.7-0.1,1.2-0.3,1.8-0.5s1.3-0.5,1.8-0.8
			c0.3-0.2,0.6-0.3,0.8-0.5c-0.2,0-0.3,0.1-0.5,0.2c-0.1,0-2.9,1.1-3.3,1c-0.1,0-0.4-0.2-0.4-0.3s0.7-0.9,0.7-0.9c0.4,0,5-2,5.4-2.2
			c0.3-0.2,1-0.7,1.1-0.4C174,42,172.6,44.3,172,44.8 M182.3,38.5c-0.1,0.1-0.4,0.5-0.4,0.6c-0.2,0.4-0.6,0.5-1,0.8
			c0.2,0.7-0.6,0.8-1.1,1c0,0.1,0.2,0.1,0.2,0.2c0,0.2-1.4,0.8-1.5,0.9c0,0.2,0.1,0.2,0.1,0.3c-0.1,0.2-0.3,0.4-0.5,0.4
			c-0.3,0.1-0.8,0-1,0.2c0,0.1,0.1,0.1,0.1,0.3c-0.4,0.6-1.6,0.4-2.4,0.4c0.1,0.3,0.8,0.1,0.8,0.4c0,0.2-0.5,0.4-0.7,0.4
			c-0.5,0.1-1.3-0.1-1.3,0c0.7,0.3-0.6,0.7-0.9,0.4c0.1-0.2,0.7-1,0.8-1.2c0.2,0,0.6-0.2,0.7-0.2c0.4-0.1,1.6-0.7,1.7-0.8
			c0.8-0.4,1.6-0.8,2.4-1.3c-0.7,0.1-3.8,1.7-4.3,1.5c0.1-0.3,0.3-0.5,0.4-0.7c0.2-0.4,0.4-0.8,1-0.8c0.1,0,1.5-0.6,1.8-0.7
			c0.2-0.1,4.3-2.5,4.5-2.6c0.3-0.1,0.6-0.4,0.9-0.2C182.6,38.1,182.5,38.3,182.3,38.5 M185.5,31.7c0.1,0.4-1.6,2.6-2.2,3.3
			c0.1,0.1,0.2,0.1,0.2,0.2c0,0.2-0.3,0.5-0.5,0.7s-4.8,4.2-7.1,4.7c-0.8,0.2-0.8,0-0.9-0.1c-0.2-0.4,0.6-1.1,1-1.3s4.3-2.4,4.8-2.9
			l0,0c-0.4,0.1-1.9,0.9-2.3,1.1c-0.4,0.2-1,0.2-0.8,0c0.1-0.2,3.6-2.5,4-2.8C182,34.3,185,32,185.5,31.7 M187.2,24.5
			c0.1,0.2,0,0.2-0.1,0.6c-0.1,0.4-1,2.9-2.7,5.5c-1.1,1.7-7.3,6.4-7.9,6.5c0.5-0.4,1.7-2.5,1.9-3c4.6-3,5.6-4.6,5.8-4.9
			c0,0-4.1,3.5-4.8,3.6c-0.1-0.3,0.7-1.9,1-2.2c0.2-0.1,1.7-1.1,2.5-1.8c0.7-0.7,3.3-3.7,3.6-3.9C186.7,24.7,186.9,24.4,187.2,24.5
			 M184.9,25.6c-0.3,0.5-3.5,4.5-5.5,4.5c-0.3,0,0.4-1.1,0.4-1.1s1.8-1.3,3.4-3c0.7-0.7,1.3-1.6,1.3-1.7c-0.1-0.1-2.1,1.8-2.5,2.1
			c-0.3,0.2-1.4,1.1-1.6,0.9c-0.2-0.2,0.7-2.6,0.9-2.8c0.1-0.2,0.5-0.7,0.7-0.5s-0.4,1.1-0.2,1.1c0.3,0.1,0.9-1.5,1-1.7
			s0.4-0.3,0.6-0.3s-0.2,1,0.1,0.6s0.7-1.5,1.2-1.4c0.3,0.1-0.1,0.6-0.1,0.8c1-1.5,1.5-1.7,1.6-1.8c0.1,0-0.1,0.5,0,0.5
			c0,0,0.2-0.2,0.4-0.6c0.4-0.8,1.8-1.7,2-1.6S185.5,24.8,184.9,25.6 M122.5,37.8c0.3-0.2,0.6,0,0.9,0.2c0.2,0.1,4.3,2.5,4.5,2.6
			c0.3,0.2,1.7,0.7,1.8,0.7c0.5,0.1,0.8,0.5,1,0.8c0.1,0.2,0.3,0.4,0.4,0.7c-0.4,0.1-3.5-1.4-4.3-1.5c0.7,0.5,1.6,0.9,2.4,1.3
			c0.2,0.1,1.3,0.7,1.7,0.8c0.1,0,0.5,0.2,0.7,0.2c0.1,0.2,0.7,1,0.8,1.2c-0.3,0.3-1.7-0.1-0.9-0.4c0,0-0.8,0.1-1.3,0
			c-0.2,0-0.7-0.2-0.7-0.4c0-0.3,0.6-0.1,0.8-0.4c-0.8,0-2.1,0.2-2.4-0.4c0-0.1,0.1-0.1,0.1-0.3c-0.2-0.2-0.7-0.1-1-0.2
			c-0.2-0.1-0.3-0.3-0.5-0.4c0-0.1,0.1-0.2,0.1-0.3c-0.1-0.1-1.5-0.7-1.5-0.9c0-0.1,0.2-0.1,0.2-0.2c-0.5-0.2-1.3-0.3-1.1-1
			c-0.4-0.3-0.8-0.4-1-0.8c0-0.1-0.3-0.5-0.4-0.6C122.7,38.3,122.6,38.1,122.5,37.8 M123.6,34.6c0.5,0.3,3.9,2.7,4,2.8
			c0.1,0.2-0.4,0.2-0.8,0s-2-1-2.3-1.1l0,0c0.4,0.4,4.4,2.6,4.8,2.9c0.4,0.2,1.2,1,1,1.3c-0.1,0.1,0,0.3-0.9,0.1
			c-2.3-0.5-6.9-4.5-7.2-4.7c-0.2-0.2-0.6-0.5-0.5-0.7c0-0.2,0.1-0.1,0.2-0.2c-0.7-0.7-2-2.3-1.8-2.7
			C120.6,32.6,123.2,34.3,123.6,34.6 M118.8,25.2c0.3,0.2,2.8,3.2,3.6,3.9c0.7,0.7,2.3,1.7,2.5,1.8c0.3,0.3,1.2,1.8,1,2.2
			c-0.7,0-4.8-3.6-4.8-3.6c0.2,0.3,1.2,1.9,5.8,4.9c0.2,0.5,1.4,2.6,1.9,3c-0.6-0.1-6.8-4.8-7.9-6.5c-1.7-2.5-2.6-5.1-2.7-5.5
			c-0.1-0.4-0.2-0.4-0.1-0.6C118.3,24.7,118.5,25,118.8,25.2 M168.9,22.1c0.5,0.3,0.9,0.6,1.5,1c0.1,0.1,0.9,0.5,0.7,0.8
			c-0.2,0.2-0.5-0.2-0.6-0.3C169.9,23,169.4,22.5,168.9,22.1C168.8,22.1,168.8,22.1,168.9,22.1L168.9,22.1z M169.9,21.7L169.9,21.7
			c0.3,0.1,0.5,0.3,0.8,0.5c0.2,0.2,0.5,0.3,0.7,0.5c0.1,0.1,0.5,0.4,0.4,0.5c-0.1,0.3-0.4,0-0.5-0.1
			C170.8,22.7,170.2,22.1,169.9,21.7 M168.3,18.7C168.3,18.6,168.3,18.6,168.3,18.7c0.1,0,0.2,0,0.3,0.1c0.2,0.1,0.4,0.2,0.4,0.4
			C168.7,19.2,168.4,18.9,168.3,18.7 M171.3,21.9C171.3,21.8,171.3,21.8,171.3,21.9c0.3,0,1,0.4,1,0.8c-0.2,0.2-0.4-0.1-0.6-0.2
			C171.6,22.2,171.4,22,171.3,21.9 M167.5,20.3c0.2,0.1,0.5,0.2,0.6,0.4C167.9,20.7,167.5,20.5,167.5,20.3 M166.5,22.4
			c0.3-0.1,0.5,0.2,0.6,0.4C166.8,22.8,166.6,22.7,166.5,22.4 M167.5,26C167.5,26,167.5,25.9,167.5,26c0.4,0.1,1,0.3,1.1,0.8
			c-0.3,0.1-0.8-0.4-0.7-0.3C168.1,26.7,167.5,26.2,167.5,26 M164.8,25.2c0.4,0.1,0.7,0.3,0.9,0.7C165.5,25.8,164.6,25.5,164.8,25.2
			 M167.1,26.7l0.2,0.1c0.3,0.1,0.7,0.4,0.7,0.7c-0.3,0.1-0.5-0.1-0.8-0.3C167.1,27.1,166.8,26.7,167.1,26.7 M166.9,24.5
			c-0.5-0.1-0.8-0.4-1.1-0.7v-0.1l0,0C166.1,23.8,166.9,24.3,166.9,24.5 M165.4,26.8c-0.5-0.1-0.9-0.4-1.2-0.7
			c0.2-0.3,0.6,0,0.8,0.2C165.3,26.5,165.4,26.7,165.4,26.8 M165.3,24.6c0-0.1,0-0.1,0-0.2c0.4,0.2,0.9,0.3,1,0.8
			C165.9,25,165.6,24.8,165.3,24.6 M133.2,84.6c-0.6-0.5-1.2-1.1-1.8-1.6c-0.5-0.4-0.8-0.8-1.2-1.3c-0.1-0.2-0.7-0.7-0.7-0.9
			c0,0,2.6,2.6,3,3c0.5,0.5,1.2,0.9,1.8,1.4c0.4,0.2,1.3,0.9,1.5,0.9c0.1,0,1.4,0.7,1.7,1.1c-0.8-0.2-1.5-0.7-2.2-1.2
			C134.5,85.6,133.8,85.1,133.2,84.6 M147.3,58.9c0.5,0.1,1.1,0.2,1.5,0.3v0.1c-0.6,0.1-1.3-0.2-2-0.2c-0.7-0.1-1.8-0.2-1.8-0.4
			s0.1-0.1,0.2-0.1C145.9,58.6,146.6,58.8,147.3,58.9 M145,57.7c0.1-0.2,0.6,0,0.7,0s2.6,0.3,3.6,0.5c0,0,0,0.1,0,0.2
			c-1.2-0.1-2.5-0.2-3.5-0.4C145.7,58,145,58,145,57.7 M150.5,51.8c0,0.3-1.8,0-2,0v-0.1c0.2-0.1,1.3,0,1.5,0
			C150.1,51.7,150.5,51.5,150.5,51.8 M149.9,52.7c0,0.2-1.7,0-2.2,0c0-0.1-0.1-0.1,0-0.2C148.3,52.5,149.9,52.6,149.9,52.7
			 M151.1,50.8c0,0.1-2.5,0.2-2.6,0c0-0.2,0.1-0.1,0.3-0.1C149.4,50.7,151.1,50.6,151.1,50.8 M140.1,91.1c0,0.1-0.9-0.1-1.5-0.3
			c-0.7-0.3-1.5-0.7-2.1-1c-0.4-0.2-1.7-1-2.5-1.5c-0.6-0.4-1.2-0.9-1.7-1.3c0,0,0,0,0-0.1c1.1,0.7,6.7,3.7,7.6,4
			C139.9,90.9,140.1,90.9,140.1,91.1 M148.4,45.8c-1,0-2.3,0.1-3.2,0c-0.1-0.2,0.2-0.2,0.3-0.2C146,45.7,148.3,45.7,148.4,45.8
			 M136.8,26c-0.2,0.1-0.4,0.4-0.7,0.3c0-0.3,0.3-0.5,0.5-0.6c0.2-0.2,0.4-0.3,0.7-0.2C137.2,25.7,137,25.8,136.8,26 M139.2,24.2
			c-0.2,0.2-0.4,0.4-0.7,0.4c0.1-0.2,0.3-0.3,0.4-0.4c0.2-0.1,0.4-0.2,0.5-0.3h0.1C139.5,24,139.3,24.1,139.2,24.2 M140,24.5
			c0.1,0,0.1,0.1,0.1,0.2c-0.3,0.2-0.6,0.5-1.1,0.6C139.2,24.9,139.7,24.7,140,24.5 M137.4,26.7c-0.2,0.2-0.4,0.4-0.7,0.3
			c0-0.3,0.3-0.5,0.6-0.7c0.2-0.1,0.3-0.3,0.5-0.1C137.8,26.4,137.6,26.5,137.4,26.7 M136.1,31.4c0.1-0.3,0.2-0.9,0.4-1.2
			c0.2,0.2-0.1,1.5-0.2,1.7c0,0.1-0.4,2.5-0.5,2.8c0,0.3,0,2,0,2.2s0.2,0.5-0.1,0.5c-0.1-0.1-0.1-0.1-0.2-0.4c-0.3-1.7,0-3.2,0-3.4
			C135.8,33,136.1,31.7,136.1,31.4 M140.5,25.2c0.4,0.1-0.5,0.7-0.8,0.7C139.8,25.5,140.2,25.4,140.5,25.2 M133.5,28.8L133.5,28.8
			L133.5,28.8L133.5,28.8z M137.3,27.7c0-0.2,0.1-0.2,0.2-0.4c0.2-0.1,0.6-0.5,0.9-0.3C138.2,27.4,137.8,27.8,137.3,27.7
			 M137.2,20.8c0-0.3,0.4-0.3,0.5-0.4c0,0,0,0,0.1,0C137.7,20.7,137.5,20.7,137.2,20.8 M140.9,26.1c0.1-0.1,0.2,0,0.2,0.1
			c0.1,0.2-0.3,0.4-0.5,0.4c-0.2,0.1-0.3,0.3-0.6,0.3C140.1,26.5,140.6,26.2,140.9,26.1 M138.3,23c-0.1-0.3,0.5-0.7,0.6-0.4
			C138.9,22.7,138.4,22.9,138.3,23 M136.3,19.2c0-0.1,0.4-0.4,0.7-0.4C136.9,19.1,136.6,19.3,136.3,19.2
			C136.3,19.2,136.3,19.2,136.3,19.2 M146,20.1L146,20.1c0.7-0.1,2.7-0.1,2.9,0c0,0.2-1.6,0.2-2.1,0.2
			C146.4,20.3,146.1,20.3,146,20.1 M142.1,39.8c0-0.2,0.1-0.2,0.2-0.2c0.5-0.1,1.3,0,1.8,0v0.1C143.7,39.7,142.3,39.9,142.1,39.8
			 M146.7,44.9c-0.6,0-2.2,0.2-2.2,0s1.9-0.3,2-0.3C146.6,44.8,146.7,44.9,146.7,44.9 M141.7,38.9c0-0.2,0.2-0.2,0.3-0.2
			c0.5,0,2-0.1,2,0.1C144,39,141.7,39.1,141.7,38.9 M142.8,41.5c0-0.2,1.8-0.2,2.2-0.3l0.1,0.2C144.6,41.4,143,41.7,142.8,41.5
			 M142.4,40.5c0.2-0.2,1.8-0.3,2.2-0.2c0,0.1,0,0.1,0.1,0.2C144.1,40.5,142.5,40.8,142.4,40.5 M144,44.1c0.1-0.3,2.2-0.4,3-0.2
			c-0.2,0.1-0.4,0.2-0.7,0.2C145.9,44.1,144.2,44.4,144,44.1 M143.2,42.4c0-0.2,2-0.3,2.8-0.3v0.1C145.9,42.3,143.2,42.6,143.2,42.4
			 M143.6,43.3c0.1-0.2,1.8-0.3,2.2-0.3c0,0.1,0,0.2,0.1,0.2C145.3,43.2,143.8,43.5,143.6,43.3 M150,90.4c-1.2,0-2.7-0.1-3.7-0.4
			l0,0l0,0c1.2,0.1,2.6,0.3,3.9,0.2c0.3,0,0.7,0,1,0s0.6-0.1,0.7,0.1C151.8,90.4,150.4,90.4,150,90.4 M145,89.7
			c-0.1,0.1-0.3,0-0.4,0c-0.4-0.1-1.8-0.4-2.1-0.5c-1.6-0.4-3.1-1-4.5-1.7l0,0l0,0c0.7,0.2,3.2,1.1,4.1,1.4
			C143.1,89.2,144.9,89.5,145,89.7 M145.3,21L145.3,21c0-0.1,0-0.1,0.1-0.1c0.4,0,1.7,0,1.8,0.1C147.2,21.2,145.5,21.1,145.3,21
			 M145,21.9L145,21.9c0.4-0.1,1-0.1,1.5-0.1v0.1C146.1,22.1,145.4,22,145,21.9 M145.7,67.2c-0.3,0.5,0,0-0.4,0.5
			c-0.1,0.1-2.7-0.9-2.7-0.8c0,0,0.1,0.2,0.2,0.3c0.7,0.3,2.2,0.8,2.1,1.2c0,0.1-0.1,0.3-0.2,0.4c-0.2,0.1-2.9-1.5-3-1.3
			c0,0,0,0.2,0.3,0.5c0.3,0.2,2.3,1.1,2.3,1.4c0.1,0.2,0,0.2-0.2,0.4c-0.1,0.1-3.4-2-3.5-1.9c0,0-0.1,0.1,0,0.3c0,0,3.1,2,3,2.3
			c0,0.1,0,0.2-0.2,0.2c0,0-3.7-2.5-3.9-2.3s3.2,2.2,3.6,2.7l-0.3,0.4c-1.2-0.7-8-5.7-8.9-6.4c0.4-0.7,0.9-1.4,1.3-1.8
			C141.4,66.4,145.5,67.2,145.7,67.2 M133.5,78.4C133.5,78.3,133.5,78.3,133.5,78.4c2.3-0.1,2.6-1.3,2.5-1.7
			c-0.1-0.3-0.5-0.5-0.4-0.7c0.1-0.4,0.6-0.7,1-0.7s0.9,0.3,1.4,0.6s2.7,0.7,3.1,0.5s0.6-0.6,0.6-0.8s-0.1-0.6-0.1-0.9
			c0.1-0.3,0.8-1.4,1-1.6c0.1-0.2,0.8,0,1-0.2c0.1-0.2,0-0.7,0-0.9c0.8-1.1,1.7-2.8,2.4-4c0.1,0.1,0.1,3.3,0,5.1
			c-0.2,2.6-0.6,3.7-1.4,5.1c-0.8,1.3-2.5,3.4-5.4,2.8C136.3,80.3,134.3,79.1,133.5,78.4 M135.1,75.6c-0.4-0.2-1.9-1.3-2.2-1.7
			c0.2-0.2,0.4-0.6,0.6-0.9c0.4,0.2,2,1.4,2.4,1.7C135.6,75,135.3,75.2,135.1,75.6 M132.3,71c-0.1-0.1-0.4-0.6-0.4-0.7
			c0,0,0,0,0-0.1c0.6,0.3,6.2,4.6,6.7,4.9c0.1,0.1,0.3,0.2,0.4,0.4c-0.4,0-1.4-0.4-1.5-0.5C137,74.8,132.6,71.6,132.3,71
			 M131.8,74.1c0.6,0.4,1,0.8,1.6,1.2c0.5,0.4,1,0.8,1.6,1.2c0.2,0.1,0.5,0.3,0.5,0.4c0,0.2-0.4,0.6-0.7,0.7c-0.3,0.2-1.3,0.5-2.2,0
			c-0.3-0.1-1.6-1.3-1.8-1.8c0.1,0,0.2,0.1,0.3,0.1c0.2,0.1,0.5,0.3,0.7,0.3c0-0.1-0.2-0.2-0.2-0.3c-0.3-0.3-0.6-0.6-0.9-0.9
			c0-0.1,0-0.3,0.1-0.4c0.1,0,0.2,0.1,0.3,0.1c0.3,0.1,0.7,0.3,1,0.4c-0.3-0.4-0.7-0.8-1.2-1.1C131.1,73.5,131.5,73.8,131.8,74.1
			 M161,66.7c2.6-0.7,5.7-1.9,8.8-3.5c0.4,0.6,0.7,1,1.1,1.6c-2.2,1.7-6.5,4.8-8.8,6.4c-0.1-0.1-0.1-0.3-0.1-0.4s2.2-1.6,2.4-1.8
			c0.2-0.2,0.4-0.6,0.4-0.6c-0.1-0.1-2.9,2.1-3,2c-0.2-0.1-0.3-0.3-0.3-0.4c0-0.2,1.2-0.9,2.4-1.9c0.4-0.4,0.1-0.3,0.1-0.3
			c-0.1-0.1-2.6,1.9-2.8,1.8c-0.3-0.1-0.3-0.4-0.3-0.5c0-0.2,1.5-1,1.9-1.3s0.5-0.5,0.4-0.6c0-0.1-2.2,1.3-2.4,1.4
			c-0.2,0-0.3-0.4-0.4-0.4c-0.1-0.1,2.3-1.2,2.2-1.5c-0.1-0.1-2.4,1.1-2.5,1c-0.2-0.3-0.2-0.3-0.3-0.6C159.7,67,160.6,66.8,161,66.7
			 M172.7,67.3c-2.2,1.6-6.6,4.7-8.7,6.3c-0.1-0.1-0.3-0.3-0.3-0.5s3.1-2.2,3.1-2.2l-0.2-0.2c0,0-3.1,2.1-3.2,2.1s-0.2-0.2-0.2-0.3
			c2.1-1.6,6.5-4.8,8.7-6.3C172.1,66.5,172.4,66.9,172.7,67.3 M171.5,65c0.1,0,0.2,0,0.3,0c-0.1,0.2-6.9,5.1-9.1,6.7
			c-0.2,0.1-0.4,0.3-0.6,0.4c-0.1-0.3,0.2-0.5,0.3-0.6C163,71.1,171.1,65.1,171.5,65 M169.3,64.1c-0.2,0.2-0.4,0.3-0.7,0.4
			c0.1-0.2,0.3-0.3,0.4-0.4c0.2-0.1,0.4-0.2,0.5-0.3h0.1C169.7,63.9,169.4,64,169.3,64.1 M170.3,64.4c0.7,0.2-0.8,1-1.2,1
			C169.3,64.9,169.8,64.7,170.3,64.4 M171.8,66.8c0.1-0.1,0.3,0,0.4,0.1c0.1,0.3-0.5,0.5-0.7,0.6c-0.3,0.2-0.5,0.4-0.9,0.5
			C170.6,67.5,171.4,67,171.8,66.8 M135.1,65.2c0-0.7,1.2,0.4,1.4,0.8C135.9,66,135.5,65.6,135.1,65.2 M136.3,64.5
			c0.2,0.1,0.5,0.2,0.6,0.5c-0.2,0-0.4-0.1-0.6-0.3c-0.2-0.1-0.3-0.3-0.5-0.4c0,0,0,0,0-0.1C135.9,64.2,136.1,64.4,136.3,64.5
			 M144.8,6.2c2.7-1.5,4.9-2,7.5-2c1.8,0,3.6,0.3,5.3,1c4,1.7,7.7,6.1,6.8,11.8c0-0.4-0.2-2.8-0.8-4.8c-0.5-1.5-2.7-4.9-5.4-6.3
			c-1.2-0.6-3.2-1.1-5-1.3s-5,0.4-6.1,0.9s-1.4,0.6-2,1c-0.2,0.1-0.5,0.3-0.6,0.1C144.4,6.4,144.8,6.2,144.8,6.2 M145.8,6.9
			c-0.1-0.1-0.4-0.2-0.3-0.3c0.1-0.2,0.3-0.4,0.7-0.4s0.8,0.8,1.1,1.3c0.5,1,0.7,2,0.7,2.3s0,0.4-0.1,0.4c-0.2,0-0.3-0.5-0.3-0.8
			C147.1,8.1,145.9,7,145.8,6.9 M155.1,18.5c0,0.6-0.5,1.1-1.2,1.1c-0.6,0-1.2-0.5-1.2-1.1s0.5-1.1,1.2-1.1
			C154.5,17.4,155.1,17.9,155.1,18.5 M156.6,27.5c0.5,0.5,0.7,1.3,0.7,2.1c0,1.1-0.3,2.1-1.1,2.8s-2,1.2-3.3,1.2
			c-2.7,0-4.7-1.8-4.7-4.1c0-1.1,0.8-2.5,1.4-2.8c0.3-0.1,1-0.7,1.4-0.3c0.2,0.2-0.6,0.6-0.6,0.6s-1.3,0.8-1.4,2.5
			c-0.1,1.8,1.5,3.1,3.8,3.1c2.5,0,3.9-1.4,3.9-3.1c0-0.8-0.4-1.7-0.9-2c-0.4-0.4-1.2-0.8-0.9-0.9C155.1,26.6,156.1,27,156.6,27.5
			 M155.5,18.5c0,0.9-0.7,1.6-1.6,1.6s-1.6-0.7-1.6-1.6s0.7-1.6,1.6-1.6C155,16.9,155.5,17.6,155.5,18.5 M154.7,18.5
			c0,0.4-0.4,0.7-0.8,0.7s-0.8-0.3-0.8-0.7s0.4-0.7,0.8-0.7C154.3,17.7,154.7,18.1,154.7,18.5 M153.2,34.7c0,0.2-0.2,0.3-0.4,0.3
			s-0.4-0.2-0.4-0.3c0-0.2,0.2-0.3,0.4-0.3S153.2,34.5,153.2,34.7 M145.5,27.4c0.2,0,0.1,0.3,0,0.4c0,0.5-0.1,1.1-0.1,1.7
			c0,0.6,0.1,1.3,0.2,2s0.1,1.2,0.2,1.9c0.2,0.7,0.4,1.3,0.3,1.5c-0.2,0-0.5-0.9-0.5-1.2s-0.4-2.5-0.4-3.5c0-0.4,0-0.5-0.1-0.7
			c-0.3-0.1-0.8,0-0.9,0.1c0,0.4,0.1,0.5,0.1,1.1c0.2,1.2,0,3.2,0,3.3s-0.1,0.7-0.2,0.7c-0.2,0-0.1-0.5-0.1-0.8c0.1-0.3,0-2,0-2.5
			c0-0.9-0.4-2.8-0.5-3c0-0.1-0.2-0.7-0.1-0.7c0.2,0,0.2,0.5,0.4,0.6c0.5,0,1.1-0.1,1.2-0.2C145.4,28.2,145.3,27.4,145.5,27.4
			 M145,28.6c0.2,0,0.2,0.2,0.2,0.3c0,0.3-1,0.4-1,0.3c0,0-0.2-0.3-0.2-0.4C144.1,28.5,144.9,28.5,145,28.6 M145.9,36.3
			c0,0.4-0.4,0.8-0.8,0.8c-0.5,0-0.8-0.3-0.8-0.8c0-0.4,0.4-0.8,0.8-0.8S145.9,35.8,145.9,36.3 M146.3,36.4c0,0.6-0.5,1.2-1.2,1.2
			s-1.2-0.5-1.2-1.2c0-0.6,0.5-1.2,1.2-1.2S146.3,35.7,146.3,36.4 M146,26.4c0,0-0.4,1.9-0.2,5.3c0.1,1,0.6,2.7,0.7,3.2
			s0.8,2.1,0.8,2.3s-1.6,1.3-2.1,1.6c-0.8-0.5-1.5-1.1-2.1-1.7c0.1-0.7,0.3-1,0.5-2.1c0.4-2.3,0-4.4-0.2-5.2s-0.6-2.2-0.9-3
			C143.7,26.6,144.9,26.4,146,26.4 M160,28.2c0.2,0,0.8,0.2,1.3,0.2c0.3-0.1,0.3-0.6,0.4-0.6c0.2,0,0,0.6-0.1,0.7c0,0.2-0.5,2-0.5,3
			c0,0.5,0,2.2,0,2.5c0.1,0.3,0.1,0.7-0.1,0.8c-0.1-0.1-0.2-0.6-0.2-0.7c0-0.1-0.3-2.1,0-3.3c0.1-0.6,0.1-0.7,0.2-1.1
			c-0.2-0.2-0.7-0.2-0.9-0.1c-0.1,0.2-0.1,0.3-0.1,0.7c0,1-0.3,3.1-0.4,3.5c0,0.3-0.3,1.2-0.5,1.2c-0.1-0.2,0.1-0.7,0.3-1.5
			c0.1-0.7,0.2-1.2,0.2-1.9c0.1-0.7,0.1-1.4,0.2-2c0-0.6-0.1-1.2-0.1-1.7c0-0.1-0.1-0.4,0-0.4C159.9,27.4,159.8,28.2,160,28.2
			 M161.2,28.8c0.1,0.1-0.1,0.4-0.2,0.4c0,0-1,0-1-0.3c0-0.1,0-0.3,0.2-0.3C160.3,28.5,161.1,28.5,161.2,28.8 M160.1,35.5
			c0.5,0,0.8,0.3,0.8,0.8c0,0.4-0.4,0.8-0.8,0.8s-0.8-0.3-0.8-0.8S159.6,35.5,160.1,35.5 M160,35.2c0.7,0,1.2,0.5,1.2,1.2
			c0,0.6-0.5,1.2-1.2,1.2s-1.2-0.5-1.2-1.2S159.3,35.2,160,35.2 M159.1,26.4c1.2,0,2.3,0.3,3.5,0.4c-0.3,0.8-0.9,2.5-1,3.1
			c-0.2,1-0.2,3.7-0.1,5.1c0.1,0.7,0.4,1.4,0.5,2.1c-0.7,0.6-1.4,1.2-2.1,1.7c-0.6-0.3-2.1-1.5-2.1-1.6s0.6-1.8,0.8-2.3
			c0.1-0.5,0.7-2.2,0.7-3.2C159.5,28.2,159.1,26.4,159.1,26.4 M145.8,55.6c0.2,0.1,1.3,0.2,1.3,0.2s0.3-0.4,0.2-0.6
			s-1.2-0.3-1.5-0.3s-0.4,0.4-0.4,0.5S145.6,55.5,145.8,55.6 M145.7,56.5c0.2,0,0.9,0.1,1.1,0.1s0.2-0.2,0.3-0.4
			c0-0.2-0.2-0.3-0.2-0.3s-1.1-0.2-1.3-0.2s-0.3,0.1-0.3,0.1s0,0.1-0.1,0.3C145.1,56.4,145.7,56.5,145.7,56.5 M160.9,20.3
			c-0.1,0.2-0.1,0.5-0.1,0.7c0,0.8,0.1,1.2,0.3,1.8c0,0.2,0.1,0.3,0.2,0.5s0,0.4,0.2,0.5c0.3-0.2,0.4-0.6,0.6-1s1.3-2.6,1.5-6.3
			c0.1-1.1-0.2-4-1.2-5.5c-0.3-0.5-1.1-1.9-2.6-3.2c-2-1.7-4.9-2.5-7.9-2.4c-1,0-3.4,0.3-4.9,1.1c0.4,0.8,0.8,1.6,0.9,2
			c0.1,0.2,0.3,1.2,0.3,1.6c0.3-0.2,0.6-0.3,0.6-0.3c0.2-0.3,0.2-1,0.2-1.5c0-0.6-0.6-1-0.8-1.4s0.4-0.9,0.9-0.9
			c0.4,0,0.7,0.7,0.8,1.4c0.1,0.6-0.2,1.5-0.3,2.1c0.3-0.1,0.5-0.1,0.8-0.2c0,0,0.5-1,0.6-1.5c0.2-0.6-0.2-1.1-0.3-1.6
			s0.7-0.7,1.1-0.6c0.4,0.2,0.5,0.9,0.4,1.6c-0.1,0.6-0.5,1.4-0.8,1.9c0.2,0,0.4,0,0.6,0c0.1,0,0.1,0,0.2,0c0.3-0.3,0.7-0.9,0.9-1.3
			c0.3-0.6,0-1.2,0-1.6c0-0.5,0.8-0.6,1.2-0.4s0.3,1,0.1,1.6s-0.8,1.2-1.2,1.7c0.2,0,0.5,0.1,0.7,0.1c0.3-0.2,0.8-0.8,1.1-1.1
			c0.4-0.5,0.2-1.1,0.3-1.6s0.9-0.4,1.2-0.1s0.1,1-0.2,1.6s-1.1,1.1-1.5,1.5c0.2,0.1,0.5,0.2,0.7,0.3c0.4-0.1,1-0.6,1.3-0.9
			c0.5-0.4,0.4-1.1,0.6-1.5s1-0.2,1.2,0.1c0.3,0.4-0.1,1-0.6,1.5c-0.4,0.5-1.3,0.8-1.8,1.1c0.2,0.1,0.4,0.2,0.6,0.4
			c0.4,0,1.2-0.4,1.6-0.6c0.6-0.3,0.7-0.9,0.9-1.3c0.3-0.4,1,0,1.2,0.4s-0.3,1-0.9,1.4c-0.5,0.4-1.4,0.6-2,0.8
			c0.2,0.2,0.4,0.4,0.6,0.6l0,0c0.4,0,1.1-0.1,1.5-0.2c0.6-0.1,0.9-0.8,1.2-1.1c0.3-0.3,1,0.2,1,0.7c0.1,0.4-0.6,0.9-1.2,1.1
			c-0.6,0.2-1.3,0.2-1.9,0.2l0,0c0.2,0.2,0.3,0.5,0.5,0.7c0.3,0.1,0.8,0,1.1,0c0.6,0,1-0.6,1.4-0.8s0.9,0.4,0.9,0.9
			s-0.7,0.7-1.4,0.8c-0.5,0.1-1,0-1.5-0.1l0,0c0.1,0.3,0.3,0.5,0.4,0.8c0.3,0.1,0.6,0.1,0.8,0.1c0.5,0.1,0.9-0.4,1.3-0.5
			s0.7,0.5,0.6,0.8c-0.1,0.4-0.7,0.5-1.3,0.5c-0.4,0-0.8-0.1-1.2-0.3l0,0c0.1,0.2,0.1,0.5,0.2,0.7c0.2,0.1,0.4,0.2,0.6,0.2
			c0.5,0.2,1-0.1,1.4-0.2s0.6,0.6,0.4,1s-0.8,0.4-1.4,0.2c-0.3-0.1-0.6-0.2-0.9-0.4l0,0c0,0.3,0.1,0.5,0.1,0.8
			c0.1,0.1,0.2,0.1,0.3,0.2c0.5,0.3,1,0,1.4,0s0.5,0.7,0.3,1.1c-0.2,0.3-0.9,0.3-1.4,0.1c-0.2-0.1-0.3-0.2-0.5-0.3
			c0,0.3,0,0.3,0,0.5c0,0,0.1,0,0.1,0.1c0.4,0.3,1,0.2,1.3,0.3c0.4,0.1,0.4,0.7,0.2,1s-0.8,0.1-1.4-0.2
			C161.1,20.4,161,20.3,160.9,20.3 M159.6,13.5L159.6,13.5L159.6,13.5z M153.6,49.3H152v-2.7h1.6V49.3z M153.2,48.9h-0.7v-1.7h0.7
			V48.9z M154,49.7h-2.7v-3.5h2.7V49.7z M151,50h3.4v-0.7c1.5-0.1,3.1-0.2,4.7-0.2c0.4,0,0.8,0,1.2,0l0,0c0.1,0.2-0.3,0.2-0.5,0.2
			c-1.2,0.2-4.3,0.3-4.3,0.5c1.5,0.1,5.1-0.2,5.1,0s-0.5,0.2-0.7,0.3c-0.8,0.1-1.7,0.2-2.5,0.4v0.2c0.9,0,3.2-0.3,3.3-0.3
			c0.2,0,0.3,0.2,0.2,0.3c0,0.2-3.6,0.7-3.7,0.7s-0.3,0-0.3,0.2c1.2,0,2.5-0.1,3.8-0.3c0.3,0,0.6-0.1,0.6,0.2s-3.5,0.8-4.8,0.9v0.2
			c1.4-0.1,3.1-0.3,4.5-0.5c0.2,0,0.5-0.2,0.6,0c0,0.3-0.4,0.3-0.6,0.4c-1.3,0.4-2.8,0.6-4.3,0.8c-0.5,0.1-1,0.1-1.6,0.2
			c-2.6,0.3-5.4,0.2-7.9,0c-1-0.1-2-0.3-2.9-0.5c-0.4-0.1-0.8-0.2-1.1-0.3c0-0.1,0.5-0.9,0.6-1.1c0.1,0,0.9,0.3,0.9,0
			c0-0.2-0.7-0.2-0.8-0.3c0.1-0.2,0.2-0.4,0.2-0.6c0.2,0,0.5,0.1,0.7,0c0.1-0.3-0.4-0.2-0.6-0.2c0.1-0.2,0.5-1,0.6-1.2
			c1.6,0.1,3.3,0,5,0.1c0.3,0,0.6,0,1,0V50C150.8,50,151,50,151,50z M154.4,46.7c0,0,1.8,0,2.3-0.1c0.6,0,1.8,0,2.4,0
			c0.4,0,1-0.1,1.4-0.1c0.2,0,0.7,0.1,0.4,0.4c-0.1,0.2-1,0.1-1.4,0.2c-0.7,0-1.4,0.1-2,0.1c0.1,0.3,0.4,0.3,0.7,0.3
			c0.4,0,0.8,0,1.2-0.1c0.5,0,1-0.1,1.4,0c0.2,0.5-0.1,0.5-0.1,0.7c-0.1,0.1-0.5,0.1-0.6,0.1c-1.8,0.1-4,0.1-5.7,0.2L154.4,46.7
			 M178.9,86.3c0,0,4.1-5.4,5.2-12.4s-0.5-11.1-0.5-11.3c0-0.1-0.2-0.6,0-0.6c0.2-0.1,0.3,0.5,0.3,0.6c0,0.2,1.6,4.3,0.5,11.3
			s-5.2,12.4-5.2,12.4c-0.1,0.1-0.4,0.6-0.5,0.5C178.6,86.8,178.9,86.4,178.9,86.3 M126.7,87.1c-0.1,0.1-0.4-0.3-0.5-0.4
			c0,0-4.1-5.4-5.2-12.4s0.5-11.1,0.5-11.3c0-0.1,0.2-0.7,0.3-0.6c0.2,0.1,0,0.6,0,0.6c0,0.2-1.6,4.3-0.5,11.3s5.2,12.4,5.2,12.4
			C126.6,86.7,126.8,87,126.7,87.1 M126.4,52.1L126.4,52.1c-0.1-0.1-0.3-0.1-0.3,0l-0.4,0.6c-0.1,0.1-0.2,0.1-0.3,0l0,0
			c-0.1-0.1-0.1-0.2,0-0.3l1.5-2c0.1-0.1,0.2-0.1,0.3,0l0.2,0.2c0.1,0.1,0.2,0.2,0.3,0.3c0,0,0.3,0.5-0.1,1S126.9,52.4,126.4,52.1
			 M127.3,51L127.3,51c-0.1-0.1-0.3-0.1-0.3,0l-0.3,0.4c-0.1,0.1-0.1,0.2,0,0.2s0.2,0.1,0.3,0.1c0,0,0.1,0,0.3-0.2
			C127.4,51.4,127.5,51.2,127.3,51 M127.7,54.3c-0.2,0-0.4,0-0.6-0.2s-0.3-0.4-0.3-0.6c0-0.3,0.2-0.6,0.6-1.1s0.7-0.8,1-0.8
			c0.2,0,0.4,0,0.6,0.2s0.3,0.4,0.3,0.6c0,0.3-0.2,0.6-0.6,1.1C128.2,54,128,54.3,127.7,54.3 M128.8,52.4c0-0.1,0-0.2-0.1-0.2
			c-0.1-0.1-0.2-0.1-0.2-0.1c-0.2,0.1-0.4,0.3-0.7,0.7c-0.3,0.4-0.5,0.6-0.5,0.8c0,0.1,0,0.2,0.1,0.2c0.1,0.1,0.2,0.1,0.2,0.1
			c0.2,0,0.4-0.3,0.7-0.7C128.6,52.8,128.8,52.6,128.8,52.4 M129.2,55.6c-0.2,0-0.4,0-0.6-0.2c-0.2-0.1-0.3-0.3-0.3-0.5
			s0-0.4,0.2-0.5l1.2-1.5c0.1-0.1,0.2-0.1,0.3,0l0,0c0.1,0.1,0.1,0.2,0,0.3l-1.1,1.4c-0.1,0.1-0.2,0.3-0.2,0.4c0,0,0,0.1,0.1,0.2
			s0.3,0.1,0.4-0.1l1.3-1.6c0.1-0.1,0.2-0.1,0.3,0l0,0c0.1,0.1,0.1,0.2,0,0.3l-1.2,1.5C129.5,55.5,129.3,55.6,129.2,55.6
			 M130.6,56.9c-0.1-0.1-0.1-0.2-0.1-0.3l0.3-0.8c0-0.1,0-0.2,0-0.3c-0.1,0-0.2,0-0.2,0.1l-0.5,0.6c-0.1,0.1-0.2,0.1-0.3,0l0,0
			c-0.1-0.1-0.1-0.2,0-0.3l1.5-2c0.1-0.1,0.2-0.1,0.3,0l0.2,0.2c0.1,0.1,0.2,0.2,0.3,0.3c0,0,0.3,0.5,0,1c-0.2,0.3-0.4,0.4-0.7,0.4
			l-0.4,1.1C130.9,57,130.8,57.1,130.6,56.9L130.6,56.9z M131.7,54.6L131.7,54.6c-0.1-0.1-0.3-0.1-0.3,0l-0.3,0.4
			c-0.1,0.1-0.1,0.2,0,0.3c0.1,0,0.2,0.1,0.3,0.1c0,0,0.1,0,0.3-0.2C131.8,55,131.9,54.8,131.7,54.6 M132.1,58
			c-0.1-0.1-0.1-0.2-0.1-0.3l1.4-2c0.1-0.1,0.2-0.1,0.3-0.1l0,0c0.1,0.1,0.1,0.2,0.1,0.3l-1.2,1.7c-0.1,0.1,0,0.2,0.1,0.3l0.3,0.2
			c0.1,0.1,0.1,0.2,0.1,0.3c-0.1,0.1-0.2,0.1-0.3,0L132.1,58z M134.3,59.5c-0.1-0.1-0.1-0.2-0.1-0.3l0.1-0.2c0-0.1,0-0.3-0.1-0.3
			l-0.2-0.1c-0.1-0.1-0.2,0-0.3,0l-0.1,0.1c-0.1,0.1-0.2,0.1-0.3,0h-0.1c-0.1-0.1-0.1-0.2,0-0.3l1.9-1.8c0.1-0.1,0.2-0.1,0.3,0l0,0
			c0.1,0.1,0.1,0.2,0.1,0.3l-0.9,2.4C134.5,59.5,134.4,59.6,134.3,59.5L134.3,59.5z M134.8,57.5C134.9,57.3,134.8,57.3,134.8,57.5
			l-0.6,0.5c-0.1,0.1-0.1,0.2,0,0.3h0.1c0.1,0.1,0.2,0,0.3-0.1L134.8,57.5z M136.6,59.5L136.6,59.5c-0.2-0.1-0.3,0-0.3,0l-0.4,0.6
			c-0.1,0.1-0.2,0.1-0.3,0.1l0,0c-0.1-0.1-0.1-0.2-0.1-0.3l1.2-2.2c0.1-0.1,0.2-0.1,0.3-0.1l0.3,0.2c0.1,0.1,0.2,0.2,0.3,0.3
			c0,0,0.4,0.5,0.1,1C137.4,59.7,137.1,59.8,136.6,59.5 M137.3,58.4L137.3,58.4c-0.1-0.1-0.3,0-0.3,0.1l-0.3,0.5
			c-0.1,0.1-0.1,0.2,0,0.2s0.2,0.1,0.3,0.1c0,0,0.1,0,0.3-0.3C137.4,58.7,137.5,58.5,137.3,58.4 M138.1,61.7
			c-0.1-0.1-0.2-0.2-0.1-0.3v-0.2c0-0.1,0-0.2-0.1-0.3l-0.2-0.1c-0.1-0.1-0.2,0-0.3,0.1l-0.1,0.1c-0.1,0.1-0.2,0.1-0.3,0.1h-0.1
			c-0.1-0.1-0.1-0.2,0-0.3l1.7-1.9c0.1-0.1,0.2-0.1,0.3-0.1l0,0c0.1,0.1,0.2,0.2,0.1,0.3l-0.6,2.5C138.4,61.7,138.3,61.8,138.1,61.7
			L138.1,61.7z M138.5,59.6C138.5,59.5,138.5,59.5,138.5,59.6l-0.6,0.6c-0.1,0.1,0,0.2,0.1,0.3h0.1c0.1,0.1,0.2,0,0.2-0.1
			L138.5,59.6z M140.5,60c-0.1,0-0.2,0-0.3,0.1l-0.9,1.9c-0.1,0.1-0.2,0.1-0.3,0.1l0,0c-0.1,0-0.1-0.2-0.1-0.3l0.9-1.9
			c0.1-0.1,0-0.2-0.1-0.3h-0.1c-0.1,0-0.2-0.2-0.1-0.3c0-0.1,0.2-0.1,0.3-0.1l0.9,0.4c0.1,0,0.1,0.2,0.1,0.3
			C140.8,60.1,140.6,60.1,140.5,60L140.5,60z M141.2,63.1c-0.1,0-0.2-0.2-0.2-0.3l0.1-0.8c0-0.1,0-0.2-0.1-0.3c-0.1,0-0.2,0-0.2,0.1
			l-0.3,0.7c0,0.1-0.2,0.2-0.3,0.1l0,0c-0.1,0-0.2-0.2-0.1-0.3l1-2.3c0-0.1,0.2-0.2,0.3-0.1l0.3,0.1c0.1,0,0.3,0.1,0.4,0.2
			c0,0,0.4,0.4,0.2,0.9c-0.1,0.3-0.3,0.5-0.6,0.6l-0.1,1.1C141.5,63.1,141.4,63.1,141.2,63.1L141.2,63.1z M141.7,60.6L141.7,60.6
			c-0.2-0.1-0.3,0-0.3,0.1l-0.2,0.4c0,0.1,0,0.2,0,0.2c0.1,0,0.2,0,0.3,0c0,0,0.1,0,0.2-0.3C141.8,60.9,141.9,60.7,141.7,60.6
			 M142.1,63.4c-0.1,0-0.2-0.2-0.1-0.3l0.9-2.3c0-0.1,0.2-0.2,0.3-0.1l0,0c0.1,0,0.2,0.2,0.1,0.3l-0.9,2.3
			C142.4,63.4,142.2,63.5,142.1,63.4L142.1,63.4z M143,63.7c-0.1,0-0.2-0.2-0.1-0.3l0.8-2.4c0-0.1,0.2-0.2,0.3-0.1l0.8,0.2
			c0.1,0,0.2,0.2,0.1,0.3c0,0.1-0.2,0.2-0.3,0.1l-0.3-0.1c-0.1,0-0.2,0-0.3,0.1l-0.1,0.4c0,0.1,0,0.2,0.1,0.3l0.2,0.1
			c0.1,0,0.2,0.2,0.1,0.3c0,0.1-0.2,0.2-0.3,0.1l-0.2-0.1c-0.1,0-0.2,0-0.3,0.1l-0.1,0.4c0,0.1,0,0.2,0.1,0.3l0.3,0.1
			c0.1,0,0.2,0.2,0.1,0.3c0,0.1-0.2,0.2-0.3,0.1L143,63.7z M145.5,64.4c-0.1,0-0.2-0.1-0.2-0.3l0.6-2.4c0-0.1,0.1-0.2,0.3-0.2l0,0
			c0.1,0,0.2,0.1,0.2,0.3l-0.5,2c0,0.1,0,0.2,0.2,0.3l0.3,0.1c0.1,0,0.2,0.1,0.2,0.2s-0.1,0.2-0.3,0.2L145.5,64.4z M147,64.8
			c-0.1,0-0.2-0.1-0.2-0.2l0.4-2.4c0-0.1,0.1-0.2,0.2-0.2l0.8,0.1c0.1,0,0.2,0.1,0.2,0.2s-0.1,0.2-0.2,0.2l-0.3-0.1
			c-0.1,0-0.2,0.1-0.2,0.2l-0.1,0.4c0,0.1,0.1,0.2,0.2,0.2h0.2c0.1,0,0.2,0.1,0.2,0.2s-0.1,0.2-0.2,0.2h-0.2c-0.1,0-0.2,0.1-0.2,0.2
			l-0.1,0.4c0,0.1,0.1,0.2,0.2,0.2l0.3,0.1c0.1,0,0.2,0.1,0.2,0.2s-0.1,0.2-0.2,0.2L147,64.8z M149.7,65c-0.1,0.1-0.3,0.2-0.6,0.1
			c-0.3,0-0.4-0.1-0.5-0.3s-0.2-0.3-0.1-0.6h0.2c0.1,0,0.2,0.1,0.2,0.2c0,0,0,0,0.1,0.1c0,0,0.1,0.1,0.2,0.1s0.2,0,0.2-0.1
			c0.1-0.1,0.1-0.2,0.1-0.3c0-0.3,0-0.4-0.2-0.5l-0.1-0.1c-0.1-0.1-0.3-0.2-0.3-0.2s-0.2-0.2-0.2-0.6c0-0.3,0.1-0.5,0.3-0.6
			c0.1-0.1,0.3-0.1,0.5-0.1s0.4,0.1,0.5,0.2c0.1,0.2,0.2,0.4,0.1,0.7h-0.2c-0.1,0-0.2-0.1-0.2-0.2c0,0,0,0-0.1-0.1
			c0-0.1-0.1-0.1-0.2-0.1s-0.2,0-0.2,0.1c-0.1,0.1-0.1,0.1-0.1,0.3s0,0.3,0.2,0.4l0.1,0.1c0.1,0.1,0.3,0.2,0.3,0.2s0.2,0.2,0.2,0.7
			C149.9,64.7,149.8,64.9,149.7,65 M152.3,65.1c-0.1,0.1-0.3,0.2-0.6,0.2s-0.4-0.1-0.6-0.2c-0.1-0.1-0.2-0.3-0.2-0.6h0.2
			c0.1,0,0.2,0.1,0.2,0.2c0,0,0,0,0.1,0.1c0,0,0.1,0.1,0.2,0.1s0.2,0,0.2-0.1c0.1-0.1,0.1-0.2,0.1-0.3c0-0.3,0-0.4-0.3-0.5l-0.2-0.1
			c-0.1,0-0.3-0.1-0.4-0.2c0,0-0.2-0.2-0.2-0.6c0-0.3,0.1-0.5,0.2-0.6s0.3-0.2,0.5-0.2s0.4,0.1,0.5,0.2c0.2,0.2,0.2,0.4,0.2,0.6H152
			c-0.1,0-0.2-0.1-0.2-0.2c0,0,0,0-0.1-0.1c0-0.1-0.1-0.1-0.2-0.1s-0.2,0-0.2,0.1c-0.1,0.1-0.1,0.2-0.1,0.3c0,0.2,0,0.3,0.2,0.4
			l0.1,0.1c0.1,0,0.3,0.1,0.4,0.2c0,0,0.3,0.2,0.3,0.7C152.5,64.8,152.5,65,152.3,65.1 M154.3,65c-0.1,0.1-0.3,0.2-0.5,0.2
			c-0.3,0-0.5-0.1-0.6-0.2c-0.2-0.2-0.2-0.5-0.3-1.2c0-0.7,0-1,0.1-1.3c0.1-0.1,0.3-0.3,0.6-0.3c0.2,0,0.4,0,0.5,0.2
			c0.2,0.1,0.2,0.3,0.3,0.6h-0.2c-0.1,0-0.2-0.1-0.2-0.2v-0.1c0-0.1-0.1-0.1-0.2-0.1s-0.2,0-0.2,0.1c-0.1,0.1-0.1,0.4-0.1,1
			c0,0.5,0.1,0.8,0.2,1c0,0.1,0.1,0.1,0.2,0.1s0.2-0.1,0.2-0.1c0-0.1,0.1-0.2,0.1-0.3h0.5C154.5,64.7,154.4,64.9,154.3,65
			 M155.2,65.1c-0.1,0-0.2-0.1-0.2-0.2l-0.2-2.5c0-0.1,0.1-0.2,0.2-0.2l0,0c0.1,0,0.2,0.1,0.2,0.2l0.2,2.5
			C155.5,65,155.4,65.1,155.2,65.1L155.2,65.1z M156.2,65c-0.1,0-0.2-0.1-0.2-0.2l-0.3-2.5c0-0.1,0.1-0.2,0.2-0.2l0.8-0.1
			c0.1,0,0.2,0.1,0.2,0.2s-0.1,0.2-0.2,0.2h-0.3c-0.1,0-0.2,0.1-0.2,0.2l0.1,0.4c0,0.1,0.1,0.2,0.2,0.2h0.2c0.1,0,0.2,0.1,0.2,0.2
			s-0.1,0.2-0.2,0.2h-0.2c-0.1,0-0.2,0.1-0.2,0.2l0.1,0.4c0,0.1,0.1,0.2,0.2,0.2h0.3c0.1,0,0.2,0.1,0.2,0.2s-0.1,0.2-0.2,0.2
			L156.2,65z M159,64.5c-0.1,0-0.2,0-0.3-0.1l-0.8-1.2c-0.1-0.1-0.1-0.1-0.1,0l0.3,1.3c0,0.1-0.1,0.2-0.2,0.3l0,0
			c-0.1,0-0.2-0.1-0.2-0.2l-0.5-2.4c0-0.1,0.1-0.2,0.2-0.2s0.3,0,0.3,0.1l0.8,1.2c0.1,0.1,0.1,0.1,0.1,0l-0.3-1.3
			c0-0.1,0.1-0.2,0.2-0.2l0,0c0.1,0,0.2,0.1,0.2,0.2l0.5,2.4C159.2,64.4,159.2,64.5,159,64.5 M161,63.9c-0.1,0.2-0.2,0.3-0.4,0.3
			c-0.3,0.1-0.5,0-0.6-0.1c-0.2-0.2-0.3-0.5-0.5-1.1c-0.2-0.7-0.2-1-0.1-1.3c0.1-0.2,0.2-0.3,0.5-0.4c0.2-0.1,0.4,0,0.5,0
			c0.2,0.1,0.3,0.3,0.4,0.5l-0.2,0.1c-0.1,0-0.2,0-0.3-0.1c0,0,0,0-0.1-0.1s-0.1-0.1-0.2,0c-0.1,0-0.2,0.1-0.2,0.2
			c0,0.2,0,0.4,0.1,1c0.1,0.5,0.2,0.8,0.3,0.9s0.1,0.1,0.2,0c0.1,0,0.2-0.1,0.2-0.2s0-0.2,0-0.3l0.4-0.1
			C161.1,63.5,161.1,63.7,161,63.9 M161.9,63.8c-0.1,0-0.2,0-0.3-0.1l-0.8-2.4c0-0.1,0-0.2,0.1-0.3l0.8-0.2c0.1,0,0.2,0,0.3,0.1
			c0,0.1,0,0.2-0.1,0.3l-0.3,0.1c-0.1,0-0.2,0.2-0.1,0.3l0.1,0.4c0,0.1,0.2,0.2,0.3,0.1l0.2-0.1c0.1,0,0.2,0,0.3,0.1
			c0,0.1,0,0.2-0.1,0.3l-0.2,0.1c-0.1,0-0.2,0.2-0.1,0.3l0.1,0.4c0,0.1,0.2,0.2,0.3,0.1l0.3-0.1c0.1,0,0.2,0,0.3,0.1
			c0,0.1,0,0.2-0.1,0.3L161.9,63.8z M164.4,62.7c-0.1,0.1-0.2,0.3-0.5,0.4c-0.2,0.1-0.4,0.1-0.6,0s-0.3-0.2-0.4-0.5l0.2-0.1
			c0.1,0,0.2,0,0.3,0.1c0,0,0,0,0.1,0.1c0.1,0,0.1,0,0.2,0s0.2-0.1,0.2-0.2s0-0.2,0-0.3c-0.1-0.3-0.2-0.3-0.4-0.3h-0.2
			c-0.1,0-0.3,0-0.4-0.1c0,0-0.3-0.1-0.4-0.5c-0.1-0.2-0.1-0.5,0-0.7s0.2-0.3,0.4-0.3c0.2-0.1,0.4-0.1,0.5,0
			c0.2,0.1,0.3,0.3,0.4,0.5l-0.2,0.1c-0.1,0-0.2,0-0.3-0.1c0,0,0,0-0.1-0.1c-0.1,0-0.1,0-0.2,0s-0.1,0.1-0.2,0.1c0,0.1,0,0.2,0,0.3
			c0.1,0.2,0.1,0.3,0.4,0.3h0.2c0.1,0,0.3,0,0.4,0.1c0,0,0.3,0.1,0.5,0.5C164.5,62.3,164.5,62.5,164.4,62.7 M166,62.2
			c-0.1,0.1-0.2,0-0.3-0.1l-1.1-2.2c-0.1-0.1,0-0.2,0.1-0.3l0.7-0.3c0.1,0,0.2,0,0.3,0.1s0,0.2-0.1,0.3l-0.3,0.2
			c-0.1,0-0.1,0.2-0.1,0.3l0.2,0.4c0.1,0.1,0.2,0.1,0.3,0.1l0.2-0.1c0.1,0,0.2,0,0.3,0.1s0,0.2-0.1,0.3l-0.2,0.1
			c-0.1,0.1-0.1,0.2-0.1,0.3l0.2,0.4c0,0.1,0.2,0.1,0.3,0.1l0.3-0.1c0.1-0.1,0.2,0,0.3,0.1s0,0.2-0.1,0.3L166,62.2z M167,58.8
			c-0.1,0.1-0.1,0.2-0.1,0.3l1,1.8c0.1,0.1,0,0.2-0.1,0.3l0,0c-0.1,0.1-0.2,0-0.3-0.1l-1-1.8c-0.1-0.1-0.2-0.1-0.3-0.1h-0.1
			c-0.1,0.1-0.2,0-0.3-0.1s0-0.2,0.1-0.3l0.9-0.5c0.1-0.1,0.2,0,0.3,0.1C167.2,58.6,167.2,58.7,167,58.8L167,58.8z M169.6,60.2
			c-0.1,0.1-0.2,0-0.3-0.1L168,58c-0.1-0.1,0-0.2,0.1-0.3l0,0c0.1-0.1,0.2,0,0.3,0.1l1.1,1.8c0.1,0.1,0.2,0.1,0.3,0.1l0.3-0.2
			c0.1-0.1,0.2,0,0.3,0.1s0,0.2-0.1,0.3L169.6,60.2z M171.8,58.7c-0.1,0.1-0.2,0-0.3,0l-0.1-0.1c-0.1-0.1-0.2-0.1-0.3,0l-0.2,0.1
			c-0.1,0.1-0.1,0.2-0.1,0.3l0.1,0.2c0,0.1,0,0.2-0.1,0.3l0,0c-0.1,0.1-0.2,0-0.2-0.1l-0.9-2.4c0-0.1,0-0.3,0.1-0.3l0,0
			c0.1-0.1,0.2-0.1,0.3,0l1.9,1.7C172,58.5,172,58.6,171.8,58.7L171.8,58.7z M170.2,57.4C170.1,57.3,170.1,57.3,170.2,57.4l0.2,0.8
			c0,0.1,0.2,0.1,0.3,0.1h0.1c0.1-0.1,0.1-0.2,0-0.3L170.2,57.4z M173.4,57.6c-0.2,0.2-0.4,0.2-0.6,0.1c-0.3-0.1-0.5-0.3-0.9-0.9
			s-0.6-0.8-0.5-1.1c0-0.2,0.1-0.4,0.3-0.5s0.4-0.2,0.5-0.1c0.2,0,0.4,0.2,0.5,0.4l-0.2,0.1c-0.1,0.1-0.2,0.1-0.3,0
			c0,0-0.1-0.1-0.3,0c-0.1,0.1-0.1,0.1-0.1,0.2c0,0.2,0.2,0.4,0.5,0.8s0.5,0.7,0.6,0.7s0.1,0,0.2,0c0.2-0.1,0.1-0.3,0-0.5l-0.1-0.2
			c-0.1-0.1-0.2-0.1-0.2-0.1c-0.1,0-0.2,0-0.2-0.1c-0.1-0.1,0-0.2,0.1-0.3l0.3-0.2c0.1-0.1,0.2,0,0.3,0l0.3,0.5
			C173.9,57,173.8,57.4,173.4,57.6 M174.5,56.8c-0.1,0.1-0.2,0-0.3,0l-1.5-2c-0.1-0.1-0.1-0.2,0-0.3l0,0c0.1-0.1,0.2,0,0.3,0
			l1.2,1.7c0.1,0.1,0.2,0.1,0.3,0l0.3-0.2c0.1-0.1,0.2-0.1,0.3,0s0,0.2,0,0.3L174.5,56.8z M176.3,55.2c0,0.2-0.1,0.4-0.3,0.5
			c-0.2,0.2-0.4,0.2-0.6,0.1c-0.3-0.1-0.5-0.3-0.9-0.9c-0.4-0.5-0.6-0.8-0.6-1.1c0-0.2,0.1-0.4,0.3-0.5c0.2-0.2,0.4-0.2,0.6-0.1
			c0.3,0.1,0.5,0.3,0.9,0.9C176.2,54.6,176.4,54.9,176.3,55.2 M174.7,53.6c-0.1,0-0.2,0-0.2,0c-0.1,0.1-0.1,0.1-0.1,0.2
			c0,0.2,0.2,0.4,0.5,0.8s0.5,0.6,0.7,0.7c0.1,0,0.2,0,0.2,0c0.1-0.1,0.1-0.1,0.1-0.2c0-0.2-0.2-0.4-0.5-0.8
			C175.1,53.9,174.9,53.7,174.7,53.6 M177.2,54.8c-0.1,0.1-0.2,0-0.3,0l-1.5-2c-0.1-0.1-0.1-0.2,0-0.3l0,0c0.1-0.1,0.2,0,0.3,0
			l1.5,2C177.3,54.6,177.3,54.7,177.2,54.8L177.2,54.8z M178.9,53.5c-0.1,0.1-0.2,0.1-0.3,0l-0.7-0.5c-0.1-0.1-0.2-0.1-0.3,0
			c-0.1,0,0,0.2,0,0.2l0.5,0.6c0.1,0.1,0.1,0.2,0,0.3l0,0c-0.1,0.1-0.2,0.1-0.3,0l-1.5-2c-0.1-0.1-0.1-0.2,0-0.3l0.2-0.2
			c0.1-0.1,0.3-0.2,0.4-0.2c0,0,0.5-0.2,0.9,0.3c0.2,0.3,0.3,0.5,0.2,0.8l0.9,0.6C179,53.3,179,53.4,178.9,53.5L178.9,53.5z
			 M176.9,51.9L176.9,51.9c-0.1,0.1-0.2,0.2-0.1,0.3l0.3,0.4c0.1,0.1,0.2,0.1,0.2,0.1c0.1,0,0.1-0.2,0.2-0.3c0,0,0-0.1-0.1-0.3
			C177.2,51.9,177.1,51.7,176.9,51.9 M179.5,53.1c-0.1,0.1-0.2,0-0.3,0l-1.4-2c-0.1-0.1,0-0.2,0-0.3l0.7-0.5c0.1-0.1,0.2,0,0.3,0
			c0.1,0.1,0,0.2-0.1,0.3l-0.3,0.2c-0.1,0.1-0.1,0.2,0,0.3l0.2,0.3c0.1,0.1,0.2,0.1,0.3,0l0.2-0.1c0.1-0.1,0.2,0,0.3,0
			c0.1,0.1,0,0.2,0,0.3l-0.2,0.1c-0.1,0.1-0.1,0.2,0,0.3l0.2,0.3c0.1,0.1,0.2,0.1,0.3,0l0.3-0.2c0.1-0.1,0.2,0,0.3,0
			c0.1,0.1,0,0.2,0,0.3L179.5,53.1z M186.5,20.1c-0.3,0.2-7.7,4.7-9.4,6.2s-5.8,5.8-6.5,6.7c-0.1,0.1-0.2,0.3-0.4,0.4
			c-0.5-0.8,1.2-2.3,1.2-2.5c-0.2,0-0.8,0.8-1,1c-0.1,0.1-0.2,0.3-0.3,0.3c-0.3-0.4,0-0.8,0.2-1s1-1.3,1.2-1.5
			c-0.5,0.4-0.9,0.9-1.3,1.3c-0.1,0.1-0.2,0.3-0.3,0.3c-0.2,0-0.2-0.5-0.1-0.7c0.1-0.1,1.5-1.7,1.7-1.9c-0.4,0.3-0.9,0.8-1.3,1.2
			c-0.1,0.1-0.3,0.4-0.4,0.4c-0.2-0.1-0.1-0.4,0-0.5c5.2-5.2,16.5-10,17-10C186.9,19.8,186.8,20,186.5,20.1 M151.3,25.8
			c-0.4,0.1-3.8,0.5-4.6,0.6c-0.2-0.2-0.2-0.7-0.6-0.8c-0.1,0-0.3,0-0.5,0c-1,0.1-1.9,0.2-2.7,0.3c-0.2,0-0.3,0-0.5,0.1l0,0
			c0,0-0.2-0.2-0.2-0.4c0-0.1-1-1.5-1.4-2.1c-0.2-0.3-0.5-0.6-0.6-1c-0.1-0.2,0-0.5,0-0.7s-0.3-0.4-0.4-0.5c-0.2-0.1-0.4,0-0.5-0.2
			c-0.1-0.1-0.1-0.4-0.2-0.5c-0.2-0.6-0.5-1-0.7-1.5c-0.1-0.2-0.9-1.6-1.2-1.7c-0.1-0.1-0.4,0-0.6,0c-0.3-0.1-0.4-0.7-0.8-0.7
			c-0.3,0-1.1,0.7-1.3,0.8c-1.1,0.8-3.2,2.3-3.3,2.6s0.2,0.6,0.2,0.6s0.4,0.3,0.5,0.5c0,0.2,0,0.3,0,0.5s1.2,2,2.2,2.7
			c0.2,0.1,0.5,0.2,0.5,0.3c0,0.2-0.2,0.4-0.1,0.6c0.1,0.4,0.6,0.5,0.9,0.8s0.5,0.8,0.8,1.2s0.4,0.6,0.7,1c0,0-0.6,1.2-1.7,0.3
			c-6.4-5.3-18.6-10.4-19.8-10.9c-0.4-0.2-0.6-0.3-0.7-0.3c0,0.1,1.2,1.9,1.9,3.3c0.2,0.5,1.8,3.2,1.9,3.5c-0.5,0-1.1-0.6-1.2-0.6
			c-0.1,0.1,0.1,0.6,0.2,1.1c0.2,0.5,1.1,3.8,2.8,6.3c0.2,0.3,0.3,0.5,0.2,0.6c-0.2,0.2-1.3-0.6-1.4-0.5c0,0-0.1,0.1,0,0.4
			c0.1,0.4,0.9,2,3.4,5.7c-0.1,0.1-0.4,0-0.6,0.2s0.2,0.5,0.4,0.8s1.5,2,1.6,2.2s1.8,1.9,2.6,2.5s2.7,1.6,3.2,1.8
			c0.6,0.3,2.4,0.8,2.9,0.9c0.5,0.1,0.9,0.1,1.1,0.2c0.2,0.1,0.6,0.4,0.9,0.6c2.7,1.4,4.5,1.5,6.2,1.2c0.9-0.1,1.4-0.2,1.8,0
			s1.5,1.2,1.7,1.4c0,0-0.6,1.3-0.9,1.8c-0.5,1-2.7,4.6-2.9,4.9s-0.5,1-0.8,0.9c-0.1,0-3.5-1.9-4.1-2.4c-0.7-0.5-5.7-4.2-6.6-4.9
			c-0.6-0.5-3.4-2.2-6.1,1.4c-2,3.3-2.3,6.6,1.8,9.8c0.5,0.4,1.6,2.1,1.2,3.8c0,0.2-0.2,0.4-0.1,0.6c0.1,0.2,3.4-2.6,3.7-6
			c1.7,1.4,3.5,2.7,5.4,3.8c-0.2,0.3-0.5,0.7-0.7,1s-0.5,0.7-0.7,0.8s-0.8,0.1-0.9,0.4c-0.1,0.3,0.1,0.6,0,1c0,0.2-0.3,0.5-0.4,0.7
			c-0.2,0.3-0.3,0.5-0.5,0.6s-0.3,0.1-0.6,0.2c-0.1,0-0.2,0.1-0.4,0.2c-0.1,0.1-0.3,0.1-0.4,0.1c-0.4,0.2-0.4,0.6-0.2,1
			c0.1,0.2,0.2,0.3,0.2,0.4c0.2,0.3,0.4,0.4,0.5,0.6c0.2,0.4,1.9,2.7,1.5,3.4c-0.1,0.3-0.4,0.3-0.8,0.3s-0.6-0.3-0.8-0.4
			c0.2-0.4,0.7-1.3,0.6-1.6s-0.3-0.3-0.6-0.6c-0.4-0.3-4.8-4.5-5.1-5s-1.5-2-1.9-2.5s-1.6-2.6-1.8-2.6s-0.6,0.7-0.6,0.8
			s-0.2,0.6-0.3,0.7c-0.5,1.7-1.5,5.9-0.7,11.8c0.9,6.6,4.3,11.6,5.6,13.1c0.1,0.2,0.3,0.4,0.5,0.3c0.7-0.2,1.8-1.3,2.2-1.7
			c0.2-0.1,0.3,0,0.3,0l0.1,0.1c1.9,1.9,4.6,4,8.2,5.5c1.1,0.4,2.1,0.8,3.1,1.2c5.9,2.3,9.8,3.6,12.1,10.7c0.1,0.4,0.1,0.4,0.2,0.4
			s0.2-0.3,0.2-0.4c2.2-7.3,6-8.6,12.1-11c1-0.4,2-0.8,3.1-1.2c3.6-1.5,6.3-3.5,8.2-5.5c0.4,0.4,1.5,1.5,2.2,1.7
			c0.2,0.1,0.3,0,0.4-0.2c1.3-1.5,4.8-6.2,5.8-13.2c0.8-5.8-0.1-10.1-0.7-11.8c-0.1-0.3-0.5-1.5-0.7-1.5c-0.3,0-0.5,0.2-0.7,0.6
			c-0.2,0.2-0.4,0.5-0.6,0.8c-2.9,4.7-8.4,8.8-8.6,9.3c-0.2,0.4,0.3,1,0.5,1.5c-0.2,0.1-0.5,0.3-0.8,0.4s-0.9-0.5-0.9-0.7
			c0-0.4,0.4-0.7,0.6-1c0.4-0.4,0.6-0.8,0.8-1.4c0.1-0.3,0.5-1.1,0.6-1.2s0.5-0.9,0.4-1c0-0.2-0.2-0.5-0.4-0.5
			c-0.2-0.1-1-0.3-1.2-0.4c-0.3-0.1-1-1.1-1.1-1.4c0-0.3,0.2-0.7,0-1c-0.1-0.2-0.6-0.2-0.9-0.3c-0.2-0.1-1-1.3-1.2-1.6
			c3.4-2,5.1-3.6,5.6-3.9l0,0c0.2,3,3.6,6.2,3.7,6c0.1-0.1-0.1-0.4-0.2-0.8c-0.1-0.4,0-2.3,1.2-3.5c4.1-3.2,3.7-6.5,1.8-9.8
			c-2.2-2.9-4.4-2.4-5.5-1.8c-1,0.5-4.4,3.3-5.2,3.9c-1.3,1-4.8,3.3-5.7,3.6c-0.1,0-0.6,0-0.7-0.2c-0.5-0.5-2.2-2.9-3-4.5
			c-0.6-1.2-1.4-2.6-1.1-3c0.1-0.2,1.6-1.2,2.1-1.3c0.4-0.1,1.3,0.2,2.2,0.3c1,0.1,4.2-0.7,5.1-1.4s0.7-0.5,0.8-0.5
			c0.1-0.1,0.8-0.1,1.2-0.2c5.1-0.8,9.2-5.5,9.9-6.6s0.9-1.4,0.8-1.7s-0.4-0.1-0.6-0.2c0.6-1,1.7-2.3,2-2.8c0.2-0.5,1-1.5,1.3-2.3
			c0.2-0.5,0.3-0.8,0.2-1c-0.2-0.2-1.2,0.7-1.4,0.4c-0.2-0.2,0.6-0.9,2.1-4c1.3-2.6,1.2-3.7,1.1-3.9s-1,0.4-1.2,0.5
			c0.6-1.2,1.3-2.3,1.9-3.4c0.7-1.4,1.9-3.3,1.9-3.3c0-0.1-0.2,0.1-0.7,0.3c-1.2,0.6-13.4,5.6-19.8,10.9c-0.3,0.2-0.9,0.4-1.4,0
			c0.4-0.6,0.7-0.9,0.8-1.1c0.1-0.2,0.5-0.9,0.9-1.2c0.3-0.3,0.8-0.3,0.9-0.8c0-0.2-0.2-0.4-0.1-0.6c0-0.2,0.3-0.2,0.5-0.3
			s0.8-0.6,0.9-0.8c0.2-0.2,1.2-1.3,1.3-1.9c0-0.2,0-0.3,0-0.5c0.1-0.2,0.3-0.3,0.5-0.5c0.1-0.1,0.2-0.4,0.2-0.6
			c0-0.2-0.4-0.3-0.6-0.5c-1.1-0.8-3.2-2.3-3.4-2.5c-0.2-0.1-0.4-0.4-0.7-0.4c-0.4,0-0.4,0.6-0.8,0.7c-0.2,0.1-0.5,0-0.6,0
			c-0.3,0.1-0.8,1.1-1,1.3c-0.2,0.3-0.9,1.5-0.9,1.8c-0.1,0.3-0.1,0.4-0.2,0.5s-0.4,0.1-0.5,0.2c-0.1,0.1-0.3,0.3-0.4,0.5
			c0,0.2,0,0.5,0,0.7c-0.1,0.3-0.5,0.8-0.7,1.1s-1.2,1.8-1.3,2s-0.3,0.5-0.3,0.5c-0.6-0.1-1.2-0.3-1.7-0.3s-1.9-0.2-1.9-0.2
			c-0.6-0.1-0.7,0.4-0.9,0.7c-1.3-0.2-2.4-0.3-3.5-0.4c-0.2,0-0.3-0.4-0.3-0.6c0-0.2,0-3.6,0-4.2c0-0.1,0.1,0,0.1,0
			c3.1,4.3,6.2,4.2,7.1,3.7c0.6-0.7,1.9-2.9,2.6-5.1c0.4-1.4,0.6-3,0.6-4.3c-0.1-1.7-0.7-7.9-7.3-10.5c-6.5-2.6-11.9,0.4-13.1,1
			c-0.4,0.2-0.7,0.4-0.7,0.5c-0.1,0.2,0.3,0.6,0.4,0.6c0.2,0.1,0.4,0,0.7,0c0.2,0,1.1,0.7,1.4,1.4s0.7,1.8,0.6,2.3
			c-0.1,0.4-1.2,0.9-2.1,2.9c-0.7-0.7-1.2,1-1.4,1.5c-0.2,0.4-0.7,2.7-0.6,3c0.1,0.4,0.1,0.4,0.3,0.6c-0.4,1-1.1,2.2-1.2,2.6
			c-0.1,0.4-0.6,1.1-0.7,2.2c0.9,0.4,4.2,0.9,9.9-1.3c0,0.9,0,3.3,0,3.3C151.3,25.7,151.3,25.7,151.3,25.8 M153.8,21.3
			c0-0.1-0.1-0.3-0.2-0.3s-0.2,0.1-0.2,0.3v10.9c0,0.1,0.1,0.3,0.2,0.3s0.2-0.1,0.2-0.3V21.3z M153,21.7c0-0.1-0.1-0.2-0.3-0.1
			c-0.2,0.1-1,0.5-1,0.7v10c0,0.1,0.1,0.2,0.3,0.3c0.2,0,0.7,0.1,0.8,0c0.1,0,0.2-0.1,0.2-0.3V21.7z M152.3,88.6
			c0-0.2-0.3-18.4-0.3-18.4c0-0.1-0.1-1.7-0.2-2s-0.5-0.3-0.8-0.3c-2,0-3.3-0.3-4.2-0.5c-0.3-0.1-0.2,0.5,0,0.5c0.6,0,1.5,0.2,2,0.3
			c-0.1,0.1-0.1,0.2-0.1,0.3c-0.4,0-2.3-0.5-2,0.3c0.2,0.5,1.5,0.4,1.9,0.6c0,0,0,0.1,0,0.2c-0.5,0-1.3-0.1-1.8-0.2
			c-0.2,0.1-0.2,0.3-0.2,0.6c0.1,0,1.8,0.2,1.8,0.5c-0.5,0.1-1.4-0.1-1.8,0c0,0.1,0,0.3,0,0.5c0.2,0.2,1.7,0.2,1.7,0.4
			c-0.4,0.2-1.3,0-1.7,0.1c0,0.2,0,0.4,0,0.6c0.2,0.1,1.6,0.1,1.5,0.3c-0.2,0.1-1.3,0.1-1.6,0.1c0,0.3,0,0.5,0,0.7
			c0.2,0.1,1.5,0,1.5,0.3c-0.2,0.1-1.3,0-1.5,0c0,0.2-0.1,0.4-0.1,0.7c0.3-0.1,1.5,0,1.5,0.3c-0.1,0.1-1.3,0.1-1.6,0
			c0,0.2-0.1,0.4-0.1,0.6c0.1,0.2,1.6,0,1.6,0.2s-1.6,0.1-1.7,0.1c0,0.2-0.1,0.4-0.1,0.7c0.3,0,1.7,0.1,1.6,0.3
			c-0.3,0.1-1.3-0.1-1.7,0c-0.1,0.2-0.2,0.4-0.3,0.6c0.4,0.1,1.4,0.2,1.8,0.3c0,0.2-0.2,0.1-0.3,0.1s-1.3-0.2-1.6-0.2
			c-0.1,0.2-0.2,0.4-0.3,0.6c0.2,0.1,2,0.3,1.9,0.5c-0.6,0.1-1.5-0.2-2.1-0.2c-0.1,0.3-0.3,0.4-0.4,0.6c0.5,0.1,1.5,0.3,2,0.5v0.1
			c-0.7,0-1.6-0.3-2.2-0.3c0,0.1-0.4,0.4-0.4,0.5c0,0.2,2.3,0.4,2.4,0.6c0,0.2-2.4-0.3-2.6-0.2c-0.2,0.2-0.4,0.3-0.6,0.5
			c0.4,0.2,2.7,0.6,3,0.6v0.3c-0.3,0-2.5-0.4-3.3-0.6c-0.2,0.2-0.4,0.3-0.6,0.5c0.2,0.1,3.5,0.6,3.9,0.8v0.1
			c-1.5-0.1-2.9-0.3-4.2-0.7c-0.4,0.1-1,0.1-1.4,0.2c1.5,0.4,3,0.8,4.5,1.1c-0.1,0-0.1,0.1-0.1,0.2c-0.4-0.1-4.2-0.9-4.5-1
			c-0.1,0-0.2-0.1-0.4-0.2c-0.3-0.1-3.3,0.2-7.6-3c-3.8-2.9-7.5-7.7-8.2-8.6c-0.2-0.2-0.3-0.5-0.5-0.6c0,0.6,0.1,0.8,0.3,1.2
			c0.2,0.5,3.9,7.1,5.8,9.2c1.5,1.7,3.8,3.9,6.3,5.4c2.2,1.3,6.2,2.9,8.7,3.3c1.9,0.3,6.4,0.5,6.7,0.5
			C152.2,89.2,152.3,88.8,152.3,88.6 M128.7,58.7c-1.6-1.7-4.2-3.8-4.5-3.6c-0.2,0.2,0.5,0.6,0.7,0.7c0.1,0.1,3.1,2.8,3.3,3
			c0.3,0.3,0.5,0.7,0.6,0.9C129,59.9,129.4,59.4,128.7,58.7 M122.9,58.2c-0.2,0.2,0.5,0.6,0.6,0.7c0,0,2.9,2.5,3.1,4.4
			c0,0.2,0,0.5,0.2,0.4c0.1-0.1,0.3,0,0.2-0.5c-0.1-0.7-0.5-1.7-0.9-2.2C125.8,60.8,123.1,57.9,122.9,58.2 M122.4,56.8
			c-0.1,0.2,0.5,0.6,0.6,0.7c0,0,4,3,4.3,4.9c0,0.2,0.1,0.5,0.2,0.4c0.1,0,0.3,0,0.2-0.5c-0.1-0.7-0.7-1.6-1.3-2.2
			C125.8,59.5,122.6,56.5,122.4,56.8 M122.3,55.6c-0.3,0.1,0.6,0.8,0.7,0.9c0.3,0.2,4.5,3.8,4.9,5c0.1,0.2,0.1,0.4,0.2,0.4
			s0.3,0,0.2-0.5c-0.2-0.6-0.6-1.1-1.6-2.2C125.6,58.1,122.7,55.4,122.3,55.6 M122.8,54.8c-0.3,0.1,0.6,0.8,0.7,0.9
			c0.3,0.2,4.2,3.5,5,4.7c0.1,0.2,0.1,0.4,0.2,0.3c0.2,0,0.2-0.1,0.1-0.5c-0.1-0.3-0.7-1-1.8-2C126.1,57.3,123.2,54.7,122.8,54.8
			 M176.6,59.3c0.1-0.2,0.4-0.6,0.6-0.9c0.2-0.2,3.1-2.9,3.3-3c0.1-0.1,0.8-0.5,0.7-0.7c-0.2-0.2-2.9,2-4.5,3.6
			C176,59,176.3,59.6,176.6,59.3 M179.3,60.8c-0.5,0.5-0.8,1.6-0.9,2.2c-0.1,0.5,0.1,0.4,0.2,0.5s0.1-0.3,0.2-0.4
			c0.2-1.9,3.1-4.4,3.1-4.4c0.1-0.1,0.7-0.6,0.6-0.7C182.3,57.6,179.6,60.5,179.3,60.8 M179,59.9c-0.6,0.6-1.2,1.5-1.3,2.2
			c-0.1,0.5,0.1,0.5,0.2,0.5s0.2-0.3,0.2-0.4c0.4-1.9,4.3-4.9,4.3-4.9c0.1-0.1,0.8-0.5,0.6-0.7C182.8,56.2,179.6,59.2,179,59.9
			 M178.7,58.9c-1.1,1-1.4,1.5-1.6,2.2c-0.1,0.5,0.1,0.5,0.2,0.5s0.2-0.2,0.2-0.4c0.3-1.2,4.5-4.7,4.9-5c0.2-0.1,1-0.8,0.7-0.9
			C182.6,55.1,179.8,57.8,178.7,58.9 M178.3,58c-1.1,1-1.7,1.7-1.7,2c-0.1,0.3,0,0.4,0.1,0.5c0.2,0,0.1-0.1,0.2-0.3
			c0.7-1.2,4.6-4.4,5-4.7c0.2-0.1,1-0.8,0.7-0.9C182.1,54.4,179.3,57,178.3,58 M152.8,68.2v-0.3 M133.3,66.4
			c2.2,1.6,6.7,4.7,8.9,6.3c0,0.1-0.1,0.4-0.2,0.4c-0.1,0.1-3.4-2.3-3.4-2.3l-0.2,0.3c0,0,2.5,1.7,3.4,2.4c0.1,0.1-0.3,0.4-0.3,0.4
			c-2.2-1.6-6.7-4.8-8.9-6.4C132.7,67.1,133.1,66.8,133.3,66.4 M133.5,65.3c0.5-0.1,8.8,6,9.4,6.5c0.2,0.1,0.4,0.3,0.3,0.6
			c-0.3,0-0.5-0.2-0.6-0.4c-0.2-0.1-8.5-6.2-8.8-6.5C133.6,65.5,133.4,65.5,133.5,65.3 M131.5,67.9
			C131.6,67.9,131.6,67.9,131.5,67.9L131.5,67.9c1.7,1.1,8.6,6.2,9.3,6.7c0.2,0.1,0.5,0.3,0.4,0.6c-0.1,0.1-0.2-0.1-0.3-0.1
			C140.2,74.5,133.9,69.8,131.5,67.9L131.5,67.9z M131.4,68.9c-0.3-0.2-0.9-0.5-0.4-0.7c3.3,2.4,6.6,4.9,9.9,7.3
			c0.1,0.1,0.2,0.1,0.2,0.3c-0.2,0.2-0.5-0.1-0.7-0.2C138.1,73.8,132.1,69.4,131.4,68.9 M133.6,67.8c-0.1-0.1-0.1-0.3,0-0.4
			c0.2-0.2,1.4,0.8,1.6,1.2C134.6,68.7,133.9,68.1,133.6,67.8 M152.2,34.8c0-0.3,0.2-0.6,0.2-0.6c-2.7-0.1-4.9-2.1-4.9-4.6
			c0-1.1,0.4-2.1,1.1-2.8c-0.6-0.1-1.6,0.1-1.8,0.1c-0.3,0.1-0.4,0.3-0.4,0.4c-0.1,0.8-0.2,2.3,0,4.3s1.1,4.3,1.6,5.5
			c0,0,0,0.1,0,0.2c0,0.1-2.4,2-2.8,2c-0.3-0.1-1.7-1.3-1.8-1.4c-0.1,0-0.2,0.1-0.3,0.1c-0.5,0.1-0.9,0-1.2,0.1
			c-0.2,0-0.5,0-0.6,0.2c0.7,2.4,1.8,4.8,3,6.8c0.2,0.3,0.4,0.7,0.6,0.8c0.3,0.2,0.8,0.5,2.3,0.4c1.3-0.1,2.8,0,3.9-0.1l0,0v-0.4
			h1.6V35.3C152.6,35.3,152.2,35.1,152.2,34.8 M153.5,34.9c0,0,0.2,0.2,1.2,0.1l-0.1,0.2h-1.3c0,0-0.4,0.1-0.4,0.4
			c0,0.4,0.4,0.3,0.4,0.3h1.3l-0.1,0.3h-1.2c0,0-0.4-0.1-0.4,0.3c0,0.3,0.1,0.5,0.3,0.5h1.4l-0.1,0.3h-1.3c-0.1,0-0.3,0.1-0.3,0.3
			s0.1,0.4,0.3,0.4h1.4l-0.1,0.2h-1.2c-0.2,0-0.3,0.1-0.3,0.3s0.1,0.5,0.4,0.5h1.3l-0.1,0.2h-1.2c-0.2,0-0.4,0.2-0.4,0.4
			s-0.1,0.4,0.4,0.4h1.3l-0.1,0.2h-1.2c-0.2,0-0.3,0-0.3,0.3s0.2,0.4,0.4,0.4h1.1l-0.1,0.2h-1c-0.2,0-0.4-0.1-0.4,0.4
			c0,0.4,0.1,0.4,0.4,0.4h1l0.1,0.3h-1.1c-0.2,0-0.4,0-0.4,0.4s0.2,0.4,0.4,0.4h1.1l0.1,0.3h-1.2c-0.2,0-0.4,0-0.4,0.4
			s0.1,0.4,0.4,0.4h1.1l0.1,0.3c0,0-0.9,0-1.1,0s-0.5,0.2-0.5,0.4s0.3,0.3,0.4,0.3h1.3l0.1,0.3h-1.8v0.2h1.5V46
			c1.6,0.1,3.4-0.1,5-0.1c0.4,0,1.2,0.1,1.2-0.3c0-0.2-0.6-0.2-0.8-0.2c-0.9-0.1-1.6,0-2.4-0.1c0-0.1,0-0.2,0-0.3
			c0.7,0,2.8-0.1,2.9-0.1c0.4,0,0.7,0,0.6-0.4c-0.7-0.1-1.5-0.1-2.2-0.2c0-0.1,0-0.2,0-0.2c0.5,0,1.1,0,1.6,0s1.3,0.1,1-0.5
			c-0.6-0.1-1.4-0.1-2-0.2c0-0.1,0-0.2,0-0.3c0.4,0,1.1-0.1,1.6,0c0.4,0,1.1,0.2,0.9-0.4c-0.6-0.2-1.4-0.1-2-0.3
			c0-0.1,0.1-0.1,0.2-0.3c0.3,0,2.6,0.1,2.5-0.4c0,0-0.1-0.1,0-0.1c-1.1-0.3-2.5-0.1-3.7-0.4v0.1c0,0,3.7,0,3.8,0s0.3-0.2,0.3-0.3
			c-0.1-0.1-0.8-0.2-0.9-0.3c-0.7-0.2-1.6-0.1-2.3-0.2c0-0.1,0-0.2,0.1-0.2c0.9,0,2.1,0.1,3,0c0.3,0,0.7,0,0.7-0.3
			c0-0.2-1-0.3-1.2-0.4c-0.7-0.1-1.3-0.2-2.1-0.1c-0.3,0-2.7-1.9-2.8-2.2s0.5-1.4,0.5-1.4c0.2-0.4,0.3-0.9,0.4-1.1
			c0-0.1,0.1-0.2,0.1-0.3c0.2-0.6,0.6-2,0.6-2.8c0.1-2,0.1-3.4,0-4.1c-0.1-0.6-0.5-0.7-1.3-0.8s-0.4,0.4-0.4,0.4
			c0.5,0.7,0.8,1.6,0.8,2.5c0,2.3-1.9,4.2-4.4,4.6c0,0-0.2,0-0.1,0.2C153.5,34.6,153.5,34.9,153.5,34.9 M172.6,35.9
			c0,0.1-0.7,1.2,0.7,0.3c1.4-0.8,2.4-1,2.4-1c-1.3,1.2-4,2.1-4,2.1l-1.3,1.9c0.6,0,5-2.1,5.7-2.8s2.6-4.3,3-5.1
			c0.3-0.8,0-0.9-0.3-0.6c-0.3,0.2-1.4,1.1-2,1.6c-0.6,0.6-3.2,2.1-3.2,2.1C173.4,34.7,172.6,35.9,172.6,35.9 M126.1,28.7
			c-0.4-0.8-1.4-3.7-1.3-3.8c0.2-0.1,0.6,0,0.7,0.2c0.3,0.3,0.4,0.9,0.6,1.2c0-0.1,0-0.4,0.2-0.4c0.7,0,0.7,1.5,1.5,1.8
			c0-0.1-0.2-0.3-0.1-0.5c0.3,0,0.5,0.2,0.7,0.4c0.3,0.3,1.4,2.2,1.4,2.5c-0.5,0.1-2.7-1.9-2.9-2c0.1,0.3,2.9,2.8,3.3,3.1
			c0.2,0.3,0.9,1.9,1,2.2c0,0.1,0.1,0.2,0.1,0.3C130.9,33.6,126.4,29.4,126.1,28.7 M116.8,19.6c0.2-0.1,1.6,0.9,2,1.6
			c0.2,0.4,0.4,0.7,0.4,0.6c0,0-0.2-0.5,0-0.5s0.7,0.3,1.6,1.8c0-0.3-0.4-0.8-0.1-0.8c0.5-0.1,0.9,1.1,1.2,1.4
			c0.3,0.4,0-0.6,0.1-0.6c0.2,0,0.5,0.1,0.6,0.3s0.7,1.8,1,1.7c0.2,0-0.4-0.9-0.2-1.1c0.2-0.2,0.6,0.3,0.7,0.5s1.1,2.6,0.9,2.8
			s-1.3-0.7-1.6-0.9c-0.4-0.4-2.5-2.2-2.5-2.1c-0.1,0.1,0.6,1,1.3,1.7c1.6,1.7,3.4,3,3.4,3s0.6,1.1,0.4,1.1c-2,0-5.2-4-5.5-4.5
			C119.7,24.9,116.4,19.8,116.8,19.6 M131.6,34.6c0,0-2.6-1.6-3.2-2.1c-0.6-0.6-1.8-1.4-2-1.6c-0.3-0.2-0.6-0.2-0.3,0.6
			s2.3,4.4,3,5.1c0.7,0.7,5.1,2.7,5.7,2.8l-1.2-1.9c0,0-2.7-0.9-4-2.1c0,0,1,0.2,2.4,1s0.7-0.2,0.7-0.3
			C132.6,35.9,131.8,34.8,131.6,34.6 M141.6,30.4c0.2,0-0.5-0.1-0.5,0.4c0,0.4-0.1,4-0.4,4.9s-0.7,2.2-0.5,2.3s0.4,0.2,0.6-0.3
			s1.4-4.1,1.2-6.5C142,30.4,141.6,30.4,141.6,30.4 M163,31.1c-0.2,2.3,1,5.9,1.2,6.5c0.2,0.5,0.4,0.4,0.6,0.3
			c0.2-0.1-0.2-1.3-0.5-2.3c-0.3-0.9-0.4-4.5-0.4-4.9s-0.6-0.4-0.5-0.4C163.5,30.4,163.1,30.4,163,31.1"/>
		<g>
			<line class="st1" x1="3.4" y1="441.6" x2="304.6" y2="441.6"/>
			<rect x="3.4" y="440.3" width="301.2" height="2.7"/>
		</g>
		<rect x="110.1" y="498.2" width="6.2" height="28.3"/>
		<path d="M139.9,498.2h-11.6v28.3h6.2V518h4.7c6.4,0,11.5-3.4,11.5-10C150.8,502.2,146.7,498.2,139.9,498.2 M139.5,512.5h-4.9v-8.7
			h4.8c3.1,0,5.1,1.5,5.1,4.3C144.5,510.6,142.7,512.5,139.5,512.5"/>
		<path d="M182.7,498.2h-11.6v28.3h6.2V518h4.7c6.4,0,11.5-3.4,11.5-10C193.5,502.2,189.4,498.2,182.7,498.2 M182.3,512.5h-4.9v-8.7
			h4.8c3.1,0,5.1,1.5,5.1,4.3C187.2,510.6,185.4,512.5,182.3,512.5"/>
		<path d="M209.1,498h5.8l12.1,28.6h-6.5l-2.6-6.4h-12l-2.6,6.4h-6.4L209.1,498z M215.6,514.7l-3.8-9.2l-3.8,9.2H215.6z"/>
		<path d="M234.8,498.2h13c3.6,0,6.4,1,8.3,2.9c1.6,1.6,2.4,3.8,2.4,6.5v0.1c0,4.6-2.5,7.5-6.1,8.8l6.9,10.1H252l-6.1-9.1h-0.1H241
			v9.1h-6.2V498.2z M247.4,512c3,0,4.8-1.6,4.8-4v-0.1c0-2.7-1.9-4.1-4.9-4.1H241v8.1L247.4,512L247.4,512z"/>
		<rect x="269" y="498.2" width="6.2" height="28.3"/>
		<path d="M297.9,509.6c-4.9-1.3-6.1-1.9-6.1-3.8c0-1.4,1.3-2.5,3.6-2.5s4.9,1.1,7.4,2.8l3.2-4.7c-2.9-2.3-6.4-3.6-10.5-3.6
			c-5.8,0-9.9,3.4-9.9,8.6c0,5.6,3.7,7.3,9.4,8.7c4.7,1.2,5.7,2.1,5.7,3.6c0,1.7-1.5,2.7-4.1,2.7c-3.2,0-5.9-1.3-8.5-3.4l-3.7,4.4
			c3.4,3,7.7,4.5,12,4.5c6.1,0,10.4-3.2,10.4-8.8C306.9,513.2,303.7,511.1,297.9,509.6"/>
		<path d="M43,513.1c-12.5-8.6-19.2-13.1-25.5-17.8c-3,5-4.8,10.9-4.8,17.2c0,11.4,5.7,21.4,14.5,27.4
			C30.9,532.6,35.8,524.6,43,513.1"/>
		<path d="M75.7,519.7c-5.1,5.4-13.3,6.2-19.2,2.5c-1.1-0.7-9.2-6.3-9.2-6.3c-9,12.6-13.6,19-18.5,24.8c5,3.1,10.9,4.8,17.3,4.8
			c17.8,0,32.3-14,33.1-31.6C78.4,516.1,77.2,518.1,75.7,519.7"/>
		<path d="M69.5,501c-1.1-0.7-8.2-5.5-8.2-5.5c-5.8,8.6-6.7,9.8-11.2,16.2c0,0,7.7,5,8.9,5.7c4,2.5,9.3,1.7,12.4-1.7
			c1.2-1.3,2.1-3,2.4-4.7C74.4,507.8,73.4,503.5,69.5,501"/>
		<path d="M45.6,508.9c4.2-6.7,8-12.7,14-21.7c0,0,12.5,8.3,13.6,9.1c1.3,0.9,2.3,1.9,3,2.8c-5.1-11.7-16.8-19.8-30.4-19.8
			c-10.8,0-20.4,5.2-26.5,13.2C26.2,496.4,34.1,501.5,45.6,508.9"/>
		<path d="M14.6,488.5c0-2.3-1.9-4.2-4.2-4.2s-4.2,1.9-4.2,4.2s1.9,4.2,4.2,4.2C12.7,492.7,14.6,490.8,14.6,488.5"/>
		<path d="M17.5,476.3l2-1.4c1.2-0.8,2.4-0.7,3.1,0.3l0,0c0.8,1.1,0.3,2.3-0.8,3.1l-1,0.7l1.2,1.6l-0.9,0.6L17.5,476.3z M21.3,477.6
			c0.7-0.5,0.8-1.1,0.4-1.7l0,0c-0.4-0.6-1.1-0.6-1.7-0.1l-1,0.7l1.3,1.8L21.3,477.6z"/>
		<path d="M25.7,474.6L25.7,474.6c-0.7-1.6-0.1-3.5,1.7-4.2c1.7-0.8,3.5,0,4.2,1.6l0,0c0.7,1.6,0.1,3.4-1.7,4.2
			C28.2,476.9,26.4,476.2,25.7,474.6 M30.5,472.4L30.5,472.4c-0.5-1.1-1.7-1.7-2.8-1.2s-1.5,1.7-1,2.8l0,0c0.5,1.1,1.7,1.6,2.8,1.2
			S31,473.5,30.5,472.4"/>
		<polygon points="34.2,468 35.2,467.8 36.3,472.8 39.5,472.1 39.7,473.1 35.5,474 		"/>
		<polygon points="42.9,470.4 40.2,466.8 41.5,466.7 43.4,469.3 44.9,466.5 46.2,466.5 44,470.3 44.1,472.7 43,472.8 		"/>
		<polygon points="50.6,467.8 48.6,467.6 48.8,466.6 53.7,467.1 53.6,468.1 51.7,467.9 51.1,473 50,472.9 		"/>
		<polygon points="57.4,467.9 61.7,469.3 61.4,470.2 58.1,469.2 57.6,470.7 60.6,471.6 60.3,472.5 57.4,471.6 56.9,473.2 
			60.2,474.2 60,475.2 55.6,473.8 		"/>
		<path d="M63.9,473.5L63.9,473.5c0.8-1.6,2.7-2.2,4.3-1.3c1,0.5,1.4,1.2,1.7,2l-1,0.4c-0.2-0.6-0.5-1.2-1.2-1.5
			c-1-0.6-2.2-0.1-2.8,0.9l0,0c-0.6,1.1-0.3,2.3,0.7,2.9c0.7,0.4,1.2,0.3,1.9,0.1l0.3,0.9c-0.9,0.3-1.7,0.3-2.7-0.2
			C63.5,476.9,63,475,63.9,473.5"/>
		<polygon points="73.4,475.6 74.3,476.3 72.6,478.2 74.9,480.1 76.5,478.2 77.3,478.9 73.4,483.6 72.6,482.9 74.2,480.9 72,479 
			70.3,481 69.5,480.3 		"/>
		<polygon points="80.6,482.3 81.2,483 79.9,488.3 83.2,485.7 83.9,486.5 79,490.3 78.5,489.5 79.8,484.2 76.4,486.9 75.7,486 		"/>
		<rect x="80.6" y="491.5" transform="matrix(0.8784 -0.4779 0.4779 0.8784 -224.9692 99.7992)" width="6.1" height="1.1"/>
		<path d="M84.6,501.1c-0.5-0.4-0.9-0.9-1.2-1.6c-0.6-1.8,0.3-3.5,1.9-4.1l0,0c1.6-0.6,3.4,0.2,4.1,2c0.6,1.8-0.3,3.5-1.9,4.1l0,0
			c-0.7,0.2-1.3,0.2-2,0l-0.3,0.9l-1-0.4L84.6,501.1z M85,500.1l0.5-1.3l1,0.4l-0.6,1.3c0.4,0.1,0.8,0.1,1.2-0.1l0,0
			c1.1-0.4,1.8-1.5,1.4-2.7s-1.6-1.6-2.7-1.3l0,0c-1.1,0.4-1.8,1.5-1.4,2.7C84.5,499.6,84.7,499.9,85,500.1"/>
		<path d="M87.7,504.9l3.5-0.4l0.1,1.1l-3.5,0.4c-1.1,0.1-1.7,0.8-1.6,1.7c0.1,1,0.8,1.5,1.9,1.3l3.5-0.4l0.1,1.1l-3.5,0.4
			c-1.8,0.2-2.9-0.7-3-2.3S85.9,505.1,87.7,504.9"/>
		<polygon points="91.9,513.8 91.5,518.4 90.5,518.3 90.8,514.8 89.2,514.7 89,517.8 88,517.7 88.3,514.6 86.6,514.5 86.3,518 
			85.4,517.9 85.7,513.4 		"/>
		<polygon points="19.8,550.1 18.9,549.5 22.5,544.5 23.4,545.1 		"/>
		<polygon points="15.3,546.6 14.6,545.9 15.3,540.6 12.3,543.6 11.5,542.8 15.9,538.5 16.5,539.2 15.8,544.6 18.9,541.6 
			19.7,542.3 		"/>
		<path d="M13.4,536.8l-1-0.1c0.1-0.8,0-1.4-0.4-2.1c-0.4-0.6-0.9-0.7-1.2-0.5l0,0c-0.4,0.2-0.4,0.6,0,1.7c0.5,1.3,0.5,2.1-0.4,2.7
			l0,0c-0.9,0.6-2,0.2-2.6-0.8c-0.5-0.7-0.7-1.5-0.6-2.3h1c0,0.7,0.1,1.3,0.4,1.7c0.3,0.5,0.8,0.7,1.2,0.4l0,0
			c0.4-0.3,0.4-0.6,0-1.7c-0.5-1.3-0.4-2.1,0.4-2.6l0,0c1-0.6,2-0.3,2.7,0.8C13.3,534.9,13.5,535.9,13.4,536.8"/>
		<polygon points="5,530.7 5.7,532.5 4.8,532.9 2.8,528.3 3.8,527.9 4.5,529.7 9.3,527.6 9.7,528.6 		"/>
		<rect x="1.6" y="523.1" transform="matrix(0.9654 -0.2608 0.2608 0.9654 -136.4095 19.3344)" width="6.1" height="1.1"/>
		<polygon points="1.5,518.5 1.7,520.4 0.7,520.5 0.1,515.6 1.1,515.5 1.4,517.4 6.5,516.8 6.6,517.8 		"/>
		<path d="M3.5,512.3L0,512.1l0.1-1.1l3.5,0.2c1.1,0.1,1.8-0.5,1.9-1.4c0.1-1-0.5-1.6-1.6-1.7l-3.5-0.2l0.1-1.1L4,507
			c1.8,0.1,2.7,1.2,2.6,2.8C6.3,511.4,5.3,512.4,3.5,512.3"/>
		<polygon points="2.4,501.7 1.9,503.5 0.9,503.3 2.2,498.5 3.1,498.7 2.7,500.6 7.6,501.9 7.4,502.9 		"/>
		<path d="M32.3,549.6l2.4,0.7c2.5,0.7,3.3,2.3,2.8,4.1l0,0c-0.5,1.8-2.2,2.8-4.7,2.1l-2.3-0.7L32.3,549.6z M33.4,554.7
			c0.9,0.3,1.7,0.1,1.9-0.8l0,0c0.3-0.9-0.2-1.5-1.2-1.7l-0.3-0.1l-0.7,2.6H33.4z"/>
		<polygon points="41.4,551.8 46.9,552 46.8,553.8 43.4,553.6 43.4,554.3 46.5,554.4 46.4,556 43.3,555.8 43.3,556.5 46.7,556.7 
			46.6,558.5 41.1,558.2 		"/>
		<path d="M55,551l2.8-0.8c1.6-0.5,3-0.1,3.4,1.4l0,0c0.5,1.5-0.4,2.6-2.1,3.1l-0.7,0.2l0.5,1.7l-2.1,0.6L55,551z M58.5,553.3
			c0.5-0.2,0.8-0.5,0.7-0.9l0,0c-0.1-0.4-0.5-0.6-1.1-0.4l-0.6,0.2l0.4,1.4L58.5,553.3z"/>
		<path d="M64.6,547.3l1.9-1.1l5.6,4.3l-2,1.2l-0.7-0.6l-2,1.1l0.1,0.9l-2,1.1L64.6,547.3z M68,550.1l-1.3-1.1l0.3,1.6L68,550.1z"/>
		<path d="M70.9,543.3l2.3-2.2c0.8-0.8,1.6-1.1,2.2-1c0.5,0,1,0.2,1.5,0.7l0,0c0.6,0.7,0.7,1.5,0.4,2.3l2.6,0.6l-1.8,1.7l-2.1-0.5
			l0,0l-0.3,0.3l1.3,1.3l-1.6,1.5L70.9,543.3z M75.2,543.5c0.4-0.4,0.4-0.7,0.2-1l0,0c-0.3-0.3-0.7-0.2-1,0.1l-0.7,0.6l0.9,0.9
			L75.2,543.5z"/>
		<rect x="79.4" y="534.4" transform="matrix(0.5912 -0.8065 0.8065 0.5912 -400.6694 284.6991)" width="2.2" height="6.4"/>
		<path d="M85.1,535l-0.7-1.6c0.8-0.4,1.3-1,1.7-1.7c0.2-0.3,0.2-0.5,0-0.6l0,0c-0.2-0.1-0.3,0.1-0.8,0.6c-0.9,1.2-1.8,2.1-3,1.5
			l0,0c-1.1-0.5-1.5-1.8-0.8-3.4c0.5-1.1,1.2-1.8,2.1-2.2l0.9,1.6c-0.7,0.4-1.2,0.9-1.4,1.5c-0.1,0.3-0.1,0.5,0,0.5l0,0
			c0.2,0.1,0.3,0,0.7-0.6c1-1.3,1.9-2.1,3.1-1.6l0,0c1.2,0.6,1.5,2,0.7,3.5C87,533.7,86.1,534.6,85.1,535"/>
	</g>
</g>
<g id="Calque_2">
</g>
</svg>
