<?xml version="1.0" encoding="utf-8"?>
<!-- Generator: Adobe Illustrator 23.0.2, SVG Export Plug-In . SVG Version: 6.00 Build 0)  -->
<svg version="1.1" id="Layer_1" xmlns="http://www.w3.org/2000/svg" xmlns:xlink="http://www.w3.org/1999/xlink" x="0px" y="0px"
	 viewBox="0 0 363 590" style="enable-background:new 0 0 363 590;" xml:space="preserve">
<style type="text/css">
	.st0{fill-rule:evenodd;clip-rule:evenodd;}
</style>
<g id="Calque_1">
	<g>
		<path d="M227.3,117.7c-13.2,15.6-30.2,35.7-45.4,54.5c-59.1-73-114-131.6-150.4-158.8c19,43.6,65.7,110.7,127,188.7
			c-31.8,41.2-95,123.1-127.1,192.7c43.8-34.6,102.7-102.9,150.5-163.3c58.9,73.2,115,135.8,151.2,162.9
			c-18.9-43.3-66.9-115-127.8-192.8c23.9-30.7,32.6-41.6,56.1-74.7c25.5-36,66.8-87.5,88.9-76.7C317.2,31.4,270.1,67.3,227.3,117.7"
			/>
		<path d="M109.1,181.2c-0.7-0.5-1.5-0.7-2.6-0.7c-1.3,0-2.8,0.4-4.4,1.3c-1.6,0.9-3.3,2.2-5,3.8c-1.7,1.6-3.5,3.5-5.3,5.7
			s-3.5,4.6-5.2,7.2c-1.6,2.6-3.2,5.3-4.7,8.1c-1.5,2.9-2.7,5.7-3.8,8.7c-1.1,2.9-1.9,5.8-2.6,8.7c-0.4,2.1-0.7,4.1-0.9,6
			c-1.7,1.6-3.2,2.9-4.5,4.1c-1.8,1.5-3.3,2.8-4.6,3.8c-1.4,1-2.2,1.6-3.3,2.2l0.6,2.4c1.1-0.5,2.6-1.6,4-2.7c1.3-1,2.8-2.3,4.6-3.9
			c0.9-0.8,1.9-1.7,3.1-2.7c0.1,1.7,0.3,3.2,0.7,4.5c0.5,1.5,1.2,2.8,2,3.7c0.8,1,1.8,1.7,2.9,2.1c1.1,0.5,2.2,0.7,3.4,0.7
			c1.4,0,2.8-0.4,4.2-1.1s2.7-1.6,3.9-2.8c1-0.9,2-2,2.9-3.1l-1.5-1.6c-0.2,0.2-0.4,0.5-0.6,0.7c-0.9,1-1.9,2-2.9,2.8s-2,1.5-3,2
			s-2,0.8-3,0.8c-1.5,0-2.6-0.6-3.5-1.8c-0.8-1.2-1.3-3.1-1.4-5.6c0-0.8,0-1.8,0-2.7c0-1,0.2-1.9,0.4-2.9c0.8-0.7,1.5-1.6,2.3-2.4
			c0.3-0.3,0.6-0.6,0.9-0.9c0.6-0.6,1.3-1.2,2-2c0.8-0.8,1.7-1.8,2.8-3s2.4-2.7,4-4.5c1.5-1.8,3.3-4,5.4-6.6c1-1.3,2.1-2.7,3.2-4.2
			c1.1-1.5,2.1-3.1,3.1-4.7s1.9-3.2,2.7-4.8c0.8-1.6,1.6-3.2,2.2-4.6c0.6-1.5,1.1-2.8,1.5-4.1c0.4-1.3,0.5-2.3,0.5-3.2
			C110.2,182.6,109.8,181.7,109.1,181.2 M106.8,188.8c-0.7,1.8-1.6,3.7-2.8,5.9c-1.2,2.2-2.6,4.5-4.3,6.9s-3.5,4.9-5.6,7.5
			c-2,2.6-4.2,5.2-6.5,7.8c-2.3,2.6-4.7,5.2-7.2,7.8l0,0l0,0c0.6-3.2,1.6-6.4,2.8-9.7c1.3-3.3,2.7-6.5,4.4-9.6
			c1.6-3.1,3.4-6,5.2-8.8c1.8-2.7,3.6-5.1,5.4-7.2c1.7-2.1,3.3-3.7,4.8-4.9c1.5-1.2,2.7-1.8,3.6-1.8c0.3,0,0.7,0.1,0.9,0.5
			s0.3,0.8,0.3,1C107.8,185.5,107.5,187.1,106.8,188.8 M125.7,188.7c0.1,1-0.2,2.1-0.7,3.1c-0.5,0.9-1.3,1.8-2.1,2.7
			c-0.8,0.8-1.8,1.6-2.9,2.3c-1.1,0.7-2.1,1.2-3.2,1.7l-0.9-1.5c1.2-0.6,2.4-1.4,3.5-2.2c1.1-0.9,1.9-1.7,2.3-2.5
			c-1-0.2-1.7-0.6-2.1-1.3c-0.4-0.6-0.7-1.3-0.7-2c0-1,0.3-1.8,1-2.4s1.5-1,2.4-1c1,0,1.8,0.3,2.4,1
			C125.4,187.1,125.6,187.8,125.7,188.7"/>
		<path d="M134.9,369.1h12.4v2.2h-9.9v7.8h9.9v2.2h-9.9v8h9.9v2.2h-12.4V369.1z M144.3,362.2l0.8,1.6l-7.3,3.9l-0.7-1.5L144.3,362.2
			z M172.5,385.4c-1.5,3.4-5.4,6.4-10.3,6.4c-6.6,0-11.7-5.1-11.7-11.6c0-6.4,4.9-11.6,11.6-11.6c5.5,0,9,3.7,10.3,6.5h-2.7
			c-0.8-1.3-3.3-4.3-7.6-4.3c-5.2,0-9.2,4.1-9.2,9.3c0,5.3,4,9.4,9.2,9.4c4.7,0,7.1-3.4,7.6-4.2L172.5,385.4L172.5,385.4z
			 M174.8,380.3c0-6.9,5.4-11.6,11.7-11.6c6.6,0,11.7,5,11.7,11.6s-5.1,11.6-11.7,11.6C179.9,391.8,174.8,386.7,174.8,380.3
			L174.8,380.3z M177.3,380.2c0,5.3,4,9.4,9.2,9.4c5.3,0,9.2-4.3,9.2-9.4s-3.9-9.4-9.2-9.4C181.2,370.9,177.3,375,177.3,380.2
			L177.3,380.2z M202.4,369.1h2.5v20.2h9.6v2.2h-12.1V369.1z M217.6,369.1H230v2.2h-9.9v7.8h9.9v2.2h-9.9v8h9.9v2.2h-12.4V369.1z"/>
		<path d="M58.8,399.9c3.8,0,5.3,0.5,6.6,1.5c1.6,1.3,2.5,3.5,2.5,5.7s-0.9,4.5-2.4,5.7s-3,1.8-6.3,1.8h-2.8v7.7H52v-22.4H58.8z
			 M56.5,410.7h2.7c1,0,2-0.1,2.9-0.6c0.8-0.4,1.5-1.4,1.5-2.8c0-1.4-0.7-2.4-1.5-2.8c-0.9-0.5-1.9-0.6-3.1-0.6h-2.5L56.5,410.7
			L56.5,410.7z M70.3,411.3c0-7.2,5.5-11.8,11.7-11.8c6.8,0,11.8,5.3,11.8,11.6s-5,11.6-11.8,11.6C75.1,422.7,70.3,417.3,70.3,411.3
			L70.3,411.3z M74.8,411.1c0,4.1,2.9,7.6,7.3,7.6c4.5,0,7.2-3.9,7.2-7.6c0-3.8-2.7-7.7-7.2-7.7C77.6,403.5,74.8,407.2,74.8,411.1
			L74.8,411.1z M98,399.9h4.5v18.4h7.3v4H98V399.9z M117.3,414.3l-6.9-14.4h4.9l4.2,10.2l4.3-10.2h4.8l-6.8,14.4v8h-4.5V414.3z
			 M136,403.9h-4.8v-4h14.1v4h-4.8v18.4H136V403.9z M150.1,399.9h12.5v4h-8v5.1h7.9v4h-7.9v5.4h8v4h-12.5V399.9z M188.8,414.8
			c-1.4,4.6-5.7,7.9-10.9,7.9c-6.8,0-11.7-5.4-11.7-11.6c0-6,4.6-11.6,11.7-11.6c6.4,0,10.1,4.8,11,8h-4.7c-0.7-1.5-2.7-4.1-6.3-4.1
			c-4.3,0-7.2,3.7-7.2,7.6c0,4.1,2.9,7.7,7.2,7.7c4,0,5.8-3.1,6.2-4L188.8,414.8L188.8,414.8z M192.5,422.3v-22.4h4.5v9h8.6v-9h4.5
			v22.4h-4.5v-9.4H197v9.4H192.5z M230.8,415.5l-0.1-15.5h4.3v22.4h-4l-10.3-15.5l0.1,15.5h-4.3V400h4L230.8,415.5z M241.4,399.9
			h4.5v22.4h-4.5V399.9z M283.3,399.9v13.8c0,1.1,0,2.3,0.6,3.4c0.5,1,1.5,1.7,3,1.7s2.5-0.7,3-1.6c0.6-1.1,0.6-2.3,0.6-3.5v-13.8
			h4.5v13.8c0,3.3-0.6,5.3-2.4,6.9c-1.4,1.3-3.3,2.1-5.7,2.1c-1.6,0-4.2-0.4-5.8-2.1c-2.1-2-2.4-3.9-2.4-6.9v-13.8H283.3z
			 M300.3,399.9h12.5v4h-8v5.1h7.9v4h-7.9v5.4h8v4h-12.5V399.9z M273.7,418.9c-0.3,0-1.4-0.1-2.2-0.7c1.5-2,2.4-4.5,2.4-7.2
			c0-6.3-5-11.6-11.8-11.6c-6.2,0-11.7,4.6-11.7,11.8l0,0c0,4.2,2.4,8.1,6.2,10.1l0,0c0.2,0.1,0.5,0.2,0.8,0.4c1.5,0.7,3.1,1,4.8,1
			c2,0,3.9-0.5,5.6-1.4c0.2-0.1,0.5-0.3,0.7-0.4c1,0.7,2.7,1.8,5.3,1.8h0.6v-3.9h-0.7V418.9z M255,411.1L255,411.1
			c0-4,2.8-7.6,7.3-7.6c4.6,0,7.2,3.9,7.2,7.7c0,1.4-0.4,2.9-1.2,4.2l-2.4-2.4l-2.7,2.8l2.3,2.3c-0.9,0.5-2,0.8-3.2,0.8
			C257.9,418.8,255,415.2,255,411.1"/>
		<path class="st0" d="M199.3,48.2c0.1-0.1,2.2-2.4,2.4-2.7c0.3-0.3,1.6-1.7,1.8-1.5c0.1,0.3-0.4,0.8-0.4,1
			c-0.1,0.2-1.2,2.2-1.6,2.5s-1,0.7-1.2,0.8c0,0.1,0.2,0.1,0.2,0.2c0,0.3-0.5,0.4-0.7,0.5h-0.6C199.3,48.6,199.3,48.2,199.3,48.2
			 M197.1,57c0.1-0.2,0.2-0.4,0.4-0.6c0.1-0.2,0.2-0.5,0.4-0.6c0.1-0.1,4.1-2.3,4.9-2.8c0.1-0.1,0.3-0.2,0.4-0.4
			c-0.1,0-2.6,1.1-2.8,1.2c-0.3,0.2-2.2,1-2.3,0.5c-0.1-0.3,0.5-1.1,0.7-1.2c0.2-0.1,3.3-0.8,5.6-1.9c0.2-0.1,0.4-0.3,0.6-0.1
			C205,52.1,201.7,55.3,197.1,57 M192.4,57.9c-0.4,0.1-1.1-0.2-1.2-0.5c0-0.2,4.1-1.8,4.6-2.4c-0.3,0.1-3.8,1.2-3.9,1
			c0-0.4,0-0.6,0.2-0.7c1.7-0.2,5.2-1.8,5.4-1.6C197.7,54,194.1,57.6,192.4,57.9 M196.7,42.1c-0.1,0.6-0.3,1.1-0.7,1.3
			c-0.2-0.1-0.4,0-0.5,0s-0.6,0-0.8,0c-0.1,0-0.5-0.1-0.6,0c-0.2,0-0.4,0-0.5-0.2c0-0.1,0-0.2,0-0.3c0-0.4,0.1-1,0.2-1.2
			C193.9,41.3,196.4,42,196.7,42.1 M196.9,50.8c0,0.1,0.2,0.3,0.1,0.4c-0.3-0.2-0.3-0.7-0.5-1.1c0-0.1,0.1-0.1,0.1-0.1
			C196.8,50.2,196.8,50.6,196.9,50.8 M195.9,45.6c-0.3,0-2.4-0.3-2.4-0.3s-0.3-1.9,0.6-1.7c0.1,0,2,0,2.2,0.3
			C196.2,44.2,196.1,45.4,195.9,45.6 M196,46.1c-0.1,0.2,0,1.2-0.1,1.3s-1.7,0-1.9,0c-0.7,0.2-0.5-0.9-0.6-1.5
			C193.5,45.8,195.8,45.8,196,46.1 M194.3,49.5c-0.9,0.2-0.6-1-0.8-1.6c0,0,2-0.2,2.2,0c0.2,0.1,0.5,1.9,0,1.8
			C195.4,49.6,194.3,49.5,194.3,49.5 M195.7,50c0.6,0,0.4,0.9,0.6,1.2c-0.2-0.1-1.8,0-1.8,0c-0.1,0-0.3,0-0.4,0
			c0-0.2-0.1-0.4-0.2-0.6c-0.1-0.2-0.1-0.5,0.3-0.6C194.6,49.8,195.1,50,195.7,50 M192.2,51.5c0.3,0.1,0.6,0,0.6,0.3
			c-0.1,0.2-0.4,0.1-0.7,0.1c-0.2,0-0.4,0-0.6,0s-0.9,0-0.9-0.2c0-0.1,0.3-0.4,0.4-0.4C191.4,51.3,191.8,51.4,192.2,51.5
			 M192.2,52.3c0.3,0,0.5,0,0.5,0.2c0,0.3-0.9,0.2-1.1,0.2s-2.2,0.1-2.2-0.2c0-0.1,0.5-0.6,0.6-0.6C190.7,52,191.6,52.3,192.2,52.3
			 M202.9,47.1c0-0.1,0-0.2,0.1-0.3c0.1-0.3,0.3-0.6,0.4-0.9c0-0.1,0.3-1,0.5-1.3c0.4-0.2,3.2-2.7,3.3-3.1c-0.1,0.1-2.4,2.1-2.9,2
			c-0.1-0.3,1.1-2.2,1.4-2.5c0.2-0.2,0.4-0.4,0.7-0.4c0.1,0.1,0,0.3-0.1,0.5c0.8-0.3,0.8-1.8,1.5-1.8c0.2,0,0.2,0.4,0.2,0.4
			c0.3-0.3,0.3-0.9,0.6-1.2c0.1-0.2,0.5-0.3,0.7-0.2c0.1,0.1-0.3,0.8-0.4,1.3c-0.3,0.8-0.5,1.7-0.9,2.5
			C207.9,42.5,203.3,47,202.9,47.1 M199.2,49.8L199.2,49.8c0,0,0.9-0.3,1.1-0.4c0.2-0.1,0.3-0.5,0.6-0.5c0.1,0.3-1.6,2.9-2.3,3.4
			c-1.3,1-5,2.3-5.1,2.4c-0.5,0.1-0.8,0.1-0.8-0.4c0-0.2,0-0.3,0.1-0.4c0.1,0,3.3-1.1,3.9-1.6c0,0-3.2,0.6-3.4,0.6
			c-0.1-0.4,0.1-0.9,0.5-1c0.1,0,1.9,0,2.5,0c0,0,2,0.1,2.4-0.4C199.2,51,199.2,50.1,199.2,49.8 M197.4,51.3c0-0.3,0.3-0.6,0.4-0.8
			c0.2-0.3,0.4-0.5,0.6-0.8c0.1,0,0.1,0,0.2,0c-0.1,0.5-0.6,0.8-0.8,1.2C197.7,51.1,197.6,51.3,197.4,51.3 M198.3,44.3
			c-0.1,0.4-0.9,1.4-1.1,1.6c0,0.2-0.1,0.5,0.1,0.5s0.2-0.2,0.3-0.3c0.1-0.1,0.6-1,0.8-1c0.3,0.1-1,1.7-1.1,2
			c-0.1,0.1,0,0.6,0.1,0.6s1-1.4,1.2-1.3l0,0c0,0.3-1.2,1.9-1.3,2c0,0.2,0.1,0.6,0.2,0.6s0.8-1.2,1-1.3c0.2,0.2,0,0.4-0.1,0.5
			c-0.2,0.3-1,1.4-0.9,1.8c-0.2,0-0.2-0.1-0.3-0.1c0-0.2-0.2-1.1-0.2-1.3c0-0.1-0.2-2.2-0.2-2.4s0-0.6,0-1c0.1-0.1,0.9-0.9,1.1-1
			C198.1,44.2,198.2,44.3,198.3,44.3 M198,43.5c-0.1,0.3-1.1,1.5-1.2,1.5c0-0.3,0.2-0.8,0.2-0.9c0-0.1,0.6-0.7,0.8-0.9
			C198,43.2,198.1,43.4,198,43.5 M197.5,42.5c0.3,0.1-0.1,0.6-0.3,0.8c-0.1,0.1-0.3,0.3-0.4,0.2C196.9,43.1,197.2,42.8,197.5,42.5
			 M198.6,30.9c0.2,0,2.5,1.8,3.6,2.6c-0.1,0.1-0.1,0.2-0.1,0.3c-0.2,0-0.4-0.2-0.6-0.3c-1-0.7-3.1-2.2-3.1-2.4
			C198.3,31,198.5,30.9,198.6,30.9 M201.6,34.2c0.8,0.5,0.6,1.2,0.4,1.2s-0.3-0.3-0.5-0.4c-0.3-0.2-0.5-0.3-0.7-0.5
			c0.4,0.5,0.6,0.9,1.2,1.2c-0.1,0.4-1.4,1.7-1.6,1.8s-0.3,0.2-0.5,0.2s-3.4-2.3-3.6-2.4c-0.1-0.1-0.5-0.3-0.5-0.4
			c-0.1-0.1,0.5-1.5,0.7-1.8c0.1-0.3,1-1.6,1.2-1.7c0.3,0,0.8,0.4,0.9,0.5C198.7,32,201.6,34.2,201.6,34.2 M194.7,35.3
			c0-0.2,0.3-0.2,0.5-0.2c0.3,0.1,0.9,0.5,1.2,0.8c0.7,0.5,2.5,1.8,2.9,2c0.2,0.2,0.6,0.4,0.3,0.7c-0.4-0.4-1.2-0.8-1.4-0.9
			c0.1,0.2,0.3,0.4,0.6,0.6c0.2,0.2,0.5,0.3,0.6,0.5c-0.3,0.1-0.5-0.2-0.7-0.3c-1.2-0.9-1.9-1.4-3.1-2.2
			C195.3,36.1,194.5,35.8,194.7,35.3 M198.8,39.1c-0.1,0.2-0.2,0.3-0.3,0.5c-0.1-0.2-0.5-0.6-0.7-0.7c-0.1-0.1-0.4-0.3-0.5-0.1
			c0,0.2,0.2,0.4,0.3,0.5c0.2,0.2,0.4,0.3,0.7,0.4c-0.4,0.7-0.8,1.3-1.3,2.1c-0.2-0.1-4.5-1.5-4.6-1.6s0-0.4,0.1-0.5s0.8-1.3,1-1.6
			s1.1-1.8,1.2-1.8c0.2,0,0.3,0.1,0.5,0.2C196,37.1,198.4,38.7,198.8,39.1 M183.8,43c0.3,0,1.4-0.2,1.6,0c0,0.2-0.3,0.2-0.5,0.2
			S183.9,43.2,183.8,43L183.8,43z M178.9,43.1c0.3,0,1.4-0.2,1.6,0c0,0.2-0.3,0.2-0.5,0.2S179,43.3,178.9,43.1L178.9,43.1z
			 M184.2,44c0.1,0,0.9-0.2,1,0.1c-0.1,0.2-0.7,0.1-0.9,0.1c-0.1,0-0.5,0.1-0.6-0.1C183.8,43.9,184.1,44,184.2,44 M184.6,44.9V45
			c-0.2,0-0.6,0.1-0.8,0C183.8,44.9,184.4,44.9,184.6,44.9 M189,38c-0.4-0.1-1.8-0.8-2.6-1.5c-0.5-0.4-0.9-0.9-1.3-1.4
			c-0.3-0.5-1.1-1.4-1.1-1.6c0-0.2,0.1-0.3,0.2-0.2c0.3,0.1,0.4,0.5,0.6,0.8c0.9,1.3,2,2.5,3.4,3.2c0.4,0.2,0.9,0.4,1.4,0.6
			c0.1,0,0.4,0.1,0.4,0.3C189.8,38.2,189.4,38,189,38 M187.6,36.3c0.6-0.1,1.4,0.1,1.9,0.2c0.1,0.1,0.1,0.3,0.2,0.4
			c-0.3,0.1-0.7,0.1-1,0.1s-0.5-0.2-0.7-0.3S187.6,36.5,187.6,36.3 M186.4,31.8c-0.7,0-1.3-0.1-1.4,0c-0.2-0.1-0.2-0.4-0.3-0.6
			c0-0.2-0.3-1.4-1.8-1.3c-0.8,0.1-1.5,0.5-1.9,1.1c-0.2,0-1.7-0.1-3.2-0.6c-1.3-0.4-2.4-1.2-2.9-1.5c-0.9-0.8-0.7-0.5-0.7-0.9
			c0-0.3,2.1-4.9,6.9-4.9c1.1,0,2.4,0.3,2.8,0.5c-0.1,0.2-1.4,0.1-1.6,0.1v0.2c0.3,0.1,2.4,0.1,2.9,0.3c0.2,0.1,0.4,0.2,0.4,0.4
			c-0.1,0.1-1.2,0-1.6,0c-0.1,0-0.3-0.1-0.2,0.1c0.9,0.3,2.7,0,2.8,0.7c0.1,0.3-0.5,0.1-0.7,0.1c-0.1,0,0,0.1-0.1,0.2
			c0.6,0.2,1.6,0.1,1.5,0.6c0,0.3-0.9-0.1-1,0.2c0,0.3,0.8,0.2,1.3,0.3c0.1,0,0.4,0.3,0.4,0.5c-0.1,0.2-1.2,0-1.5,0l0.1,0.2
			c0,0,1.9,0.1,2,0.7c-0.3,0.2-2,0-2.5,0c0,0.1,0,0.1,0,0.2c0.6,0.1,1.4,0.1,2,0.2c0.1,0,0.5,0.1,0.6,0.1s0.3,0.3,0.2,0.5
			c-0.1,0.1-1.2,0-1.7,0c0,0.1-0.1,0.2-0.1,0.2c0.1,0,1.9,0.2,2,0.4c0.1,0.1,0.1,0.3,0,0.4c-0.1,0.1-1.6-0.1-2-0.1
			c-0.1,0-0.4-0.1-0.3,0.1c0.3,0.1,2.2,0.3,2.4,0.4c0.2,0.1,0.3,0.5,0,0.6c-0.6,0-1.1-0.2-1.7-0.2c0,0.1-0.1,0.2-0.1,0.2
			c0.3,0.2,1.5,0.1,1.8,0.3c0.1,0.1,0.2,0.3,0,0.4c-0.4,0-1.1,0-2-0.1V32c0.7,0.1,2.1,0.1,2.1,0.4c0,0.2-0.2,0.3-0.4,0.3
			c-0.6,0-2.2-0.1-2.2-0.1s0,0.1,0,0.2c0.3,0,2.3,0.1,2.4,0.3c0,0.1,0,0.3-0.1,0.5c-0.5,0-1,0-1.5-0.1v0.2c0.6,0,1.1,0,1.6,0.1v0.6
			c-0.4,0-0.9,0-1.3-0.1c0,0.1-0.1,0.2-0.1,0.2s1,0.1,1.4,0.1c0,0.2,0,0.4,0,0.6c-0.7,0-1.3-0.1-2-0.1v0.2c0.6,0.1,1.3,0.2,2,0.2
			c0.1,0.1,0.1,0.3,0.1,0.4c-0.3,0.1-2,0.1-2.4-0.1c-0.1-0.1-1.2-1.1-1.3-1.4c0-0.1,0.2-0.1,0.3-0.1v-0.1c-0.2-0.1-0.4,0-0.6-0.1
			s-0.4-0.4-0.4-0.5c0.1-0.2,0.5-0.1,0.8-0.2c0-0.2-1-0.1-1.2-0.4c-0.1-0.1-0.2-0.2-0.1-0.3c0.1-0.3,0.9,0,1.2,0c0-0.1,0-0.1,0-0.2
			c-0.3-0.1-0.9,0.1-1.1-0.2c0-0.2,0-0.5,0.2-0.6c0.2,0,0.7,0,1.4,0.1L186.4,31.8z M173.4,28.4c0.1-0.2,0.3-0.5,0.4-0.5
			s0.1,0.1,0.2,0.3c1.1,1.5,2.7,1.9,2.9,2.1c0,0.1-0.2,0-0.3,0.1c-0.1,0.1,0,0.1,0,0.1c0,0.1,1,0.2,1.3,0.2s1.4,0.4,2.1,0.5v0.1
			c-0.1,0.1-0.9,0-1.1,0.1v0.2c0.6,0,1.5,0.1,1.8,0c0.1,0,0.2,0.1,0.1,0.1c-0.1,0.3-1.7,0.9-3.9,0.8c-1.5-0.1-2.4-0.3-3.8-0.5
			C171.9,31.6,173.3,28.6,173.4,28.4 M172.9,32.3c1.3,0.1,2.8,0.6,4.4,0.5c1,0,2.1-0.1,3.2-0.1c0.2,0,0.4,0,0.5,0.1
			c0,0.3-1.2,0.4-1.3,0.4c0,0.1,0.1,0.1,0,0.2c0.5-0.1,1-0.1,1.5-0.2c-0.2,0.1-0.4,0.4-0.7,0.6c-0.3,0.2-1.1,0.6-1.9,1
			c-1,0.5-4,1-4.9,1c-1,0.1-1.7,0.1-2.6,0C171.2,35.9,172.4,33.1,172.9,32.3 M173,36.8c-0.6,0-1.2,0-1.9-0.2c0-0.4,0.4-0.3,0.6-0.2
			c2.5,0.2,4.8-0.2,7-0.9c1-0.3,2.1-1.1,3-1.6c0,0,0.1-0.1,0.2,0c0.1,0.3-1.1,1-1.6,1.3C178.8,36,175.3,36.8,173,36.8 M179.7,44.1
			c0.2,0,0.7-0.2,0.8,0c0,0.2-0.5,0.2-0.8,0.1V44.1z M166.7,55.4c-0.3-0.3-1.1-1.2-1-1.4s0.4,0,0.7,0.1c0.3,0.1,0.9,0.6,1.8,0.9
			c0.8,0.4,2.7,0.4,2.9,0.5c0.2,0.1,0.2,0.3,0.2,0.7c-0.1,0.1-0.4,0.2-0.8,0.2c-0.4-0.1-3-1.1-3-1.2c0.5,0.6,1.3,1,1.9,1.3
			s1.8,0.7,2.2,0.7c0.4,0,0.7,0.2,0.5,0.5c-0.1,0.1-0.5,0.4-0.8,0.3C169,57.7,166.6,55.5,166.7,55.4 M158.3,51.6
			c0.2-0.2,0.5,0,0.7,0.1s0.9,0.4,1,0.4s4.7,1.7,5,2.1c0.1,0.2,0.5,0.7,0.1,0.8c-0.5,0.1-4.8-1.9-4.9-1.9c0.2,0.4,0.7,0.5,1.2,0.8
			c0.6,0.3,4,2.3,4.1,2.3c0.1,0.1,0.2,0.4,0.4,0.6c0.1,0.2,0.3,0.4,0.4,0.6C164.8,57.3,158.3,53,158.3,51.6 M163.8,48.7
			c0.1,0.6-0.8,0.1-1.1-0.2c-0.3-0.3-0.6-0.4-1-0.9s-1.5-2.2-1.6-2.5c-0.1-0.1-0.4-0.7-0.4-0.9c0.1-0.6,1.5,1,1.8,1.5
			c0.4,0.5,1.3,1.3,1.7,1.9S163.8,48.6,163.8,48.7 M164.1,51.6c-0.2,0-1-0.8-1.2-1.3c-0.2-0.3-0.6-0.8-0.5-1l0,0
			c0.4-0.1,1.3,0.9,1.3,0.9c0.2,0.1,0.2,0.4,0.1,0.7C163.9,51.1,164.3,51.3,164.1,51.6 M169.4,41.7c0.5,0.1,0.4,1.4,0.3,1.7
			c0,0.3-2.3,0.5-2.5,0.4c-0.3-0.2-0.5-1-0.4-1.4C167,42,169,41.6,169.4,41.7 M169.8,45.3c0,0.4-2.4,0.5-2.5,0.1s-0.1-1,0-1.2
			s2.4-0.3,2.5,0C170,44.4,169.8,44.9,169.8,45.3 M171.2,41c0.4-0.1,0.7,1.4,0.7,1.4c1,3.6,0,7.7-0.2,7.7c-0.3,0.1-0.8,0-1-0.1
			s1.6-3.8,0.4-8.1C171,41.7,170.8,41.1,171.2,41 M192.1,42c-1.2,4.2,0.6,8,0.4,8.1s-0.7,0.1-1,0.1c-0.2,0-1.2-4.1-0.2-7.7
			c0,0,0.3-1.5,0.7-1.4C192.4,41.1,192.1,41.7,192.1,42 M171.5,50.4c0.1,0,0,0.1,0,0.2c0.1,0.2,0.4,0.3,0.5,0.5
			c-0.5,0-1.1,0-1.6,0.1c0,0,0-0.6,0.2-0.7C170.9,50.4,171.3,50.4,171.5,50.4 M192.5,50.4c0.2,0.1,0.2,0.6,0.2,0.7
			c-0.5-0.1-1.1,0-1.6-0.1c0.1-0.2,0.4-0.3,0.5-0.5c0-0.1-0.1-0.2,0-0.2C191.8,50.4,192.2,50.4,192.5,50.4 M169.3,47.6
			c-0.4,0.1-2,0.2-2.1-0.1s-0.1-1.4,0.4-1.5s1.8-0.2,2.1,0.1C169.9,46.5,169.7,47.4,169.3,47.6 M167.4,48c0.5,0,2.1-0.1,2.1,0.3
			c0.1,0.3-0.2,1.3-0.7,1.4c-0.5,0.1-1.2,0.1-1.8,0C166.5,49.6,166.9,48,167.4,48 M166.2,51.5c0-0.3,0.5-1.3,0.8-1.5s1.3-0.1,1.7,0
			c0.5,0.2-0.2,1.5-0.5,1.6C167.8,51.7,166.2,51.8,166.2,51.5 M169.6,52.2c0.3,0.1,0.5,0.9,0.3,0.9c-0.2,0.1-3.4-0.6-3.4-0.6
			c0.4,0.4,1,0.6,1.6,0.8s2.2,0.8,2.3,0.8c0.1,0.1,0.1,0.2,0.1,0.4c0,0.4-0.2,0.5-0.7,0.4c-0.4-0.1-2.1-0.5-2.8-0.8
			c-0.7-0.3-2.3-1.4-2.2-1.7C165,51.9,169.4,52.1,169.6,52.2 M170.6,43.6c-0.5,0-0.5-0.5-0.4-0.7s0.8-0.1,0.8,0s0,0.3,0,0.4
			C171,43.6,170.6,43.6,170.6,43.6 M170.3,42.7c-0.3-0.1-0.3-0.9,0.4-0.7c0.2,0,0.3,0.4,0.2,0.5C170.7,42.6,170.4,42.7,170.3,42.7
			 M170,41.6c0-0.3,0.7-0.4,0.7-0.1C170.7,41.7,170.1,41.8,170,41.6 M192.2,43.4c0-0.1,0-0.3,0-0.4c0-0.1,0.7-0.2,0.8,0
			c0.1,0.2,0,0.7-0.4,0.7C192.6,43.6,192.2,43.6,192.2,43.4 M192.3,42.5c-0.1-0.1,0-0.5,0.2-0.5c0.7-0.2,0.7,0.6,0.4,0.7
			C192.8,42.7,192.5,42.6,192.3,42.5 M192.5,41.5c0-0.3,0.7-0.2,0.7,0.1C193.1,41.8,192.5,41.7,192.5,41.5 M160.9,33.7
			c1.3-1,2.4-1.8,3.7-2.8c0,0,0.2,0.4,0.1,0.5c-0.2,0.2-0.7,0.5-0.7,0.5s-1.7,1.4-2.8,2.1C161,33.9,161,33.7,160.9,33.7 M163.4,37.6
			c0-0.1,0.3-0.3,0.4-0.4c0.5-0.4,0.9-0.8,1.3-1.2c-0.3,0.1-0.6,0.3-0.9,0.5c-0.4,0.3-0.8,0.5-1.1,0.9c-0.2,0-0.4-0.2-0.4-0.3
			s0.2-0.3,0.4-0.4c0.2-0.2,0.9-0.9,1.2-1.2c-0.5,0.2-1.7,1.4-1.9,1.4c-0.1,0-0.3-0.1-0.3-0.3c0-0.4,0.8-0.7,0.8-1
			c-0.2,0-0.8,0.6-0.9,0.6s-0.2-0.1-0.2-0.3c0-0.4,0.9-0.8,0.9-1.2c-0.2,0.1-1,0.8-1.2,0.8c-0.3,0-0.4-0.9,0.5-1.4
			c0.6-0.4,3.4-2.5,3.8-2.6c0.2,0,0.6,0.5,0.7,0.7s0.4,0.6,0.7,1.1c0.2,0.6,0.6,1.2,0.6,1.8c-0.3,0.3-3.8,2.8-3.9,2.8
			C163.8,37.9,163.4,37.8,163.4,37.6 M164.1,39c0.1-0.1,0.2-0.2,0.3-0.3c0.3-0.2,0.6-0.5,0.9-0.8c-0.4,0.1-1,0.3-1.1,0.6
			c-0.1,0.1-0.1,0.3-0.2,0.3s-0.2-0.1-0.1-0.3c0.1-0.3,0.7-0.6,0.9-0.7c0.9-0.7,1-0.8,1.9-1.5c0.6-0.4,1-0.8,1.7-1.1
			c0.3-0.1,0.5,0.3,0.3,0.5c-0.1,0.3-0.6,0.5-0.8,0.7c-0.6,0.4-0.9,0.6-1.5,1c-0.6,0.5-0.9,0.8-1.5,1.3
			C164.6,38.8,164.4,39.1,164.1,39 M164.7,39.3c1.2-1,2.5-2,3.8-2.8c0.2-0.1,1.5,1.9,2,2.7c0.1,0.2,0.4,0.6,0.3,1
			c-0.1,0.3-4.3,1.7-4.4,1.6C166.2,41.5,165.3,40.1,164.7,39.3 M165.8,42.5c0.3-0.3,0.8-0.5,0.9-0.1s0.2,2.9,0.2,3.4
			s-0.1,1.6-0.1,1.8s-0.2,1.2-0.3,1.6c-0.1,0.4-0.4,1.6-0.6,1.9c-0.1,0.3-0.4,0.8-0.7,0.8c-0.3,0-0.4-0.4-0.5-0.7s-0.3-1.4-0.4-2.1
			c0-0.8,0.2-2.7,0.4-3.4C164.8,44.5,165.5,42.8,165.8,42.5 M147.3,33.4c0.4,0,11.7,4.7,17,10c0.2,0.2,0.2,0.4,0,0.5
			c-0.1,0.1-0.3-0.3-0.4-0.4c-0.4-0.4-0.9-0.9-1.4-1.2c0.1,0.2,1.6,1.8,1.7,1.9c0.1,0.1,0.2,0.7-0.1,0.7c-0.1,0-0.2-0.2-0.3-0.3
			c-0.4-0.4-0.9-0.9-1.3-1.3c0.2,0.3,1,1.4,1.2,1.5c0.2,0.3,0.6,0.6,0.2,1c-0.2,0-0.2-0.2-0.3-0.3c-0.2-0.2-0.8-1-1-1
			c0,0.2,1.7,1.7,1.2,2.5c-0.2,0-0.3-0.2-0.4-0.4c-0.7-0.9-4.8-5.3-6.5-6.7c-1.7-1.5-9.1-6-9.4-6.2
			C147.3,33.5,147.2,33.4,147.3,33.4 M168.2,60.7c0-0.2,0.1-0.2,0.2-0.3c-0.3-0.1-0.7,0.3-1.2,0.3c-0.4,0-0.9,0-1-0.3
			c0-0.3,0.5-0.2,0.6-0.4c-0.5-0.1-1,0.2-1.6,0.2c-0.3,0-0.6-0.2-0.8-0.4c0-0.1,0-0.2,0-0.3c-0.5-0.1-1.5-0.1-1.2-0.8
			c-0.1-0.2-0.3-0.1-0.5-0.1s-0.4-0.2-0.5-0.3s-1.5-2-1.6-2.2s-0.6-0.8-0.2-0.9c0.2-0.1,3.5,1.8,6.7,3.1c0.3,0.1,0.3,0.3,0.3,0.4
			c0,0.1-0.3,0.3-0.4,0.3c-0.2,0-0.5,0-0.6-0.1c-0.2-0.1-2.8-1-3.1-1.1c0,0.2,0.6,0.4,0.7,0.5c0.5,0.3,1.2,0.6,1.8,0.8
			c0.6,0.2,1.1,0.4,1.8,0.5c0.4,0.1,1.9,0.3,1.9,0.7C169.6,60.9,168.5,61.1,168.2,60.7 M169.7,58.9c0.2,0.4,2.5,1.2,2.5,1.4
			s-0.4,0.3-0.8,0.4c-0.4,0.1-1.2-0.4-1.8-0.8c-1.8-1.3-3.2-3.3-3.5-3.8c-0.1-0.2-0.4-0.5-0.1-0.6c0.4,0.3,2.9,3.4,6.4,3.4
			c0.3,0,0.9,0.7,0.6,0.9C172.4,60,170.1,59.1,169.7,58.9 M179,62c-0.2,0-4.2,0-5.9-0.1c0-0.2-0.3-1.5,0-1.6c0.1,0,4.7,0,6.4-0.1
			h0.5v1.9C180,62,179.2,62,179,62 M171.1,68.2c0.3-0.6,1.1-1.7,1.1-1.7c0.1,0,0.6-0.1,0,0.8c-0.2,0.2-0.3,0.4-0.4,0.6
			c-0.3,0.5-0.7,1.2-0.8,1.2C170.6,68.9,170.9,68.4,171.1,68.2 M174.7,68.1c-0.1-0.1-0.1-0.4,0-0.5c0.2-0.2,1.5,0.1,1.6,0.1
			s0.1,0.1,0.1,0.2c0,0.4-0.2,0.4-0.4,0.5C175.9,68.3,174.8,68.1,174.7,68.1 M176.6,67.4c-0.1,0.2-0.5,0.1-0.8,0
			c-0.5,0-0.8-0.1-0.8-0.2c0,0,0-0.1-0.1-0.1c0.1-0.4,0.9-0.1,1.2,0C176.4,67.1,176.7,67.1,176.6,67.4 M176.6,67.9
			c0.1-0.2,0.1-0.5,0.1-0.6c0.1-0.2,0.4-0.1,0.5,0.1c0,0.1-0.1,0.5-0.1,0.7c-0.1,0.5-0.2,0.9-0.3,1.5c-0.1,0.2-0.1,0.6-0.3,0.6
			c-0.2,0-0.3-0.1-0.3-0.2c0.1-0.4,0.3-1.4,0.3-1.4C176.6,68.3,176.6,68.1,176.6,67.9 M174,67.7c-0.2,0.4-0.4,0.9-0.6,1.4
			c-0.1,0.2-0.2,0.6-0.4,0.5c-0.3,0-0.1-0.5,0.1-0.9s0.4-0.8,0.5-1.3c0.1-0.2,0.2-0.6,0.4-0.6C174.5,66.8,174.1,67.5,174,67.7
			 M172.7,69.2c0,0.1-0.1,0.2-0.2,0.2c-0.2,0-0.9-0.2-0.9-0.4C171.7,68.6,172.7,69.1,172.7,69.2 M171.9,68.5
			c-0.1-0.6,0.9-0.3,0.9-0.3c0.1,0,0.2,0,0.2,0.2s-0.2,0.4-0.3,0.4c-0.1,0-0.4-0.1-0.4-0.1C172.1,68.8,171.9,68.5,171.9,68.5
			 M173.4,67.4c-0.2-0.1-0.7,0-0.6-0.3c0-0.2,0.1-0.2,0.2-0.3C173.4,66.5,174.1,67.2,173.4,67.4 M173.4,67.8c0,0.2-0.1,0.5-0.3,0.4
			c-0.2-0.1-0.6-0.1-0.7-0.4c0-0.1,0.1-0.3,0.2-0.3C172.8,67.4,173.3,67.6,173.4,67.8 M155.8,99.5c-0.1-0.1-1-1.5-1.2-1.8
			s-1.1-2-1.4-2.5c-0.2-0.4-1.8-3.9-2.4-6.4c-0.5-2.3-0.6-4.4-0.5-5.4c0.4-5.6,0.6-5.4,1-7.5c0-0.1,1.4,1.9,1.9,2.7
			c1.6,2.5,5.9,6.1,6.2,6.3c0.3,0.2,0.6,0.3,0.4,0.6c-0.1,0.3-0.9,2.4-0.9,2.7c-0.1,0-0.2-0.1-0.2-0.2c-0.2-0.2-0.4-0.5-0.7-0.8
			c-1-0.9-2.4-2.8-2.6-3.1s-2.1-2.9-2.4-3.4s-0.6-1.1-0.8-1.1c0,0-0.4,0-0.3,2.6c0,2.6,0.3,8.7,5.6,16.1c0,0,0.2,0.3-0.2,0.7
			c-0.2,0.2-0.5,0.4-0.7,0.6c0,0-0.1,0-0.2,0C156.2,99.9,156,99.6,155.8,99.5 M181.5,114.1l-0.2-10.8c0-0.2-0.3-0.2-0.6-0.2
			c0,0-3.8-0.1-4.6-0.2c-0.9-0.1-3.6-0.6-5.3-1.2c-4.9-1.7-8.3-4.4-8.9-4.9c-4-3.6-6.4-7.5-7.6-10.1c-1.2-2.5-1.5-3.3-1.6-3.8
			c-0.1-0.2-0.1-0.5-0.4-0.6c-0.2,0.1-0.1,0.4-0.1,0.6c0.1,0.5,0.5,1.6,0.5,1.8c0.5,1.3,1.1,2.6,1.8,3.7c0.2,0.4,0.9,1.5,0.9,1.8
			c-0.1-0.1-1.2-1.8-1.6-2.6c-0.3-0.6-1-2.3-1.2-2.4c-0.2,0.6,0.1,1.1,0.3,2c0.2,0.9,1.1,3.5,1.4,4.1s1,1.7,1.6,2.4
			c0.2,0.3,0.5,0.6,0.6,1c-0.2-0.1-1.8-2.2-2.2-2.7c0.1,0.4,0,0.3,0.3,1.1c1,2.2,3,3.9,3.3,4.1c0.2,0.2,1.3,1.3,1.4,1.4
			c0.1,0.1,1.5,1.2,1.5,1.4c-0.5-0.3-1-0.6-1.4-1s-1.8-1.7-2.4-2.4c-0.3-0.2-0.2,0.1-0.2,0.1c1.8,2.3,5,5.4,9.8,7.3
			C174.8,107.5,178.8,108.3,181.5,114.1L181.5,114.1z M181.8,93.8c0.7,0,1.6,0,2.3-0.1c0.1-0.1,0-0.1,0-0.2c-0.8,0-1.5,0-2.3,0v-0.6
			c0.4,0,2.2,0,2.2-0.3c0-0.2-1.6,0.1-2.2-0.1V92c0.4-0.1,1.9-0.1,1.9-0.3s-1.5,0-1.9-0.1V91c0.5-0.1,2.3-0.1,2.3-0.3
			s-1.6-0.1-2.3-0.1v-0.7c0.6,0,2.3,0.1,2.3-0.1c0-0.2-1.8-0.1-2.3-0.2v-0.7c0.3,0,1.9,0.1,1.9-0.1c0-0.2-1.6-0.2-1.9-0.2
			c0-0.1,0-0.4,0-0.6c0.6-0.1,2.3,0,2.3-0.2s-1.8-0.1-2.3-0.2V87c0.3-0.1,2-0.1,2-0.3s-1.6-0.1-2-0.2v-0.6c0.7-0.1,2.3,0.1,2.3-0.2
			c0-0.2-1.7-0.1-2.3-0.2v-0.7c0.3,0,2.1,0,2.1-0.2s-1.7-0.2-2.1-0.2v-0.6c0.3,0.1,1.8-0.1,1.8-0.2c0-0.1-1.5-0.1-1.8-0.2v-0.6
			c0.8,0,1.7,0,2.3-0.2c0-0.1,0.1-0.2,0.1-0.2s-2.1,0.1-2.4,0v-0.6c1.3,0.1,4.2-0.3,4.3-0.3c0.2,0,0.9-0.3,1.3-0.1
			c0.2,0.7-1.8,0.9-2.3,0.9c0.1,0.3,1.7,0.1,2,0.1c0.4,0,0.4,0.2,0.5,0.5c-0.2,0.2-1.9,0.3-1.9,0.5c0.2,0.2,1.6,0,1.8,0
			c0.1,0.1,0.2,0.2,0.2,0.5c-0.4,0.5-1.5,0.1-1.9,0.6c0.2,0.1,1.8-0.1,1.9,0.1c0.1,0.1,0.1,0.4,0,0.5c-0.1,0.2-2,0.3-2,0.5
			c0,0.1,1.7-0.1,1.9,0c0.1,0.1,0.2,0.2,0.2,0.4c-0.1,0.3-0.8,0.3-1.2,0.4c-0.2,0-0.5,0.1-0.5,0.2c0,0.2,1.6,0,1.7,0
			c0.1,0.1,0.2,0.2,0.2,0.4c-0.1,0.4-1.1,0.3-1.4,0.6c0,0.2,0.2,0.1,0.3,0.1c0.4,0,0.7-0.1,1-0.2c0.2,0.1,0.2,0.3,0.2,0.5
			c-0.1,0.2-2.1,0.5-2.1,0.6c0,0.2,0.5,0.1,0.6,0c0.5-0.1,1-0.2,1.5-0.2c0.1,0.1,0.2,0.4,0.2,0.5s-1.2,0.4-1.3,0.6
			c0.1,0.1,0.2,0.1,0.4,0.1c0.6,0,1.3-0.5,1.3,0.4c-0.3,0.2-1.7,0.4-2,0.6c0.1,0.2,0.4,0.1,0.7,0.1c0.5-0.1,1-0.2,1.5-0.2
			c0.1,0.1,0.4,0.3,0.3,0.5s-2.2,0.4-2.2,0.6c0.1,0.1,0.4,0,0.6,0c0.4,0,1.7-0.3,1.8-0.3c0.1,0,0.4,0.4,0.3,0.5s-0.2,0.1-0.4,0.1
			c-0.5,0.1-1.1,0.3-1.7,0.4c-0.1,0-0.3,0-0.3,0.1c0.1,0.1,0.3,0.1,0.4,0c0.4,0,2.4-0.5,2.5,0.1c-0.5,0.3-1.3,0.4-1.9,0.6
			c-0.1,0-0.3,0-0.3,0.1c0.1,0.2,2.4-0.4,2.6-0.4c0.1,0,0.6,0.3,0.5,0.5c0,0.1-0.6,0.2-0.7,0.2c-0.8,0.1-1.6,0.3-2.4,0.4
			c0,0.1,0.1,0.1,0.1,0.2c0.9-0.1,1.9-0.3,2.9-0.4c0.5,0,1-0.2,1.2,0.3c-0.3,0.2-3.2,0.7-3.4,0.9c0.1,0.2,0.3,0.1,0.4,0.1
			c0.9-0.1,1.8-0.3,2.6-0.5c0.3-0.1,0.7-0.3,1-0.2c0.1,0,1.2,0.3,0.7,0.5c-0.4,0.2-3.9,0.9-4,0.9s-0.4,0-0.4,0.2
			c0.5,0.2,5.2-1.1,5.6-1.1c0.2,0,0.9,0.1,1.4,0c-0.1,0.2-4.5,1.4-5.3,1.5c0,0.1,0.1,0.2,0.1,0.3c2-0.3,5.3-1.5,5.9-1.7
			c1.7-0.8,3.6-2,4.5-2.8c4.6-3.9,6.2-6.5,7.6-8.3c1.3-1.8,1.9-2.8,1.9-2.8c0.1,0.4-0.1,0.7-0.2,1.2c-0.2,0.5-1,2.7-1.2,3.2
			s-0.8,1.5-1,1.9c-0.2,0.5-0.8,1.3-1.1,1.8c-1.1,1.6-4.4,5.9-5.3,6.6c-0.9,0.7-1.2,1.1-3.3,2.6c-2.1,1.5-8.3,3.8-13.8,4
			c-1.8,0-2,0.1-2.7,0.1c-0.2,0-0.2-0.5-0.1-0.6c0.7,0,3-0.1,3.1-0.3c0-0.2-2.4-0.1-3-0.1c-0.1-0.1-0.1-0.6,0-0.6
			c0.6,0,2.1,0,2.2-0.4c0-0.2-1.5,0-2.2-0.1c-0.2-0.1-0.1-0.5,0.1-0.6c0.3,0,0.4,0,0.6,0c0.3,0,2.1-0.2,2.1-0.4s-2.6,0-2.8-0.1
			c-0.2-0.1-0.1-0.6,0.1-0.7c0.6-0.1,2.6-0.2,2.6-0.3c0-0.2-2.4,0-2.6,0c-0.2-0.1-0.2-0.6,0-0.7c0.1,0,2.6,0,2.6-0.3
			s-2.8,0.2-2.8-0.3c0-0.4,2.3-0.3,2.3-0.6c0-0.2-1.4,0-2.1,0c-0.2-0.1-0.2-0.6,0-0.7c0.8,0,2.3,0,2.3-0.2s-1.7-0.2-2.3-0.2
			c-0.2-0.1-0.1-0.4,0-0.5c0.1-0.2,2.1,0.1,2.2-0.2s-1.7-0.2-2.3-0.3v-0.4H181.8z M181.8,81.3c0.7-0.1,1.7-0.1,2.5-0.2
			c0.7-0.1,1.5-0.2,2.2-0.3c0.3,0,0.7-0.3,0.9,0c-0.2,0.4-0.7,0.4-1.2,0.5c-1.3,0.2-3.1,0.3-4.5,0.3 M188,80.5
			c-0.3-0.3,0.1,6.2,1.3,9.1c1.3,3.1,3.7,5.3,7.1,4.8c2.2-0.4,5.4-3.2,5.5-3.3c0.1-0.2-0.4,0.1-0.4,0.1c-2.7,0.6-3.3-0.9-3.3-1.4
			c0-0.3,0.4-0.4,0.4-0.7s-0.2-0.6-0.5-0.7c-0.4-0.1-0.8,0.1-1.1,0.3c-0.9,0.4-1.3,0.4-2,0.6c-0.8,0.2-1.6,0.3-1.9,0.2
			s-0.6-0.6-0.6-0.8c0-0.3,0.1-0.5,0.1-0.7c0-0.6-0.2-0.8-0.5-1.1c-0.2-0.2-0.3-0.4-0.5-0.6c-0.3-0.1-0.7-0.1-0.9-0.2
			c-0.1-0.3-0.1-0.8,0-1C190.8,84.5,188.5,81,188,80.5 M198.4,87.8c0.2-0.3,2-1.6,2.3-1.7c0.2-0.1,0.5,0.7,0.6,0.9
			c-0.3,0.4-1.8,1.5-2.2,1.7C198.9,88.4,198.6,88.1,198.4,87.8 M211,82c0,0,0.2-0.2,0.1,0.2c-0.2,1.5-2,5.1-2.5,6.1
			s-3.9,5.7-4.1,5.9s-2.6,2.8-3.6,3.6s-2.3,1.7-3.4,2.3c-0.7,0.4-5,2.3-8.1,2.8c-3.9,0.6-7.7,0.4-7.7,0.3c0-0.1,0.4-0.1,0.5-0.1
			c1.3-0.1,4.7-0.2,5.4-0.3c0.7-0.1,2.6-0.4,3.4-0.6c0.7-0.2,3.1-1,4-1.3c0.8-0.3,2.5-1.3,3.4-1.8c0.9-0.6,2.3-1.7,3-2.3
			c0.7-0.5,4.2-4.6,4.9-5.6c0.7-1,2.8-4.5,3-4.9C209.5,85.9,210.5,83.5,211,82 M182.4,113.5c-0.2,0-0.5-0.1-0.6-0.2
			c0-0.2,0.6-0.2,0.8-0.2C182.6,113.2,182.5,113.3,182.4,113.5 M182.9,112.7c-0.2,0-1-0.1-1-0.3c0-0.1,1.1-0.3,1.4-0.3
			C183.1,112.3,183,112.5,182.9,112.7 M183.3,111.8c-0.1,0-1.5,0-1.5-0.4c0-0.3,1.7-0.3,2-0.3C183.6,111.3,183.4,111.5,183.3,111.8
			 M184.1,110.8c-0.6,0-2.9,0-2.2-0.6c0.8,0,2-0.1,2.8-0.2C184.6,110.2,184.2,110.7,184.1,110.8 M185.2,109.7
			c-0.6,0.3-1.6,0.1-2.4,0.1c-0.3,0-0.9,0-0.9-0.2c0-0.3,1.5-0.3,1.8-0.4c0.8-0.1,1.7,0,2.3-0.3
			C185.6,109.2,185.3,109.5,185.2,109.7 M186.5,108.6c-0.8,0.2-1.7,0.4-2.7,0.3c-0.1,0-1.9,0-1.9-0.2c0-0.3,3.9-0.5,4.6-0.6
			c0.3-0.1,0.8-0.2,1.2-0.2C187.5,107.9,186.8,108.4,186.5,108.6 M188.2,107.5c-0.2,0.1-1.4,0.2-1.8,0.2c-0.1,0-2.4,0.2-3,0.2
			c-0.4,0-1.6,0-1.6-0.2c-0.1-0.4,1.4-0.4,2.1-0.4c2.7,0,5.4-0.6,6.1-0.8C189.5,106.8,188.3,107.4,188.2,107.5 M196,104.2
			c-4.6,1.7-5.7,2-6.4,2.1c-0.3,0-0.6,0.1-1,0.2c-0.3,0-1.8,0.3-2.3,0.4c-0.6,0.1-4.1,0.3-4.3,0.1c-0.2-0.2-0.5-0.5,0.4-0.5
			c0.6,0,1.3,0,2,0c0.8-0.1,3.9-0.4,4-0.6c-0.9-0.1-4.2,0.4-5,0.3c-0.1,0-1.6,0.1-1.5-0.3c0-0.3,0.4-0.3,0.6-0.3s2.3,0,3.1-0.2
			c0,0,0.2,0,0.2-0.1s0-0.1-0.2-0.1c-0.3,0-2,0.1-2.6,0c-0.1,0-1,0.1-1-0.2c-0.1-0.4,0.5-0.4,0.9-0.4c1.7,0,3.5-0.1,5-0.4
			c0.3,0,2.5-0.4,3.1-0.6c0.1,0,0.3,0,0.3-0.2c-0.7,0.1-4.1,0.8-8.7,0.8c-0.3,0-0.7,0-0.7-0.2s0.7-0.3,0.8-0.3
			c0.6,0,2.5-0.1,2.6-0.1c0.8,0,2.3-0.2,4.3-0.6c2-0.3,2-0.4,3.2-0.8c1.2-0.4,3.8-1.3,5.1-2c1.9-1.1,5-3.3,7.4-6.6
			c0.7-1.1,3.2-4.2,4.5-7.1c0.4-0.7,0.6-1.5,1-2.2h0.1c0.1,0.3-0.1,0.6-0.1,0.8c-0.4,1.8-1.9,4.4-2.1,4.8c-0.2,0.4-1.6,2.4-1.7,2.7
			c-0.2,0.3-0.7,0.8-0.9,1.4c0.3,0,0.6-0.5,0.8-0.7c0.2-0.3,1.3-1.7,1.8-2.5s1.5-2.9,1.7-3.3c0.2-0.4,0.1-0.4,0.3-0.4
			c0.1,0.2,0,0.5-0.1,0.7c-0.2,0.6-0.5,1.2-0.8,1.8s-1.6,2.3-1.6,3c0.1,0,1.5-2.3,1.7-2.4c0.1,0.2-0.4,1.4-0.8,2.2s-3.4,4.5-3.6,4.8
			c-0.2,0.2-0.7,0.7-0.9,1.1c0.1,0,0.2-0.1,0.3-0.2c1.3-0.9,3.3-4,3.7-4.3c-0.1,0.5-1.5,2.6-2.2,3.5C205.6,98,201.2,102.3,196,104.2
			 M206.9,99.8c-0.3-0.2-0.5-0.5-0.7-0.6l-0.1-0.1c0-0.1,0-0.2,0.4-0.7c5.1-6.3,5.1-13.6,5.1-17.8c0-0.3-0.2-0.9-0.3-0.9
			c-0.1,0-0.4,0.4-0.5,0.5s-4.7,6.4-5.5,7.1c-0.7,0.8-0.6,0.7-1.1,0.9c-0.2-0.8-0.5-1.7-0.8-2.5c-0.1-0.2-0.2-0.4-0.2-0.5
			c0-0.2,0.3-0.4,0.6-0.6c1.9-1.4,6.8-6.3,8-8.8l0,0c0.1,0.4,0.2,0.8,0.3,1.3c0.8,2.7,0.7,5.7,0.6,6.5c-0.1,0.9,0.1,6.4-2.8,11.8
			c-0.2,0.4-1,1.8-1.4,2.4c-0.3,0.6-0.7,1.1-1.1,1.7C207.3,99.7,207,99.9,206.9,99.8C207,99.8,206.9,99.8,206.9,99.8 M202.4,87.2
			c0.3-0.2,0.7-0.6,0.9-0.1c-0.4,0.3-0.8,0.7-1.2,1.1c0.5-0.1,1-0.4,1.4-0.6c0,0.1,0,0.2,0.1,0.3c-0.4,0.5-0.9,0.9-1.3,1.4
			c0.3,0,0.5-0.1,0.8-0.2c0.1-0.1,0.3-0.2,0.4-0.3c0,0.2-0.1,0.4-0.2,0.5c-1.1,1.7-3,1.9-3.9,1.4c-0.3-0.1-0.7-0.5-0.7-0.7
			C198.7,89.8,201.8,87.6,202.4,87.2 M202.1,83.8c-0.2,0.3-0.4,0.6-0.7,1c-0.3,0.3-4.4,3.3-5,3.6c-0.3,0.2-0.7,0.3-1.1,0.3
			c0-0.2,6.3-4.9,6.9-5.3l0,0C202.4,83.5,202.2,83.6,202.1,83.8 M203.2,81.3c0.4,0.2-0.2,0.5-0.4,0.7c-3,2.2-6,4.4-9,6.6
			c-0.2,0.1-0.4,0.5-0.7,0.2C193.1,88.7,202.8,81.5,203.2,81.3 M202.6,81L202.6,81c0.1,0.1-0.1,0.2-0.2,0.3
			c-2.3,1.7-8.5,6.3-9.2,6.8c-0.1,0.1-0.2,0.2-0.3,0.1c0-0.3,0.3-0.4,0.4-0.6C194.4,86.9,202.2,81.3,202.6,81 M205,63.6
			c0,0,0.9-0.8,2.2-0.9c1.3-0.1,2.4,0.5,3.5,1.9c0.5,0.7,1.1,1.6,1.3,2.8c0,0.1,0,0.2,0,0.3c0,0.4-1.1-0.1-1.7-0.1
			c-1,0-2.3,0.9-3.2,1.7c-0.6,0.5-2,1.8-2.8,2.5s-10,8.7-22.8,8.7c-15.1,0-24.3-10.2-25.2-11c-0.9-0.8-2.2-1.8-3.3-1.8
			c-0.6,0-1.7,0.4-1.7,0.1c0-0.1,0-0.2,0-0.3c0.2-1.2,0.8-2.1,1.3-2.8c1-1.3,2.2-2,3.5-1.9s2.2,0.9,2.2,0.9
			c1.4,1,10.9,10.3,22.9,10.3c12.8,0,22.3-9.3,23.5-10.2C204.8,63.8,204.9,63.7,205,63.6 M193.3,69.3c0,0.2-0.9,0.5-1.1,0.5
			c-0.9,0.3-1.5,0.6-2.4,0.8c-0.5,0.2-1,0.3-1.5,0.4c-0.7,0.1-1.4,0.3-2.1,0.4v0.2c1.9-0.2,3.9-0.7,5.5-1.2c0.5-0.1,0.8-0.2,1.2-0.4
			c0.2-0.1,0.5-0.2,0.6,0c-0.1,0.3-0.4,0.4-0.7,0.5c-0.3,0.1-0.6,0.2-0.8,0.3c-0.5,0.2-1.1,0.4-1.7,0.6c-0.6,0.2-1.2,0.3-1.8,0.5
			c-0.5,0.1-0.9,0.2-1.4,0.3c-0.1,0-0.4,0-0.3,0.2c1.4-0.1,2.8-0.5,4-0.8c0,0.2-0.2,0.2-0.2,0.2c-1.1,0.4-2.4,0.8-3.7,1.1
			c-1.2,0.2-2.5,0.5-3.8,0.6c-1.8,0.1-3.8,0.1-5.5-0.2c-0.4-0.1-2.7-0.5-3.5-0.8c-0.3-0.1-3.9-1.5-4.7-1.9c0-0.1,0.2-0.3,0.3-0.4
			c0.9,0.2,3.3,0.9,3.6,0.8c-0.1-0.3-2.5-0.9-3.2-1.2c0-0.1,0.2-0.3,0.2-0.4c3,0.7,6.7,1.5,10.3,1.6c1.5,0.1,3.1-0.1,4.5-0.2
			c0.9-0.1,1.7-0.3,2.5-0.4c0.4-0.1,0.8-0.1,1.2-0.2c0.5-0.1,0.9-0.2,1.4-0.3s1-0.3,1.5-0.5c0.1,0,0.2,0,0.3,0
			c0.1,0,0.2-0.1,0.3-0.1c0.1,0,0.3-0.1,0.4-0.1C192.9,69.1,193.3,69.2,193.3,69.3 M177.3,70.1c0.1-0.4,0.3-0.4,0.5-0.4
			c0.1,0,1.4,0.2,1.6,0.3c0,0.2,0,0.4-0.2,0.5c-0.6,0-1.6-0.2-1.7-0.2C177.3,70.3,177.3,70.3,177.3,70.1 M177.9,69.5
			c-0.3,0-0.4-0.2-0.4-0.3c-0.1-0.1,0-0.2,0-0.3c0.1-0.2,1.8,0,1.8,0.2c0.1,0.2,0,0.3,0,0.4C179.3,69.7,178.2,69.6,177.9,69.5
			 M179.5,67.8c-0.4,0.2-1.2,0-1.7-0.1c-0.2,0-0.2-0.5,0.1-0.4c0.3,0,1.3,0,1.5,0.1C179.6,67.4,179.5,67.7,179.5,67.8 M179.6,69.2
			c0-0.4,0-0.6,0.1-1c0-0.3,0-0.7,0.2-0.8c0.5-0.2,0.3,0.5,0.3,0.9s-0.1,0.7-0.1,1s0,1.1-0.3,1.2C179.2,70.7,179.5,69.7,179.6,69.2
			 M177.8,68c0.2,0,1.5,0,1.6,0.3c0,0.2,0,0.4-0.2,0.5c-0.3,0-1.7-0.2-1.7-0.4C177.6,68.3,177.6,67.9,177.8,68 M182.4,70
			c0.1,0,0.2,0.1,0.3,0.2c0.1,0.4-0.2,0.4-0.6,0.4c-0.3,0-0.7,0-0.9,0c-0.3,0-0.5,0-0.5-0.2c0-0.1,0-0.4,0.1-0.4S182.2,70,182.4,70
			 M181,68.9c-0.2-0.1-0.1-0.3-0.1-0.5s1.6-0.1,1.8,0c0.1,0.1,0.1,0.2,0,0.4C182.5,68.9,181.1,69,181,68.9 M182.2,69
			c0.1,0,0.5,0.1,0.5,0.4c0,0.1-0.1,0.2-0.1,0.3c-0.1,0.1-0.8,0.1-1,0c-0.1,0-0.7,0-0.8-0.1c-0.1-0.1,0-0.4,0.1-0.5s0.4,0,0.5,0
			C181.6,69.1,182.1,69.1,182.2,69 M183,67.3c0.2,0,0.2,0.4,0.2,0.7s0.3,2,0.2,2.3c-0.1,0.5-0.5,0.1-0.5-0.9
			C182.8,68.6,182.5,67.4,183,67.3 M181.1,67.4c0.3,0,1.2-0.1,1.5,0c0.1,0.1,0.1,0.4-0.1,0.5s-1.4,0-1.5-0.2
			C180.9,67.6,181,67.4,181.1,67.4 M189.8,66.8c-0.3,0.1-0.7,0.3-0.7-0.1c0-0.2,0.7-0.5,1-0.5h0.2c0,0,0.2,0,0.2,0.1
			C190.5,66.5,190.1,66.7,189.8,66.8 M190.7,66.9c0,0.1,0.1,0.2,0.1,0.4s-1.1,0.6-1.2,0.6s-0.3-0.3-0.3-0.5c0-0.1,0.2-0.2,0.5-0.3
			C190.2,66.9,190.5,66.7,190.7,66.9 M188.7,69c-0.1-0.4-0.3-0.7-0.4-1c-0.1-0.2-0.2-0.4-0.3-0.7c-0.1-0.2-0.2-0.8,0.3-0.5
			c0.1,0.1,0.2,0.5,0.3,0.6c0.2,0.5,0.3,0.9,0.5,1.4c0.1,0.3,0.5,0.9,0,0.9c-0.2,0-0.2,0-0.3-0.2C188.7,69.4,188.7,69,188.7,69
			 M187.5,70.1c-0.2-0.1-0.2-0.4-0.1-0.5s1-0.3,1.1-0.3s0.3,0.4,0.2,0.5C188.4,69.9,188.1,70.1,187.5,70.1 M187.3,69.4
			c-0.1,0-0.2-0.2-0.2-0.5c0-0.2,0.7-0.3,1.2-0.4c0.2,0.1,0.3,0.5,0.2,0.6C188.3,69.3,187.4,69.5,187.3,69.4 M188,67.8
			c0,0.2,0.1,0.3,0,0.4c-0.1,0.1-0.2,0.1-0.3,0.2c-0.2,0.1-0.5,0.1-0.6,0.1s-0.4-0.4-0.3-0.6c0.1-0.1,0.7-0.2,0.9-0.3
			C187.8,67.6,187.9,67.8,188,67.8 M186.8,67.6c-0.1,0.1-0.3-0.2-0.3-0.3s1.1-0.6,1.1-0.2C187.8,67.5,186.9,67.5,186.8,67.6
			 M185.8,68.5c-0.1-0.3-0.2-0.6-0.2-1c0-0.1-0.1-0.4,0.1-0.4c0.3,0,0.3,0.6,0.4,0.8c0.2,0.6,0.4,1.5,0.5,2.2
			c-0.1,0.2-0.4,0.1-0.5,0C186.1,69.9,185.8,68.5,185.8,68.5 M185.9,70.4c-0.3,0.2-1.4,0.2-1.6,0.2s-0.2-0.3-0.2-0.3
			c0-0.2,0.1-0.2,0.3-0.2c0.2,0,1.3-0.2,1.4-0.1C185.9,70,185.9,70.4,185.9,70.4 M184.3,69.8c-0.3,0-0.3-0.3-0.3-0.5
			c0-0.1,0.7-0.2,0.8-0.3c0.1,0,0.8-0.1,0.8,0.1c0,0.3,0.1,0.4,0,0.5C185.4,69.7,184.2,69.8,184.3,69.8 M185.6,68.5
			c0,0.2-0.5,0.2-0.7,0.2c-0.3,0-0.7,0.1-0.8,0c-0.1-0.1-0.3-0.5,0-0.6c0.1,0,0.3-0.1,0.5-0.1c0.4,0,0.8-0.2,1,0
			C185.6,68.2,185.6,68.3,185.6,68.5 M185.3,67.7c-0.1,0-0.8,0.2-0.9,0.1c-0.1,0-0.5,0.1-0.5-0.1c-0.2-0.6,1.2-0.6,1.3-0.6
			C185.3,67.3,185.4,67.7,185.3,67.7 M190.2,69.2c0-0.2,0.3-0.3,0.6-0.4c0.3-0.1,0.6-0.3,0.7-0.3s0.3,0.1,0.3,0.2
			c0,0.2-0.4,0.3-0.6,0.4c-0.3,0.1-0.6,0.3-0.8,0.3C190.2,69.4,190.2,69.3,190.2,69.2 M191,66.9c-0.2-0.2-0.3-0.5-0.4-0.7
			s0.3-0.5,0.7,0.2c0.3,0.5,0.5,0.8,0.8,1.3c0.1,0.2,0.6,0.8,0.2,0.9c-0.2,0-0.3-0.2-0.4-0.3C191.7,68.2,191,66.9,191,66.9
			 M191.3,68.2c-0.2,0.2-1.1,0.5-1.3,0.4c-0.2,0-0.3-0.2-0.2-0.4c0-0.2,0.3-0.2,0.6-0.4c0.3-0.1,0.6-0.3,0.8-0.1
			C191.3,67.9,191.3,68.2,191.3,68.2 M191.9,60.4c-1.1,0-0.8-0.1-0.8-0.3c0-0.3,0.4-0.3,0.6-0.4c0.1,0,0.6-0.2,0.7-0.3
			c0.3-0.1,0.5-0.3,0.8-0.4c0.1-0.1,0.3-0.2,0.3-0.3c-0.4,0.1-1.2,0.3-1.3,0.3c-0.5,0-1.9,0.5-2,0.5c-0.3-0.4,0.2-0.9,0.5-0.9
			c2.4,0.1,4.1-1.4,6.5-3.4l0,0C197.4,55.6,193.8,60.4,191.9,60.4 M201,58.2c-0.3,0.2-0.7,0.2-1,0.4c0.3,0.7-0.7,0.7-1.2,0.8
			c-0.1,0.1,0,0.2,0,0.3c-0.5,0.7-1.6,0.2-2.4,0.1c0,0.2,0.6,0.1,0.6,0.4c0,0.3-0.6,0.3-0.9,0.3c-0.4,0-0.9-0.4-1.2-0.3
			c0,0.1,0.2,0.1,0.2,0.3c-0.3,0.3-1.4,0.2-1.4-0.2c0-0.3,1.5-0.7,1.9-0.8c0.7-0.1,1.2-0.3,1.8-0.5c0.6-0.2,1.3-0.5,1.8-0.8
			c0.3-0.2,0.6-0.3,0.8-0.5c-0.2,0-0.3,0.1-0.5,0.2c-0.1,0-2.9,1.1-3.3,1c-0.1,0-0.4-0.2-0.4-0.3s0.7-0.9,0.7-0.9c0.4,0,5-2,5.4-2.2
			c0.3-0.2,1-0.7,1.1-0.4C203,55.4,201.6,57.7,201,58.2 M211.3,51.9c-0.1,0.1-0.4,0.5-0.4,0.6c-0.2,0.4-0.6,0.5-1,0.8
			c0.2,0.7-0.6,0.8-1.1,1c0,0.1,0.2,0.1,0.2,0.2c0,0.2-1.4,0.8-1.5,0.9c0,0.2,0.1,0.2,0.1,0.3c-0.1,0.2-0.3,0.4-0.5,0.4
			c-0.3,0.1-0.8,0-1,0.2c0,0.1,0.1,0.1,0.1,0.3c-0.4,0.6-1.6,0.4-2.4,0.4c0.1,0.3,0.8,0.1,0.8,0.4c0,0.2-0.5,0.4-0.7,0.4
			c-0.5,0.1-1.3-0.1-1.3,0c0.7,0.3-0.6,0.7-0.9,0.4c0.1-0.2,0.7-1,0.8-1.2c0.2,0,0.6-0.2,0.7-0.2c0.4-0.1,1.6-0.7,1.7-0.8
			c0.8-0.4,1.6-0.8,2.4-1.3c-0.7,0.1-3.8,1.7-4.3,1.5c0.1-0.3,0.3-0.5,0.4-0.7c0.2-0.4,0.4-0.8,1-0.8c0.1,0,1.5-0.6,1.8-0.7
			c0.2-0.1,4.3-2.5,4.5-2.6c0.3-0.1,0.6-0.4,0.9-0.2C211.6,51.5,211.5,51.7,211.3,51.9 M214.5,45.1c0.1,0.4-1.6,2.6-2.2,3.3
			c0.1,0.1,0.2,0.1,0.2,0.2c0,0.2-0.3,0.5-0.5,0.7s-4.8,4.2-7.1,4.7c-0.8,0.2-0.8,0-0.9-0.1c-0.2-0.4,0.6-1.1,1-1.3s4.3-2.4,4.8-2.9
			l0,0c-0.4,0.1-1.9,0.9-2.3,1.1c-0.4,0.2-1,0.2-0.8,0c0.1-0.2,3.6-2.5,4-2.8C211,47.7,214,45.4,214.5,45.1 M216.2,37.9
			c0.1,0.2,0,0.2-0.1,0.6c-0.1,0.4-1,2.9-2.7,5.5c-1.1,1.7-7.3,6.4-7.9,6.5c0.5-0.4,1.7-2.5,1.9-3c4.6-3,5.6-4.6,5.8-4.9
			c0,0-4.1,3.5-4.8,3.6c-0.1-0.3,0.7-1.9,1-2.2c0.2-0.1,1.7-1.1,2.5-1.8c0.7-0.7,3.3-3.7,3.6-3.9C215.7,38.1,215.9,37.8,216.2,37.9
			 M213.9,39c-0.3,0.5-3.5,4.5-5.5,4.5c-0.3,0,0.4-1.1,0.4-1.1s1.8-1.3,3.4-3c0.7-0.7,1.3-1.6,1.3-1.7c-0.1-0.1-2.1,1.8-2.5,2.1
			c-0.3,0.2-1.4,1.1-1.6,0.9c-0.2-0.2,0.7-2.6,0.9-2.8c0.1-0.2,0.5-0.7,0.7-0.5s-0.4,1.1-0.2,1.1c0.3,0.1,0.9-1.5,1-1.7
			s0.4-0.3,0.6-0.3s-0.2,1,0.1,0.6c0.3-0.4,0.7-1.5,1.2-1.4c0.3,0.1-0.1,0.6-0.1,0.8c1-1.5,1.5-1.7,1.6-1.8c0.1,0-0.1,0.5,0,0.5
			c0,0,0.2-0.2,0.4-0.6c0.4-0.8,1.8-1.7,2-1.6S214.5,38.2,213.9,39 M151.5,51.2c0.3-0.2,0.6,0,0.9,0.2c0.2,0.1,4.3,2.5,4.5,2.6
			c0.3,0.2,1.7,0.7,1.8,0.7c0.5,0.1,0.8,0.5,1,0.8c0.1,0.2,0.3,0.4,0.4,0.7c-0.4,0.1-3.5-1.4-4.3-1.5c0.7,0.5,1.6,0.9,2.4,1.3
			c0.2,0.1,1.3,0.7,1.7,0.8c0.1,0,0.5,0.2,0.7,0.2c0.1,0.2,0.7,1,0.8,1.2c-0.3,0.3-1.7-0.1-0.9-0.4c0,0-0.8,0.1-1.3,0
			c-0.2,0-0.7-0.2-0.7-0.4c0-0.3,0.6-0.1,0.8-0.4c-0.8,0-2.1,0.2-2.4-0.4c0-0.1,0.1-0.1,0.1-0.3c-0.2-0.2-0.7-0.1-1-0.2
			c-0.2-0.1-0.3-0.3-0.5-0.4c0-0.1,0.1-0.2,0.1-0.3c-0.1-0.1-1.5-0.7-1.5-0.9c0-0.1,0.2-0.1,0.2-0.2c-0.5-0.2-1.3-0.3-1.1-1
			c-0.4-0.3-0.8-0.4-1-0.8c0-0.1-0.3-0.5-0.4-0.6C151.7,51.7,151.6,51.5,151.5,51.2 M152.6,48c0.5,0.3,3.9,2.7,4,2.8
			c0.1,0.2-0.4,0.2-0.8,0s-2-1-2.3-1.1l0,0c0.4,0.4,4.4,2.6,4.8,2.9c0.4,0.2,1.2,1,1,1.3c-0.1,0.1,0,0.3-0.9,0.1
			c-2.3-0.5-6.9-4.5-7.2-4.7c-0.2-0.2-0.6-0.5-0.5-0.7c0-0.2,0.1-0.1,0.2-0.2c-0.7-0.7-2-2.3-1.8-2.7C149.6,46,152.2,47.7,152.6,48
			 M147.8,38.6c0.3,0.2,2.8,3.2,3.6,3.9c0.7,0.7,2.3,1.7,2.5,1.8c0.3,0.3,1.2,1.8,1,2.2c-0.7,0-4.8-3.6-4.8-3.6
			c0.2,0.3,1.2,1.9,5.8,4.9c0.2,0.5,1.4,2.6,1.9,3c-0.6-0.1-6.8-4.8-7.9-6.5c-1.7-2.5-2.6-5.1-2.7-5.5c-0.1-0.4-0.2-0.4-0.1-0.6
			C147.3,38.1,147.5,38.4,147.8,38.6 M197.9,35.5c0.5,0.3,0.9,0.6,1.5,1c0.1,0.1,0.9,0.5,0.7,0.8c-0.2,0.2-0.5-0.2-0.6-0.3
			C198.9,36.4,198.4,35.9,197.9,35.5C197.8,35.5,197.8,35.5,197.9,35.5L197.9,35.5z M198.9,35.1L198.9,35.1c0.3,0.1,0.5,0.3,0.8,0.5
			c0.2,0.2,0.5,0.3,0.7,0.5c0.1,0.1,0.5,0.4,0.4,0.5c-0.1,0.3-0.4,0-0.5-0.1C199.8,36.1,199.2,35.5,198.9,35.1 M197.3,32.1
			C197.3,32,197.3,32,197.3,32.1c0.1,0,0.2,0,0.3,0.1c0.2,0.1,0.4,0.2,0.4,0.4C197.7,32.6,197.4,32.3,197.3,32.1 M200.3,35.3
			C200.3,35.2,200.3,35.2,200.3,35.3c0.3,0,1,0.4,1,0.8c-0.2,0.2-0.4-0.1-0.6-0.2C200.6,35.6,200.4,35.4,200.3,35.3 M196.5,33.7
			c0.2,0.1,0.5,0.2,0.6,0.4C196.9,34.1,196.5,33.9,196.5,33.7 M195.5,35.8c0.3-0.1,0.5,0.2,0.6,0.4
			C195.8,36.2,195.6,36.1,195.5,35.8 M196.5,39.4C196.5,39.4,196.5,39.3,196.5,39.4c0.4,0.1,1,0.3,1.1,0.8c-0.3,0.1-0.8-0.4-0.7-0.3
			C197.1,40.1,196.5,39.6,196.5,39.4 M193.8,38.6c0.4,0.1,0.7,0.3,0.9,0.7C194.5,39.2,193.6,38.9,193.8,38.6 M196.1,40.1l0.2,0.1
			c0.3,0.1,0.7,0.4,0.7,0.7c-0.3,0.1-0.5-0.1-0.8-0.3C196.1,40.5,195.8,40.1,196.1,40.1 M195.9,37.9c-0.5-0.1-0.8-0.4-1.1-0.7v-0.1
			l0,0C195.1,37.2,195.9,37.7,195.9,37.9 M194.4,40.2c-0.5-0.1-0.9-0.4-1.2-0.7c0.2-0.3,0.6,0,0.8,0.2
			C194.3,39.9,194.4,40.1,194.4,40.2 M194.3,38c0-0.1,0-0.1,0-0.2c0.4,0.2,0.9,0.3,1,0.8C194.9,38.4,194.6,38.2,194.3,38 M162.2,98
			c-0.6-0.5-1.2-1.1-1.8-1.6c-0.5-0.4-0.8-0.8-1.2-1.3c-0.1-0.2-0.7-0.7-0.7-0.9c0,0,2.6,2.6,3,3c0.5,0.5,1.2,0.9,1.8,1.4
			c0.4,0.2,1.3,0.9,1.5,0.9c0.1,0,1.4,0.7,1.7,1.1c-0.8-0.2-1.5-0.7-2.2-1.2C163.5,99,162.8,98.5,162.2,98 M176.3,72.3
			c0.5,0.1,1.1,0.2,1.5,0.3v0.1c-0.6,0.1-1.3-0.2-2-0.2c-0.7-0.1-1.8-0.2-1.8-0.4s0.1-0.1,0.2-0.1C174.9,72,175.6,72.2,176.3,72.3
			 M174,71.1c0.1-0.2,0.6,0,0.7,0s2.6,0.3,3.6,0.5c0,0,0,0.1,0,0.2c-1.2-0.1-2.5-0.2-3.5-0.4C174.7,71.4,174,71.4,174,71.1
			 M179.5,65.2c0,0.3-1.8,0-2,0v-0.1c0.2-0.1,1.3,0,1.5,0C179.1,65.1,179.5,64.9,179.5,65.2 M178.9,66.1c0,0.2-1.7,0-2.2,0
			c0-0.1-0.1-0.1,0-0.2C177.3,65.9,178.9,66,178.9,66.1 M180.1,64.2c0,0.1-2.5,0.2-2.6,0c0-0.2,0.1-0.1,0.3-0.1
			C178.4,64.1,180.1,64,180.1,64.2 M169.1,104.5c0,0.1-0.9-0.1-1.5-0.3c-0.7-0.3-1.5-0.7-2.1-1c-0.4-0.2-1.7-1-2.5-1.5
			c-0.6-0.4-1.2-0.9-1.7-1.3c0,0,0,0,0-0.1c1.1,0.7,6.7,3.7,7.6,4C168.9,104.3,169.1,104.3,169.1,104.5 M177.4,59.2
			c-1,0-2.3,0.1-3.2,0c-0.1-0.2,0.2-0.2,0.3-0.2C175,59.1,177.3,59.1,177.4,59.2 M165.8,39.4c-0.2,0.1-0.4,0.4-0.7,0.3
			c0-0.3,0.3-0.5,0.5-0.6c0.2-0.2,0.4-0.3,0.7-0.2C166.2,39.1,166,39.2,165.8,39.4 M168.2,37.6c-0.2,0.2-0.4,0.4-0.7,0.4
			c0.1-0.2,0.3-0.3,0.4-0.4c0.2-0.1,0.4-0.2,0.5-0.3h0.1C168.5,37.4,168.3,37.5,168.2,37.6 M169,37.9c0.1,0,0.1,0.1,0.1,0.2
			c-0.3,0.2-0.6,0.5-1.1,0.6C168.2,38.3,168.7,38.1,169,37.9 M166.4,40.1c-0.2,0.2-0.4,0.4-0.7,0.3c0-0.3,0.3-0.5,0.6-0.7
			c0.2-0.1,0.3-0.3,0.5-0.1C166.8,39.8,166.6,39.9,166.4,40.1 M165.1,44.8c0.1-0.3,0.2-0.9,0.4-1.2c0.2,0.2-0.1,1.5-0.2,1.7
			c0,0.1-0.4,2.5-0.5,2.8c0,0.3,0,2,0,2.2s0.2,0.5-0.1,0.5c-0.1-0.1-0.1-0.1-0.2-0.4c-0.3-1.7,0-3.2,0-3.4
			C164.8,46.4,165.1,45.1,165.1,44.8 M169.5,38.6c0.4,0.1-0.5,0.7-0.8,0.7C168.8,38.9,169.2,38.8,169.5,38.6 M162.5,42.2L162.5,42.2
			L162.5,42.2L162.5,42.2z M166.3,41.1c0-0.2,0.1-0.2,0.2-0.4c0.2-0.1,0.6-0.5,0.9-0.3C167.2,40.8,166.8,41.2,166.3,41.1
			 M166.2,34.2c0-0.3,0.4-0.3,0.5-0.4c0,0,0,0,0.1,0C166.7,34.1,166.5,34.1,166.2,34.2 M169.9,39.5c0.1-0.1,0.2,0,0.2,0.1
			c0.1,0.2-0.3,0.4-0.5,0.4c-0.2,0.1-0.3,0.3-0.6,0.3C169.1,39.9,169.6,39.6,169.9,39.5 M167.3,36.4c-0.1-0.3,0.5-0.7,0.6-0.4
			C167.9,36.1,167.4,36.3,167.3,36.4 M165.3,32.6c0-0.1,0.4-0.4,0.7-0.4c-0.1,0.3-0.4,0.5-0.7,0.5C165.3,32.6,165.3,32.6,165.3,32.6
			 M175,33.5L175,33.5c0.7-0.1,2.7-0.1,2.9,0c0,0.2-1.6,0.2-2.1,0.2C175.4,33.7,175.1,33.7,175,33.5 M171.1,53.2
			c0-0.2,0.1-0.2,0.2-0.2c0.5-0.1,1.3,0,1.8,0v0.1C172.7,53.1,171.3,53.3,171.1,53.2 M175.7,58.3c-0.6,0-2.2,0.2-2.2,0
			s1.9-0.3,2-0.3C175.6,58.2,175.7,58.3,175.7,58.3 M170.7,52.3c0-0.2,0.2-0.2,0.3-0.2c0.5,0,2-0.1,2,0.1
			C173,52.4,170.7,52.5,170.7,52.3 M171.8,54.9c0-0.2,1.8-0.2,2.2-0.3l0.1,0.2C173.6,54.8,172,55.1,171.8,54.9 M171.4,53.9
			c0.2-0.2,1.8-0.3,2.2-0.2c0,0.1,0,0.1,0.1,0.2C173.1,53.9,171.5,54.2,171.4,53.9 M173,57.5c0.1-0.3,2.2-0.4,3-0.2
			c-0.2,0.1-0.4,0.2-0.7,0.2C174.9,57.5,173.2,57.8,173,57.5 M172.2,55.8c0-0.2,2-0.3,2.8-0.3v0.1C174.9,55.7,172.2,56,172.2,55.8
			 M172.6,56.7c0.1-0.2,1.8-0.3,2.2-0.3c0,0.1,0,0.2,0.1,0.2C174.3,56.6,172.8,56.9,172.6,56.7 M179,103.8c-1.2,0-2.7-0.1-3.7-0.4
			l0,0l0,0c1.2,0.1,2.6,0.3,3.9,0.2c0.3,0,0.7,0,1,0s0.6-0.1,0.7,0.1C180.8,103.8,179.4,103.8,179,103.8 M174,103.1
			c-0.1,0.1-0.3,0-0.4,0c-0.4-0.1-1.8-0.4-2.1-0.5c-1.6-0.4-3.1-1-4.5-1.7l0,0l0,0c0.7,0.2,3.2,1.1,4.1,1.4
			C172.1,102.6,173.9,102.9,174,103.1 M174.3,34.4L174.3,34.4c0-0.1,0-0.1,0.1-0.1c0.4,0,1.7,0,1.8,0.1
			C176.2,34.6,174.5,34.5,174.3,34.4 M174,35.3v-0.1c0.4,0,1,0,1.5,0v0.1C175.1,35.5,174.4,35.4,174,35.3 M174.7,80.6
			c-0.3,0.5,0,0-0.4,0.5c-0.1,0.1-2.7-0.9-2.7-0.8c0,0,0.1,0.2,0.2,0.3c0.7,0.3,2.2,0.8,2.1,1.2c0,0.1-0.1,0.3-0.2,0.4
			c-0.2,0.1-2.9-1.5-3-1.3c0,0,0,0.2,0.3,0.5c0.3,0.2,2.3,1.1,2.3,1.4c0.1,0.2,0,0.2-0.2,0.4c-0.1,0.1-3.4-2-3.5-1.9
			c0,0-0.1,0.1,0,0.3c0,0,3.1,2,3,2.3c0,0.1,0,0.2-0.2,0.2c0,0-3.7-2.5-3.9-2.3c-0.2,0.2,3.2,2.2,3.6,2.7l-0.3,0.4
			c-1.2-0.7-8-5.7-8.9-6.4c0.4-0.7,0.9-1.4,1.3-1.8C170.4,79.8,174.5,80.6,174.7,80.6 M162.5,91.8C162.5,91.7,162.5,91.7,162.5,91.8
			c2.3-0.1,2.6-1.3,2.5-1.7c-0.1-0.3-0.5-0.5-0.4-0.7c0.1-0.4,0.6-0.7,1-0.7s0.9,0.3,1.4,0.6s2.7,0.7,3.1,0.5s0.6-0.6,0.6-0.8
			s-0.1-0.6-0.1-0.9c0.1-0.3,0.8-1.4,1-1.6c0.1-0.2,0.8,0,1-0.2c0.1-0.2,0-0.7,0-0.9c0.8-1.1,1.7-2.8,2.4-4c0.1,0.1,0.1,3.3,0,5.1
			c-0.2,2.6-0.6,3.7-1.4,5.1c-0.8,1.3-2.5,3.4-5.4,2.8C165.3,93.7,163.3,92.5,162.5,91.8 M164.1,89c-0.4-0.2-1.9-1.3-2.2-1.7
			c0.2-0.2,0.4-0.6,0.6-0.9c0.4,0.2,2,1.4,2.4,1.7C164.6,88.4,164.3,88.6,164.1,89 M161.3,84.4c-0.1-0.1-0.4-0.6-0.4-0.7
			c0,0,0,0,0-0.1c0.6,0.3,6.2,4.6,6.7,4.9c0.1,0.1,0.3,0.2,0.4,0.4c-0.4,0-1.4-0.4-1.5-0.5C166,88.2,161.6,85,161.3,84.4
			 M160.8,87.5c0.6,0.4,1,0.8,1.6,1.2c0.5,0.4,1,0.8,1.6,1.2c0.2,0.1,0.5,0.3,0.5,0.4c0,0.2-0.4,0.6-0.7,0.7c-0.3,0.2-1.3,0.5-2.2,0
			c-0.3-0.1-1.6-1.3-1.8-1.8c0.1,0,0.2,0.1,0.3,0.1c0.2,0.1,0.5,0.3,0.7,0.3c0-0.1-0.2-0.2-0.2-0.3c-0.3-0.3-0.6-0.6-0.9-0.9
			c0-0.1,0-0.3,0.1-0.4c0.1,0,0.2,0.1,0.3,0.1c0.3,0.1,0.7,0.3,1,0.4c-0.3-0.4-0.7-0.8-1.2-1.1C160.1,86.9,160.5,87.2,160.8,87.5
			 M190,80.1c2.6-0.7,5.7-1.9,8.8-3.5c0.4,0.6,0.7,1,1.1,1.6c-2.2,1.7-6.5,4.8-8.8,6.4c-0.1-0.1-0.1-0.3-0.1-0.4
			c0-0.1,2.2-1.6,2.4-1.8c0.2-0.2,0.4-0.6,0.4-0.6c-0.1-0.1-2.9,2.1-3,2c-0.2-0.1-0.3-0.3-0.3-0.4c0-0.2,1.2-0.9,2.4-1.9
			c0.4-0.4,0.1-0.3,0.1-0.3c-0.1-0.1-2.6,1.9-2.8,1.8c-0.3-0.1-0.3-0.4-0.3-0.5c0-0.2,1.5-1,1.9-1.3s0.5-0.5,0.4-0.6
			c0-0.1-2.2,1.3-2.4,1.4c-0.2,0-0.3-0.4-0.4-0.4c-0.1-0.1,2.3-1.2,2.2-1.5c-0.1-0.1-2.4,1.1-2.5,1c-0.2-0.3-0.2-0.3-0.3-0.6
			C188.7,80.4,189.6,80.2,190,80.1 M201.7,80.7c-2.2,1.6-6.6,4.7-8.7,6.3c-0.1-0.1-0.3-0.3-0.3-0.5s3.1-2.2,3.1-2.2l-0.2-0.2
			c0,0-3.1,2.1-3.2,2.1s-0.2-0.2-0.2-0.3c2.1-1.6,6.5-4.8,8.7-6.3C201.1,79.9,201.4,80.3,201.7,80.7 M200.5,78.4c0.1,0,0.2,0,0.3,0
			c-0.1,0.2-6.9,5.1-9.1,6.7c-0.2,0.1-0.4,0.3-0.6,0.4c-0.1-0.3,0.2-0.5,0.3-0.6C192,84.5,200.1,78.5,200.5,78.4 M198.3,77.5
			c-0.2,0.2-0.4,0.3-0.7,0.4c0.1-0.2,0.3-0.3,0.4-0.4c0.2-0.1,0.4-0.2,0.5-0.3h0.1C198.7,77.3,198.4,77.4,198.3,77.5 M199.3,77.8
			c0.7,0.2-0.8,1-1.2,1C198.3,78.3,198.8,78.1,199.3,77.8 M200.8,80.2c0.1-0.1,0.3,0,0.4,0.1c0.1,0.3-0.5,0.5-0.7,0.6
			c-0.3,0.2-0.5,0.4-0.9,0.5C199.6,80.9,200.4,80.4,200.8,80.2 M164.1,78.6c0-0.7,1.2,0.4,1.4,0.8C164.9,79.4,164.5,79,164.1,78.6
			 M165.3,77.9c0.2,0.1,0.5,0.2,0.6,0.5c-0.2,0-0.4-0.1-0.6-0.3c-0.2-0.1-0.3-0.3-0.5-0.4c0,0,0,0,0-0.1
			C164.9,77.6,165.1,77.8,165.3,77.9 M173.8,19.6c2.7-1.5,4.9-2,7.5-2c1.8,0,3.6,0.3,5.3,1c4,1.7,7.7,6.1,6.8,11.8
			c0-0.4-0.2-2.8-0.8-4.8c-0.5-1.5-2.7-4.9-5.4-6.3c-1.2-0.6-3.2-1.1-5-1.3s-5,0.4-6.1,0.9s-1.4,0.6-2,1c-0.2,0.1-0.5,0.3-0.6,0.1
			C173.4,19.8,173.8,19.6,173.8,19.6 M174.8,20.3c-0.1-0.1-0.4-0.2-0.3-0.3c0.1-0.2,0.3-0.4,0.7-0.4c0.4,0,0.8,0.8,1.1,1.3
			c0.5,1,0.7,2,0.7,2.3s0,0.4-0.1,0.4c-0.2,0-0.3-0.5-0.3-0.8C176.1,21.5,174.9,20.4,174.8,20.3 M184.1,31.9c0,0.6-0.5,1.1-1.2,1.1
			c-0.6,0-1.2-0.5-1.2-1.1s0.5-1.1,1.2-1.1C183.5,30.8,184.1,31.3,184.1,31.9 M185.6,40.9c0.5,0.5,0.7,1.3,0.7,2.1
			c0,1.1-0.3,2.1-1.1,2.8c-0.8,0.7-2,1.2-3.3,1.2c-2.7,0-4.7-1.8-4.7-4.1c0-1.1,0.8-2.5,1.4-2.8c0.3-0.1,1-0.7,1.4-0.3
			c0.2,0.2-0.6,0.6-0.6,0.6s-1.3,0.8-1.4,2.5c-0.1,1.8,1.5,3.1,3.8,3.1c2.5,0,3.9-1.4,3.9-3.1c0-0.8-0.4-1.7-0.9-2
			c-0.4-0.4-1.2-0.8-0.9-0.9C184.1,40,185.1,40.4,185.6,40.9 M184.5,31.9c0,0.9-0.7,1.6-1.6,1.6s-1.6-0.7-1.6-1.6
			c0-0.9,0.7-1.6,1.6-1.6C184,30.3,184.5,31,184.5,31.9 M183.7,31.9c0,0.4-0.4,0.7-0.8,0.7s-0.8-0.3-0.8-0.7s0.4-0.7,0.8-0.7
			C183.3,31.1,183.7,31.5,183.7,31.9 M182.2,48.1c0,0.2-0.2,0.3-0.4,0.3c-0.2,0-0.4-0.2-0.4-0.3c0-0.2,0.2-0.3,0.4-0.3
			C182,47.8,182.2,47.9,182.2,48.1 M174.5,40.8c0.2,0,0.1,0.3,0,0.4c0,0.5-0.1,1.1-0.1,1.7c0,0.6,0.1,1.3,0.2,2s0.1,1.2,0.2,1.9
			c0.2,0.7,0.4,1.3,0.3,1.5c-0.2,0-0.5-0.9-0.5-1.2s-0.4-2.5-0.4-3.5c0-0.4,0-0.5-0.1-0.7c-0.3-0.1-0.8,0-0.9,0.1
			c0,0.4,0.1,0.5,0.1,1.1c0.2,1.2,0,3.2,0,3.3s-0.1,0.7-0.2,0.7c-0.2,0-0.1-0.5-0.1-0.8c0.1-0.3,0-2,0-2.5c0-0.9-0.4-2.8-0.5-3
			c0-0.1-0.2-0.7-0.1-0.7c0.2,0,0.2,0.5,0.4,0.6c0.5,0,1.1-0.1,1.2-0.2C174.4,41.6,174.3,40.8,174.5,40.8 M174,42
			c0.2,0,0.2,0.2,0.2,0.3c0,0.3-1,0.4-1,0.3c0,0-0.2-0.3-0.2-0.4C173.1,41.9,173.9,41.9,174,42 M174.9,49.7c0,0.4-0.4,0.8-0.8,0.8
			c-0.5,0-0.8-0.3-0.8-0.8c0-0.4,0.4-0.8,0.8-0.8S174.9,49.2,174.9,49.7 M175.3,49.8c0,0.6-0.5,1.2-1.2,1.2s-1.2-0.5-1.2-1.2
			c0-0.6,0.5-1.2,1.2-1.2S175.3,49.1,175.3,49.8 M175,39.8c0,0-0.4,1.9-0.2,5.3c0.1,1,0.6,2.7,0.7,3.2s0.8,2.1,0.8,2.3
			s-1.6,1.3-2.1,1.6c-0.8-0.5-1.5-1.1-2.1-1.7c0.1-0.7,0.3-1,0.5-2.1c0.4-2.3,0-4.4-0.2-5.2s-0.6-2.2-0.9-3
			C172.7,40,173.9,39.8,175,39.8 M189,41.6c0.2,0,0.8,0.2,1.3,0.2c0.3-0.1,0.3-0.6,0.4-0.6c0.2,0,0,0.6-0.1,0.7c0,0.2-0.5,2-0.5,3
			c0,0.5,0,2.2,0,2.5c0.1,0.3,0.1,0.7-0.1,0.8c-0.1-0.1-0.2-0.6-0.2-0.7c0-0.1-0.3-2.1,0-3.3c0.1-0.6,0.1-0.7,0.2-1.1
			c-0.2-0.2-0.7-0.2-0.9-0.1c-0.1,0.2-0.1,0.3-0.1,0.7c0,1-0.3,3.1-0.4,3.5c0,0.3-0.3,1.2-0.5,1.2c-0.1-0.2,0.1-0.7,0.3-1.5
			c0.1-0.7,0.2-1.2,0.2-1.9c0.1-0.7,0.1-1.4,0.2-2c0-0.6-0.1-1.2-0.1-1.7c0-0.1-0.1-0.4,0-0.4C188.9,40.8,188.8,41.6,189,41.6
			 M190.2,42.2c0.1,0.1-0.1,0.4-0.2,0.4c0,0-1,0-1-0.3c0-0.1,0-0.3,0.2-0.3C189.3,41.9,190.1,41.9,190.2,42.2 M189.1,48.9
			c0.5,0,0.8,0.3,0.8,0.8c0,0.4-0.4,0.8-0.8,0.8s-0.8-0.3-0.8-0.8C188.3,49.2,188.6,48.9,189.1,48.9 M189,48.6
			c0.7,0,1.2,0.5,1.2,1.2c0,0.6-0.5,1.2-1.2,1.2s-1.2-0.5-1.2-1.2S188.3,48.6,189,48.6 M188.1,39.8c1.2,0,2.3,0.3,3.5,0.4
			c-0.3,0.8-0.9,2.5-1,3.1c-0.2,1-0.2,3.7-0.1,5.1c0.1,0.7,0.4,1.4,0.5,2.1c-0.7,0.6-1.4,1.2-2.1,1.7c-0.6-0.3-2.1-1.5-2.1-1.6
			s0.6-1.8,0.8-2.3c0.1-0.5,0.7-2.2,0.7-3.2C188.5,41.6,188.1,39.8,188.1,39.8 M174.8,69c0.2,0.1,1.3,0.2,1.3,0.2s0.3-0.4,0.2-0.6
			c-0.1-0.2-1.2-0.3-1.5-0.3s-0.4,0.4-0.4,0.5S174.6,68.9,174.8,69 M174.7,69.9c0.2,0,0.9,0.1,1.1,0.1s0.2-0.2,0.3-0.4
			c0-0.2-0.2-0.3-0.2-0.3s-1.1-0.2-1.3-0.2c-0.2,0-0.3,0.1-0.3,0.1s0,0.1-0.1,0.3C174.1,69.8,174.7,69.9,174.7,69.9 M189.9,33.7
			c-0.1,0.2-0.1,0.5-0.1,0.7c0,0.8,0.1,1.2,0.3,1.8c0,0.2,0.1,0.3,0.2,0.5s0,0.4,0.2,0.5c0.3-0.2,0.4-0.6,0.6-1s1.3-2.6,1.5-6.3
			c0.1-1.1-0.2-4-1.2-5.5c-0.3-0.5-1.1-1.9-2.6-3.2c-2-1.7-4.9-2.5-7.9-2.4c-1,0-3.4,0.3-4.9,1.1c0.4,0.8,0.8,1.6,0.9,2
			c0.1,0.2,0.3,1.2,0.3,1.6c0.3-0.2,0.6-0.3,0.6-0.3c0.2-0.3,0.2-1,0.2-1.5c0-0.6-0.6-1-0.8-1.4c-0.2-0.4,0.4-0.9,0.9-0.9
			c0.4,0,0.7,0.7,0.8,1.4c0.1,0.6-0.2,1.5-0.3,2.1c0.3-0.1,0.5-0.1,0.8-0.2c0,0,0.5-1,0.6-1.5c0.2-0.6-0.2-1.1-0.3-1.6
			c-0.1-0.5,0.7-0.7,1.1-0.6c0.4,0.2,0.5,0.9,0.4,1.6c-0.1,0.6-0.5,1.4-0.8,1.9c0.2,0,0.4,0,0.6,0c0.1,0,0.1,0,0.2,0
			c0.3-0.3,0.7-0.9,0.9-1.3c0.3-0.6,0-1.2,0-1.6c0-0.5,0.8-0.6,1.2-0.4c0.4,0.2,0.3,1,0.1,1.6c-0.2,0.6-0.8,1.2-1.2,1.7
			c0.2,0,0.5,0.1,0.7,0.1c0.3-0.2,0.8-0.8,1.1-1.1c0.4-0.5,0.2-1.1,0.3-1.6c0.1-0.5,0.9-0.4,1.2-0.1c0.3,0.3,0.1,1-0.2,1.6
			c-0.3,0.6-1.1,1.1-1.5,1.5c0.2,0.1,0.5,0.2,0.7,0.3c0.4-0.1,1-0.6,1.3-0.9c0.5-0.4,0.4-1.1,0.6-1.5s1-0.2,1.2,0.1
			c0.3,0.4-0.1,1-0.6,1.5c-0.4,0.5-1.3,0.8-1.8,1.1c0.2,0.1,0.4,0.2,0.6,0.4c0.4,0,1.2-0.4,1.6-0.6c0.6-0.3,0.7-0.9,0.9-1.3
			c0.3-0.4,1,0,1.2,0.4s-0.3,1-0.9,1.4c-0.5,0.4-1.4,0.6-2,0.8c0.2,0.2,0.4,0.4,0.6,0.6l0,0c0.4,0,1.1-0.1,1.5-0.2
			c0.6-0.1,0.9-0.8,1.2-1.1c0.3-0.3,1,0.2,1,0.7c0.1,0.4-0.6,0.9-1.2,1.1c-0.6,0.2-1.3,0.2-1.9,0.2l0,0c0.2,0.2,0.3,0.5,0.5,0.7
			c0.3,0.1,0.8,0,1.1,0c0.6,0,1-0.6,1.4-0.8s0.9,0.4,0.9,0.9s-0.7,0.7-1.4,0.8c-0.5,0.1-1,0-1.5-0.1l0,0c0.1,0.3,0.3,0.5,0.4,0.8
			c0.3,0.1,0.6,0.1,0.8,0.1c0.5,0.1,0.9-0.4,1.3-0.5s0.7,0.5,0.6,0.8c-0.1,0.4-0.7,0.5-1.3,0.5c-0.4,0-0.8-0.1-1.2-0.3l0,0
			c0.1,0.2,0.1,0.5,0.2,0.7c0.2,0.1,0.4,0.2,0.6,0.2c0.5,0.2,1-0.1,1.4-0.2c0.4-0.1,0.6,0.6,0.4,1s-0.8,0.4-1.4,0.2
			c-0.3-0.1-0.6-0.2-0.9-0.4l0,0c0,0.3,0.1,0.5,0.1,0.8c0.1,0.1,0.2,0.1,0.3,0.2c0.5,0.3,1,0,1.4,0s0.5,0.7,0.3,1.1
			c-0.2,0.3-0.9,0.3-1.4,0.1c-0.2-0.1-0.3-0.2-0.5-0.3c0,0.3,0,0.3,0,0.5c0,0,0.1,0,0.1,0.1c0.4,0.3,1,0.2,1.3,0.3
			c0.4,0.1,0.4,0.7,0.2,1c-0.2,0.3-0.8,0.1-1.4-0.2C190.1,33.8,190,33.7,189.9,33.7 M188.6,26.9L188.6,26.9L188.6,26.9z M182.6,62.7
			H181V60h1.6V62.7z M182.2,62.3h-0.7v-1.7h0.7V62.3z M183,63.1h-2.7v-3.5h2.7V63.1z M180,63.4h3.4v-0.7c1.5-0.1,3.1-0.2,4.7-0.2
			c0.4,0,0.8,0,1.2,0l0,0c0.1,0.2-0.3,0.2-0.5,0.2c-1.2,0.2-4.3,0.3-4.3,0.5c1.5,0.1,5.1-0.2,5.1,0s-0.5,0.2-0.7,0.3
			c-0.8,0.1-1.7,0.2-2.5,0.4v0.2c0.9,0,3.2-0.3,3.3-0.3c0.2,0,0.3,0.2,0.2,0.3c0,0.2-3.6,0.7-3.7,0.7s-0.3,0-0.3,0.2
			c1.2,0,2.5-0.1,3.8-0.3c0.3,0,0.6-0.1,0.6,0.2s-3.5,0.8-4.8,0.9V66c1.4-0.1,3.1-0.3,4.5-0.5c0.2,0,0.5-0.2,0.6,0
			c0,0.3-0.4,0.3-0.6,0.4c-1.3,0.4-2.8,0.6-4.3,0.8c-0.5,0.1-1,0.1-1.6,0.2c-2.6,0.3-5.4,0.2-7.9,0c-1-0.1-2-0.3-2.9-0.5
			c-0.4-0.1-0.8-0.2-1.1-0.3c0-0.1,0.5-0.9,0.6-1.1c0.1,0,0.9,0.3,0.9,0c0-0.2-0.7-0.2-0.8-0.3c0.1-0.2,0.2-0.4,0.2-0.6
			c0.2,0,0.5,0.1,0.7,0c0.1-0.3-0.4-0.2-0.6-0.2c0.1-0.2,0.5-1,0.6-1.2c1.6,0.1,3.3,0,5,0.1c0.3,0,0.6,0,1,0v0.6H180z M183.4,60.1
			c0,0,1.8,0,2.3-0.1c0.6,0,1.8,0,2.4,0c0.4,0,1-0.1,1.4-0.1c0.2,0,0.7,0.1,0.4,0.4c-0.1,0.2-1,0.1-1.4,0.2c-0.7,0-1.4,0.1-2,0.1
			c0.1,0.3,0.4,0.3,0.7,0.3c0.4,0,0.8,0,1.2-0.1c0.5,0,1-0.1,1.4,0c0.2,0.5-0.1,0.5-0.1,0.7c-0.1,0.1-0.5,0.1-0.6,0.1
			c-1.8,0.1-4,0.1-5.7,0.2L183.4,60.1 M207.9,99.7c0,0,4.1-5.4,5.2-12.4s-0.5-11.1-0.5-11.3c0-0.1-0.2-0.6,0-0.6
			c0.2-0.1,0.3,0.5,0.3,0.6c0,0.2,1.6,4.3,0.5,11.3s-5.2,12.4-5.2,12.4c-0.1,0.1-0.4,0.6-0.5,0.5C207.6,100.2,207.9,99.8,207.9,99.7
			 M155.7,100.5c-0.1,0.1-0.4-0.3-0.5-0.4c0,0-4.1-5.4-5.2-12.4s0.5-11.1,0.5-11.3c0-0.1,0.2-0.7,0.3-0.6c0.2,0.1,0,0.6,0,0.6
			c0,0.2-1.6,4.3-0.5,11.3s5.2,12.4,5.2,12.4C155.6,100.1,155.8,100.4,155.7,100.5 M155.4,65.5L155.4,65.5c-0.1-0.1-0.3-0.1-0.3,0
			l-0.4,0.6c-0.1,0.1-0.2,0.1-0.3,0l0,0c-0.1-0.1-0.1-0.2,0-0.3l1.5-2c0.1-0.1,0.2-0.1,0.3,0l0.2,0.2c0.1,0.1,0.2,0.2,0.3,0.3
			c0,0,0.3,0.5-0.1,1S155.9,65.8,155.4,65.5 M156.3,64.4L156.3,64.4c-0.1-0.1-0.3-0.1-0.3,0l-0.3,0.4c-0.1,0.1-0.1,0.2,0,0.2
			s0.2,0.1,0.3,0.1c0,0,0.1,0,0.3-0.2C156.4,64.8,156.5,64.6,156.3,64.4 M156.7,67.7c-0.2,0-0.4,0-0.6-0.2s-0.3-0.4-0.3-0.6
			c0-0.3,0.2-0.6,0.6-1.1s0.7-0.8,1-0.8c0.2,0,0.4,0,0.6,0.2s0.3,0.4,0.3,0.6c0,0.3-0.2,0.6-0.6,1.1C157.2,67.4,157,67.7,156.7,67.7
			 M157.8,65.8c0-0.1,0-0.2-0.1-0.2c-0.1-0.1-0.2-0.1-0.2-0.1c-0.2,0.1-0.4,0.3-0.7,0.7c-0.3,0.4-0.5,0.6-0.5,0.8
			c0,0.1,0,0.2,0.1,0.2c0.1,0.1,0.2,0.1,0.2,0.1c0.2,0,0.4-0.3,0.7-0.7C157.6,66.2,157.8,66,157.8,65.8 M158.2,69
			c-0.2,0-0.4,0-0.6-0.2c-0.2-0.1-0.3-0.3-0.3-0.5s0-0.4,0.2-0.5l1.2-1.5c0.1-0.1,0.2-0.1,0.3,0l0,0c0.1,0.1,0.1,0.2,0,0.3l-1.1,1.4
			c-0.1,0.1-0.2,0.3-0.2,0.4c0,0,0,0.1,0.1,0.2c0.1,0.1,0.3,0.1,0.4-0.1l1.3-1.6c0.1-0.1,0.2-0.1,0.3,0l0,0c0.1,0.1,0.1,0.2,0,0.3
			l-1.2,1.5C158.5,68.9,158.3,69,158.2,69 M159.6,70.3c-0.1-0.1-0.1-0.2-0.1-0.3l0.3-0.8c0-0.1,0-0.2,0-0.3c-0.1,0-0.2,0-0.2,0.1
			l-0.5,0.6c-0.1,0.1-0.2,0.1-0.3,0l0,0c-0.1-0.1-0.1-0.2,0-0.3l1.5-2c0.1-0.1,0.2-0.1,0.3,0l0.2,0.2c0.1,0.1,0.2,0.2,0.3,0.3
			c0,0,0.3,0.5,0,1c-0.2,0.3-0.4,0.4-0.7,0.4l-0.4,1.1C159.9,70.4,159.8,70.5,159.6,70.3L159.6,70.3z M160.7,68L160.7,68
			c-0.1-0.1-0.3-0.1-0.3,0l-0.3,0.4c-0.1,0.1-0.1,0.2,0,0.3c0.1,0,0.2,0.1,0.3,0.1c0,0,0.1,0,0.3-0.2
			C160.8,68.4,160.9,68.2,160.7,68 M161.1,71.4c-0.1-0.1-0.1-0.2-0.1-0.3l1.4-2c0.1-0.1,0.2-0.1,0.3-0.1l0,0
			c0.1,0.1,0.1,0.2,0.1,0.3l-1.2,1.7c-0.1,0.1,0,0.2,0.1,0.3l0.3,0.2c0.1,0.1,0.1,0.2,0.1,0.3c-0.1,0.1-0.2,0.1-0.3,0L161.1,71.4z
			 M163.3,72.9c-0.1-0.1-0.1-0.2-0.1-0.3l0.1-0.2c0-0.1,0-0.3-0.1-0.3L163,72c-0.1-0.1-0.2,0-0.3,0l-0.1,0.1c-0.1,0.1-0.2,0.1-0.3,0
			h-0.1c-0.1-0.1-0.1-0.2,0-0.3l1.9-1.8c0.1-0.1,0.2-0.1,0.3,0l0,0c0.1,0.1,0.1,0.2,0.1,0.3l-0.9,2.4
			C163.5,72.9,163.4,73,163.3,72.9L163.3,72.9z M163.8,70.9C163.9,70.7,163.8,70.7,163.8,70.9l-0.6,0.5c-0.1,0.1-0.1,0.2,0,0.3h0.1
			c0.1,0.1,0.2,0,0.3-0.1L163.8,70.9z M165.6,72.9L165.6,72.9c-0.2-0.1-0.3,0-0.3,0l-0.4,0.6c-0.1,0.1-0.2,0.1-0.3,0.1l0,0
			c-0.1-0.1-0.1-0.2-0.1-0.3l1.2-2.2c0.1-0.1,0.2-0.1,0.3-0.1l0.3,0.2c0.1,0.1,0.2,0.2,0.3,0.3c0,0,0.4,0.5,0.1,1
			C166.4,73.1,166.1,73.2,165.6,72.9 M166.3,71.8L166.3,71.8c-0.1-0.1-0.3,0-0.3,0.1l-0.3,0.5c-0.1,0.1-0.1,0.2,0,0.2
			s0.2,0.1,0.3,0.1c0,0,0.1,0,0.3-0.3C166.4,72.1,166.5,71.9,166.3,71.8 M167.1,75.1c-0.1-0.1-0.2-0.2-0.1-0.3v-0.2
			c0-0.1,0-0.2-0.1-0.3l-0.2-0.1c-0.1-0.1-0.2,0-0.3,0.1l-0.1,0.1c-0.1,0.1-0.2,0.1-0.3,0.1h-0.1c-0.1-0.1-0.1-0.2,0-0.3l1.7-1.9
			c0.1-0.1,0.2-0.1,0.3-0.1l0,0c0.1,0.1,0.2,0.2,0.1,0.3l-0.6,2.5C167.4,75.1,167.3,75.2,167.1,75.1L167.1,75.1z M167.5,73
			C167.5,72.9,167.5,72.9,167.5,73l-0.6,0.6c-0.1,0.1,0,0.2,0.1,0.3h0.1c0.1,0.1,0.2,0,0.2-0.1L167.5,73z M169.5,73.4
			c-0.1,0-0.2,0-0.3,0.1l-0.9,1.9c-0.1,0.1-0.2,0.1-0.3,0.1l0,0c-0.1,0-0.1-0.2-0.1-0.3l0.9-1.9c0.1-0.1,0-0.2-0.1-0.3h-0.1
			c-0.1,0-0.2-0.2-0.1-0.3c0-0.1,0.2-0.1,0.3-0.1l0.9,0.4c0.1,0,0.1,0.2,0.1,0.3C169.8,73.5,169.6,73.5,169.5,73.4L169.5,73.4z
			 M170.2,76.5c-0.1,0-0.2-0.2-0.2-0.3l0.1-0.8c0-0.1,0-0.2-0.1-0.3c-0.1,0-0.2,0-0.2,0.1l-0.3,0.7c0,0.1-0.2,0.2-0.3,0.1l0,0
			c-0.1,0-0.2-0.2-0.1-0.3l1-2.3c0-0.1,0.2-0.2,0.3-0.1l0.3,0.1c0.1,0,0.3,0.1,0.4,0.2c0,0,0.4,0.4,0.2,0.9
			c-0.1,0.3-0.3,0.5-0.6,0.6l-0.1,1.1C170.5,76.5,170.4,76.5,170.2,76.5L170.2,76.5z M170.7,74L170.7,74c-0.2-0.1-0.3,0-0.3,0.1
			l-0.2,0.4c0,0.1,0,0.2,0,0.2c0.1,0,0.2,0,0.3,0c0,0,0.1,0,0.2-0.3C170.8,74.3,170.9,74.1,170.7,74 M171.1,76.8
			c-0.1,0-0.2-0.2-0.1-0.3l0.9-2.3c0-0.1,0.2-0.2,0.3-0.1l0,0c0.1,0,0.2,0.2,0.1,0.3l-0.9,2.3C171.4,76.8,171.2,76.9,171.1,76.8
			L171.1,76.8z M172,77.1c-0.1,0-0.2-0.2-0.1-0.3l0.8-2.4c0-0.1,0.2-0.2,0.3-0.1l0.8,0.2c0.1,0,0.2,0.2,0.1,0.3
			c0,0.1-0.2,0.2-0.3,0.1l-0.3-0.1c-0.1,0-0.2,0-0.3,0.1l-0.1,0.4c0,0.1,0,0.2,0.1,0.3l0.2,0.1c0.1,0,0.2,0.2,0.1,0.3
			c0,0.1-0.2,0.2-0.3,0.1l-0.2-0.1c-0.1,0-0.2,0-0.3,0.1l-0.1,0.4c0,0.1,0,0.2,0.1,0.3l0.3,0.1c0.1,0,0.2,0.2,0.1,0.3
			c0,0.1-0.2,0.2-0.3,0.1L172,77.1z M174.5,77.8c-0.1,0-0.2-0.1-0.2-0.3l0.6-2.4c0-0.1,0.1-0.2,0.3-0.2l0,0c0.1,0,0.2,0.1,0.2,0.3
			l-0.5,2c0,0.1,0,0.2,0.2,0.3l0.3,0.1c0.1,0,0.2,0.1,0.2,0.2c0,0.1-0.1,0.2-0.3,0.2L174.5,77.8z M176,78.2c-0.1,0-0.2-0.1-0.2-0.2
			l0.4-2.4c0-0.1,0.1-0.2,0.2-0.2l0.8,0.1c0.1,0,0.2,0.1,0.2,0.2c0,0.1-0.1,0.2-0.2,0.2l-0.3-0.1c-0.1,0-0.2,0.1-0.2,0.2l-0.1,0.4
			c0,0.1,0.1,0.2,0.2,0.2h0.2c0.1,0,0.2,0.1,0.2,0.2c0,0.1-0.1,0.2-0.2,0.2h-0.2c-0.1,0-0.2,0.1-0.2,0.2l-0.1,0.4
			c0,0.1,0.1,0.2,0.2,0.2l0.3,0.1c0.1,0,0.2,0.1,0.2,0.2c0,0.1-0.1,0.2-0.2,0.2L176,78.2z M178.7,78.4c-0.1,0.1-0.3,0.2-0.6,0.1
			c-0.3,0-0.4-0.1-0.5-0.3s-0.2-0.3-0.1-0.6h0.2c0.1,0,0.2,0.1,0.2,0.2c0,0,0,0,0.1,0.1c0,0,0.1,0.1,0.2,0.1s0.2,0,0.2-0.1
			c0.1-0.1,0.1-0.2,0.1-0.3c0-0.3,0-0.4-0.2-0.5l-0.1-0.1c-0.1-0.1-0.3-0.2-0.3-0.2s-0.2-0.2-0.2-0.6c0-0.3,0.1-0.5,0.3-0.6
			c0.1-0.1,0.3-0.1,0.5-0.1s0.4,0.1,0.5,0.2c0.1,0.2,0.2,0.4,0.1,0.7h-0.2c-0.1,0-0.2-0.1-0.2-0.2c0,0,0,0-0.1-0.1
			c0-0.1-0.1-0.1-0.2-0.1s-0.2,0-0.2,0.1c-0.1,0.1-0.1,0.1-0.1,0.3s0,0.3,0.2,0.4l0.1,0.1c0.1,0.1,0.3,0.2,0.3,0.2s0.2,0.2,0.2,0.7
			C178.9,78.1,178.8,78.3,178.7,78.4 M181.3,78.5c-0.1,0.1-0.3,0.2-0.6,0.2c-0.3,0-0.4-0.1-0.6-0.2c-0.1-0.1-0.2-0.3-0.2-0.6h0.2
			c0.1,0,0.2,0.1,0.2,0.2c0,0,0,0,0.1,0.1c0,0,0.1,0.1,0.2,0.1s0.2,0,0.2-0.1c0.1-0.1,0.1-0.2,0.1-0.3c0-0.3,0-0.4-0.3-0.5l-0.2-0.1
			c-0.1,0-0.3-0.1-0.4-0.2c0,0-0.2-0.2-0.2-0.6c0-0.3,0.1-0.5,0.2-0.6s0.3-0.2,0.5-0.2s0.4,0.1,0.5,0.2c0.2,0.2,0.2,0.4,0.2,0.6H181
			c-0.1,0-0.2-0.1-0.2-0.2c0,0,0,0-0.1-0.1c0-0.1-0.1-0.1-0.2-0.1s-0.2,0-0.2,0.1c-0.1,0.1-0.1,0.2-0.1,0.3c0,0.2,0,0.3,0.2,0.4
			l0.1,0.1c0.1,0,0.3,0.1,0.4,0.2c0,0,0.3,0.2,0.3,0.7C181.5,78.2,181.5,78.4,181.3,78.5 M183.3,78.4c-0.1,0.1-0.3,0.2-0.5,0.2
			c-0.3,0-0.5-0.1-0.6-0.2c-0.2-0.2-0.2-0.5-0.3-1.2c0-0.7,0-1,0.1-1.3c0.1-0.1,0.3-0.3,0.6-0.3c0.2,0,0.4,0,0.5,0.2
			c0.2,0.1,0.2,0.3,0.3,0.6h-0.2c-0.1,0-0.2-0.1-0.2-0.2v-0.1c0-0.1-0.1-0.1-0.2-0.1s-0.2,0-0.2,0.1c-0.1,0.1-0.1,0.4-0.1,1
			c0,0.5,0.1,0.8,0.2,1c0,0.1,0.1,0.1,0.2,0.1s0.2-0.1,0.2-0.1c0-0.1,0.1-0.2,0.1-0.3h0.5C183.5,78.1,183.4,78.3,183.3,78.4
			 M184.2,78.5c-0.1,0-0.2-0.1-0.2-0.2l-0.2-2.5c0-0.1,0.1-0.2,0.2-0.2l0,0c0.1,0,0.2,0.1,0.2,0.2l0.2,2.5
			C184.5,78.4,184.4,78.5,184.2,78.5L184.2,78.5z M185.2,78.4c-0.1,0-0.2-0.1-0.2-0.2l-0.3-2.5c0-0.1,0.1-0.2,0.2-0.2l0.8-0.1
			c0.1,0,0.2,0.1,0.2,0.2c0,0.1-0.1,0.2-0.2,0.2h-0.3c-0.1,0-0.2,0.1-0.2,0.2l0.1,0.4c0,0.1,0.1,0.2,0.2,0.2h0.2
			c0.1,0,0.2,0.1,0.2,0.2c0,0.1-0.1,0.2-0.2,0.2h-0.2c-0.1,0-0.2,0.1-0.2,0.2l0.1,0.4c0,0.1,0.1,0.2,0.2,0.2h0.3
			c0.1,0,0.2,0.1,0.2,0.2c0,0.1-0.1,0.2-0.2,0.2L185.2,78.4z M188,77.9c-0.1,0-0.2,0-0.3-0.1l-0.8-1.2c-0.1-0.1-0.1-0.1-0.1,0
			l0.3,1.3c0,0.1-0.1,0.2-0.2,0.3l0,0c-0.1,0-0.2-0.1-0.2-0.2l-0.5-2.4c0-0.1,0.1-0.2,0.2-0.2s0.3,0,0.3,0.1l0.8,1.2
			c0.1,0.1,0.1,0.1,0.1,0l-0.3-1.3c0-0.1,0.1-0.2,0.2-0.2l0,0c0.1,0,0.2,0.1,0.2,0.2l0.5,2.4C188.2,77.8,188.2,77.9,188,77.9
			 M190,77.3c-0.1,0.2-0.2,0.3-0.4,0.3c-0.3,0.1-0.5,0-0.6-0.1c-0.2-0.2-0.3-0.5-0.5-1.1c-0.2-0.7-0.2-1-0.1-1.3
			c0.1-0.2,0.2-0.3,0.5-0.4c0.2-0.1,0.4,0,0.5,0c0.2,0.1,0.3,0.3,0.4,0.5l-0.2,0.1c-0.1,0-0.2,0-0.3-0.1c0,0,0,0-0.1-0.1
			s-0.1-0.1-0.2,0c-0.1,0-0.2,0.1-0.2,0.2c0,0.2,0,0.4,0.1,1c0.1,0.5,0.2,0.8,0.3,0.9c0.1,0.1,0.1,0.1,0.2,0c0.1,0,0.2-0.1,0.2-0.2
			c0-0.1,0-0.2,0-0.3l0.4-0.1C190.1,76.9,190.1,77.1,190,77.3 M190.9,77.2c-0.1,0-0.2,0-0.3-0.1l-0.8-2.4c0-0.1,0-0.2,0.1-0.3
			l0.8-0.2c0.1,0,0.2,0,0.3,0.1c0,0.1,0,0.2-0.1,0.3l-0.3,0.1c-0.1,0-0.2,0.2-0.1,0.3l0.1,0.4c0,0.1,0.2,0.2,0.3,0.1l0.2-0.1
			c0.1,0,0.2,0,0.3,0.1c0,0.1,0,0.2-0.1,0.3l-0.2,0.1c-0.1,0-0.2,0.2-0.1,0.3l0.1,0.4c0,0.1,0.2,0.2,0.3,0.1l0.3-0.1
			c0.1,0,0.2,0,0.3,0.1c0,0.1,0,0.2-0.1,0.3L190.9,77.2z M193.4,76.1c-0.1,0.1-0.2,0.3-0.5,0.4c-0.2,0.1-0.4,0.1-0.6,0
			s-0.3-0.2-0.4-0.5l0.2-0.1c0.1,0,0.2,0,0.3,0.1c0,0,0,0,0.1,0.1c0.1,0,0.1,0,0.2,0s0.2-0.1,0.2-0.2c0-0.1,0-0.2,0-0.3
			c-0.1-0.3-0.2-0.3-0.4-0.3h-0.2c-0.1,0-0.3,0-0.4-0.1c0,0-0.3-0.1-0.4-0.5c-0.1-0.2-0.1-0.5,0-0.7s0.2-0.3,0.4-0.3
			c0.2-0.1,0.4-0.1,0.5,0c0.2,0.1,0.3,0.3,0.4,0.5l-0.2,0.1c-0.1,0-0.2,0-0.3-0.1c0,0,0,0-0.1-0.1c-0.1,0-0.1,0-0.2,0
			s-0.1,0.1-0.2,0.1c0,0.1,0,0.2,0,0.3c0.1,0.2,0.1,0.3,0.4,0.3h0.2c0.1,0,0.3,0,0.4,0.1c0,0,0.3,0.1,0.5,0.5
			C193.5,75.7,193.5,75.9,193.4,76.1 M195,75.6c-0.1,0.1-0.2,0-0.3-0.1l-1.1-2.2c-0.1-0.1,0-0.2,0.1-0.3l0.7-0.3
			c0.1,0,0.2,0,0.3,0.1c0.1,0.1,0,0.2-0.1,0.3l-0.3,0.2c-0.1,0-0.1,0.2-0.1,0.3l0.2,0.4c0.1,0.1,0.2,0.1,0.3,0.1l0.2-0.1
			c0.1,0,0.2,0,0.3,0.1c0.1,0.1,0,0.2-0.1,0.3l-0.2,0.1c-0.1,0.1-0.1,0.2-0.1,0.3l0.2,0.4c0,0.1,0.2,0.1,0.3,0.1l0.3-0.1
			c0.1-0.1,0.2,0,0.3,0.1c0.1,0.1,0,0.2-0.1,0.3L195,75.6z M196,72.2c-0.1,0.1-0.1,0.2-0.1,0.3l1,1.8c0.1,0.1,0,0.2-0.1,0.3l0,0
			c-0.1,0.1-0.2,0-0.3-0.1l-1-1.8c-0.1-0.1-0.2-0.1-0.3-0.1h-0.1c-0.1,0.1-0.2,0-0.3-0.1c-0.1-0.1,0-0.2,0.1-0.3l0.9-0.5
			c0.1-0.1,0.2,0,0.3,0.1C196.2,72,196.2,72.1,196,72.2L196,72.2z M198.6,73.6c-0.1,0.1-0.2,0-0.3-0.1l-1.3-2.1
			c-0.1-0.1,0-0.2,0.1-0.3l0,0c0.1-0.1,0.2,0,0.3,0.1l1.1,1.8c0.1,0.1,0.2,0.1,0.3,0.1l0.3-0.2c0.1-0.1,0.2,0,0.3,0.1
			c0.1,0.1,0,0.2-0.1,0.3L198.6,73.6z M200.8,72.1c-0.1,0.1-0.2,0-0.3,0l-0.1-0.1c-0.1-0.1-0.2-0.1-0.3,0l-0.2,0.1
			c-0.1,0.1-0.1,0.2-0.1,0.3l0.1,0.2c0,0.1,0,0.2-0.1,0.3l0,0c-0.1,0.1-0.2,0-0.2-0.1l-0.9-2.4c0-0.1,0-0.3,0.1-0.3l0,0
			c0.1-0.1,0.2-0.1,0.3,0l1.9,1.7C201,71.9,201,72,200.8,72.1L200.8,72.1z M199.2,70.8C199.1,70.7,199.1,70.7,199.2,70.8l0.2,0.8
			c0,0.1,0.2,0.1,0.3,0.1h0.1c0.1-0.1,0.1-0.2,0-0.3L199.2,70.8z M202.4,71c-0.2,0.2-0.4,0.2-0.6,0.1c-0.3-0.1-0.5-0.3-0.9-0.9
			c-0.4-0.6-0.6-0.8-0.5-1.1c0-0.2,0.1-0.4,0.3-0.5c0.2-0.1,0.4-0.2,0.5-0.1c0.2,0,0.4,0.2,0.5,0.4l-0.2,0.1c-0.1,0.1-0.2,0.1-0.3,0
			c0,0-0.1-0.1-0.3,0c-0.1,0.1-0.1,0.1-0.1,0.2c0,0.2,0.2,0.4,0.5,0.8c0.3,0.4,0.5,0.7,0.6,0.7s0.1,0,0.2,0c0.2-0.1,0.1-0.3,0-0.5
			L202,70c-0.1-0.1-0.2-0.1-0.2-0.1c-0.1,0-0.2,0-0.2-0.1c-0.1-0.1,0-0.2,0.1-0.3l0.3-0.2c0.1-0.1,0.2,0,0.3,0l0.3,0.5
			C202.9,70.4,202.8,70.8,202.4,71 M203.5,70.2c-0.1,0.1-0.2,0-0.3,0l-1.5-2c-0.1-0.1-0.1-0.2,0-0.3l0,0c0.1-0.1,0.2,0,0.3,0
			l1.2,1.7c0.1,0.1,0.2,0.1,0.3,0l0.3-0.2c0.1-0.1,0.2-0.1,0.3,0c0.1,0.1,0,0.2,0,0.3L203.5,70.2z M205.3,68.6
			c0,0.2-0.1,0.4-0.3,0.5c-0.2,0.2-0.4,0.2-0.6,0.1c-0.3-0.1-0.5-0.3-0.9-0.9c-0.4-0.5-0.6-0.8-0.6-1.1c0-0.2,0.1-0.4,0.3-0.5
			c0.2-0.2,0.4-0.2,0.6-0.1c0.3,0.1,0.5,0.3,0.9,0.9C205.2,68,205.4,68.3,205.3,68.6 M203.7,67c-0.1,0-0.2,0-0.2,0
			c-0.1,0.1-0.1,0.1-0.1,0.2c0,0.2,0.2,0.4,0.5,0.8c0.3,0.4,0.5,0.6,0.7,0.7c0.1,0,0.2,0,0.2,0c0.1-0.1,0.1-0.1,0.1-0.2
			c0-0.2-0.2-0.4-0.5-0.8C204.1,67.3,203.9,67.1,203.7,67 M206.2,68.2c-0.1,0.1-0.2,0-0.3,0l-1.5-2c-0.1-0.1-0.1-0.2,0-0.3l0,0
			c0.1-0.1,0.2,0,0.3,0l1.5,2C206.3,68,206.3,68.1,206.2,68.2L206.2,68.2z M207.9,66.9c-0.1,0.1-0.2,0.1-0.3,0l-0.7-0.5
			c-0.1-0.1-0.2-0.1-0.3,0c-0.1,0,0,0.2,0,0.2l0.5,0.6c0.1,0.1,0.1,0.2,0,0.3l0,0c-0.1,0.1-0.2,0.1-0.3,0l-1.5-2
			c-0.1-0.1-0.1-0.2,0-0.3l0.2-0.2c0.1-0.1,0.3-0.2,0.4-0.2c0,0,0.5-0.2,0.9,0.3c0.2,0.3,0.3,0.5,0.2,0.8l0.9,0.6
			C208,66.7,208,66.8,207.9,66.9L207.9,66.9z M205.9,65.3L205.9,65.3c-0.1,0.1-0.2,0.2-0.1,0.3l0.3,0.4c0.1,0.1,0.2,0.1,0.2,0.1
			c0.1,0,0.1-0.2,0.2-0.3c0,0,0-0.1-0.1-0.3C206.2,65.3,206.1,65.1,205.9,65.3 M208.5,66.5c-0.1,0.1-0.2,0-0.3,0l-1.4-2
			c-0.1-0.1,0-0.2,0-0.3l0.7-0.5c0.1-0.1,0.2,0,0.3,0c0.1,0.1,0,0.2-0.1,0.3l-0.3,0.2c-0.1,0.1-0.1,0.2,0,0.3l0.2,0.3
			c0.1,0.1,0.2,0.1,0.3,0l0.2-0.1c0.1-0.1,0.2,0,0.3,0c0.1,0.1,0,0.2,0,0.3l-0.2,0.1c-0.1,0.1-0.1,0.2,0,0.3l0.2,0.3
			c0.1,0.1,0.2,0.1,0.3,0l0.3-0.2c0.1-0.1,0.2,0,0.3,0c0.1,0.1,0,0.2,0,0.3L208.5,66.5z M215.5,33.5c-0.3,0.2-7.7,4.7-9.4,6.2
			c-1.7,1.5-5.8,5.8-6.5,6.7c-0.1,0.1-0.2,0.3-0.4,0.4c-0.5-0.8,1.2-2.3,1.2-2.5c-0.2,0-0.8,0.8-1,1c-0.1,0.1-0.2,0.3-0.3,0.3
			c-0.3-0.4,0-0.8,0.2-1s1-1.3,1.2-1.5c-0.5,0.4-0.9,0.9-1.3,1.3c-0.1,0.1-0.2,0.3-0.3,0.3c-0.2,0-0.2-0.5-0.1-0.7
			c0.1-0.1,1.5-1.7,1.7-1.9c-0.4,0.3-0.9,0.8-1.3,1.2c-0.1,0.1-0.3,0.4-0.4,0.4c-0.2-0.1-0.1-0.4,0-0.5c5.2-5.2,16.5-10,17-10
			C215.9,33.2,215.8,33.4,215.5,33.5 M180.3,39.2c-0.4,0.1-3.8,0.5-4.6,0.6c-0.2-0.2-0.2-0.7-0.6-0.8c-0.1,0-0.3,0-0.5,0
			c-1,0.1-1.9,0.2-2.7,0.3c-0.2,0-0.3,0-0.5,0.1l0,0c0,0-0.2-0.2-0.2-0.4c0-0.1-1-1.5-1.4-2.1c-0.2-0.3-0.5-0.6-0.6-1
			c-0.1-0.2,0-0.5,0-0.7s-0.3-0.4-0.4-0.5c-0.2-0.1-0.4,0-0.5-0.2c-0.1-0.1-0.1-0.4-0.2-0.5c-0.2-0.6-0.5-1-0.7-1.5
			c-0.1-0.2-0.9-1.6-1.2-1.7c-0.1-0.1-0.4,0-0.6,0c-0.3-0.1-0.4-0.7-0.8-0.7c-0.3,0-1.1,0.7-1.3,0.8c-1.1,0.8-3.2,2.3-3.3,2.6
			c-0.1,0.3,0.2,0.6,0.2,0.6s0.4,0.3,0.5,0.5c0,0.2,0,0.3,0,0.5s1.2,2,2.2,2.7c0.2,0.1,0.5,0.2,0.5,0.3c0,0.2-0.2,0.4-0.1,0.6
			c0.1,0.4,0.6,0.5,0.9,0.8s0.5,0.8,0.8,1.2s0.4,0.6,0.7,1c0,0-0.6,1.2-1.7,0.3c-6.4-5.3-18.6-10.4-19.8-10.9
			c-0.4-0.2-0.6-0.3-0.7-0.3c0,0.1,1.2,1.9,1.9,3.3c0.2,0.5,1.8,3.2,1.9,3.5c-0.5,0-1.1-0.6-1.2-0.6c-0.1,0.1,0.1,0.6,0.2,1.1
			c0.2,0.5,1.1,3.8,2.8,6.3c0.2,0.3,0.3,0.5,0.2,0.6c-0.2,0.2-1.3-0.6-1.4-0.5c0,0-0.1,0.1,0,0.4c0.1,0.4,0.9,2,3.4,5.7
			c-0.1,0.1-0.4,0-0.6,0.2s0.2,0.5,0.4,0.8c0.2,0.3,1.5,2,1.6,2.2s1.8,1.9,2.6,2.5c0.8,0.6,2.7,1.6,3.2,1.8c0.6,0.3,2.4,0.8,2.9,0.9
			c0.5,0.1,0.9,0.1,1.1,0.2c0.2,0.1,0.6,0.4,0.9,0.6c2.7,1.4,4.5,1.5,6.2,1.2c0.9-0.1,1.4-0.2,1.8,0s1.5,1.2,1.7,1.4
			c0,0-0.6,1.3-0.9,1.8c-0.5,1-2.7,4.6-2.9,4.9c-0.2,0.3-0.5,1-0.8,0.9c-0.1,0-3.5-1.9-4.1-2.4c-0.7-0.5-5.7-4.2-6.6-4.9
			c-0.6-0.5-3.4-2.2-6.1,1.4c-2,3.3-2.3,6.6,1.8,9.8c0.5,0.4,1.6,2.1,1.2,3.8c0,0.2-0.2,0.4-0.1,0.6c0.1,0.2,3.4-2.6,3.7-6
			c1.7,1.4,3.5,2.7,5.4,3.8c-0.2,0.3-0.5,0.7-0.7,1s-0.5,0.7-0.7,0.8s-0.8,0.1-0.9,0.4c-0.1,0.3,0.1,0.6,0,1c0,0.2-0.3,0.5-0.4,0.7
			c-0.2,0.3-0.3,0.5-0.5,0.6s-0.3,0.1-0.6,0.2c-0.1,0-0.2,0.1-0.4,0.2c-0.1,0.1-0.3,0.1-0.4,0.1c-0.4,0.2-0.4,0.6-0.2,1
			c0.1,0.2,0.2,0.3,0.2,0.4c0.2,0.3,0.4,0.4,0.5,0.6c0.2,0.4,1.9,2.7,1.5,3.4c-0.1,0.3-0.4,0.3-0.8,0.3s-0.6-0.3-0.8-0.4
			c0.2-0.4,0.7-1.3,0.6-1.6s-0.3-0.3-0.6-0.6c-0.4-0.3-4.8-4.5-5.1-5c-0.3-0.5-1.5-2-1.9-2.5s-1.6-2.6-1.8-2.6
			c-0.2,0-0.6,0.7-0.6,0.8s-0.2,0.6-0.3,0.7c-0.5,1.7-1.5,5.9-0.7,11.8c0.9,6.6,4.3,11.6,5.6,13.1c0.1,0.2,0.3,0.4,0.5,0.3
			c0.7-0.2,1.8-1.3,2.2-1.7c0.2-0.1,0.3,0,0.3,0l0.1,0.1c1.9,1.9,4.6,4,8.2,5.5c1.1,0.4,2.1,0.8,3.1,1.2c5.9,2.3,9.8,3.6,12.1,10.7
			c0.1,0.4,0.1,0.4,0.2,0.4s0.2-0.3,0.2-0.4c2.2-7.3,6-8.6,12.1-11c1-0.4,2-0.8,3.1-1.2c3.6-1.5,6.3-3.5,8.2-5.5
			c0.4,0.4,1.5,1.5,2.2,1.7c0.2,0.1,0.3,0,0.4-0.2c1.3-1.5,4.8-6.2,5.8-13.2c0.8-5.8-0.1-10.1-0.7-11.8c-0.1-0.3-0.5-1.5-0.7-1.5
			c-0.3,0-0.5,0.2-0.7,0.6c-0.2,0.2-0.4,0.5-0.6,0.8c-2.9,4.7-8.4,8.8-8.6,9.3c-0.2,0.4,0.3,1,0.5,1.5c-0.2,0.1-0.5,0.3-0.8,0.4
			c-0.3,0.1-0.9-0.5-0.9-0.7c0-0.4,0.4-0.7,0.6-1c0.4-0.4,0.6-0.8,0.8-1.4c0.1-0.3,0.5-1.1,0.6-1.2c0.1-0.1,0.5-0.9,0.4-1
			c0-0.2-0.2-0.5-0.4-0.5c-0.2-0.1-1-0.3-1.2-0.4c-0.3-0.1-1-1.1-1.1-1.4c0-0.3,0.2-0.7,0-1c-0.1-0.2-0.6-0.2-0.9-0.3
			c-0.2-0.1-1-1.3-1.2-1.6c3.4-2,5.1-3.6,5.6-3.9l0,0c0.2,3,3.6,6.2,3.7,6c0.1-0.1-0.1-0.4-0.2-0.8c-0.1-0.4,0-2.3,1.2-3.5
			c4.1-3.2,3.7-6.5,1.8-9.8c-2.2-2.9-4.4-2.4-5.5-1.8c-1,0.5-4.4,3.3-5.2,3.9c-1.3,1-4.8,3.3-5.7,3.6c-0.1,0-0.6,0-0.7-0.2
			c-0.5-0.5-2.2-2.9-3-4.5c-0.6-1.2-1.4-2.6-1.1-3c0.1-0.2,1.6-1.2,2.1-1.3c0.4-0.1,1.3,0.2,2.2,0.3c1,0.1,4.2-0.7,5.1-1.4
			s0.7-0.5,0.8-0.5c0.1-0.1,0.8-0.1,1.2-0.2c5.1-0.8,9.2-5.5,9.9-6.6c0.7-1.1,0.9-1.4,0.8-1.7s-0.4-0.1-0.6-0.2c0.6-1,1.7-2.3,2-2.8
			c0.2-0.5,1-1.5,1.3-2.3c0.2-0.5,0.3-0.8,0.2-1c-0.2-0.2-1.2,0.7-1.4,0.4c-0.2-0.2,0.6-0.9,2.1-4c1.3-2.6,1.2-3.7,1.1-3.9
			s-1,0.4-1.2,0.5c0.6-1.2,1.3-2.3,1.9-3.4c0.7-1.4,1.9-3.3,1.9-3.3c0-0.1-0.2,0.1-0.7,0.3c-1.2,0.6-13.4,5.6-19.8,10.9
			c-0.3,0.2-0.9,0.4-1.4,0c0.4-0.6,0.7-0.9,0.8-1.1c0.1-0.2,0.5-0.9,0.9-1.2c0.3-0.3,0.8-0.3,0.9-0.8c0-0.2-0.2-0.4-0.1-0.6
			c0-0.2,0.3-0.2,0.5-0.3s0.8-0.6,0.9-0.8c0.2-0.2,1.2-1.3,1.3-1.9c0-0.2,0-0.3,0-0.5c0.1-0.2,0.3-0.3,0.5-0.5
			c0.1-0.1,0.2-0.4,0.2-0.6c0-0.2-0.4-0.3-0.6-0.5c-1.1-0.8-3.2-2.3-3.4-2.5c-0.2-0.1-0.4-0.4-0.7-0.4c-0.4,0-0.4,0.6-0.8,0.7
			c-0.2,0.1-0.5,0-0.6,0c-0.3,0.1-0.8,1.1-1,1.3c-0.2,0.3-0.9,1.5-0.9,1.8c-0.1,0.3-0.1,0.4-0.2,0.5s-0.4,0.1-0.5,0.2
			c-0.1,0.1-0.3,0.3-0.4,0.5c0,0.2,0,0.5,0,0.7c-0.1,0.3-0.5,0.8-0.7,1.1s-1.2,1.8-1.3,2c-0.1,0.2-0.3,0.5-0.3,0.5
			c-0.6-0.1-1.2-0.3-1.7-0.3s-1.9-0.2-1.9-0.2c-0.6-0.1-0.7,0.4-0.9,0.7c-1.3-0.2-2.4-0.3-3.5-0.4c-0.2,0-0.3-0.4-0.3-0.6
			c0-0.2,0-3.6,0-4.2c0-0.1,0.1,0,0.1,0c3.1,4.3,6.2,4.2,7.1,3.7c0.6-0.7,1.9-2.9,2.6-5.1c0.4-1.4,0.6-3,0.6-4.3
			c-0.1-1.7-0.7-7.9-7.3-10.5c-6.5-2.6-11.9,0.4-13.1,1c-0.4,0.2-0.7,0.4-0.7,0.5c-0.1,0.2,0.3,0.6,0.4,0.6c0.2,0.1,0.4,0,0.7,0
			c0.2,0,1.1,0.7,1.4,1.4s0.7,1.8,0.6,2.3c-0.1,0.4-1.2,0.9-2.1,2.9c-0.7-0.7-1.2,1-1.4,1.5c-0.2,0.4-0.7,2.7-0.6,3
			c0.1,0.4,0.1,0.4,0.3,0.6c-0.4,1-1.1,2.2-1.2,2.6c-0.1,0.4-0.6,1.1-0.7,2.2c0.9,0.4,4.2,0.9,9.9-1.3c0,0.9,0,3.3,0,3.3
			C180.3,39.1,180.3,39.1,180.3,39.2 M182.8,34.7c0-0.1-0.1-0.3-0.2-0.3s-0.2,0.1-0.2,0.3v10.9c0,0.1,0.1,0.3,0.2,0.3
			s0.2-0.1,0.2-0.3V34.7z M182,35.1c0-0.1-0.1-0.2-0.3-0.1c-0.2,0.1-1,0.5-1,0.7v10c0,0.1,0.1,0.2,0.3,0.3c0.2,0,0.7,0.1,0.8,0
			c0.1,0,0.2-0.1,0.2-0.3V35.1z M181.3,102c0-0.2-0.3-18.4-0.3-18.4c0-0.1-0.1-1.7-0.2-2s-0.5-0.3-0.8-0.3c-2,0-3.3-0.3-4.2-0.5
			c-0.3-0.1-0.2,0.5,0,0.5c0.6,0,1.5,0.2,2,0.3c-0.1,0.1-0.1,0.2-0.1,0.3c-0.4,0-2.3-0.5-2,0.3c0.2,0.5,1.5,0.4,1.9,0.6
			c0,0,0,0.1,0,0.2c-0.5,0-1.3-0.1-1.8-0.2c-0.2,0.1-0.2,0.3-0.2,0.6c0.1,0,1.8,0.2,1.8,0.5c-0.5,0.1-1.4-0.1-1.8,0
			c0,0.1,0,0.3,0,0.5c0.2,0.2,1.7,0.2,1.7,0.4c-0.4,0.2-1.3,0-1.7,0.1c0,0.2,0,0.4,0,0.6c0.2,0.1,1.6,0.1,1.5,0.3
			c-0.2,0.1-1.3,0.1-1.6,0.1c0,0.3,0,0.5,0,0.7c0.2,0.1,1.5,0,1.5,0.3c-0.2,0.1-1.3,0-1.5,0c0,0.2-0.1,0.4-0.1,0.7
			c0.3-0.1,1.5,0,1.5,0.3c-0.1,0.1-1.3,0.1-1.6,0c0,0.2-0.1,0.4-0.1,0.6c0.1,0.2,1.6,0,1.6,0.2s-1.6,0.1-1.7,0.1
			c0,0.2-0.1,0.4-0.1,0.7c0.3,0,1.7,0.1,1.6,0.3c-0.3,0.1-1.3-0.1-1.7,0c-0.1,0.2-0.2,0.4-0.3,0.6c0.4,0.1,1.4,0.2,1.8,0.3
			c0,0.2-0.2,0.1-0.3,0.1s-1.3-0.2-1.6-0.2c-0.1,0.2-0.2,0.4-0.3,0.6c0.2,0.1,2,0.3,1.9,0.5c-0.6,0.1-1.5-0.2-2.1-0.2
			c-0.1,0.3-0.3,0.4-0.4,0.6c0.5,0.1,1.5,0.3,2,0.5v0.1c-0.7,0-1.6-0.3-2.2-0.3c0,0.1-0.4,0.4-0.4,0.5c0,0.2,2.3,0.4,2.4,0.6
			c0,0.2-2.4-0.3-2.6-0.2c-0.2,0.2-0.4,0.3-0.6,0.5c0.4,0.2,2.7,0.6,3,0.6v0.3c-0.3,0-2.5-0.4-3.3-0.6c-0.2,0.2-0.4,0.3-0.6,0.5
			c0.2,0.1,3.5,0.6,3.9,0.8v0.1c-1.5-0.1-2.9-0.3-4.2-0.7c-0.4,0.1-1,0.1-1.4,0.2c1.5,0.4,3,0.8,4.5,1.1c-0.1,0-0.1,0.1-0.1,0.2
			c-0.4-0.1-4.2-0.9-4.5-1c-0.1,0-0.2-0.1-0.4-0.2c-0.3-0.1-3.3,0.2-7.6-3c-3.8-2.9-7.5-7.7-8.2-8.6c-0.2-0.2-0.3-0.5-0.5-0.6
			c0,0.6,0.1,0.8,0.3,1.2c0.2,0.5,3.9,7.1,5.8,9.2c1.5,1.7,3.8,3.9,6.3,5.4c2.2,1.3,6.2,2.9,8.7,3.3c1.9,0.3,6.4,0.5,6.7,0.5
			C181.2,102.6,181.3,102.2,181.3,102 M157.7,72.1c-1.6-1.7-4.2-3.8-4.5-3.6c-0.2,0.2,0.5,0.6,0.7,0.7c0.1,0.1,3.1,2.8,3.3,3
			c0.3,0.3,0.5,0.7,0.6,0.9C158,73.3,158.4,72.8,157.7,72.1 M151.9,71.6c-0.2,0.2,0.5,0.6,0.6,0.7c0,0,2.9,2.5,3.1,4.4
			c0,0.2,0,0.5,0.2,0.4c0.1-0.1,0.3,0,0.2-0.5c-0.1-0.7-0.5-1.7-0.9-2.2C154.8,74.2,152.1,71.3,151.9,71.6 M151.4,70.2
			c-0.1,0.2,0.5,0.6,0.6,0.7c0,0,4,3,4.3,4.9c0,0.2,0.1,0.5,0.2,0.4c0.1,0,0.3,0,0.2-0.5c-0.1-0.7-0.7-1.6-1.3-2.2
			C154.8,72.9,151.6,69.9,151.4,70.2 M151.3,69c-0.3,0.1,0.6,0.8,0.7,0.9c0.3,0.2,4.5,3.8,4.9,5c0.1,0.2,0.1,0.4,0.2,0.4
			s0.3,0,0.2-0.5c-0.2-0.6-0.6-1.1-1.6-2.2C154.6,71.5,151.7,68.8,151.3,69 M151.8,68.2c-0.3,0.1,0.6,0.8,0.7,0.9
			c0.3,0.2,4.2,3.5,5,4.7c0.1,0.2,0.1,0.4,0.2,0.3c0.2,0,0.2-0.1,0.1-0.5c-0.1-0.3-0.7-1-1.8-2C155.1,70.7,152.2,68.1,151.8,68.2
			 M205.6,72.7c0.1-0.2,0.4-0.6,0.6-0.9c0.2-0.2,3.1-2.9,3.3-3c0.1-0.1,0.8-0.5,0.7-0.7c-0.2-0.2-2.9,2-4.5,3.6
			C205,72.4,205.3,73,205.6,72.7 M208.3,74.2c-0.5,0.5-0.8,1.6-0.9,2.2c-0.1,0.5,0.1,0.4,0.2,0.5s0.1-0.3,0.2-0.4
			c0.2-1.9,3.1-4.4,3.1-4.4c0.1-0.1,0.7-0.6,0.6-0.7C211.3,71,208.6,73.9,208.3,74.2 M208,73.3c-0.6,0.6-1.2,1.5-1.3,2.2
			c-0.1,0.5,0.1,0.5,0.2,0.5s0.2-0.3,0.2-0.4c0.4-1.9,4.3-4.9,4.3-4.9c0.1-0.1,0.8-0.5,0.6-0.7C211.8,69.6,208.6,72.6,208,73.3
			 M207.7,72.3c-1.1,1-1.4,1.5-1.6,2.2c-0.1,0.5,0.1,0.5,0.2,0.5s0.2-0.2,0.2-0.4c0.3-1.2,4.5-4.7,4.9-5c0.2-0.1,1-0.8,0.7-0.9
			C211.6,68.5,208.8,71.2,207.7,72.3 M207.3,71.4c-1.1,1-1.7,1.7-1.7,2c-0.1,0.3,0,0.4,0.1,0.5c0.2,0,0.1-0.1,0.2-0.3
			c0.7-1.2,4.6-4.4,5-4.7c0.2-0.1,1-0.8,0.7-0.9C211.1,67.8,208.3,70.4,207.3,71.4 M181.8,81.6v-0.3 M162.3,79.8
			c2.2,1.6,6.7,4.7,8.9,6.3c0,0.1-0.1,0.4-0.2,0.4c-0.1,0.1-3.4-2.3-3.4-2.3l-0.2,0.3c0,0,2.5,1.7,3.4,2.4c0.1,0.1-0.3,0.4-0.3,0.4
			c-2.2-1.6-6.7-4.8-8.9-6.4C161.7,80.5,162.1,80.2,162.3,79.8 M162.5,78.7c0.5-0.1,8.8,6,9.4,6.5c0.2,0.1,0.4,0.3,0.3,0.6
			c-0.3,0-0.5-0.2-0.6-0.4c-0.2-0.1-8.5-6.2-8.8-6.5C162.6,78.9,162.4,78.9,162.5,78.7 M160.5,81.3
			C160.6,81.3,160.6,81.3,160.5,81.3L160.5,81.3c1.7,1.1,8.6,6.2,9.3,6.7c0.2,0.1,0.5,0.3,0.4,0.6c-0.1,0.1-0.2-0.1-0.3-0.1
			C169.2,87.9,162.9,83.2,160.5,81.3L160.5,81.3z M160.4,82.3c-0.3-0.2-0.9-0.5-0.4-0.7c3.3,2.4,6.6,4.9,9.9,7.3
			c0.1,0.1,0.2,0.1,0.2,0.3c-0.2,0.2-0.5-0.1-0.7-0.2C167.1,87.2,161.1,82.8,160.4,82.3 M162.6,81.2c-0.1-0.1-0.1-0.3,0-0.4
			c0.2-0.2,1.4,0.8,1.6,1.2C163.6,82.1,162.9,81.5,162.6,81.2 M181.2,48.2c0-0.3,0.2-0.6,0.2-0.6c-2.7-0.1-4.9-2.1-4.9-4.6
			c0-1.1,0.4-2.1,1.1-2.8c-0.6-0.1-1.6,0.1-1.8,0.1c-0.3,0.1-0.4,0.3-0.4,0.4c-0.1,0.8-0.2,2.3,0,4.3s1.1,4.3,1.6,5.5
			c0,0,0,0.1,0,0.2c0,0.1-2.4,2-2.8,2c-0.3-0.1-1.7-1.3-1.8-1.4c-0.1,0-0.2,0.1-0.3,0.1c-0.5,0.1-0.9,0-1.2,0.1
			c-0.2,0-0.5,0-0.6,0.2c0.7,2.4,1.8,4.8,3,6.8c0.2,0.3,0.4,0.7,0.6,0.8c0.3,0.2,0.8,0.5,2.3,0.4c1.3-0.1,2.8,0,3.9-0.1l0,0v-0.4
			h1.6V48.7C181.6,48.7,181.2,48.5,181.2,48.2 M182.5,48.3c0,0,0.2,0.2,1.2,0.1l-0.1,0.2h-1.3c0,0-0.4,0.1-0.4,0.4
			c0,0.4,0.4,0.3,0.4,0.3h1.3l-0.1,0.3h-1.2c0,0-0.4-0.1-0.4,0.3c0,0.3,0.1,0.5,0.3,0.5h1.4l-0.1,0.3h-1.3c-0.1,0-0.3,0.1-0.3,0.3
			s0.1,0.4,0.3,0.4h1.4l-0.1,0.2h-1.2c-0.2,0-0.3,0.1-0.3,0.3s0.1,0.5,0.4,0.5h1.3l-0.1,0.2h-1.2c-0.2,0-0.4,0.2-0.4,0.4
			s-0.1,0.4,0.4,0.4h1.3l-0.1,0.2h-1.2c-0.2,0-0.3,0-0.3,0.3s0.2,0.4,0.4,0.4h1.1l-0.1,0.2h-1c-0.2,0-0.4-0.1-0.4,0.4
			c0,0.4,0.1,0.4,0.4,0.4h1l0.1,0.3h-1.1c-0.2,0-0.4,0-0.4,0.4s0.2,0.4,0.4,0.4h1.1l0.1,0.3h-1.2c-0.2,0-0.4,0-0.4,0.4
			s0.1,0.4,0.4,0.4h1.1l0.1,0.3c0,0-0.9,0-1.1,0s-0.5,0.2-0.5,0.4s0.3,0.3,0.4,0.3h1.3l0.1,0.3h-1.8V59h1.5v0.4
			c1.6,0.1,3.4-0.1,5-0.1c0.4,0,1.2,0.1,1.2-0.3c0-0.2-0.6-0.2-0.8-0.2c-0.9-0.1-1.6,0-2.4-0.1c0-0.1,0-0.2,0-0.3
			c0.7,0,2.8-0.1,2.9-0.1c0.4,0,0.7,0,0.6-0.4c-0.7-0.1-1.5-0.1-2.2-0.2c0-0.1,0-0.2,0-0.2c0.5,0,1.1,0,1.6,0s1.3,0.1,1-0.5
			c-0.6-0.1-1.4-0.1-2-0.2c0-0.1,0-0.2,0-0.3c0.4,0,1.1-0.1,1.6,0c0.4,0,1.1,0.2,0.9-0.4c-0.6-0.2-1.4-0.1-2-0.3
			c0-0.1,0.1-0.1,0.2-0.3c0.3,0,2.6,0.1,2.5-0.4c0,0-0.1-0.1,0-0.1c-1.1-0.3-2.5-0.1-3.7-0.4v0.1c0,0,3.7,0,3.8,0
			c0.1,0,0.3-0.2,0.3-0.3c-0.1-0.1-0.8-0.2-0.9-0.3c-0.7-0.2-1.6-0.1-2.3-0.2c0-0.1,0-0.2,0.1-0.2c0.9,0,2.1,0.1,3,0
			c0.3,0,0.7,0,0.7-0.3c0-0.2-1-0.3-1.2-0.4c-0.7-0.1-1.3-0.2-2.1-0.1c-0.3,0-2.7-1.9-2.8-2.2c-0.1-0.3,0.5-1.4,0.5-1.4
			c0.2-0.4,0.3-0.9,0.4-1.1c0-0.1,0.1-0.2,0.1-0.3c0.2-0.6,0.6-2,0.6-2.8c0.1-2,0.1-3.4,0-4.1c-0.1-0.6-0.5-0.7-1.3-0.8
			s-0.4,0.4-0.4,0.4c0.5,0.7,0.8,1.6,0.8,2.5c0,2.3-1.9,4.2-4.4,4.6c0,0-0.2,0-0.1,0.2C182.5,48,182.5,48.3,182.5,48.3 M201.6,49.3
			c0,0.1-0.7,1.2,0.7,0.3c1.4-0.8,2.4-1,2.4-1c-1.3,1.2-4,2.1-4,2.1l-1.3,1.9c0.6,0,5-2.1,5.7-2.8s2.6-4.3,3-5.1
			c0.3-0.8,0-0.9-0.3-0.6c-0.3,0.2-1.4,1.1-2,1.6c-0.6,0.6-3.2,2.1-3.2,2.1C202.4,48.1,201.6,49.3,201.6,49.3 M155.1,42.1
			c-0.4-0.8-1.4-3.7-1.3-3.8c0.2-0.1,0.6,0,0.7,0.2c0.3,0.3,0.4,0.9,0.6,1.2c0-0.1,0-0.4,0.2-0.4c0.7,0,0.7,1.5,1.5,1.8
			c0-0.1-0.2-0.3-0.1-0.5c0.3,0,0.5,0.2,0.7,0.4c0.3,0.3,1.4,2.2,1.4,2.5c-0.5,0.1-2.7-1.9-2.9-2c0.1,0.3,2.9,2.8,3.3,3.1
			c0.2,0.3,0.9,1.9,1,2.2c0,0.1,0.1,0.2,0.1,0.3C159.9,47,155.4,42.8,155.1,42.1 M145.8,33c0.2-0.1,1.6,0.9,2,1.6
			c0.2,0.4,0.4,0.7,0.4,0.6c0,0-0.2-0.5,0-0.5s0.7,0.3,1.6,1.8c0-0.3-0.4-0.8-0.1-0.8c0.5-0.1,0.9,1.1,1.2,1.4
			c0.3,0.4,0-0.6,0.1-0.6c0.2,0,0.5,0.1,0.6,0.3s0.7,1.8,1,1.7c0.2,0-0.4-0.9-0.2-1.1c0.2-0.2,0.6,0.3,0.7,0.5s1.1,2.6,0.9,2.8
			s-1.3-0.7-1.6-0.9c-0.4-0.4-2.5-2.2-2.5-2.1c-0.1,0.1,0.6,1,1.3,1.7c1.6,1.7,3.4,3,3.4,3s0.6,1.1,0.4,1.1c-2,0-5.2-4-5.5-4.5
			C148.7,38.3,145.4,33.2,145.8,33 M160.6,48c0,0-2.6-1.6-3.2-2.1c-0.6-0.6-1.8-1.4-2-1.6c-0.3-0.2-0.6-0.2-0.3,0.6
			c0.3,0.8,2.3,4.4,3,5.1c0.7,0.7,5.1,2.7,5.7,2.8l-1.2-1.9c0,0-2.7-0.9-4-2.1c0,0,1,0.2,2.4,1s0.7-0.2,0.7-0.3
			C161.6,49.3,160.8,48.2,160.6,48 M170.6,43.8c0.2,0-0.5-0.1-0.5,0.4c0,0.4-0.1,4-0.4,4.9s-0.7,2.2-0.5,2.3s0.4,0.2,0.6-0.3
			s1.4-4.1,1.2-6.5C171,43.8,170.6,43.8,170.6,43.8 M192,44.5c-0.2,2.3,1,5.9,1.2,6.5c0.2,0.5,0.4,0.4,0.6,0.3
			c0.2-0.1-0.2-1.3-0.5-2.3c-0.3-0.9-0.4-4.5-0.4-4.9s-0.6-0.4-0.5-0.4C192.5,43.8,192.1,43.8,192,44.5"/>
		<g>
			<line x1="32.4" y1="455" x2="333.6" y2="455"/>
			<rect x="32.4" y="453.7" width="301.2" height="2.7"/>
		</g>
		<rect x="139.1" y="511.6" width="6.2" height="28.3"/>
		<path d="M168.9,511.6h-11.6v28.3h6.2v-8.5h4.7c6.4,0,11.5-3.4,11.5-10C179.8,515.6,175.7,511.6,168.9,511.6 M168.5,525.9h-4.9
			v-8.7h4.8c3.1,0,5.1,1.5,5.1,4.3C173.5,524,171.7,525.9,168.5,525.9"/>
		<path d="M211.7,511.6h-11.6v28.3h6.2v-8.5h4.7c6.4,0,11.5-3.4,11.5-10C222.5,515.6,218.4,511.6,211.7,511.6 M211.3,525.9h-4.9
			v-8.7h4.8c3.1,0,5.1,1.5,5.1,4.3C216.2,524,214.4,525.9,211.3,525.9"/>
		<path d="M238.1,511.4h5.8L256,540h-6.5l-2.6-6.4h-12l-2.6,6.4h-6.4L238.1,511.4z M244.6,528.1l-3.8-9.2l-3.8,9.2H244.6z"/>
		<path d="M263.8,511.6h13c3.6,0,6.4,1,8.3,2.9c1.6,1.6,2.4,3.8,2.4,6.5v0.1c0,4.6-2.5,7.5-6.1,8.8l6.9,10.1H281l-6.1-9.1h-0.1H270
			v9.1h-6.2V511.6z M276.4,525.4c3,0,4.8-1.6,4.8-4v-0.1c0-2.7-1.9-4.1-4.9-4.1H270v8.1L276.4,525.4L276.4,525.4z"/>
		<rect x="298" y="511.6" width="6.2" height="28.3"/>
		<path d="M326.9,523c-4.9-1.3-6.1-1.9-6.1-3.8c0-1.4,1.3-2.5,3.6-2.5s4.9,1.1,7.4,2.8l3.2-4.7c-2.9-2.3-6.4-3.6-10.5-3.6
			c-5.8,0-9.9,3.4-9.9,8.6c0,5.6,3.7,7.3,9.4,8.7c4.7,1.2,5.7,2.1,5.7,3.6c0,1.7-1.5,2.7-4.1,2.7c-3.2,0-5.9-1.3-8.5-3.4l-3.7,4.4
			c3.4,3,7.7,4.5,12,4.5c6.1,0,10.4-3.2,10.4-8.8C335.9,526.6,332.7,524.5,326.9,523"/>
		<path d="M72,526.5c-12.5-8.6-19.2-13.1-25.5-17.8c-3,5-4.8,10.9-4.8,17.2c0,11.4,5.7,21.4,14.5,27.4C59.9,546,64.8,538,72,526.5"
			/>
		<path d="M104.7,533.1c-5.1,5.4-13.3,6.2-19.2,2.5c-1.1-0.7-9.2-6.3-9.2-6.3c-9,12.6-13.6,19-18.5,24.8c5,3.1,10.9,4.8,17.3,4.8
			c17.8,0,32.3-14,33.1-31.6C107.4,529.5,106.2,531.5,104.7,533.1"/>
		<path d="M98.5,514.4c-1.1-0.7-8.2-5.5-8.2-5.5c-5.8,8.6-6.7,9.8-11.2,16.2c0,0,7.7,5,8.9,5.7c4,2.5,9.3,1.7,12.4-1.7
			c1.2-1.3,2.1-3,2.4-4.7C103.4,521.2,102.4,516.9,98.5,514.4"/>
		<path d="M74.6,522.3c4.2-6.7,8-12.7,14-21.7c0,0,12.5,8.3,13.6,9.1c1.3,0.9,2.3,1.9,3,2.8c-5.1-11.7-16.8-19.8-30.4-19.8
			c-10.8,0-20.4,5.2-26.5,13.2C55.2,509.8,63.1,514.9,74.6,522.3"/>
		<path d="M43.6,501.9c0-2.3-1.9-4.2-4.2-4.2s-4.2,1.9-4.2,4.2s1.9,4.2,4.2,4.2C41.7,506.1,43.6,504.2,43.6,501.9"/>
		<path d="M46.5,489.7l2-1.4c1.2-0.8,2.4-0.7,3.1,0.3l0,0c0.8,1.1,0.3,2.3-0.8,3.1l-1,0.7L51,494l-0.9,0.6L46.5,489.7z M50.3,491
			c0.7-0.5,0.8-1.1,0.4-1.7l0,0c-0.4-0.6-1.1-0.6-1.7-0.1l-1,0.7l1.3,1.8L50.3,491z"/>
		<path d="M54.7,488L54.7,488c-0.7-1.6-0.1-3.5,1.7-4.2c1.7-0.8,3.5,0,4.2,1.6l0,0c0.7,1.6,0.1,3.4-1.7,4.2
			C57.2,490.3,55.4,489.6,54.7,488 M59.5,485.8L59.5,485.8c-0.5-1.1-1.7-1.7-2.8-1.2s-1.5,1.7-1,2.8l0,0c0.5,1.1,1.7,1.6,2.8,1.2
			S60,486.9,59.5,485.8"/>
		<polygon points="63.2,481.4 64.2,481.2 65.3,486.2 68.5,485.5 68.7,486.5 64.5,487.4 		"/>
		<polygon points="71.9,483.8 69.2,480.2 70.5,480.1 72.4,482.7 73.9,479.9 75.2,479.9 73,483.7 73.1,486.1 72,486.2 		"/>
		<polygon points="79.6,481.2 77.6,481 77.8,480 82.7,480.5 82.6,481.5 80.7,481.3 80.1,486.4 79,486.3 		"/>
		<polygon points="86.4,481.3 90.7,482.7 90.4,483.6 87.1,482.6 86.6,484.1 89.6,485 89.3,485.9 86.4,485 85.9,486.6 89.2,487.6 
			89,488.6 84.6,487.2 		"/>
		<path d="M92.9,486.9L92.9,486.9c0.8-1.6,2.7-2.2,4.3-1.3c1,0.5,1.4,1.2,1.7,2l-1,0.4c-0.2-0.6-0.5-1.2-1.2-1.5
			c-1-0.6-2.2-0.1-2.8,0.9l0,0c-0.6,1.1-0.3,2.3,0.7,2.9c0.7,0.4,1.2,0.3,1.9,0.1l0.3,0.9c-0.9,0.3-1.7,0.3-2.7-0.2
			C92.5,490.3,92,488.4,92.9,486.9"/>
		<polygon points="102.4,489 103.3,489.7 101.6,491.6 103.9,493.5 105.5,491.6 106.3,492.3 102.4,497 101.6,496.3 103.2,494.3 
			101,492.4 99.3,494.4 98.5,493.7 		"/>
		<polygon points="109.6,495.7 110.2,496.4 108.9,501.7 112.2,499.1 112.9,499.9 108,503.7 107.5,502.9 108.8,497.6 105.4,500.3 
			104.7,499.4 		"/>
		<rect x="109.6" y="504.9" transform="matrix(0.8784 -0.4779 0.4779 0.8784 -227.8603 115.2688)" width="6.1" height="1.1"/>
		<path d="M113.6,514.5c-0.5-0.4-0.9-0.9-1.2-1.6c-0.6-1.8,0.3-3.5,1.9-4.1l0,0c1.6-0.6,3.4,0.2,4.1,2c0.6,1.8-0.3,3.5-1.9,4.1l0,0
			c-0.7,0.2-1.3,0.2-2,0l-0.3,0.9l-1-0.4L113.6,514.5z M114,513.5l0.5-1.3l1,0.4l-0.6,1.3c0.4,0.1,0.8,0.1,1.2-0.1l0,0
			c1.1-0.4,1.8-1.5,1.4-2.7c-0.4-1.2-1.6-1.6-2.7-1.3l0,0c-1.1,0.4-1.8,1.5-1.4,2.7C113.5,513,113.7,513.3,114,513.5"/>
		<path d="M116.7,518.3l3.5-0.4l0.1,1.1l-3.5,0.4c-1.1,0.1-1.7,0.8-1.6,1.7c0.1,1,0.8,1.5,1.9,1.3l3.5-0.4l0.1,1.1l-3.5,0.4
			c-1.8,0.2-2.9-0.7-3-2.3C114.1,519.6,114.9,518.5,116.7,518.3"/>
		<polygon points="120.9,527.2 120.5,531.8 119.5,531.7 119.8,528.2 118.2,528.1 118,531.2 117,531.1 117.3,528 115.6,527.9 
			115.3,531.4 114.4,531.3 114.7,526.8 		"/>
		<polygon points="48.8,563.5 47.9,562.9 51.5,557.9 52.4,558.5 		"/>
		<polygon points="44.3,560 43.6,559.3 44.3,554 41.3,557 40.5,556.2 44.9,551.9 45.5,552.6 44.8,558 47.9,555 48.7,555.7 		"/>
		<path d="M42.4,550.2l-1-0.1c0.1-0.8,0-1.4-0.4-2.1c-0.4-0.6-0.9-0.7-1.2-0.5l0,0c-0.4,0.2-0.4,0.6,0,1.7c0.5,1.3,0.5,2.1-0.4,2.7
			l0,0c-0.9,0.6-2,0.2-2.6-0.8c-0.5-0.7-0.7-1.5-0.6-2.3h1c0,0.7,0.1,1.3,0.4,1.7c0.3,0.5,0.8,0.7,1.2,0.4l0,0
			c0.4-0.3,0.4-0.6,0-1.7c-0.5-1.3-0.4-2.1,0.4-2.6l0,0c1-0.6,2-0.3,2.7,0.8C42.3,548.3,42.5,549.3,42.4,550.2"/>
		<polygon points="34,544.1 34.7,545.9 33.8,546.3 31.8,541.7 32.8,541.3 33.5,543.1 38.3,541 38.7,542 		"/>
		<rect x="30.6" y="536.5" transform="matrix(0.9654 -0.2608 0.2608 0.9654 -138.9004 27.3708)" width="6.1" height="1.1"/>
		<polygon points="30.5,531.9 30.7,533.8 29.7,533.9 29.1,529 30.1,528.9 30.4,530.8 35.5,530.2 35.6,531.2 		"/>
		<path d="M32.5,525.7l-3.5-0.2l0.1-1.1l3.5,0.2c1.1,0.1,1.8-0.5,1.9-1.4c0.1-1-0.5-1.6-1.6-1.7l-3.5-0.2l0.1-1.1l3.5,0.2
			c1.8,0.1,2.7,1.2,2.6,2.8C35.3,524.8,34.3,525.8,32.5,525.7"/>
		<polygon points="31.4,515.1 30.9,516.9 29.9,516.7 31.2,511.9 32.1,512.1 31.7,514 36.6,515.3 36.4,516.3 		"/>
		<path d="M61.3,563l2.4,0.7c2.5,0.7,3.3,2.3,2.8,4.1l0,0c-0.5,1.8-2.2,2.8-4.7,2.1l-2.3-0.7L61.3,563z M62.4,568.1
			c0.9,0.3,1.7,0.1,1.9-0.8l0,0c0.3-0.9-0.2-1.5-1.2-1.7l-0.3-0.1l-0.7,2.6H62.4z"/>
		<polygon points="70.4,565.2 75.9,565.4 75.8,567.2 72.4,567 72.4,567.7 75.5,567.8 75.4,569.4 72.3,569.2 72.3,569.9 75.7,570.1 
			75.6,571.9 70.1,571.6 		"/>
		<path d="M84,564.4l2.8-0.8c1.6-0.5,3-0.1,3.4,1.4l0,0c0.5,1.5-0.4,2.6-2.1,3.1l-0.7,0.2l0.5,1.7l-2.1,0.6L84,564.4z M87.5,566.7
			c0.5-0.2,0.8-0.5,0.7-0.9l0,0c-0.1-0.4-0.5-0.6-1.1-0.4l-0.6,0.2l0.4,1.4L87.5,566.7z"/>
		<path d="M93.6,560.7l1.9-1.1l5.6,4.3l-2,1.2l-0.7-0.6l-2,1.1l0.1,0.9l-2,1.1L93.6,560.7z M97,563.5l-1.3-1.1L96,564L97,563.5z"/>
		<path d="M99.9,556.7l2.3-2.2c0.8-0.8,1.6-1.1,2.2-1c0.5,0,1,0.2,1.5,0.7l0,0c0.6,0.7,0.7,1.5,0.4,2.3l2.6,0.6l-1.8,1.7l-2.1-0.5
			l0,0l-0.3,0.3l1.3,1.3l-1.6,1.5L99.9,556.7z M104.2,556.9c0.4-0.4,0.4-0.7,0.2-1l0,0c-0.3-0.3-0.7-0.2-1,0.1l-0.7,0.6l0.9,0.9
			L104.2,556.9z"/>
		<rect x="108.4" y="547.8" transform="matrix(0.5912 -0.8065 0.8065 0.5912 -399.6049 313.5594)" width="2.2" height="6.4"/>
		<path d="M114.1,548.4l-0.7-1.6c0.8-0.4,1.3-1,1.7-1.7c0.2-0.3,0.2-0.5,0-0.6l0,0c-0.2-0.1-0.3,0.1-0.8,0.6c-0.9,1.2-1.8,2.1-3,1.5
			l0,0c-1.1-0.5-1.5-1.8-0.8-3.4c0.5-1.1,1.2-1.8,2.1-2.2l0.9,1.6c-0.7,0.4-1.2,0.9-1.4,1.5c-0.1,0.3-0.1,0.5,0,0.5l0,0
			c0.2,0.1,0.3,0,0.7-0.6c1-1.3,1.9-2.1,3.1-1.6l0,0c1.2,0.6,1.5,2,0.7,3.5C116,547.1,115.1,548,114.1,548.4"/>
	</g>
</g>
<g id="Calque_2">
</g>
</svg>
