<?xml version="1.0" encoding="utf-8"?>
<!-- Generator: Adobe Illustrator 23.0.2, SVG Export Plug-In . SVG Version: 6.00 Build 0)  -->
<svg version="1.1" id="Layer_1" xmlns="http://www.w3.org/2000/svg" xmlns:xlink="http://www.w3.org/1999/xlink" x="0px" y="0px"
	 viewBox="0 0 219.5 88.8" style="enable-background:new 0 0 219.5 88.8;" xml:space="preserve">
<title>Layer 6</title>
<g>
	<g id="Layer_6">
		<path d="M39,73.9c-3.2-7.4-6.8-14.8-9.9-22.3c-2.4-5.6-4.8-11.4-7.2-17.1L5.7,73.9H0l21.8-52.2l2.3,5.4c3.2,7.4,6.4,15.1,9.6,22.5
			s7.5,16.8,10.7,24.2L39,73.9z"/>
		<path d="M144.9,73.5c-14.6,0.2-26.6-11.6-26.7-26.1c-0.2-14.6,11.6-26.6,26.1-26.7c14.6-0.2,26.6,11.6,26.7,26.1
			c0,0.1,0,0.2,0,0.3C171.1,61.6,159.4,73.4,144.9,73.5z M144.9,25.7c-11.8-0.2-21.6,9.3-21.7,21.1s9.3,21.6,21.1,21.7
			c11.8,0.2,21.6-9.3,21.7-21.1c0-0.1,0-0.2,0-0.3C166.1,35.4,156.6,25.8,144.9,25.7z"/>
		<path d="M144.9,51.1c-2.2,0-4-1.8-4-4s1.8-4,4-4s4,1.8,4,4S147.1,51.1,144.9,51.1z"/>
		<rect x="184.5" y="19.9" width="5" height="53.6"/>
		<rect x="214.5" y="19.9" width="5" height="53.6"/>
		<rect x="199.5" y="28.6" transform="matrix(0.6368 -0.7711 0.7711 0.6368 36.3133 173.2368)" width="5" height="38.9"/>
		<rect x="55.6" y="17.5" width="5" height="71.3"/>
		<rect x="96.2" y="17.5" width="5" height="71.3"/>
		<path d="M78.4,42.5c0,0-38.4-16-38.4-42.5h5c0,24.4,33.3,37.7,33.3,37.7S111.7,24.4,111.7,0h5C116.7,26.5,78.4,42.5,78.4,42.5z"/>
	</g>
</g>
</svg>
