<svg xmlns="http://www.w3.org/2000/svg" viewBox="0 0 219.52 88.77"><defs><style>.cls-1{fill:#231f20;}</style></defs><title>Layer 6</title><g id="Layer_2" data-name="Layer 2"><g id="Layer_6" data-name="Layer 6"><path class="cls-1" d="M39,73.94c-3.19-7.38-6.8-14.85-9.93-22.3C26.7,46,24.27,40.22,21.85,34.55L5.7,73.94H0l21.77-52.2,2.34,5.41c3.19,7.38,6.43,15.09,9.57,22.55s7.48,16.84,10.67,24.21Z"/><path class="cls-1" d="M144.85,73.53A26.43,26.43,0,1,1,171,47.1,26.32,26.32,0,0,1,144.85,73.53Zm0-47.85A21.43,21.43,0,1,0,166,47.1,21.31,21.31,0,0,0,144.85,25.68Z"/><path class="cls-1" d="M144.85,51.07a4,4,0,1,1,4-4A4,4,0,0,1,144.85,51.07Z"/><rect class="cls-1" x="184.52" y="19.9" width="5" height="53.61"/><rect class="cls-1" x="214.52" y="19.9" width="5" height="53.61"/><rect class="cls-1" x="199.52" y="28.62" width="5" height="38.9" transform="translate(36.32 173.24) rotate(-50.45)"/><rect class="cls-1" x="55.57" y="17.45" width="5" height="71.33"/><rect class="cls-1" x="96.2" y="17.45" width="5" height="71.33"/><path class="cls-1" d="M78.38,42.46S40,26.5,40,0h5c0,24.41,33.35,37.71,33.35,37.71S111.74,24.41,111.74,0h5C116.74,26.5,78.38,42.46,78.38,42.46Z"/></g></g></svg>