<?xml version="1.0" standalone="no"?>
<!DOCTYPE svg PUBLIC "-//W3C//DTD SVG 20010904//EN"
 "http://www.w3.org/TR/2001/REC-SVG-20010904/DTD/svg10.dtd">
<svg version="1.0" xmlns="http://www.w3.org/2000/svg"
 width="403.000000pt" height="403.000000pt" viewBox="0 0 403.000000 403.000000"
 preserveAspectRatio="xMidYMid meet">
<metadata>
Created by potrace 1.14, written by Peter Selinger 2001-2017
</metadata>
<g transform="translate(0.000000,403.000000) scale(0.100000,-0.100000)"
fill="#000000" stroke="none">
<path d="M3739 3364 c-15 -8 -32 -20 -38 -28 -9 -11 -19 -12 -36 -6 -26 10
-45 -6 -89 -78 -15 -23 -61 -84 -104 -135 -194 -232 -564 -692 -684 -852 -156
-208 -409 -469 -457 -471 -53 -3 -52 -3 -41 -24 9 -16 8 -18 -5 -14 -8 4 -15
10 -15 15 0 5 -5 9 -10 9 -6 0 -9 -6 -8 -12 2 -7 -6 -13 -18 -12 -11 0 -21 -5
-21 -12 0 -13 23 -8 46 10 12 9 13 8 8 -6 -3 -10 -1 -20 5 -24 7 -4 8 -3 4 4
-4 7 -2 12 3 12 16 0 13 -16 -6 -31 -9 -8 -14 -9 -10 -3 7 12 -21 29 -31 19
-3 -3 1 -5 8 -5 7 0 10 -3 7 -7 -4 -3 -2 -12 4 -20 9 -10 7 -13 -10 -13 -12 0
-19 4 -16 10 3 5 1 10 -4 10 -6 0 -11 -5 -11 -11 0 -5 -4 -7 -10 -4 -6 4 -7
-1 -4 -12 5 -16 4 -16 -10 1 -9 11 -16 15 -16 9 0 -6 6 -16 14 -22 11 -10 16
-9 24 5 6 11 11 13 16 5 4 -6 2 -11 -5 -11 -8 0 -7 -5 2 -17 13 -16 12 -17 -3
-4 -15 11 -18 11 -18 0 0 -11 -2 -11 -8 -1 -5 7 -19 14 -31 17 -19 4 -21 2
-10 -11 18 -22 10 -23 -61 -8 -36 7 -81 16 -100 19 -53 10 -54 10 -67 18 -7 5
-17 6 -22 2 -6 -3 -14 3 -20 12 -6 10 -11 14 -11 9 0 -6 -10 1 -21 13 -17 18
-28 22 -51 17 -18 -3 -27 -2 -23 4 3 6 2 10 -4 10 -5 0 -12 -6 -14 -12 -3 -8
-6 -7 -6 4 -1 15 -35 35 -53 30 -5 -1 -8 3 -8 9 0 8 -6 7 -17 -2 -14 -12 -16
-12 -11 2 5 12 1 15 -16 12 -16 -3 -23 0 -23 11 0 12 4 13 16 4 9 -6 -1 6 -22
27 -36 35 -40 37 -65 25 -15 -7 -42 -13 -59 -13 -18 0 -31 -3 -28 -7 2 -4 -10
-17 -27 -30 -17 -12 -28 -18 -24 -11 4 6 2 11 -3 11 -6 0 -11 -7 -11 -15 0
-16 -57 -62 -72 -57 -5 1 -7 -2 -3 -8 3 -5 -2 -13 -12 -17 -9 -4 -27 -17 -38
-28 -11 -12 -27 -20 -35 -17 -8 3 -12 1 -8 -3 11 -11 -15 -33 -32 -27 -8 3
-12 2 -8 -3 9 -10 -16 -35 -36 -35 -9 0 -15 -6 -14 -12 2 -7 -5 -12 -14 -12
-10 1 -16 -3 -15 -10 1 -6 -4 -10 -11 -8 -8 1 -11 -2 -7 -7 7 -12 -29 -33 -40
-23 -5 4 -5 2 -1 -5 7 -13 -31 -39 -51 -35 -7 2 -13 -5 -13 -14 0 -20 -61 -75
-74 -67 -5 3 -6 1 -2 -5 7 -12 -33 -44 -46 -36 -5 3 -7 0 -6 -7 2 -7 -7 -18
-20 -24 -12 -7 -26 -16 -30 -20 -4 -5 -1 -5 7 0 9 5 12 4 7 -3 -4 -6 -14 -8
-23 -5 -11 4 -14 3 -9 -5 4 -7 1 -12 -8 -12 -8 0 -18 -5 -22 -12 -5 -7 -2 -8
7 -3 8 4 -4 -11 -26 -34 -40 -42 -52 -51 -39 -28 4 6 -4 0 -19 -16 -14 -15
-31 -27 -37 -27 -6 0 -15 -12 -21 -26 -5 -15 -12 -24 -15 -21 -3 2 -16 -6 -29
-19 -15 -15 -31 -22 -42 -18 -15 5 -15 4 -3 -5 8 -5 12 -12 10 -14 -110 -85
-146 -133 -149 -199 -2 -45 8 -49 114 -44 41 1 73 -2 78 -8 5 -8 10 -7 16 3 5
8 10 9 12 2 2 -5 19 -11 37 -13 17 -1 32 -6 32 -11 0 -5 6 -7 14 -4 7 3 19 0
25 -6 6 -6 11 -8 11 -5 0 3 24 0 53 -9 73 -20 198 -53 223 -58 11 -3 129 -32
261 -64 132 -33 252 -62 266 -65 15 -2 30 -7 35 -10 8 -5 32 -11 87 -22 17 -3
40 -10 53 -15 12 -5 32 -13 45 -18 12 -5 45 -14 72 -21 28 -6 58 -13 69 -17
13 -4 17 -1 12 8 -4 8 -1 5 8 -5 12 -15 19 -16 29 -8 8 7 17 9 20 5 4 -3 7 -2
7 4 0 6 25 23 55 38 30 16 55 31 55 34 0 3 -28 21 -63 40 -61 34 -149 89 -313
197 -64 42 -115 65 -235 104 -85 28 -172 59 -194 70 -22 11 -41 16 -43 10 -2
-5 -15 2 -29 16 -24 24 -26 25 -47 7 -11 -10 -18 -14 -13 -9 10 13 -32 56 -55
56 -10 0 -18 5 -18 10 0 6 -14 10 -32 10 l-31 0 19 -22 19 -23 -23 19 c-16 14
-20 25 -16 40 6 18 5 19 -10 7 -9 -7 -16 -9 -16 -3 0 5 7 12 15 16 8 3 15 10
15 16 0 35 211 236 237 226 8 -3 11 -1 8 4 -3 5 9 24 27 40 18 17 47 44 63 61
30 28 32 28 50 11 18 -16 18 -16 6 0 -17 22 -6 52 15 44 8 -3 12 -2 9 4 -8 12
23 58 48 71 12 7 17 7 13 1 -3 -5 1 -13 10 -16 25 -10 27 -7 13 12 -13 16 -12
16 4 3 18 -14 18 -15 1 -28 -17 -13 -17 -13 6 -11 14 2 28 7 32 13 4 5 10 7
13 3 3 -3 -1 -13 -10 -22 -9 -9 -12 -16 -6 -16 6 0 14 0 19 0 4 0 7 5 7 10 0
6 5 9 10 8 6 -2 9 -8 9 -15 -1 -6 5 -9 12 -6 8 3 11 10 7 16 -3 6 -1 7 5 3 6
-4 9 -13 5 -21 -7 -19 2 -19 21 1 14 13 16 13 16 1 0 -9 -5 -17 -12 -19 -7 -3
-5 -7 6 -11 9 -4 15 -3 12 2 -3 5 1 12 10 15 22 9 24 8 24 -9 0 -8 -4 -15 -8
-15 -5 0 -9 -7 -9 -16 0 -10 8 -6 24 13 22 25 23 26 18 6 -5 -17 -2 -23 10
-23 10 0 13 5 9 13 -5 8 -3 8 9 -2 16 -13 14 -36 -3 -26 -5 3 -12 0 -16 -7 -4
-7 -4 -10 1 -6 4 4 14 3 21 -3 10 -9 15 -7 20 5 3 9 13 16 21 16 8 0 11 5 8
10 -3 6 -1 10 4 10 14 0 14 -13 -1 -28 -6 -6 -9 -14 -6 -17 3 -3 13 1 22 10
14 15 20 12 17 -7 0 -4 7 -5 17 -2 14 5 14 3 -2 -10 -11 -9 -15 -16 -9 -16 7
0 15 5 18 10 3 6 11 10 17 10 6 0 5 -7 -3 -17 -13 -16 -12 -17 4 -4 9 7 17 20
17 27 0 8 4 14 10 14 5 0 6 -8 3 -17 -6 -15 -4 -16 8 -6 12 10 18 10 27 1 9
-9 12 -9 12 0 0 7 5 12 12 12 9 0 9 -3 0 -12 -15 -15 -16 -62 -2 -53 6 4 8 11
5 16 -4 5 -1 9 5 9 6 0 9 4 6 8 -3 5 1 9 9 9 8 0 12 -4 9 -8 -2 -4 -1 -9 3
-12 5 -2 2 -2 -6 0 -11 3 -11 0 -3 -10 7 -8 9 -17 5 -20 -3 -4 -3 -7 1 -7 4 0
14 7 22 15 9 8 21 15 27 15 8 0 7 -4 -1 -12 -17 -17 -15 -39 3 -32 8 4 13 10
10 14 -3 5 -1 11 4 15 6 3 8 -5 5 -19 -2 -15 1 -26 12 -30 8 -3 12 -2 9 4 -3
6 -2 10 3 10 17 0 21 -13 10 -34 -10 -19 -10 -20 6 -7 10 8 15 23 13 33 -3 10
-1 15 4 12 11 -7 41 15 35 25 -3 4 5 8 17 8 20 2 20 1 4 -8 -9 -6 -15 -14 -12
-20 4 -5 0 -9 -8 -9 -19 0 -31 -30 -17 -44 7 -6 10 -7 8 -1 -2 6 1 11 6 12 5
0 13 8 18 17 5 9 13 16 19 16 5 0 1 -12 -8 -27 -10 -15 -12 -24 -5 -20 6 5 12
4 12 -2 0 -6 -8 -11 -17 -12 -13 0 -14 -2 -4 -6 13 -5 60 42 60 62 1 6 -3 4
-8 -3 -6 -10 -10 -7 -13 12 -3 17 1 30 11 38 14 11 14 11 3 -4 -9 -11 -10 -17
-2 -20 7 -2 15 -19 19 -38 6 -32 9 -34 49 -36 25 -1 42 3 42 10 0 6 4 5 9 -3
6 -9 11 -10 15 -2 4 6 12 11 18 11 6 0 9 -3 5 -6 -3 -3 4 -17 15 -30 15 -17
25 -21 34 -13 13 11 7 49 -8 49 -6 0 -8 -7 -5 -15 4 -8 1 -17 -5 -21 -6 -4 -8
-3 -4 4 3 6 1 14 -5 18 -17 10 12 25 35 18 12 -4 16 -2 12 5 -5 7 -1 9 9 5 14
-6 14 -8 0 -18 -9 -7 -12 -16 -6 -25 6 -9 11 -10 15 -2 4 6 1 11 -6 11 -9 0
-9 3 2 10 11 7 17 4 23 -8 4 -10 5 -6 2 11 -4 21 -2 27 6 21 8 -4 9 -3 5 5 -4
6 -11 9 -15 7 -4 -3 -13 0 -21 5 -13 9 -13 10 0 8 29 -3 41 1 38 14 -2 14 30
78 67 133 13 20 22 41 18 48 -3 6 -3 8 2 4 12 -11 38 29 29 45 -4 6 -4 9 1 5
10 -9 21 4 70 77 22 33 44 64 48 70 4 5 30 42 57 80 69 98 68 97 166 230 49
66 93 125 99 131 5 7 19 24 30 40 25 34 152 204 198 264 51 66 347 489 347
495 0 6 11 20 38 50 6 7 12 18 12 24 0 6 5 11 11 11 6 0 9 7 5 15 -3 8 0 14 7
12 7 -1 11 6 9 16 -2 10 3 16 10 15 8 -2 12 4 10 15 -2 9 2 16 9 15 8 -2 13
11 13 35 1 20 6 37 11 36 6 -1 9 -6 7 -12 -2 -6 4 -5 12 2 14 12 14 16 1 34
-8 12 -15 25 -15 29 0 7 31 3 53 -7 6 -3 1 2 -12 12 -25 18 -74 27 -65 11 3
-4 10 -5 16 -2 7 4 8 2 4 -4 -10 -16 -38 -2 -34 17 2 9 12 15 23 14 11 -1 14
0 7 3 -6 3 -10 10 -6 15 3 5 0 9 -6 9 -7 0 -9 12 -6 30 2 17 4 30 3 29 -1 -1
-14 -7 -28 -15z m43 -134 c1 5 9 0 17 -12 12 -20 12 -21 0 -11 -11 9 -19 8
-33 -3 -15 -10 -16 -14 -5 -15 11 0 11 -2 0 -6 -8 -3 -9 -8 -3 -12 6 -4 3 -15
-9 -30 -10 -13 -19 -18 -19 -13 0 6 5 14 10 17 15 9 12 27 -2 19 -7 -4 -10 -4
-6 1 4 4 3 14 -3 22 -6 7 -9 14 -5 14 3 1 11 3 16 4 6 1 15 3 20 4 7 1 7 8 0
24 -10 20 -10 21 3 4 9 -10 17 -13 19 -7z m-1454 -1457 c-6 -7 -12 -13 -13
-13 -2 0 -5 6 -8 13 -3 7 3 13 14 13 13 0 15 -3 7 -13z m-499 -63 c10 -5 22
-17 25 -27 6 -14 2 -13 -17 5 -13 12 -27 19 -30 15 -4 -3 -7 -1 -7 5 0 15 6
15 29 2z m349 -85 c-3 -3 -9 2 -12 12 -6 14 -5 15 5 6 7 -7 10 -15 7 -18z
m-282 -194 c1 -6 0 -7 -2 -2 -3 6 -12 7 -20 4 -8 -3 -14 -1 -14 5 0 14 33 8
36 -7z m199 -40 c-9 -8 -36 -10 -30 -2 2 4 11 8 20 8 8 0 13 -3 10 -6z m7 -63
c-8 -8 -9 -4 -5 13 4 13 8 18 11 10 2 -7 -1 -18 -6 -23z m128 -32 c0 -3 -4 -8
-10 -11 -5 -3 -10 -1 -10 4 0 6 5 11 10 11 6 0 10 -2 10 -4z m-1163 -268 c-3
-8 -6 -5 -6 6 -1 11 2 17 5 13 3 -3 4 -12 1 -19z"/>
<path d="M3810 3317 c0 -16 21 -47 33 -47 8 0 9 3 1 8 -6 4 -16 16 -22 27 -6
11 -12 16 -12 12z"/>
<path d="M3815 3230 c3 -5 8 -10 11 -10 2 0 4 5 4 10 0 6 -5 10 -11 10 -5 0
-7 -4 -4 -10z"/>
<path d="M1423 1837 c4 -10 2 -17 -5 -17 -6 0 -9 -3 -5 -6 3 -3 12 -2 20 3 13
7 13 10 -1 23 -14 13 -15 12 -9 -3z"/>
<path d="M1470 1550 c0 -5 7 -10 16 -10 8 0 12 5 9 10 -3 6 -10 10 -16 10 -5
0 -9 -4 -9 -10z"/>
<path d="M1935 1401 c-3 -6 -11 -9 -16 -6 -5 4 -9 1 -9 -4 0 -6 6 -11 14 -11
16 0 31 18 23 26 -3 3 -8 0 -12 -5z"/>
<path d="M1910 1359 c0 -5 5 -7 10 -4 6 3 10 8 10 11 0 2 -4 4 -10 4 -5 0 -10
-5 -10 -11z"/>
<path d="M734 1247 c-3 -9 -12 -13 -20 -10 -15 6 -20 -12 -5 -21 10 -7 47 32
38 40 -4 4 -9 0 -13 -9z"/>
<path d="M2390 1235 c0 -8 4 -15 10 -15 5 0 7 7 4 15 -4 8 -8 15 -10 15 -2 0
-4 -7 -4 -15z"/>
<path d="M580 1111 c0 -7 -5 -9 -12 -5 -7 5 -8 3 -3 -5 5 -9 10 -10 18 -2 6 6
8 14 4 18 -4 3 -7 1 -7 -6z"/>
<path d="M2365 1083 c-32 -8 -42 -20 -54 -66 -9 -29 -18 -43 -31 -44 -10 -1
-42 -12 -71 -24 l-52 -23 29 -12 c16 -7 50 -20 76 -29 48 -18 58 -32 58 -90 0
-16 11 -43 23 -59 19 -24 32 -29 73 -32 27 -1 90 -13 139 -27 118 -34 176 -40
255 -28 55 8 71 7 105 -9 68 -31 115 -43 115 -30 0 4 -20 35 -44 67 -41 56
-43 62 -38 112 4 47 1 57 -29 99 -18 26 -42 54 -53 62 -82 61 -211 107 -336
120 -47 5 -98 11 -115 14 -16 2 -39 2 -50 -1z"/>
<path d="M1155 1010 c3 -5 8 -10 11 -10 2 0 4 5 4 10 0 6 -5 10 -11 10 -5 0
-7 -4 -4 -10z"/>
</g>
</svg>
